<svg width="638" height="341" viewBox="0 0 638 341" fill="none" xmlns="http://www.w3.org/2000/svg">
<path opacity="0.4" d="M493.832 193.936C493.92 200.164 492.867 206.48 490.762 212.708C487.166 223.146 480.674 233.234 471.464 242.269C456.464 257.093 434.623 269.11 407.518 275.251C404.272 275.952 401.027 276.654 397.606 277.18C381.904 279.812 365.852 283.058 350.238 286.04C349.537 286.215 348.923 286.303 348.309 286.391C347.431 286.566 346.554 286.742 345.677 286.917C339.712 288.057 333.835 289.11 328.133 290.163C327.958 290.163 327.87 290.163 327.695 290.25C322.607 291.128 317.52 291.917 312.695 292.619C292.959 295.338 275.854 296.04 263.749 292.18C254.714 289.285 248.574 283.935 246.117 274.987C245.416 272.268 244.977 269.198 244.977 265.865C244.977 257.795 238.135 249.725 229.802 241.216C225.942 237.269 221.82 233.234 217.872 229.111C208.574 219.375 200.592 208.936 200.767 197.357C200.767 197.27 200.767 197.182 200.767 197.094C200.943 192.708 202.259 188.235 205.066 183.498C205.943 182.007 206.995 180.516 208.223 179.024C209.276 177.709 210.329 176.393 211.557 175.077C213.223 173.235 215.153 171.305 217.171 169.463C222.96 164.112 229.977 158.762 237.784 153.499C245.503 148.323 254.012 143.236 262.872 138.411C281.117 128.499 300.853 119.64 318.309 113.148C322.081 111.745 325.765 110.429 329.362 109.289C342.87 104.903 354.273 102.271 361.291 102.271C363.747 102.271 366.203 102.359 368.659 102.447C371.641 102.535 374.624 102.798 377.518 103.061C381.027 103.412 384.448 103.85 387.869 104.377C389.799 104.64 391.641 104.991 393.571 105.342C398.132 106.219 402.518 107.271 406.904 108.499C408.22 108.85 409.448 109.201 410.676 109.64C415.5 111.131 420.149 112.885 424.623 114.815C427.693 116.131 430.763 117.534 433.658 119.026C457.166 131.043 475.762 149.025 487.516 170.867C491.727 178.235 493.744 186.042 493.832 193.936Z" fill="url(#paint0_linear_289:13105)"/>
<path opacity="0.4" d="M288.398 46.1323C270.152 46.1323 205.68 78.4124 192.084 104.201C179.189 128.587 216.645 145.955 216.645 163.06C216.645 198.41 266.117 179.726 310.766 171.218C355.414 162.621 379.975 124.64 366.291 95.1665C352.607 65.6056 323.836 46.1323 288.398 46.1323Z" fill="url(#paint1_linear_289:13105)"/>
<path d="M291.204 269.725L307.958 211.042C309.449 205.691 306.467 199.989 302.169 199.989H212.697C209.276 199.989 206.557 203.673 206.557 208.147V266.479C206.557 271.04 209.364 274.637 212.785 274.637C228.837 274.461 271.468 274.198 285.239 274.988C287.871 275.163 290.327 272.97 291.204 269.725Z" fill="#36255A"/>
<path d="M219.539 199.463H196.732C194.627 199.463 192.96 197.796 192.96 195.691V188.235C192.96 186.13 194.627 184.463 196.732 184.463H219.539C221.644 184.463 223.311 186.13 223.311 188.235V195.691C223.398 197.796 221.644 199.463 219.539 199.463Z" stroke="#36255A" stroke-miterlimit="10" stroke-linecap="round"/>
<path d="M291.818 221.217V267.005C291.818 272.005 288.66 276.04 284.713 276.04H193.048C189.101 276.04 185.943 272.005 185.943 267.005V197.709C185.943 192.709 189.101 188.674 193.048 188.674H222.17C222.697 188.674 223.223 188.761 223.749 188.849C226.118 189.551 227.96 191.656 228.837 194.463C229.1 195.428 229.275 196.48 229.275 197.621V203.147C229.275 208.147 232.433 212.182 236.381 212.182H284.888C288.66 212.182 291.818 216.217 291.818 221.217Z" fill="#73678C"/>
<path d="M260.678 152.709C260.591 153.148 260.678 152.709 265.327 159.99C265.152 159.902 259.362 154.99 259.713 156.394C260.152 158.148 263.573 162.271 263.836 162.621C263.485 162.358 259.187 158.85 259.538 159.99C259.889 161.13 270.503 172.884 270.503 172.884L273.134 177.446C273.66 178.235 274.099 178.937 274.625 179.726C275.327 180.779 276.029 181.832 276.731 182.884C277.783 184.463 278.836 185.867 279.888 187.27L282.432 191.042C312.081 235.866 331.116 237.971 333.308 237.269C335.677 237.269 340.677 229.813 346.466 218.761L335.589 212.445L335.414 212.357L329.975 209.2C329.887 209.375 329.8 209.55 329.712 209.726C328.835 211.656 327.958 213.498 326.993 215.077C309.449 202.007 297.958 189.902 288.134 178.586C287.432 177.797 286.73 176.919 286.029 176.218C285.151 175.165 284.362 174.2 283.573 173.323C282.783 172.446 282.081 171.569 281.467 170.867C280.941 170.165 280.327 169.551 279.801 168.849C278.748 167.621 278.134 166.92 278.134 166.832L272.959 160.692C272.959 160.692 264.713 151.394 264.099 152.446C263.573 153.499 267.257 158.674 267.345 158.85C267.345 158.85 260.941 151.569 260.678 152.709Z" fill="#FCC9A7"/>
<path d="M423.699 138.971L420.85 171.218L401.289 169.463L402.956 151.043C403.833 151.306 404.71 151.481 405.587 151.569C413.043 152.095 419.927 146.953 423.699 138.971Z" fill="#FCC9A7"/>
<path d="M428.866 138.935C426.251 138.214 423.637 139.025 423.637 139.025L424.449 130.371C424.629 130.551 424.899 130.641 425.17 130.731C426.792 131.362 428.685 130.641 430.038 129.109C430.038 129.109 428.866 135.059 430.038 135.599C431.21 136.14 431.48 139.656 428.866 138.935Z" fill="#9B92AD"/>
<path d="M425.562 120.56L423.699 139.068C419.891 147.127 413.075 152.441 405.548 151.732C404.662 151.644 403.841 151.43 402.955 151.165L405.814 118.789L425.562 120.56Z" fill="#F4BE9A"/>
<path d="M425.431 124.16C426.662 110.603 419.252 98.8485 408.879 97.9064C398.506 96.9643 389.098 107.191 387.867 120.748C386.636 134.305 394.047 146.06 404.42 147.002C414.793 147.944 424.2 137.717 425.431 124.16Z" fill="#FCC9A7"/>
<path d="M431.465 126.92C432.517 123.938 431.552 120.78 429.272 119.903C426.991 119.026 424.184 120.868 423.044 123.85C422.956 124.201 422.781 124.552 422.781 124.903C410.062 119.815 406.641 109.026 406.641 109.026C406.641 109.026 414.36 95.8682 427.693 99.4647C440.587 103.061 432.166 125.254 431.465 126.92Z" fill="#9B92AD"/>
<path d="M431.464 126.92C431.464 127.008 431.464 127.008 431.464 127.008C431.113 127.973 430.587 128.762 429.973 129.464C428.657 130.955 426.815 131.569 425.236 131.043C424.973 130.955 424.71 130.868 424.535 130.692C422.956 129.64 422.254 127.359 422.78 124.991C422.868 124.64 422.956 124.289 423.043 123.938C424.184 120.868 426.991 119.114 429.271 119.991C431.64 120.78 432.605 123.85 431.464 126.92Z" fill="#FCC9A7"/>
<path d="M407.78 112.184C398.219 115.956 388.132 114.815 381.991 108.938C376.816 103.938 373.307 94.4648 376.816 89.114C378.483 86.6579 381.027 85.8685 381.641 85.693C382.869 85.3422 384.097 85.2544 385.237 85.4299C390.061 86.1316 394.009 90.3421 394.184 90.5175C396.991 93.5876 396.026 94.9911 397.956 95.8683C402.43 98.0612 407.605 90.5175 414.008 92.6227C414.535 92.7982 416.64 93.4999 417.517 95.2543C419.535 99.0261 415.763 105.78 407.78 112.184Z" fill="#9B92AD"/>
<path opacity="0.4" d="M407.78 112.184C398.219 115.956 388.132 114.815 381.991 108.938C376.816 103.938 373.307 94.4648 376.816 89.114C378.483 86.6579 381.027 85.8685 381.641 85.693C382.869 85.3422 384.097 85.2544 385.237 85.4299C384.623 87.4474 383.307 89.8158 381.29 92.4473C373.483 102.623 407.78 112.184 407.78 112.184Z" fill="url(#paint2_linear_289:13105)"/>
<path d="M390.5 133.587C393.988 133.587 396.816 130.759 396.816 127.271C396.816 123.783 393.988 120.956 390.5 120.956C387.012 120.956 384.185 123.783 384.185 127.271C384.185 130.759 387.012 133.587 390.5 133.587Z" stroke="#36255A" stroke-miterlimit="10" stroke-linecap="round"/>
<path d="M408.921 135.166C412.845 135.166 416.026 131.985 416.026 128.061C416.026 124.137 412.845 120.956 408.921 120.956C404.996 120.956 401.815 124.137 401.815 128.061C401.815 131.985 404.996 135.166 408.921 135.166Z" stroke="#36255A" stroke-miterlimit="10" stroke-linecap="round"/>
<path d="M396.816 127.271C396.816 127.271 399.36 124.815 401.816 127.271" stroke="#36255A" stroke-miterlimit="10" stroke-linecap="round"/>
<path d="M502.779 206.129L498.217 208.673L495.235 210.34L490.849 212.708L487.253 214.726L487.077 214.813L482.428 217.357L481.639 217.796L474.621 221.655L470.586 223.848L471.639 242.269C456.639 257.093 434.797 269.111 407.693 275.251C404.447 275.953 401.202 276.654 397.781 277.181C382.079 279.812 366.027 283.058 350.413 286.04L354.009 224.462L354.097 223.761L343.045 217.708L342.255 217.269L337.606 214.726L337.431 214.638L326.466 208.585L321.905 206.042C322.256 205.515 322.694 204.901 323.045 204.287C323.484 203.673 323.835 203.059 324.273 202.445C325.063 201.217 326.028 199.989 326.992 198.673C327.343 198.235 327.694 197.796 327.957 197.358C328.045 197.27 328.133 197.182 328.22 197.094C328.308 196.919 328.484 196.744 328.571 196.568C329.01 196.042 329.361 195.515 329.799 194.989C330.677 193.937 331.554 192.796 332.519 191.744C339.185 184.024 348.396 173.323 363.395 165.955C368.132 163.586 372.869 161.92 377.342 160.779C383.746 159.376 389.535 158.762 394.535 158.411C397.342 158.235 399.798 158.235 401.903 158.235C402.079 158.235 402.342 158.235 402.517 158.235C402.517 158.235 402.78 158.499 403.219 158.937C404.623 160.253 407.956 162.709 412.166 162.621H412.429C416.64 162.709 419.973 160.253 421.377 158.937C421.815 158.499 422.078 158.235 422.078 158.235C422.254 158.235 422.517 158.235 422.692 158.235C424.622 158.235 426.903 158.235 429.359 158.411C434.446 158.674 440.499 159.376 447.253 160.779C451.727 162.007 456.464 163.674 461.2 165.955C476.112 173.323 485.41 184.024 492.077 191.744C492.691 192.445 493.305 193.235 493.919 193.937C494.182 194.287 494.533 194.638 494.796 194.989C495.235 195.515 495.673 196.042 496.024 196.568C496.2 196.831 496.463 197.094 496.638 197.358C496.989 197.796 497.34 198.235 497.691 198.673C498.656 199.989 499.621 201.305 500.41 202.445C500.849 203.059 501.287 203.673 501.638 204.287C501.989 204.989 502.428 205.603 502.779 206.129Z" fill="#49D1FF"/>
<path d="M362.343 198.586L354.799 219.462" stroke="#36255A" stroke-miterlimit="10" stroke-linecap="round"/>
<path d="M468.744 219.901L462.166 205.866" stroke="#36255A" stroke-miterlimit="10" stroke-linecap="round"/>
<path d="M393.482 213.497C393.482 213.497 397.956 206.48 406.552 207.006C406.552 207.006 404.008 214.375 393.482 213.497Z" fill="#36255A"/>
<path d="M381.728 209.287C381.728 209.287 374.272 205.515 373.921 197.007C373.921 197.007 381.553 198.673 381.728 209.287Z" fill="white"/>
<path d="M450.937 205.866C450.937 205.866 451.112 197.533 458.656 193.498C458.656 193.498 460.411 201.129 450.937 205.866Z" fill="white"/>
<path d="M429.447 229.199C429.447 229.199 421.991 225.427 421.64 216.919C421.64 216.831 429.271 218.585 429.447 229.199Z" stroke="white" stroke-miterlimit="10"/>
<path d="M357.255 178.498C357.255 178.498 361.027 171.13 369.623 170.779C369.535 170.779 367.781 178.41 357.255 178.498Z" stroke="white" stroke-miterlimit="10"/>
<path d="M396.64 177.796C396.64 177.796 398.482 185.954 392.079 191.656C392.079 191.568 388.57 184.638 396.64 177.796Z" fill="#36255A"/>
<path d="M411.289 195.077C411.289 195.077 419.184 192.446 425.499 198.235C425.499 198.235 418.92 202.445 411.289 195.077Z" fill="white"/>
<path d="M380.149 232.269C380.149 232.269 383.921 224.901 392.518 224.55C392.518 224.55 390.676 232.094 380.149 232.269Z" stroke="white" stroke-miterlimit="10"/>
<path d="M445.236 187.182C445.236 187.182 436.99 186.393 433.481 178.586C433.481 178.586 441.288 177.358 445.236 187.182Z" fill="#36255A"/>
<path d="M342.343 194.989C342.343 194.989 350.501 196.393 353.395 204.463C353.483 204.463 345.676 205.077 342.343 194.989Z" fill="#36255A"/>
<path d="M476.2 206.831C476.2 206.831 473.568 198.936 479.358 192.621C479.358 192.621 483.568 199.287 476.2 206.831Z" stroke="white" stroke-miterlimit="10"/>
<path d="M394.623 270.514C394.623 270.514 399.097 263.497 407.693 264.023C407.693 264.023 405.149 271.391 394.623 270.514Z" fill="#36255A"/>
<path d="M378.834 255.251C378.834 255.251 371.378 251.479 371.027 242.971C371.027 242.971 378.658 244.725 378.834 255.251Z" fill="white"/>
<path d="M416.201 256.479C416.201 256.479 424.096 253.848 430.411 259.637C430.411 259.637 423.833 263.847 416.201 256.479Z" fill="white"/>
<path d="M362.781 263.935C362.781 263.935 370.939 265.339 373.834 273.409C373.834 273.409 366.027 274.023 362.781 263.935Z" fill="#36255A"/>
<path d="M393.834 249.462C394.185 249.725 393.834 249.462 402.518 249.287C402.343 249.374 395.15 251.83 396.553 252.269C398.22 252.795 403.571 252.006 404.009 251.918C403.571 252.094 398.395 253.936 399.536 254.199C400.676 254.462 416.202 251.479 416.202 251.479L421.553 251.567C422.43 251.567 423.395 251.479 424.272 251.479C425.588 251.392 426.816 251.392 428.044 251.304C429.886 251.216 431.728 251.041 433.483 250.865L438.044 250.69C491.727 248.585 503.393 233.322 503.92 231.129C505.148 229.111 501.376 221.041 494.973 210.252L484.008 216.305L483.832 216.392L478.394 219.375C478.482 219.55 478.657 219.726 478.745 219.813C479.973 221.568 481.025 223.322 481.99 224.901C461.728 233.059 445.412 236.655 430.588 239.199C429.535 239.374 428.483 239.55 427.43 239.725C426.114 239.901 424.886 240.164 423.658 240.339C422.518 240.515 421.465 240.69 420.5 240.866C419.623 241.041 418.834 241.129 417.957 241.304C416.378 241.567 415.413 241.743 415.325 241.743L407.43 242.971C407.43 242.971 395.15 245.164 395.764 246.216C396.378 247.181 402.694 246.743 402.869 246.743C402.518 246.918 392.957 248.673 393.834 249.462Z" fill="#FCC9A7"/>
<path d="M423.483 240.515L424.272 251.48C425.588 251.392 426.816 251.392 428.044 251.304L427.255 239.901C425.939 240.164 424.711 240.339 423.483 240.515Z" fill="#36255A"/>
<path d="M423.834 250.427L428.658 250.076C429.535 249.988 430.149 249.287 430.062 248.41L429.623 242.532C429.535 241.655 428.834 241.041 427.957 241.129L423.132 241.48C422.255 241.568 421.641 242.269 421.729 243.146L422.167 249.024C422.343 249.901 423.044 250.515 423.834 250.427Z" fill="#36255A" stroke="white" stroke-miterlimit="10"/>
<path d="M347.87 108.483C347.885 112.358 347.383 116.217 346.378 119.959C345.718 122.444 344.834 124.864 343.739 127.189C340.793 133.471 336.394 138.961 330.907 143.206C325.419 147.452 319 150.33 312.18 151.604H311.95C309.33 152.101 306.67 152.35 304.003 152.35C294.526 152.348 285.304 149.27 277.725 143.58C270.146 137.889 264.619 129.892 261.973 120.791C261.686 119.787 261.428 118.783 261.198 117.75C259.38 109.282 260.117 100.465 263.314 92.4162C266.511 84.3671 272.025 77.4479 279.158 72.5352C281.155 71.1366 283.278 69.9264 285.498 68.9203L286.388 68.5186L288.396 67.6866C293.241 65.8228 298.382 64.8508 303.573 64.8176H306.241C310.429 65.0237 314.565 65.8354 318.52 67.2276L319.238 67.4858C327.618 70.5893 334.851 76.1785 339.968 83.5052C345.085 90.832 347.842 99.5468 347.87 108.483Z" fill="#E2F8FF"/>
<path d="M284.363 76.7086C284.578 76.9183 284.846 77.0669 285.138 77.139C285.742 77.2748 286.369 77.2748 286.974 77.139C292.109 76.4504 296.355 71.6879 299.999 75.3889L300.171 75.561C301.367 77.1253 302.14 78.9709 302.417 80.9204C302.693 82.8699 302.463 84.8577 301.749 86.6927C300.799 89.2911 298.889 91.4267 296.413 92.6602C293.932 93.929 291.69 95.618 289.785 97.6522C285.367 102.357 284.047 108.382 295.036 110.735C295.585 110.851 296.141 110.937 296.7 110.993C296.354 113.746 296.46 116.537 297.015 119.256C297.36 121.218 298.446 122.973 300.048 124.158C301.649 125.343 303.645 125.868 305.622 125.625C309.356 125.655 313.027 124.663 316.237 122.756L306.225 106.288C325.303 113.518 334.168 101.583 335.144 100.148C334.27 100.008 333.437 99.6782 332.704 99.1827C331.97 98.6872 331.354 98.0375 330.898 97.2792C328.268 92.314 326.097 87.1187 324.414 81.758C323.008 77.6841 321.832 74.0118 321.287 72.2043C321.134 71.6973 321 71.5445 320.828 71.2002C317.643 64.6589 312.508 59.1792 304.245 60.2981C297.603 61.0461 291.471 64.2241 287.031 69.2206C286.063 70.2943 285.225 71.4789 284.535 72.7495C284.535 72.7495 283.101 75.5037 284.363 76.7086Z" fill="#36255A"/>
<path d="M331.549 101.925C334.29 101.925 336.513 99.7027 336.513 96.9615C336.513 94.2203 334.29 91.9982 331.549 91.9982C328.808 91.9982 326.586 94.2203 326.586 96.9615C326.586 99.7027 328.808 101.925 331.549 101.925Z" fill="#36255A"/>
<path d="M291.795 106.574C293.69 105.718 295.79 105.419 297.848 105.714L293.861 108.583L291.795 106.574Z" fill="white"/>
<path d="M309.61 95.7015L307.487 119.141L293.142 117.85L294.376 104.423C294.994 104.598 295.629 104.714 296.269 104.767C301.778 105.255 306.856 101.526 309.61 95.7015Z" fill="#FCC9A7"/>
<path d="M310.815 82.3036L309.568 96.0351C306.699 101.773 302.304 105.982 296.881 105.494C296.241 105.44 294.945 104.943 294.326 104.768L296.585 81.0126L310.815 82.3036Z" fill="#F4BE9A"/>
<path d="M312.221 106.89V151.617H311.992C309.372 152.114 306.711 152.363 304.045 152.363C294.567 152.361 285.346 149.283 277.767 143.593C270.188 137.902 264.66 129.905 262.014 120.804C265.346 116.971 269.304 113.731 273.72 111.222C276.982 109.628 280.393 108.36 283.904 107.435C284.995 107.177 286.114 106.947 287.29 106.775C289.19 106.449 291.105 106.219 293.028 106.086V106.086C293.377 106.466 293.761 106.812 294.175 107.119C294.423 107.324 294.682 107.516 294.95 107.693C296.733 108.921 298.857 109.554 301.021 109.503C303.185 109.451 305.278 108.718 307 107.406C307.35 107.189 307.685 106.95 308.004 106.689L308.635 106.201H308.778C309.238 106.316 310.471 106.517 312.221 106.89Z" fill="#49D1FF"/>
<path d="M343.694 127.203C340.748 133.484 336.349 138.975 330.862 143.22C325.374 147.465 318.955 150.344 312.135 151.618H311.905C311.905 142.552 311.905 133.514 312.049 124.448C312.049 121.579 312.049 118.71 312.049 115.841C312.049 112.972 312.049 110.448 312.049 107.751V106.804C313.282 107.148 314.918 107.608 316.897 108.296L318.906 109.042C325.563 111.556 331.78 115.11 337.324 119.571C339.83 121.77 341.978 124.344 343.694 127.203V127.203Z" fill="#49D1FF"/>
<path d="M310.763 84.8723C311.66 74.994 306.657 66.4656 299.587 65.8234C292.518 65.1813 286.059 72.6687 285.162 82.547C284.265 92.4252 289.269 100.954 296.338 101.596C303.407 102.238 309.866 94.7506 310.763 84.8723Z" fill="#FCC9A7"/>
<path d="M315.234 86.8649C315.018 87.4236 314.718 87.9461 314.345 88.4142L314.172 88.6437C313.768 89.1509 313.223 89.5275 312.605 89.7265C311.988 89.9255 311.326 89.9381 310.701 89.7626C310.513 89.7117 310.338 89.6239 310.185 89.5044C309.571 88.8648 309.147 88.0677 308.96 87.2016C308.773 86.3355 308.829 85.4344 309.123 84.5985C309.369 83.6313 309.975 82.795 310.818 82.2614C311.661 81.7278 312.677 81.5374 313.656 81.7295C314.538 82.21 315.196 83.0162 315.491 83.9759C315.786 84.9355 315.694 85.9724 315.234 86.8649V86.8649Z" fill="#FCC9A7"/>
<path d="M313.197 80.7827C307.918 85.8321 304.849 79.5203 302.639 76.8522C302.378 76.4477 302.008 76.1254 301.571 75.9223C301.135 75.7193 300.65 75.6438 300.172 75.7046C298.652 75.9054 296.672 77.1965 292.741 77.9711C290.2 78.578 287.53 78.3361 285.139 77.2825C284.867 77.153 284.608 76.9994 284.364 76.8235C283.102 75.6185 284.594 72.7209 284.594 72.7209C285.299 71.4513 286.136 70.259 287.09 69.1633C288.062 68.0327 289.138 66.9954 290.303 66.0648C290.741 65.8876 291.192 65.7438 291.651 65.6345L300 62.7655L308.205 65.4337C308.205 65.4337 318.476 75.7333 313.197 80.7827Z" fill="#36255A"/>
<path d="M311.36 91.2832C312.153 91.2832 312.795 90.6409 312.795 89.8487C312.795 89.0564 312.153 88.4142 311.36 88.4142C310.568 88.4142 309.926 89.0564 309.926 89.8487C309.926 90.6409 310.568 91.2832 311.36 91.2832Z" fill="white"/>
<path d="M164.648 142.187C164.643 143.542 164.465 144.889 164.117 146.198C163.237 149.55 161.25 152.506 158.478 154.587C155.706 156.668 152.313 157.75 148.848 157.66C145.384 157.569 142.051 156.31 139.392 154.088C136.733 151.865 134.903 148.809 134.199 145.416C133.968 144.355 133.851 143.273 133.85 142.187C133.843 139.253 134.676 136.378 136.251 133.901C137.826 131.425 140.076 129.451 142.737 128.213L143.045 128.074C144.956 127.228 147.019 126.781 149.109 126.76H149.906C153.873 126.923 157.623 128.613 160.371 131.479C163.119 134.344 164.652 138.161 164.648 142.132V142.187Z" fill="#E2F8FF"/>
<path d="M151.779 137.584L150.94 146.807L145.351 146.29L145.826 141.022C146.073 141.088 146.325 141.135 146.58 141.161C147.706 141.158 148.805 140.815 149.733 140.176C150.66 139.538 151.373 138.634 151.779 137.584V137.584Z" fill="#FCC9A7"/>
<path d="M153.176 137.562C152.717 137.45 152.237 137.45 151.778 137.562L151.988 135.13L152.198 135.242C152.448 135.321 152.717 135.321 152.967 135.24C153.217 135.16 153.437 135.005 153.595 134.795C153.595 134.795 153.26 136.458 153.595 136.598C153.93 136.737 153.916 137.744 153.176 137.562Z" fill="#9B92AD"/>
<path d="M152.324 132.294L151.789 137.618C151.383 138.671 150.728 139.52 149.797 140.159C148.867 140.797 148.081 141.308 146.953 141.308C146.698 141.282 146.065 141.266 145.817 141.199L146.721 131.791L152.324 132.294Z" fill="#F4BE9A"/>
<path d="M152.248 133.321C152.6 129.44 150.481 126.075 147.514 125.805C144.548 125.536 141.857 128.464 141.504 132.345C141.152 136.227 143.271 139.592 146.238 139.861C149.204 140.131 151.895 137.203 152.248 133.321Z" fill="#FCC9A7"/>
<path d="M153.987 134.096C154.107 133.929 154.186 133.736 154.219 133.533C154.252 133.33 154.237 133.122 154.175 132.925C154.114 132.729 154.007 132.549 153.865 132.401C153.722 132.253 153.546 132.14 153.352 132.071C153.158 132.002 152.951 131.979 152.746 132.004C152.542 132.029 152.346 132.102 152.175 132.216C152.003 132.329 151.86 132.481 151.758 132.66C151.655 132.838 151.595 133.038 151.583 133.244C151.543 133.338 151.514 133.436 151.499 133.537C150.454 133.149 149.502 132.545 148.705 131.765C147.908 130.985 147.284 130.047 146.874 129.01C146.874 129.01 149.082 125.237 152.911 126.215C156.74 127.193 154.168 133.635 153.987 134.096Z" fill="#9B92AD"/>
<path d="M147.209 129.89C146.018 130.449 144.694 130.659 143.389 130.499C142.084 130.338 140.85 129.812 139.831 128.982C138.349 127.585 137.329 124.79 138.363 123.308C138.701 122.83 139.195 122.484 139.761 122.33C140.095 122.224 140.45 122.2 140.795 122.26C141.773 122.457 142.669 122.944 143.366 123.658C144.163 124.524 143.897 124.929 144.456 125.195C145.728 125.824 147.251 123.672 149.04 124.273C149.455 124.394 149.813 124.662 150.046 125.027C150.563 126.089 149.529 128.06 147.209 129.89Z" fill="#9B92AD"/>
<path d="M164.117 146.198C163.236 149.55 161.249 152.506 158.477 154.587C155.706 156.668 152.312 157.751 148.847 157.66C145.383 157.569 142.051 156.311 139.391 154.088C136.732 151.865 134.902 148.809 134.198 145.416L134.436 145.29C135.715 144.661 137.054 144.16 138.432 143.795C140.053 143.448 141.697 143.224 143.351 143.124C144.134 143.124 144.846 143.124 145.461 143.124H145.643L145.853 143.333C146.547 143.986 147.458 144.359 148.41 144.381H148.494C149.447 144.363 150.359 143.989 151.051 143.333L151.275 143.124H151.442C152.001 143.124 152.644 143.124 153.357 143.124C155.081 143.224 156.795 143.453 158.485 143.808C159.862 144.178 161.2 144.679 162.482 145.304C163.055 145.653 163.6 145.877 164.117 146.198Z" fill="#744CC6"/>
<path d="M153.371 143.403C153.371 145.541 151.122 147.274 148.355 147.274C145.588 147.274 143.338 145.541 143.338 143.403C143.331 143.31 143.331 143.217 143.338 143.124C144.121 143.124 144.833 143.124 145.448 143.124H145.63L145.839 143.333C146.534 143.986 147.444 144.359 148.397 144.381H148.48C149.434 144.363 150.346 143.989 151.038 143.333L151.261 143.124H151.429C151.988 143.124 152.631 143.124 153.343 143.124C153.357 143.208 153.371 143.305 153.371 143.403Z" fill="white"/>
<ellipse cx="152.882" cy="133.744" rx="1.47695" ry="1.76859" transform="rotate(7.81277 152.882 133.744)" fill="#FCC9A7"/>
<circle cx="198.618" cy="78.3805" r="22.3283" fill="#E2F8FF"/>
<path d="M225.909 79.2778C224.355 83.6334 215.663 87.5477 211.537 85.8208C206.395 83.691 207.489 87.1063 200.869 87.279C199.712 87.435 198.54 87.1363 197.599 86.4457C196.658 85.755 196.021 84.7263 195.823 83.5758C195.541 82.0178 195.502 80.4256 195.708 78.8557C195.384 78.8342 195.063 78.7829 194.748 78.7022C188.32 77.3399 189.126 73.8478 191.678 71.0272C192.787 69.8492 194.084 68.8636 195.516 68.1107C196.96 67.4009 198.068 66.1544 198.605 64.6377C199.022 63.572 199.156 62.4165 198.995 61.2836C198.833 60.1506 198.382 59.0786 197.684 58.1716C197.684 58.1716 197.684 58.1716 197.684 58.1716C195.573 56.0226 193.098 58.7856 190.009 59.2077C189.661 59.279 189.302 59.279 188.954 59.2077C188.782 59.1646 188.623 59.0788 188.493 58.9582C187.764 58.2483 188.647 56.579 188.647 56.579C189.041 55.8386 189.524 55.1491 190.086 54.5259C190.669 53.8735 191.312 53.2762 192.004 52.7415C194.327 50.8772 197.125 49.7007 200.082 49.3453C204.879 48.6929 207.873 51.878 209.676 55.6772L209.964 56.272C210.271 57.3081 210.962 59.4571 211.768 61.8172C212.772 64.9329 214.056 67.9512 215.605 70.8353C216.756 72.5814 218.445 72.5238 220.287 72.7541C221.378 72.8253 222.435 73.1658 223.362 73.7451C224.289 74.3243 225.059 75.1243 225.602 76.0735C225.902 76.5456 226.086 77.082 226.139 77.6389C226.193 78.1957 226.114 78.7573 225.909 79.2778V79.2778Z" fill="#49D1FF"/>
<path d="M203.21 69.9335L201.982 83.5566L193.693 82.8083L194.403 74.999C194.765 75.1079 195.138 75.1787 195.516 75.21C197.185 75.2287 198.82 74.7321 200.197 73.7878C201.574 72.8435 202.626 71.4976 203.21 69.9335V69.9335Z" fill="#FCC9A7"/>
<path d="M203.921 62.1433L203.211 69.9335C202.628 71.4945 201.578 72.8382 200.205 73.7822C198.832 74.7262 197.202 75.2247 195.536 75.21C195.158 75.1787 194.761 75.139 194.398 75.0301L195.651 61.395L203.921 62.1433Z" fill="#F4BE9A"/>
<path d="M203.907 63.6416C204.429 57.9005 201.515 52.9433 197.399 52.5694C193.283 52.1956 189.524 56.5467 189.002 62.2878C188.481 68.0289 191.395 72.986 195.511 73.3599C199.626 73.7337 203.386 69.3827 203.907 63.6416Z" fill="#FCC9A7"/>
<path d="M205.301 61.1648C202.231 64.0813 200.447 60.4357 199.161 58.9007C199.009 58.6652 198.793 58.4784 198.538 58.3627C198.282 58.247 197.999 58.2073 197.722 58.2483C196.859 58.3635 195.688 59.0926 193.424 59.5531C191.943 59.9114 190.384 59.7698 188.992 59.1501L188.531 58.9007C187.802 58.1908 188.685 56.5215 188.685 56.5215C189.079 55.7811 189.562 55.0916 190.124 54.4684C190.707 53.816 191.35 53.2187 192.043 52.6839C192.294 52.5877 192.55 52.5044 192.81 52.4345L197.664 50.8228L202.442 52.3577C202.442 52.3577 208.371 58.2675 205.301 61.1648Z" fill="#49D1FF"/>
<path d="M202.846 76.2845H202.75C202.211 76.8658 201.558 77.3295 200.832 77.6466C200.105 77.9636 199.321 78.1273 198.529 78.1273C197.736 78.1273 196.952 77.9636 196.226 77.6466C195.499 77.3295 194.846 76.8658 194.307 76.2845C192.645 76.3827 190.995 76.6267 189.376 77.0137C187.476 77.5109 185.631 78.1987 183.869 79.0667C182.066 80.0466 180.618 80.9734 179.177 82.4362C178.713 82.9082 177.55 83.9942 177.19 84.6838C178.193 89.4196 181.852 93.6598 185.614 96.706C189.377 99.7522 194.864 100.727 199.705 100.723C201.32 100.725 203.2 100.195 204.772 99.8239L205.821 99.5241L204.592 76.6491L202.846 76.2845Z" fill="#36255A"/>
<path d="M219.885 85.1296C218.796 88.6106 216.999 91.7555 214.336 94.2473C211.672 96.7391 208.917 98.8788 205.371 99.7337L202.403 100.393L204.535 76.8982H204.688C205.705 77.1093 207.01 77.3971 208.391 77.8192C212.035 79.1138 215.41 81.0647 218.35 83.5754C218.898 84.0558 219.411 84.5752 219.885 85.1296Z" fill="#36255A"/>
<path d="M203.229 73.0034C203.229 73.0034 197.473 81.0622 201.31 83.6333C205.148 86.2044 208.007 82.7315 210.635 84.8805C213.264 87.0295 219.634 85.5904 220.536 84.1705C221.438 82.7507 215.816 76.649 215.816 76.649L203.229 73.0034Z" fill="#49D1FF"/>
<ellipse cx="204.456" cy="64.5004" rx="1.24561" ry="1.53545" transform="rotate(15.3713 204.456 64.5004)" fill="#FCC9A7"/>
<path d="M204.822 67.5159L204.918 68.0148L203.92 67.4967L202.923 68.0148L203.114 66.9019L202.309 66.1152L202.807 66.0577L202.98 66.0193L203.421 65.9617L203.92 64.964L204.419 65.9617L205.532 66.1152L204.726 66.9019L204.784 67.3432L204.822 67.5159Z" fill="white"/>
<path d="M204.342 241.342H200.765V240.054H209.35V241.342H205.773V251.645H204.199V241.342H204.342Z" fill="white"/>
<path d="M227.093 246.207H222.657V250.357H227.666V251.645H221.227V240.054H227.523V241.342H222.801V244.92H227.236V246.207H227.093Z" fill="white"/>
<path d="M241.974 247.924L240.829 251.502H239.255L243.119 239.911H244.979L248.986 251.502H247.412L246.124 247.924H241.974ZM245.838 246.78L244.693 243.489C244.407 242.773 244.264 242.058 244.12 241.342C243.977 242.058 243.691 242.773 243.548 243.489L242.403 246.78H245.838Z" fill="white"/>
<path d="M270.879 246.494C270.736 244.92 270.736 242.916 270.736 241.485C270.307 242.773 269.877 244.347 269.305 245.921L267.302 251.502H266.157L264.297 245.921C263.725 244.347 263.295 242.773 263.009 241.485C263.009 242.916 262.866 244.92 262.723 246.637L262.437 251.645H261.006L261.864 240.054H263.725L265.728 245.635C266.157 247.066 266.586 248.354 266.873 249.498C267.159 248.354 267.588 247.066 268.16 245.635L270.164 240.054H272.024L272.739 251.645H271.308L270.879 246.494Z" fill="white"/>
<defs>
<linearGradient id="paint0_linear_289:13105" x1="313.488" y1="253.05" x2="425.015" y2="81.6121" gradientUnits="userSpaceOnUse">
<stop stop-color="#49D1FF"/>
<stop offset="0.5624" stop-color="#49D1FF" stop-opacity="0"/>
</linearGradient>
<linearGradient id="paint1_linear_289:13105" x1="279.715" y1="183.849" x2="279.715" y2="46.1323" gradientUnits="userSpaceOnUse">
<stop stop-color="#49D1FF"/>
<stop offset="0.5624" stop-color="#49D1FF" stop-opacity="0"/>
</linearGradient>
<linearGradient id="paint2_linear_289:13105" x1="384.609" y1="98.0563" x2="405.294" y2="115.762" gradientUnits="userSpaceOnUse">
<stop stop-color="#636178"/>
<stop offset="0.5624" stop-color="#636178" stop-opacity="0"/>
</linearGradient>
</defs>
</svg>
