<svg width="258" height="258" viewBox="0 0 258 258" fill="none" xmlns="http://www.w3.org/2000/svg">
<path d="M143.022 112.174C144.571 112.174 145.826 113.429 145.826 114.978C145.826 116.527 144.571 117.783 143.022 117.783C141.473 117.783 140.217 116.527 140.217 114.978C140.217 113.429 141.473 112.174 143.022 112.174Z" fill="#744CC6"/>
<path d="M171.065 112.174C172.614 112.174 173.87 113.429 173.87 114.978C173.87 116.527 172.614 117.783 171.065 117.783C169.516 117.783 168.261 116.527 168.261 114.978C168.261 113.429 169.516 112.174 171.065 112.174Z" fill="#744CC6"/>
<path d="M171.065 84.1304C172.614 84.1304 173.87 85.386 173.87 86.9348C173.87 88.4836 172.614 89.7392 171.065 89.7392C169.516 89.7392 168.261 88.4836 168.261 86.9348C168.261 85.386 169.516 84.1304 171.065 84.1304Z" fill="#744CC6"/>
<path d="M199.109 112.174C200.657 112.174 201.913 113.429 201.913 114.978C201.913 116.527 200.657 117.783 199.109 117.783C197.56 117.783 196.304 116.527 196.304 114.978C196.304 113.429 197.56 112.174 199.109 112.174Z" fill="#744CC6"/>
<path d="M199.109 84.1304C200.657 84.1304 201.913 85.386 201.913 86.9348C201.913 88.4836 200.657 89.7392 199.109 89.7392C197.56 89.7392 196.304 88.4836 196.304 86.9348C196.304 85.386 197.56 84.1304 199.109 84.1304Z" fill="#744CC6"/>
<path d="M199.109 56.087C200.657 56.087 201.913 57.3425 201.913 58.8913C201.913 60.4401 200.657 61.6957 199.109 61.6957C197.56 61.6957 196.304 60.4401 196.304 58.8913C196.304 57.3425 197.56 56.087 199.109 56.087Z" fill="#744CC6"/>
<path d="M227.152 112.174C228.701 112.174 229.957 113.429 229.957 114.978C229.957 116.527 228.701 117.783 227.152 117.783C225.603 117.783 224.348 116.527 224.348 114.978C224.348 113.429 225.603 112.174 227.152 112.174Z" fill="#744CC6"/>
<path d="M227.152 84.1304C228.701 84.1304 229.957 85.386 229.957 86.9348C229.957 88.4836 228.701 89.7392 227.152 89.7392C225.603 89.7392 224.348 88.4836 224.348 86.9348C224.348 85.386 225.603 84.1304 227.152 84.1304Z" fill="#744CC6"/>
<path d="M227.152 56.087C228.701 56.087 229.957 57.3425 229.957 58.8913C229.957 60.4401 228.701 61.6957 227.152 61.6957C225.603 61.6957 224.348 60.4401 224.348 58.8913C224.348 57.3425 225.603 56.087 227.152 56.087Z" fill="#744CC6"/>
<path d="M227.152 28.0435C228.701 28.0435 229.957 29.299 229.957 30.8478C229.957 32.3966 228.701 33.6522 227.152 33.6522C225.603 33.6522 224.348 32.3966 224.348 30.8478C224.348 29.299 225.603 28.0435 227.152 28.0435Z" fill="#744CC6"/>
<path d="M255.196 112.174C256.744 112.174 258 113.429 258 114.978C258 116.527 256.744 117.783 255.196 117.783C253.647 117.783 252.391 116.527 252.391 114.978C252.391 113.429 253.647 112.174 255.196 112.174Z" fill="#744CC6"/>
<path d="M255.196 84.1304C256.744 84.1304 258 85.386 258 86.9348C258 88.4836 256.744 89.7392 255.196 89.7392C253.647 89.7392 252.391 88.4836 252.391 86.9348C252.391 85.386 253.647 84.1304 255.196 84.1304Z" fill="#744CC6"/>
<path d="M255.196 56.087C256.744 56.087 258 57.3425 258 58.8913C258 60.4401 256.744 61.6957 255.196 61.6957C253.647 61.6957 252.391 60.4401 252.391 58.8913C252.391 57.3425 253.647 56.087 255.196 56.087Z" fill="#744CC6"/>
<path d="M255.196 28.0435C256.744 28.0435 258 29.299 258 30.8478C258 32.3966 256.744 33.6522 255.196 33.6522C253.647 33.6522 252.391 32.3966 252.391 30.8478C252.391 29.299 253.647 28.0435 255.196 28.0435Z" fill="#744CC6"/>
<path d="M255.196 3.05176e-05C256.744 3.05176e-05 258 1.25555 258 2.80437C258 4.35316 256.744 5.60872 255.196 5.60872C253.647 5.60872 252.391 4.35316 252.391 2.80437C252.391 1.25555 253.647 3.05176e-05 255.196 3.05176e-05Z" fill="#744CC6"/>
<path d="M2.80434 252.391C4.35313 252.391 5.60869 253.647 5.60869 255.196C5.60869 256.744 4.35313 258 2.80434 258C1.25552 258 0 256.744 0 255.196C0 253.647 1.25552 252.391 2.80434 252.391Z" fill="#744CC6"/>
<path d="M30.8478 252.391C32.3966 252.391 33.6522 253.647 33.6522 255.196C33.6522 256.744 32.3966 258 30.8478 258C29.299 258 28.0435 256.744 28.0435 255.196C28.0435 253.647 29.299 252.391 30.8478 252.391Z" fill="#744CC6"/>
<path d="M30.8478 224.348C32.3966 224.348 33.6522 225.603 33.6522 227.152C33.6522 228.701 32.3966 229.957 30.8478 229.957C29.299 229.957 28.0435 228.701 28.0435 227.152C28.0435 225.603 29.299 224.348 30.8478 224.348Z" fill="#744CC6"/>
<path d="M58.8913 252.391C60.4401 252.391 61.6956 253.647 61.6956 255.196C61.6956 256.744 60.4401 258 58.8913 258C57.3425 258 56.087 256.744 56.087 255.196C56.087 253.647 57.3425 252.391 58.8913 252.391Z" fill="#744CC6"/>
<path d="M58.8913 224.348C60.4401 224.348 61.6956 225.603 61.6956 227.152C61.6956 228.701 60.4401 229.957 58.8913 229.957C57.3425 229.957 56.087 228.701 56.087 227.152C56.087 225.603 57.3425 224.348 58.8913 224.348Z" fill="#744CC6"/>
<path d="M58.8913 196.304C60.4401 196.304 61.6956 197.56 61.6956 199.109C61.6956 200.657 60.4401 201.913 58.8913 201.913C57.3425 201.913 56.087 200.657 56.087 199.109C56.087 197.56 57.3425 196.304 58.8913 196.304Z" fill="#744CC6"/>
<path d="M86.9348 252.391C88.4836 252.391 89.7391 253.647 89.7391 255.196C89.7391 256.744 88.4836 258 86.9348 258C85.386 258 84.1304 256.744 84.1304 255.196C84.1304 253.647 85.386 252.391 86.9348 252.391Z" fill="#744CC6"/>
<path d="M86.9348 224.348C88.4836 224.348 89.7391 225.603 89.7391 227.152C89.7391 228.701 88.4836 229.957 86.9348 229.957C85.386 229.957 84.1304 228.701 84.1304 227.152C84.1304 225.603 85.386 224.348 86.9348 224.348Z" fill="#744CC6"/>
<path d="M86.9348 196.304C88.4836 196.304 89.7391 197.56 89.7391 199.109C89.7391 200.657 88.4836 201.913 86.9348 201.913C85.386 201.913 84.1304 200.657 84.1304 199.109C84.1304 197.56 85.386 196.304 86.9348 196.304Z" fill="#744CC6"/>
<path d="M86.9348 168.261C88.4836 168.261 89.7391 169.516 89.7391 171.065C89.7391 172.614 88.4836 173.87 86.9348 173.87C85.386 173.87 84.1304 172.614 84.1304 171.065C84.1304 169.516 85.386 168.261 86.9348 168.261Z" fill="#744CC6"/>
<path d="M114.978 252.391C116.527 252.391 117.783 253.647 117.783 255.196C117.783 256.744 116.527 258 114.978 258C113.429 258 112.174 256.744 112.174 255.196C112.174 253.647 113.429 252.391 114.978 252.391Z" fill="#744CC6"/>
<path d="M114.978 224.348C116.527 224.348 117.783 225.603 117.783 227.152C117.783 228.701 116.527 229.957 114.978 229.957C113.429 229.957 112.174 228.701 112.174 227.152C112.174 225.603 113.429 224.348 114.978 224.348Z" fill="#744CC6"/>
<path d="M114.978 196.304C116.527 196.304 117.783 197.56 117.783 199.109C117.783 200.657 116.527 201.913 114.978 201.913C113.429 201.913 112.174 200.657 112.174 199.109C112.174 197.56 113.429 196.304 114.978 196.304Z" fill="#744CC6"/>
<path d="M114.978 168.261C116.527 168.261 117.783 169.516 117.783 171.065C117.783 172.614 116.527 173.87 114.978 173.87C113.429 173.87 112.174 172.614 112.174 171.065C112.174 169.516 113.429 168.261 114.978 168.261Z" fill="#744CC6"/>
<path d="M114.978 140.217C116.527 140.217 117.783 141.473 117.783 143.022C117.783 144.571 116.527 145.826 114.978 145.826C113.429 145.826 112.174 144.571 112.174 143.022C112.174 141.473 113.429 140.217 114.978 140.217Z" fill="#744CC6"/>
<path d="M143.022 252.391C144.571 252.391 145.826 253.647 145.826 255.196C145.826 256.744 144.571 258 143.022 258C141.473 258 140.217 256.744 140.217 255.196C140.217 253.647 141.473 252.391 143.022 252.391Z" fill="#744CC6"/>
<path d="M143.022 224.348C144.571 224.348 145.826 225.603 145.826 227.152C145.826 228.701 144.571 229.957 143.022 229.957C141.473 229.957 140.217 228.701 140.217 227.152C140.217 225.603 141.473 224.348 143.022 224.348Z" fill="#744CC6"/>
<path d="M143.022 196.304C144.571 196.304 145.826 197.56 145.826 199.109C145.826 200.657 144.571 201.913 143.022 201.913C141.473 201.913 140.217 200.657 140.217 199.109C140.217 197.56 141.473 196.304 143.022 196.304Z" fill="#744CC6"/>
<path d="M143.022 168.261C144.571 168.261 145.826 169.516 145.826 171.065C145.826 172.614 144.571 173.87 143.022 173.87C141.473 173.87 140.217 172.614 140.217 171.065C140.217 169.516 141.473 168.261 143.022 168.261Z" fill="#744CC6"/>
<path d="M143.022 140.217C144.571 140.217 145.826 141.473 145.826 143.022C145.826 144.571 144.571 145.826 143.022 145.826C141.473 145.826 140.217 144.571 140.217 143.022C140.217 141.473 141.473 140.217 143.022 140.217Z" fill="#744CC6"/>
<path d="M171.065 252.391C172.614 252.391 173.87 253.647 173.87 255.196C173.87 256.744 172.614 258 171.065 258C169.516 258 168.261 256.744 168.261 255.196C168.261 253.647 169.516 252.391 171.065 252.391Z" fill="#744CC6"/>
<path d="M171.065 224.348C172.614 224.348 173.87 225.603 173.87 227.152C173.87 228.701 172.614 229.957 171.065 229.957C169.516 229.957 168.261 228.701 168.261 227.152C168.261 225.603 169.516 224.348 171.065 224.348Z" fill="#744CC6"/>
<path d="M171.065 196.304C172.614 196.304 173.87 197.56 173.87 199.109C173.87 200.657 172.614 201.913 171.065 201.913C169.516 201.913 168.261 200.657 168.261 199.109C168.261 197.56 169.516 196.304 171.065 196.304Z" fill="#744CC6"/>
<path d="M171.065 168.261C172.614 168.261 173.87 169.516 173.87 171.065C173.87 172.614 172.614 173.87 171.065 173.87C169.516 173.87 168.261 172.614 168.261 171.065C168.261 169.516 169.516 168.261 171.065 168.261Z" fill="#744CC6"/>
<path d="M171.065 140.217C172.614 140.217 173.87 141.473 173.87 143.022C173.87 144.571 172.614 145.826 171.065 145.826C169.516 145.826 168.261 144.571 168.261 143.022C168.261 141.473 169.516 140.217 171.065 140.217Z" fill="#744CC6"/>
<path d="M199.109 252.391C200.657 252.391 201.913 253.647 201.913 255.196C201.913 256.744 200.657 258 199.109 258C197.56 258 196.304 256.744 196.304 255.196C196.304 253.647 197.56 252.391 199.109 252.391Z" fill="#744CC6"/>
<path d="M199.109 224.348C200.657 224.348 201.913 225.603 201.913 227.152C201.913 228.701 200.657 229.957 199.109 229.957C197.56 229.957 196.304 228.701 196.304 227.152C196.304 225.603 197.56 224.348 199.109 224.348Z" fill="#744CC6"/>
<path d="M199.109 196.304C200.657 196.304 201.913 197.56 201.913 199.109C201.913 200.657 200.657 201.913 199.109 201.913C197.56 201.913 196.304 200.657 196.304 199.109C196.304 197.56 197.56 196.304 199.109 196.304Z" fill="#744CC6"/>
<path d="M199.109 168.261C200.657 168.261 201.913 169.516 201.913 171.065C201.913 172.614 200.657 173.87 199.109 173.87C197.56 173.87 196.304 172.614 196.304 171.065C196.304 169.516 197.56 168.261 199.109 168.261Z" fill="#744CC6"/>
<path d="M199.109 140.217C200.657 140.217 201.913 141.473 201.913 143.022C201.913 144.571 200.657 145.826 199.109 145.826C197.56 145.826 196.304 144.571 196.304 143.022C196.304 141.473 197.56 140.217 199.109 140.217Z" fill="#744CC6"/>
<path d="M227.152 252.391C228.701 252.391 229.957 253.647 229.957 255.196C229.957 256.744 228.701 258 227.152 258C225.603 258 224.348 256.744 224.348 255.196C224.348 253.647 225.603 252.391 227.152 252.391Z" fill="#744CC6"/>
<path d="M227.152 224.348C228.701 224.348 229.957 225.603 229.957 227.152C229.957 228.701 228.701 229.957 227.152 229.957C225.603 229.957 224.348 228.701 224.348 227.152C224.348 225.603 225.603 224.348 227.152 224.348Z" fill="#744CC6"/>
<path d="M227.152 196.304C228.701 196.304 229.957 197.56 229.957 199.109C229.957 200.657 228.701 201.913 227.152 201.913C225.603 201.913 224.348 200.657 224.348 199.109C224.348 197.56 225.603 196.304 227.152 196.304Z" fill="#744CC6"/>
<path d="M227.152 168.261C228.701 168.261 229.957 169.516 229.957 171.065C229.957 172.614 228.701 173.87 227.152 173.87C225.603 173.87 224.348 172.614 224.348 171.065C224.348 169.516 225.603 168.261 227.152 168.261Z" fill="#744CC6"/>
<path d="M227.152 140.217C228.701 140.217 229.957 141.473 229.957 143.022C229.957 144.571 228.701 145.826 227.152 145.826C225.603 145.826 224.348 144.571 224.348 143.022C224.348 141.473 225.603 140.217 227.152 140.217Z" fill="#744CC6"/>
<path d="M255.196 252.391C256.744 252.391 258 253.647 258 255.196C258 256.744 256.744 258 255.196 258C253.647 258 252.391 256.744 252.391 255.196C252.391 253.647 253.647 252.391 255.196 252.391Z" fill="#744CC6"/>
<path d="M255.196 224.348C256.744 224.348 258 225.603 258 227.152C258 228.701 256.744 229.957 255.196 229.957C253.647 229.957 252.391 228.701 252.391 227.152C252.391 225.603 253.647 224.348 255.196 224.348Z" fill="#744CC6"/>
<path d="M255.196 196.304C256.744 196.304 258 197.56 258 199.109C258 200.657 256.744 201.913 255.196 201.913C253.647 201.913 252.391 200.657 252.391 199.109C252.391 197.56 253.647 196.304 255.196 196.304Z" fill="#744CC6"/>
<path d="M255.196 168.261C256.744 168.261 258 169.516 258 171.065C258 172.614 256.744 173.87 255.196 173.87C253.647 173.87 252.391 172.614 252.391 171.065C252.391 169.516 253.647 168.261 255.196 168.261Z" fill="#744CC6"/>
<path d="M255.196 140.217C256.744 140.217 258 141.473 258 143.022C258 144.571 256.744 145.826 255.196 145.826C253.647 145.826 252.391 144.571 252.391 143.022C252.391 141.473 253.647 140.217 255.196 140.217Z" fill="#744CC6"/>
</svg>
