<svg width="230" height="230" viewBox="0 0 230 230" fill="none" xmlns="http://www.w3.org/2000/svg">
<path d="M227.5 130C226.119 130 225 128.881 225 127.5C225 126.119 226.119 125 227.5 125C228.881 125 230 126.119 230 127.5C230 128.881 228.881 130 227.5 130Z" fill="#21B5E8"/>
<path d="M227.5 155C226.119 155 225 153.881 225 152.5C225 151.119 226.119 150 227.5 150C228.881 150 230 151.119 230 152.5C230 153.881 228.881 155 227.5 155Z" fill="#21B5E8"/>
<path d="M227.5 180C226.119 180 225 178.881 225 177.5C225 176.119 226.119 175 227.5 175C228.881 175 230 176.119 230 177.5C230 178.881 228.881 180 227.5 180Z" fill="#21B5E8"/>
<path d="M227.5 205C226.119 205 225 203.881 225 202.5C225 201.119 226.119 200 227.5 200C228.881 200 230 201.119 230 202.5C230 203.881 228.881 205 227.5 205Z" fill="#21B5E8"/>
<path d="M227.5 230C226.119 230 225 228.881 225 227.5C225 226.119 226.119 225 227.5 225C228.881 225 230 226.119 230 227.5C230 228.881 228.881 230 227.5 230Z" fill="#21B5E8"/>
<path d="M202.5 130C201.119 130 200 128.881 200 127.5C200 126.119 201.119 125 202.5 125C203.881 125 205 126.119 205 127.5C205 128.881 203.881 130 202.5 130Z" fill="#21B5E8"/>
<path d="M202.5 155C201.119 155 200 153.881 200 152.5C200 151.119 201.119 150 202.5 150C203.881 150 205 151.119 205 152.5C205 153.881 203.881 155 202.5 155Z" fill="#21B5E8"/>
<path d="M202.5 180C201.119 180 200 178.881 200 177.5C200 176.119 201.119 175 202.5 175C203.881 175 205 176.119 205 177.5C205 178.881 203.881 180 202.5 180Z" fill="#21B5E8"/>
<path d="M202.5 205C201.119 205 200 203.881 200 202.5C200 201.119 201.119 200 202.5 200C203.881 200 205 201.119 205 202.5C205 203.881 203.881 205 202.5 205Z" fill="#21B5E8"/>
<path d="M202.5 230C201.119 230 200 228.881 200 227.5C200 226.119 201.119 225 202.5 225C203.881 225 205 226.119 205 227.5C205 228.881 203.881 230 202.5 230Z" fill="#21B5E8"/>
<path d="M177.5 130C176.119 130 175 128.881 175 127.5C175 126.119 176.119 125 177.5 125C178.881 125 180 126.119 180 127.5C180 128.881 178.881 130 177.5 130Z" fill="#21B5E8"/>
<path d="M177.5 155C176.119 155 175 153.881 175 152.5C175 151.119 176.119 150 177.5 150C178.881 150 180 151.119 180 152.5C180 153.881 178.881 155 177.5 155Z" fill="#21B5E8"/>
<path d="M177.5 180C176.119 180 175 178.881 175 177.5C175 176.119 176.119 175 177.5 175C178.881 175 180 176.119 180 177.5C180 178.881 178.881 180 177.5 180Z" fill="#21B5E8"/>
<path d="M177.5 205C176.119 205 175 203.881 175 202.5C175 201.119 176.119 200 177.5 200C178.881 200 180 201.119 180 202.5C180 203.881 178.881 205 177.5 205Z" fill="#21B5E8"/>
<path d="M177.5 230C176.119 230 175 228.881 175 227.5C175 226.119 176.119 225 177.5 225C178.881 225 180 226.119 180 227.5C180 228.881 178.881 230 177.5 230Z" fill="#21B5E8"/>
<path d="M152.5 130C151.119 130 150 128.881 150 127.5C150 126.119 151.119 125 152.5 125C153.881 125 155 126.119 155 127.5C155 128.881 153.881 130 152.5 130Z" fill="#21B5E8"/>
<path d="M152.5 155C151.119 155 150 153.881 150 152.5C150 151.119 151.119 150 152.5 150C153.881 150 155 151.119 155 152.5C155 153.881 153.881 155 152.5 155Z" fill="#21B5E8"/>
<path d="M152.5 180C151.119 180 150 178.881 150 177.5C150 176.119 151.119 175 152.5 175C153.881 175 155 176.119 155 177.5C155 178.881 153.881 180 152.5 180Z" fill="#21B5E8"/>
<path d="M152.5 205C151.119 205 150 203.881 150 202.5C150 201.119 151.119 200 152.5 200C153.881 200 155 201.119 155 202.5C155 203.881 153.881 205 152.5 205Z" fill="#21B5E8"/>
<path d="M152.5 230C151.119 230 150 228.881 150 227.5C150 226.119 151.119 225 152.5 225C153.881 225 155 226.119 155 227.5C155 228.881 153.881 230 152.5 230Z" fill="#21B5E8"/>
<path d="M127.5 130C126.119 130 125 128.881 125 127.5C125 126.119 126.119 125 127.5 125C128.881 125 130 126.119 130 127.5C130 128.881 128.881 130 127.5 130Z" fill="#21B5E8"/>
<path d="M127.5 155C126.119 155 125 153.881 125 152.5C125 151.119 126.119 150 127.5 150C128.881 150 130 151.119 130 152.5C130 153.881 128.881 155 127.5 155Z" fill="#21B5E8"/>
<path d="M127.5 180C126.119 180 125 178.881 125 177.5C125 176.119 126.119 175 127.5 175C128.881 175 130 176.119 130 177.5C130 178.881 128.881 180 127.5 180Z" fill="#21B5E8"/>
<path d="M127.5 205C126.119 205 125 203.881 125 202.5C125 201.119 126.119 200 127.5 200C128.881 200 130 201.119 130 202.5C130 203.881 128.881 205 127.5 205Z" fill="#21B5E8"/>
<path d="M127.5 230C126.119 230 125 228.881 125 227.5C125 226.119 126.119 225 127.5 225C128.881 225 130 226.119 130 227.5C130 228.881 128.881 230 127.5 230Z" fill="#21B5E8"/>
<path d="M102.5 130C101.119 130 100 128.881 100 127.5C100 126.119 101.119 125 102.5 125C103.881 125 105 126.119 105 127.5C105 128.881 103.881 130 102.5 130Z" fill="#21B5E8"/>
<path d="M102.5 155C101.119 155 100 153.881 100 152.5C100 151.119 101.119 150 102.5 150C103.881 150 105 151.119 105 152.5C105 153.881 103.881 155 102.5 155Z" fill="#21B5E8"/>
<path d="M102.5 180C101.119 180 100 178.881 100 177.5C100 176.119 101.119 175 102.5 175C103.881 175 105 176.119 105 177.5C105 178.881 103.881 180 102.5 180Z" fill="#21B5E8"/>
<path d="M102.5 205C101.119 205 100 203.881 100 202.5C100 201.119 101.119 200 102.5 200C103.881 200 105 201.119 105 202.5C105 203.881 103.881 205 102.5 205Z" fill="#21B5E8"/>
<path d="M102.5 230C101.119 230 100 228.881 100 227.5C100 226.119 101.119 225 102.5 225C103.881 225 105 226.119 105 227.5C105 228.881 103.881 230 102.5 230Z" fill="#21B5E8"/>
<path d="M77.5 130C76.1193 130 75 128.881 75 127.5C75 126.119 76.1193 125 77.5 125C78.8807 125 80 126.119 80 127.5C80 128.881 78.8807 130 77.5 130Z" fill="#21B5E8"/>
<path d="M77.5 155C76.1193 155 75 153.881 75 152.5C75 151.119 76.1193 150 77.5 150C78.8807 150 80 151.119 80 152.5C80 153.881 78.8807 155 77.5 155Z" fill="#21B5E8"/>
<path d="M77.5 180C76.1193 180 75 178.881 75 177.5C75 176.119 76.1193 175 77.5 175C78.8807 175 80 176.119 80 177.5C80 178.881 78.8807 180 77.5 180Z" fill="#21B5E8"/>
<path d="M77.5 205C76.1193 205 75 203.881 75 202.5C75 201.119 76.1193 200 77.5 200C78.8807 200 80 201.119 80 202.5C80 203.881 78.8807 205 77.5 205Z" fill="#21B5E8"/>
<path d="M77.5 230C76.1193 230 75 228.881 75 227.5C75 226.119 76.1193 225 77.5 225C78.8807 225 80 226.119 80 227.5C80 228.881 78.8807 230 77.5 230Z" fill="#21B5E8"/>
<path d="M52.5 130C51.1193 130 50 128.881 50 127.5C50 126.119 51.1193 125 52.5 125C53.8807 125 55 126.119 55 127.5C55 128.881 53.8807 130 52.5 130Z" fill="#21B5E8"/>
<path d="M52.5 155C51.1193 155 50 153.881 50 152.5C50 151.119 51.1193 150 52.5 150C53.8807 150 55 151.119 55 152.5C55 153.881 53.8807 155 52.5 155Z" fill="#21B5E8"/>
<path d="M52.5 180C51.1193 180 50 178.881 50 177.5C50 176.119 51.1193 175 52.5 175C53.8807 175 55 176.119 55 177.5C55 178.881 53.8807 180 52.5 180Z" fill="#21B5E8"/>
<path d="M52.5 205C51.1193 205 50 203.881 50 202.5C50 201.119 51.1193 200 52.5 200C53.8807 200 55 201.119 55 202.5C55 203.881 53.8807 205 52.5 205Z" fill="#21B5E8"/>
<path d="M52.5 230C51.1193 230 50 228.881 50 227.5C50 226.119 51.1193 225 52.5 225C53.8807 225 55 226.119 55 227.5C55 228.881 53.8807 230 52.5 230Z" fill="#21B5E8"/>
<path d="M27.5 130C26.1193 130 25 128.881 25 127.5C25 126.119 26.1193 125 27.5 125C28.8807 125 30 126.119 30 127.5C30 128.881 28.8807 130 27.5 130Z" fill="#21B5E8"/>
<path d="M27.5 155C26.1193 155 25 153.881 25 152.5C25 151.119 26.1193 150 27.5 150C28.8807 150 30 151.119 30 152.5C30 153.881 28.8807 155 27.5 155Z" fill="#21B5E8"/>
<path d="M27.5 180C26.1193 180 25 178.881 25 177.5C25 176.119 26.1193 175 27.5 175C28.8807 175 30 176.119 30 177.5C30 178.881 28.8807 180 27.5 180Z" fill="#21B5E8"/>
<path d="M27.5 205C26.1193 205 25 203.881 25 202.5C25 201.119 26.1193 200 27.5 200C28.8807 200 30 201.119 30 202.5C30 203.881 28.8807 205 27.5 205Z" fill="#21B5E8"/>
<path d="M27.5 230C26.1193 230 25 228.881 25 227.5C25 226.119 26.1193 225 27.5 225C28.8807 225 30 226.119 30 227.5C30 228.881 28.8807 230 27.5 230Z" fill="#21B5E8"/>
<path d="M2.5 130C1.1193 130 4.31079e-06 128.881 4.37114e-06 127.5C4.43149e-06 126.119 1.1193 125 2.5 125C3.88071 125 5 126.119 5 127.5C5 128.881 3.88071 130 2.5 130Z" fill="#21B5E8"/>
<path d="M2.5 155C1.1193 155 3.218e-06 153.881 3.27835e-06 152.5C3.33871e-06 151.119 1.1193 150 2.5 150C3.88071 150 5 151.119 5 152.5C5 153.881 3.88071 155 2.5 155Z" fill="#21B5E8"/>
<path d="M2.5 180C1.1193 180 2.12522e-06 178.881 2.18557e-06 177.5C2.24592e-06 176.119 1.1193 175 2.5 175C3.88071 175 5 176.119 5 177.5C5 178.881 3.88071 180 2.5 180Z" fill="#21B5E8"/>
<path d="M2.5 205C1.11929 205 1.03243e-06 203.881 1.09278e-06 202.5C1.15314e-06 201.119 1.11929 200 2.5 200C3.88071 200 5 201.119 5 202.5C5 203.881 3.88071 205 2.5 205Z" fill="#21B5E8"/>
<path d="M2.5 230C1.11929 230 -6.03529e-08 228.881 0 227.5C6.03529e-08 226.119 1.11929 225 2.5 225C3.88071 225 5 226.119 5 227.5C5 228.881 3.88071 230 2.5 230Z" fill="#21B5E8"/>
<path d="M227.5 5.00001C226.119 5.00001 225 3.88072 225 2.50001C225 1.1193 226.119 9.77471e-06 227.5 9.83506e-06C228.881 9.89542e-06 230 1.1193 230 2.50001C230 3.88072 228.881 5.00001 227.5 5.00001Z" fill="#21B5E8"/>
<path d="M227.5 30C226.119 30 225 28.8807 225 27.5C225 26.1193 226.119 25 227.5 25C228.881 25 230 26.1193 230 27.5C230 28.8807 228.881 30 227.5 30Z" fill="#21B5E8"/>
<path d="M227.5 55C226.119 55 225 53.8807 225 52.5C225 51.1193 226.119 50 227.5 50C228.881 50 230 51.1193 230 52.5C230 53.8807 228.881 55 227.5 55Z" fill="#21B5E8"/>
<path d="M227.5 80C226.119 80 225 78.8807 225 77.5C225 76.1193 226.119 75 227.5 75C228.881 75 230 76.1193 230 77.5C230 78.8807 228.881 80 227.5 80Z" fill="#21B5E8"/>
<path d="M227.5 105C226.119 105 225 103.881 225 102.5C225 101.119 226.119 100 227.5 100C228.881 100 230 101.119 230 102.5C230 103.881 228.881 105 227.5 105Z" fill="#21B5E8"/>
<path d="M202.5 5.00001C201.119 5.00001 200 3.88072 200 2.50001C200 1.1193 201.119 8.68192e-06 202.5 8.74228e-06C203.881 8.80263e-06 205 1.1193 205 2.50001C205 3.88072 203.881 5.00001 202.5 5.00001Z" fill="#21B5E8"/>
<path d="M202.5 30C201.119 30 200 28.8807 200 27.5C200 26.1193 201.119 25 202.5 25C203.881 25 205 26.1193 205 27.5C205 28.8807 203.881 30 202.5 30Z" fill="#21B5E8"/>
<path d="M202.5 55C201.119 55 200 53.8807 200 52.5C200 51.1193 201.119 50 202.5 50C203.881 50 205 51.1193 205 52.5C205 53.8807 203.881 55 202.5 55Z" fill="#21B5E8"/>
<path d="M202.5 80C201.119 80 200 78.8807 200 77.5C200 76.1193 201.119 75 202.5 75C203.881 75 205 76.1193 205 77.5C205 78.8807 203.881 80 202.5 80Z" fill="#21B5E8"/>
<path d="M202.5 105C201.119 105 200 103.881 200 102.5C200 101.119 201.119 100 202.5 100C203.881 100 205 101.119 205 102.5C205 103.881 203.881 105 202.5 105Z" fill="#21B5E8"/>
<path d="M177.5 5.00001C176.119 5.00001 175 3.88072 175 2.50001C175 1.1193 176.119 7.58914e-06 177.5 7.64949e-06C178.881 7.70985e-06 180 1.1193 180 2.50001C180 3.88072 178.881 5.00001 177.5 5.00001Z" fill="#21B5E8"/>
<path d="M177.5 30C176.119 30 175 28.8807 175 27.5C175 26.1193 176.119 25 177.5 25C178.881 25 180 26.1193 180 27.5C180 28.8807 178.881 30 177.5 30Z" fill="#21B5E8"/>
<path d="M177.5 55C176.119 55 175 53.8807 175 52.5C175 51.1193 176.119 50 177.5 50C178.881 50 180 51.1193 180 52.5C180 53.8807 178.881 55 177.5 55Z" fill="#21B5E8"/>
<path d="M177.5 80C176.119 80 175 78.8807 175 77.5C175 76.1193 176.119 75 177.5 75C178.881 75 180 76.1193 180 77.5C180 78.8807 178.881 80 177.5 80Z" fill="#21B5E8"/>
<path d="M177.5 105C176.119 105 175 103.881 175 102.5C175 101.119 176.119 100 177.5 100C178.881 100 180 101.119 180 102.5C180 103.881 178.881 105 177.5 105Z" fill="#21B5E8"/>
<path d="M152.5 5.00001C151.119 5.00001 150 3.88072 150 2.50001C150 1.11929 151.119 6.49636e-06 152.5 6.55671e-06C153.881 6.61706e-06 155 1.11929 155 2.50001C155 3.88072 153.881 5.00001 152.5 5.00001Z" fill="#21B5E8"/>
<path d="M152.5 30C151.119 30 150 28.8807 150 27.5C150 26.1193 151.119 25 152.5 25C153.881 25 155 26.1193 155 27.5C155 28.8807 153.881 30 152.5 30Z" fill="#21B5E8"/>
<path d="M152.5 55C151.119 55 150 53.8807 150 52.5C150 51.1193 151.119 50 152.5 50C153.881 50 155 51.1193 155 52.5C155 53.8807 153.881 55 152.5 55Z" fill="#21B5E8"/>
<path d="M152.5 80C151.119 80 150 78.8807 150 77.5C150 76.1193 151.119 75 152.5 75C153.881 75 155 76.1193 155 77.5C155 78.8807 153.881 80 152.5 80Z" fill="#21B5E8"/>
<path d="M152.5 105C151.119 105 150 103.881 150 102.5C150 101.119 151.119 100 152.5 100C153.881 100 155 101.119 155 102.5C155 103.881 153.881 105 152.5 105Z" fill="#21B5E8"/>
<path d="M127.5 5.00001C126.119 5.00001 125 3.88072 125 2.50001C125 1.11929 126.119 5.40357e-06 127.5 5.46392e-06C128.881 5.52428e-06 130 1.11929 130 2.50001C130 3.88072 128.881 5.00001 127.5 5.00001Z" fill="#21B5E8"/>
<path d="M127.5 30C126.119 30 125 28.8807 125 27.5C125 26.1193 126.119 25 127.5 25C128.881 25 130 26.1193 130 27.5C130 28.8807 128.881 30 127.5 30Z" fill="#21B5E8"/>
<path d="M127.5 55C126.119 55 125 53.8807 125 52.5C125 51.1193 126.119 50 127.5 50C128.881 50 130 51.1193 130 52.5C130 53.8807 128.881 55 127.5 55Z" fill="#21B5E8"/>
<path d="M127.5 80C126.119 80 125 78.8807 125 77.5C125 76.1193 126.119 75 127.5 75C128.881 75 130 76.1193 130 77.5C130 78.8807 128.881 80 127.5 80Z" fill="#21B5E8"/>
<path d="M127.5 105C126.119 105 125 103.881 125 102.5C125 101.119 126.119 100 127.5 100C128.881 100 130 101.119 130 102.5C130 103.881 128.881 105 127.5 105Z" fill="#21B5E8"/>
<path d="M102.5 5C101.119 5 100 3.88072 100 2.5C100 1.11929 101.119 4.31079e-06 102.5 4.37114e-06C103.881 4.43149e-06 105 1.11929 105 2.5C105 3.88072 103.881 5 102.5 5Z" fill="#21B5E8"/>
<path d="M102.5 30C101.119 30 100 28.8807 100 27.5C100 26.1193 101.119 25 102.5 25C103.881 25 105 26.1193 105 27.5C105 28.8807 103.881 30 102.5 30Z" fill="#21B5E8"/>
<path d="M102.5 55C101.119 55 100 53.8807 100 52.5C100 51.1193 101.119 50 102.5 50C103.881 50 105 51.1193 105 52.5C105 53.8807 103.881 55 102.5 55Z" fill="#21B5E8"/>
<path d="M102.5 80C101.119 80 100 78.8807 100 77.5C100 76.1193 101.119 75 102.5 75C103.881 75 105 76.1193 105 77.5C105 78.8807 103.881 80 102.5 80Z" fill="#21B5E8"/>
<path d="M102.5 105C101.119 105 100 103.881 100 102.5C100 101.119 101.119 100 102.5 100C103.881 100 105 101.119 105 102.5C105 103.881 103.881 105 102.5 105Z" fill="#21B5E8"/>
<path d="M77.5 5C76.1193 5 75 3.88072 75 2.5C75 1.11929 76.1193 3.218e-06 77.5 3.27835e-06C78.8807 3.33871e-06 80 1.11929 80 2.5C80 3.88072 78.8807 5 77.5 5Z" fill="#21B5E8"/>
<path d="M77.5 30C76.1193 30 75 28.8807 75 27.5C75 26.1193 76.1193 25 77.5 25C78.8807 25 80 26.1193 80 27.5C80 28.8807 78.8807 30 77.5 30Z" fill="#21B5E8"/>
<path d="M77.5 55C76.1193 55 75 53.8807 75 52.5C75 51.1193 76.1193 50 77.5 50C78.8807 50 80 51.1193 80 52.5C80 53.8807 78.8807 55 77.5 55Z" fill="#21B5E8"/>
<path d="M77.5 80C76.1193 80 75 78.8807 75 77.5C75 76.1193 76.1193 75 77.5 75C78.8807 75 80 76.1193 80 77.5C80 78.8807 78.8807 80 77.5 80Z" fill="#21B5E8"/>
<path d="M77.5 105C76.1193 105 75 103.881 75 102.5C75 101.119 76.1193 100 77.5 100C78.8807 100 80 101.119 80 102.5C80 103.881 78.8807 105 77.5 105Z" fill="#21B5E8"/>
<path d="M52.5 5C51.1193 5 50 3.88071 50 2.5C50 1.11929 51.1193 2.12522e-06 52.5 2.18557e-06C53.8807 2.24592e-06 55 1.11929 55 2.5C55 3.88071 53.8807 5 52.5 5Z" fill="#21B5E8"/>
<path d="M52.5 30C51.1193 30 50 28.8807 50 27.5C50 26.1193 51.1193 25 52.5 25C53.8807 25 55 26.1193 55 27.5C55 28.8807 53.8807 30 52.5 30Z" fill="#21B5E8"/>
<path d="M52.5 55C51.1193 55 50 53.8807 50 52.5C50 51.1193 51.1193 50 52.5 50C53.8807 50 55 51.1193 55 52.5C55 53.8807 53.8807 55 52.5 55Z" fill="#21B5E8"/>
<path d="M52.5 80C51.1193 80 50 78.8807 50 77.5C50 76.1193 51.1193 75 52.5 75C53.8807 75 55 76.1193 55 77.5C55 78.8807 53.8807 80 52.5 80Z" fill="#21B5E8"/>
<path d="M52.5 105C51.1193 105 50 103.881 50 102.5C50 101.119 51.1193 100 52.5 100C53.8807 100 55 101.119 55 102.5C55 103.881 53.8807 105 52.5 105Z" fill="#21B5E8"/>
<path d="M27.5 5C26.1193 5 25 3.88071 25 2.5C25 1.11929 26.1193 1.03243e-06 27.5 1.09278e-06C28.8807 1.15314e-06 30 1.11929 30 2.5C30 3.88071 28.8807 5 27.5 5Z" fill="#21B5E8"/>
<path d="M27.5 30C26.1193 30 25 28.8807 25 27.5C25 26.1193 26.1193 25 27.5 25C28.8807 25 30 26.1193 30 27.5C30 28.8807 28.8807 30 27.5 30Z" fill="#21B5E8"/>
<path d="M27.5 55C26.1193 55 25 53.8807 25 52.5C25 51.1193 26.1193 50 27.5 50C28.8807 50 30 51.1193 30 52.5C30 53.8807 28.8807 55 27.5 55Z" fill="#21B5E8"/>
<path d="M27.5 80C26.1193 80 25 78.8807 25 77.5C25 76.1193 26.1193 75 27.5 75C28.8807 75 30 76.1193 30 77.5C30 78.8807 28.8807 80 27.5 80Z" fill="#21B5E8"/>
<path d="M27.5 105C26.1193 105 25 103.881 25 102.5C25 101.119 26.1193 100 27.5 100C28.8807 100 30 101.119 30 102.5C30 103.881 28.8807 105 27.5 105Z" fill="#21B5E8"/>
<path d="M2.5 5C1.1193 5 4.31079e-06 3.88071 4.37114e-06 2.5C4.43149e-06 1.11929 1.1193 -6.03526e-08 2.5 0C3.88071 6.03526e-08 5 1.11929 5 2.5C5 3.88071 3.88071 5 2.5 5Z" fill="#21B5E8"/>
<path d="M2.5 30C1.1193 30 3.218e-06 28.8807 3.27835e-06 27.5C3.33871e-06 26.1193 1.1193 25 2.5 25C3.88071 25 5 26.1193 5 27.5C5 28.8807 3.88071 30 2.5 30Z" fill="#21B5E8"/>
<path d="M2.5 55C1.1193 55 2.12522e-06 53.8807 2.18557e-06 52.5C2.24592e-06 51.1193 1.1193 50 2.5 50C3.88071 50 5 51.1193 5 52.5C5 53.8807 3.88071 55 2.5 55Z" fill="#21B5E8"/>
<path d="M2.5 80C1.11929 80 1.03243e-06 78.8807 1.09278e-06 77.5C1.15314e-06 76.1193 1.11929 75 2.5 75C3.88071 75 5 76.1193 5 77.5C5 78.8807 3.88071 80 2.5 80Z" fill="#21B5E8"/>
<path d="M2.5 105C1.11929 105 -6.03529e-08 103.881 0 102.5C6.03529e-08 101.119 1.11929 100 2.5 100C3.88071 100 5 101.119 5 102.5C5 103.881 3.88071 105 2.5 105Z" fill="#21B5E8"/>
</svg>
