<svg width="638" height="341" viewBox="0 0 638 341" fill="none" xmlns="http://www.w3.org/2000/svg">
<path opacity="0.4" d="M174.377 179.389C207.863 179.389 235.008 152.244 235.008 118.758C235.008 85.2733 207.863 58.1282 174.377 58.1282C140.892 58.1282 113.747 85.2733 113.747 118.758C113.747 152.244 140.892 179.389 174.377 179.389Z" fill="url(#paint0_linear_289:13143)"/>
<path opacity="0.4" d="M501.943 187.767C501.829 187.994 501.716 188.335 501.602 188.562C501.489 188.902 501.262 189.243 501.148 189.47C501.035 189.811 500.921 190.038 500.808 190.265C500.694 190.378 500.694 190.492 500.694 190.605C500.581 190.832 500.581 190.946 500.467 191.059C497.629 196.963 494.337 202.98 490.363 208.997C487.185 215.014 483.325 221.144 479.011 227.161C478.67 227.615 478.329 228.069 477.989 228.523C476.854 230.113 475.605 231.702 474.356 233.291C473.107 234.881 471.858 236.47 470.496 238.06C470.155 238.514 469.815 238.854 469.474 239.308C469.134 239.649 468.793 240.103 468.566 240.444C467.09 242.26 465.501 243.963 463.798 245.779C463.117 246.574 462.436 247.255 461.754 247.936L461.641 248.05C459.03 250.775 456.305 253.499 453.467 256.224C453.353 256.451 453.126 256.564 453.013 256.678C452.672 257.019 452.332 257.246 451.991 257.586C449.834 259.63 447.564 261.673 445.293 263.603L445.066 263.83C444.839 263.944 444.725 264.171 444.498 264.284C444.158 264.625 443.817 264.852 443.477 265.192C440.979 267.236 438.481 269.393 435.984 271.323C429.74 276.205 423.269 280.859 416.344 285.287C410.554 289.033 404.423 292.666 398.179 296.072C381.264 305.381 362.759 313.101 343.459 318.664C343.119 318.777 342.778 318.891 342.438 319.004C339.94 319.685 337.442 320.367 334.945 321.048C334.604 321.161 334.264 321.275 333.923 321.275C333.81 321.275 333.696 321.275 333.583 321.388C319.278 324.908 304.52 327.178 289.421 327.973C285.788 328.2 282.041 328.313 278.295 328.313C274.662 328.313 271.256 328.2 267.964 327.973C264.331 327.632 260.925 327.292 257.633 326.611C229.705 321.502 212.903 305.722 200.188 285.4C193.036 273.934 187.246 261.106 181.57 247.936C181.002 246.574 180.321 245.098 179.753 243.736C179.299 242.601 178.845 241.579 178.391 240.444C175.78 234.086 172.942 227.729 170.104 221.598C162.838 206.045 154.55 191.059 143.198 178.571C124.806 150.757 121.741 123.851 132.98 102.508C133.321 102.168 136.159 98.762 137.976 94.675C149.896 78.5542 171.125 66.5203 201.21 61.1845C225.164 56.984 305.201 37.2303 378.426 44.269C386.94 45.0637 395.455 46.199 403.629 47.7883C413.051 52.67 422.02 60.0493 423.269 71.1749C423.382 71.8561 423.382 72.5372 423.382 73.3319C423.496 78.6677 426.334 81.6194 430.875 82.9817C440.638 85.9334 458.462 82.0735 476.059 80.2571C491.612 78.6677 507.052 78.6677 516.247 86.3875C538.045 104.779 509.209 171.873 501.943 187.767Z" fill="url(#paint1_linear_289:13143)"/>
<path opacity="0.4" d="M296.654 54.557C308.216 54.557 317.589 45.184 317.589 33.6218C317.589 22.0595 308.216 12.6865 296.654 12.6865C285.092 12.6865 275.719 22.0595 275.719 33.6218C275.719 45.184 285.092 54.557 296.654 54.557Z" fill="url(#paint2_linear_289:13143)"/>
<path d="M432.957 110.516V270.518H166.348V110.516C166.348 105.204 170.836 100.808 176.423 100.808H422.974C428.469 100.808 432.957 105.204 432.957 110.516Z" fill="#73678C"/>
<path d="M442.483 275.921H156.916C153.711 275.921 151.055 273.265 151.055 270.06V258.428H448.345V270.06C448.345 273.265 445.689 275.921 442.483 275.921Z" fill="#9B92AD"/>
<path d="M422.242 113.996H178.713V248.262H422.242V113.996Z" fill="white"/>
<path opacity="0.4" d="M401.754 159.618H322.758C321.483 159.618 320.528 158.662 320.528 157.388C320.528 156.114 321.483 155.158 322.758 155.158H401.754C403.029 155.158 403.984 156.114 403.984 157.388C403.984 158.662 403.029 159.618 401.754 159.618Z" fill="url(#paint3_linear_289:13143)"/>
<path opacity="0.4" d="M401.754 134.454H322.758C321.483 134.454 320.528 133.498 320.528 132.224C320.528 130.95 321.483 129.994 322.758 129.994H401.754C403.029 129.994 403.984 130.95 403.984 132.224C403.984 133.498 403.029 134.454 401.754 134.454Z" fill="url(#paint4_linear_289:13143)"/>
<path opacity="0.4" d="M401.754 147.036H322.758C321.483 147.036 320.528 146.08 320.528 144.806C320.528 143.532 321.483 142.576 322.758 142.576H401.754C403.029 142.576 403.984 143.532 403.984 144.806C403.984 146.08 403.029 147.036 401.754 147.036Z" fill="url(#paint5_linear_289:13143)"/>
<path d="M364.486 179.389H325.306C322.758 179.389 320.528 177.319 320.528 174.611C320.528 172.063 322.598 169.833 325.306 169.833H364.486C367.034 169.833 369.264 171.903 369.264 174.611C369.264 177.319 367.193 179.389 364.486 179.389Z" fill="#49D1FF"/>
<path d="M353.111 233.491L390.183 233.491L390.183 198.563L353.111 198.563L353.111 233.491Z" fill="white" stroke="#49D1FF" stroke-miterlimit="10" stroke-linecap="round"/>
<path d="M390.183 233.491L353.111 198.563" stroke="#49D1FF" stroke-miterlimit="10" stroke-linecap="round"/>
<path d="M390.183 198.563L353.111 233.491" stroke="#49D1FF" stroke-miterlimit="10" stroke-linecap="round"/>
<path d="M281.116 233.491L318.188 233.491L318.188 198.563L281.116 198.563L281.116 233.491Z" fill="white" stroke="#49D1FF" stroke-miterlimit="10" stroke-linecap="round"/>
<path d="M318.188 233.491L281.116 198.563" stroke="#49D1FF" stroke-miterlimit="10" stroke-linecap="round"/>
<path d="M318.188 198.563L281.116 233.491" stroke="#49D1FF" stroke-miterlimit="10" stroke-linecap="round"/>
<path d="M209.122 233.491L246.195 233.491L246.195 198.563L209.122 198.563L209.122 233.491Z" fill="white" stroke="#49D1FF" stroke-miterlimit="10" stroke-linecap="round"/>
<path d="M246.195 233.491L209.122 198.563" stroke="#49D1FF" stroke-miterlimit="10" stroke-linecap="round"/>
<path d="M246.195 198.563L209.122 233.491" stroke="#49D1FF" stroke-miterlimit="10" stroke-linecap="round"/>
<path d="M299.7 122.982H196.872V181.129H299.7V122.982Z" fill="#B2ECFF"/>
<path d="M272.463 144.481C275.337 144.481 277.666 142.152 277.666 139.278C277.666 136.405 275.337 134.076 272.463 134.076C269.59 134.076 267.261 136.405 267.261 139.278C267.261 142.152 269.59 144.481 272.463 144.481Z" fill="white"/>
<path d="M218.218 173.784L237.422 142.416L248.286 160.242L257.162 148.919L278.278 173.784H218.218Z" fill="white"/>
<path d="M246.011 268.412C246.011 272.35 242.806 275.464 238.959 275.464H190.418C186.48 275.464 183.366 272.258 183.366 268.412V157.775C183.366 153.837 186.572 150.723 190.418 150.723H196.921C197.562 150.723 198.02 151.181 198.02 151.822V152.188C198.02 153.928 199.394 155.211 201.134 155.211H228.427C230.167 155.211 231.541 153.837 231.541 152.097V151.73C231.541 151.089 231.999 150.631 232.64 150.631H239.142C243.081 150.631 246.195 153.837 246.195 157.684L246.011 268.412Z" fill="white" stroke="#36255A" stroke-miterlimit="10" stroke-linecap="round"/>
<path d="M344.896 260.718L453.06 260.718L453.06 267.587C453.06 272.166 449.305 275.921 444.725 275.921L353.23 275.921C348.651 275.921 344.896 272.166 344.896 267.587L344.896 260.718Z" fill="#36255A" stroke="#36255A" stroke-miterlimit="10"/>
<path d="M353.23 122.331L444.725 122.331C449.305 122.331 453.06 126.086 453.06 130.666L453.06 260.719L344.896 260.719L344.896 130.666C344.896 126.086 348.559 122.331 353.23 122.331Z" fill="white" stroke="#36255A" stroke-miterlimit="10"/>
<path d="M401.588 268.32C401.588 266.853 400.399 265.664 398.932 265.664C397.465 265.664 396.276 266.853 396.276 268.32C396.276 269.787 397.465 270.976 398.932 270.976C400.399 270.976 401.588 269.787 401.588 268.32Z" fill="white"/>
<path opacity="0.4" d="M424.856 228.784H355.08C353.954 228.784 353.11 227.94 353.11 226.815C353.11 225.689 353.954 224.845 355.08 224.845H424.856C425.981 224.845 426.826 225.689 426.826 226.815C426.826 227.94 425.981 228.784 424.856 228.784Z" fill="url(#paint6_linear_289:13143)"/>
<path opacity="0.4" d="M424.857 206.556H355.08C353.955 206.556 353.111 205.712 353.111 204.586C353.111 203.461 353.955 202.617 355.08 202.617H424.857C425.982 202.617 426.826 203.461 426.826 204.586C426.826 205.712 425.982 206.556 424.857 206.556Z" fill="url(#paint7_linear_289:13143)"/>
<path opacity="0.4" d="M424.856 217.671H355.08C353.954 217.671 353.11 216.827 353.11 215.701C353.11 214.576 353.954 213.732 355.08 213.732H424.856C425.981 213.732 426.826 214.576 426.826 215.701C426.826 216.827 425.981 217.671 424.856 217.671Z" fill="url(#paint8_linear_289:13143)"/>
<path d="M391.937 246.248H357.331C355.08 246.248 353.11 244.419 353.11 242.027C353.11 239.776 354.939 237.807 357.331 237.807H391.937C394.188 237.807 396.158 239.636 396.158 242.027C396.158 244.419 394.329 246.248 391.937 246.248Z" fill="#49D1FF"/>
<path d="M443.937 137.804H353.11V189.164H443.937V137.804Z" fill="#B2ECFF"/>
<path d="M419.879 156.794C422.417 156.794 424.474 154.736 424.474 152.198C424.474 149.66 422.417 147.603 419.879 147.603C417.341 147.603 415.283 149.66 415.283 152.198C415.283 154.736 417.341 156.794 419.879 156.794Z" fill="white"/>
<path d="M371.965 182.677L388.928 154.97L398.524 170.716L406.363 160.714L425.015 182.677H371.965Z" fill="white"/>
<path d="M521.431 275.464H126.418V281.234H521.431V275.464Z" fill="white" stroke="#36255A" stroke-miterlimit="10" stroke-linecap="round"/>
<path opacity="0.4" d="M229.217 218.412H190.964C190.347 218.412 189.884 217.95 189.884 217.333C189.884 216.716 190.347 216.253 190.964 216.253H229.217C229.834 216.253 230.297 216.716 230.297 217.333C230.297 217.95 229.834 218.412 229.217 218.412Z" fill="url(#paint9_linear_289:13143)"/>
<path opacity="0.4" d="M229.217 206.226H190.964C190.347 206.226 189.884 205.764 189.884 205.147C189.884 204.53 190.347 204.067 190.964 204.067H229.217C229.834 204.067 230.297 204.53 230.297 205.147C230.297 205.764 229.834 206.226 229.217 206.226Z" fill="url(#paint10_linear_289:13143)"/>
<path opacity="0.4" d="M229.217 212.32H190.964C190.347 212.32 189.884 211.857 189.884 211.24C189.884 210.623 190.347 210.16 190.964 210.16H229.217C229.834 210.16 230.297 210.623 230.297 211.24C230.297 211.857 229.834 212.32 229.217 212.32Z" fill="url(#paint11_linear_289:13143)"/>
<path d="M211.17 227.987H192.197C190.964 227.987 189.884 226.984 189.884 225.673C189.884 224.439 190.886 223.359 192.197 223.359H211.17C212.404 223.359 213.484 224.362 213.484 225.673C213.484 226.984 212.481 227.987 211.17 227.987Z" fill="#49D1FF"/>
<path d="M239.272 254.55L257.224 254.55L257.224 237.637L239.272 237.637L239.272 254.55Z" fill="white" stroke="#49D1FF" stroke-width="0.484237" stroke-miterlimit="10" stroke-linecap="round"/>
<path d="M257.224 254.55L239.272 237.637" stroke="#49D1FF" stroke-width="0.484237" stroke-miterlimit="10" stroke-linecap="round"/>
<path d="M257.224 237.637L239.272 254.55" stroke="#49D1FF" stroke-width="0.484237" stroke-miterlimit="10" stroke-linecap="round"/>
<path d="M214.578 254.55L232.53 254.55L232.53 237.637L214.578 237.637L214.578 254.55Z" fill="white" stroke="#49D1FF" stroke-width="0.484237" stroke-miterlimit="10" stroke-linecap="round"/>
<path d="M232.53 254.55L214.578 237.637" stroke="#49D1FF" stroke-width="0.484237" stroke-miterlimit="10" stroke-linecap="round"/>
<path d="M232.53 237.637L214.578 254.55" stroke="#49D1FF" stroke-width="0.484237" stroke-miterlimit="10" stroke-linecap="round"/>
<path d="M189.884 254.55L207.836 254.55L207.836 237.637L189.884 237.637L189.884 254.55Z" fill="white" stroke="#49D1FF" stroke-width="0.484237" stroke-miterlimit="10" stroke-linecap="round"/>
<path d="M207.836 254.55L189.884 237.637" stroke="#49D1FF" stroke-width="0.484237" stroke-miterlimit="10" stroke-linecap="round"/>
<path d="M207.836 237.637L189.884 254.55" stroke="#49D1FF" stroke-width="0.484237" stroke-miterlimit="10" stroke-linecap="round"/>
<path d="M239.677 168.535H189.884V196.692H239.677V168.535Z" fill="#B2ECFF"/>
<path d="M226.488 178.945C227.879 178.945 229.007 177.817 229.007 176.426C229.007 175.035 227.879 173.907 226.488 173.907C225.097 173.907 223.969 175.035 223.969 176.426C223.969 177.817 225.097 178.945 226.488 178.945Z" fill="white"/>
<path d="M200.221 193.135L209.52 177.945L214.781 186.578L219.078 181.094L229.304 193.135H200.221Z" fill="white"/>
<rect x="246.53" y="224.526" width="25.1953" height="23.7361" fill="white"/>
<rect x="246.53" y="248.262" width="25.3745" height="10.0615" fill="#73678C"/>
<rect x="245.526" y="234" width="1.00391" height="24.1875" fill="#36255A"/>
<defs>
<linearGradient id="paint0_linear_289:13143" x1="119.304" y1="93.3535" x2="229.552" y2="143.977" gradientUnits="userSpaceOnUse">
<stop stop-color="#49D1FF"/>
<stop offset="0.5624" stop-color="#49D1FF" stop-opacity="0"/>
</linearGradient>
<linearGradient id="paint1_linear_289:13143" x1="436.036" y1="286.596" x2="207.551" y2="-8.82949" gradientUnits="userSpaceOnUse">
<stop stop-color="#49D1FF"/>
<stop offset="0.5624" stop-color="#49D1FF" stop-opacity="0"/>
</linearGradient>
<linearGradient id="paint2_linear_289:13143" x1="311.506" y1="48.3478" x2="281.862" y2="18.7036" gradientUnits="userSpaceOnUse">
<stop stop-color="#49D1FF"/>
<stop offset="0.5624" stop-color="#49D1FF" stop-opacity="0"/>
</linearGradient>
<linearGradient id="paint3_linear_289:13143" x1="320.546" y1="157.406" x2="404.018" y2="157.406" gradientUnits="userSpaceOnUse">
<stop stop-color="#49D1FF"/>
<stop offset="0.9031" stop-color="#49D1FF" stop-opacity="0"/>
</linearGradient>
<linearGradient id="paint4_linear_289:13143" x1="320.546" y1="132.223" x2="404.018" y2="132.223" gradientUnits="userSpaceOnUse">
<stop stop-color="#49D1FF"/>
<stop offset="0.9031" stop-color="#49D1FF" stop-opacity="0"/>
</linearGradient>
<linearGradient id="paint5_linear_289:13143" x1="320.546" y1="144.815" x2="404.018" y2="144.815" gradientUnits="userSpaceOnUse">
<stop stop-color="#49D1FF"/>
<stop offset="0.9031" stop-color="#49D1FF" stop-opacity="0"/>
</linearGradient>
<linearGradient id="paint6_linear_289:13143" x1="353.126" y1="226.831" x2="426.855" y2="226.831" gradientUnits="userSpaceOnUse">
<stop stop-color="#49D1FF"/>
<stop offset="0.9031" stop-color="#49D1FF" stop-opacity="0"/>
</linearGradient>
<linearGradient id="paint7_linear_289:13143" x1="353.127" y1="204.586" x2="426.856" y2="204.586" gradientUnits="userSpaceOnUse">
<stop stop-color="#49D1FF"/>
<stop offset="0.9031" stop-color="#49D1FF" stop-opacity="0"/>
</linearGradient>
<linearGradient id="paint8_linear_289:13143" x1="353.126" y1="215.709" x2="426.855" y2="215.709" gradientUnits="userSpaceOnUse">
<stop stop-color="#49D1FF"/>
<stop offset="0.9031" stop-color="#49D1FF" stop-opacity="0"/>
</linearGradient>
<linearGradient id="paint9_linear_289:13143" x1="189.892" y1="217.342" x2="230.313" y2="217.342" gradientUnits="userSpaceOnUse">
<stop stop-color="#49D1FF"/>
<stop offset="0.9031" stop-color="#49D1FF" stop-opacity="0"/>
</linearGradient>
<linearGradient id="paint10_linear_289:13143" x1="189.893" y1="205.146" x2="230.313" y2="205.146" gradientUnits="userSpaceOnUse">
<stop stop-color="#49D1FF"/>
<stop offset="0.9031" stop-color="#49D1FF" stop-opacity="0"/>
</linearGradient>
<linearGradient id="paint11_linear_289:13143" x1="189.892" y1="211.244" x2="230.313" y2="211.244" gradientUnits="userSpaceOnUse">
<stop stop-color="#49D1FF"/>
<stop offset="0.9031" stop-color="#49D1FF" stop-opacity="0"/>
</linearGradient>
</defs>
</svg>
