<svg width="638" height="341" viewBox="0 0 638 341" fill="none" xmlns="http://www.w3.org/2000/svg">
<path opacity="0.4" d="M426.757 113.618C434.737 113.618 441.205 107.149 441.205 99.1698C441.205 91.1904 434.737 84.7217 426.757 84.7217C418.778 84.7217 412.309 91.1904 412.309 99.1698C412.309 107.149 418.778 113.618 426.757 113.618Z" fill="url(#paint0_linear_289:13193)"/>
<path opacity="0.4" d="M456.438 212.473C480.796 212.473 500.542 192.727 500.542 168.369C500.542 144.01 480.796 124.264 456.438 124.264C432.079 124.264 412.333 144.01 412.333 168.369C412.333 192.727 432.079 212.473 456.438 212.473Z" fill="url(#paint1_linear_289:13193)"/>
<path opacity="0.4" d="M149.73 103.809C156.508 103.809 162.003 98.3142 162.003 91.5365C162.003 84.7587 156.508 79.2642 149.73 79.2642C142.952 79.2642 137.458 84.7587 137.458 91.5365C137.458 98.3142 142.952 103.809 149.73 103.809Z" fill="url(#paint2_linear_289:13193)"/>
<path opacity="0.4" d="M369.801 276.501C366.531 277.337 363.261 278.098 359.839 278.782C343.338 281.976 326.533 285.93 310.26 289.58C309.347 289.808 308.511 289.961 307.598 290.189C253.152 302.279 206.462 309.427 206.462 265.551C206.462 251.787 191.709 237.947 179.162 222.739C166.235 206.998 155.741 189.812 166.387 169.661C188.668 127.61 293.682 74.9882 323.415 74.9882C381.131 74.9882 427.974 106.774 450.254 154.757C471.546 200.61 436.186 259.011 369.801 276.501Z" fill="url(#paint3_linear_289:13193)"/>
<path d="M479.607 164.566C479.607 174.3 475.652 183.121 469.265 189.508C462.877 195.896 454.056 199.85 444.323 199.85H218.172C198.629 199.85 182.812 184.033 182.812 164.49C182.812 154.757 186.767 145.936 193.154 139.548C197.032 135.67 201.823 132.628 207.222 130.88C209.656 102.744 233.305 80.6914 262.049 80.6914C262.961 80.6914 263.874 80.6914 264.862 80.7675C277.409 57.4984 301.971 41.6055 330.335 41.6055C367.216 41.6055 397.785 68.4486 403.64 103.656C405.997 103.124 408.431 102.82 411.016 102.82C426.985 102.82 440.293 114.074 443.562 129.054H444.323C463.79 129.207 479.607 145.023 479.607 164.566Z" stroke="#36255A" stroke-miterlimit="10" stroke-linecap="round"/>
<path d="M233.028 187.148L235.131 225.916L259.846 223.964L256.971 202.617C255.983 202.845 254.977 203.424 253.913 203.5C245.092 203.956 237.059 196.806 233.028 187.148Z" fill="#F4BE9A"/>
<path d="M222.507 184.109C225.549 183.349 228.59 184.185 228.59 184.185L227.678 174.224C227.45 174.376 227.145 174.528 226.841 174.68C224.94 175.364 222.811 174.604 221.214 172.855C221.214 172.855 222.583 179.775 221.214 180.307C219.769 180.839 219.465 184.946 222.507 184.109Z" fill="#73678C"/>
<path d="M312.085 274.752L308.815 286.234L307.675 290.189C253.228 302.279 206.538 309.427 206.538 265.551C206.538 251.787 191.786 237.947 179.239 222.739C181.596 220.077 183.801 217.948 185.778 216.579C196.957 208.747 232.012 205.401 233.913 205.173C233.989 205.173 233.989 205.173 233.989 205.173C243.267 215.895 255.738 206.466 257.182 205.249C257.258 205.173 257.334 205.173 257.334 205.173C268.133 206.238 278.702 209.964 287.523 214.146C301.135 220.534 310.564 227.986 310.564 227.986L311.781 266.235L311.933 271.558L312.085 274.752Z" fill="#744CC6"/>
<path d="M232.165 165.935L233.153 187.759C237.183 197.417 245.092 203.88 253.989 203.5C255.053 203.424 256.026 203.393 257.015 203.089L255.434 164.87L232.165 165.935Z" fill="#FCC9A7"/>
<path d="M249.332 193.873C260.374 192.87 268.142 179.037 266.684 162.977C265.225 146.916 255.091 134.709 244.05 135.712C233.008 136.715 225.239 150.547 226.698 166.608C228.157 182.669 238.29 194.876 249.332 193.873Z" fill="#FCC9A7"/>
<path d="M219.009 169.813C217.716 166.239 218.857 162.513 221.594 161.524C224.408 160.536 227.754 162.665 229.047 166.239C229.199 166.619 229.351 167.076 229.427 167.456C244.711 161.448 248.818 148.673 248.818 148.673C248.818 148.673 239.541 133.084 223.496 137.343C208.059 141.601 218.173 167.912 219.009 169.813Z" fill="#73678C"/>
<path d="M245.624 152.856C255.281 156.734 265.471 155.517 271.63 149.586C276.801 144.567 280.451 134.986 276.801 129.587C275.128 127.153 272.543 126.317 271.935 126.165C270.718 125.785 269.425 125.785 268.284 125.937C263.418 126.621 259.387 130.879 259.235 131.108C256.422 134.149 257.41 135.594 255.433 136.507C250.947 138.712 245.7 131.108 239.236 133.237C238.704 133.389 236.575 134.149 235.662 135.898C233.837 139.548 237.639 146.392 245.624 152.856Z" fill="#73678C"/>
<path d="M255.129 186.315C255.053 186.695 254.901 186.923 254.749 187.075C251.935 189.204 240.453 197.037 226.765 192.474C212.241 187.531 214.902 181.98 221.67 179.699C218.857 170.802 213.229 151.867 215.587 150.118L244.939 145.784L253.152 161.297C253.076 161.221 256.346 181.904 255.129 186.315Z" fill="#73678C"/>
<path d="M245.928 167.988C245.928 168.064 245.928 168.14 245.928 168.14C246.156 169.281 246.613 170.345 247.221 171.258C248.59 173.235 250.567 174.3 252.544 173.843C252.848 173.767 253.152 173.691 253.456 173.539C255.433 172.627 256.65 170.041 256.422 167.152C256.422 166.771 256.346 166.315 256.27 165.859C255.433 162.057 252.468 159.547 249.654 160.156C246.841 160.764 245.168 164.262 245.928 167.988Z" fill="#FCC9A7"/>
<path d="M392.386 195.059C390.333 198.253 388.66 200.763 388.66 200.763L386.302 206.846C384.173 211.637 382.044 216.047 379.915 220.077L377.557 225.172C349.954 285.55 327.065 291.71 324.328 291.253C321.362 291.71 313.606 283.117 304.024 270.266C302.884 268.745 301.743 267.148 300.526 265.551C300.526 265.551 299.994 264.79 299.538 264.182C299.31 263.878 289.804 250.494 291.705 248.593C293.226 247.073 300.146 255.361 307.218 253.612C311.552 252.548 314.214 248.213 315.887 244.487C317.408 247.301 319.005 249.962 320.601 252.472C320.906 252.928 321.21 253.46 321.514 253.916C322.198 254.981 322.883 256.046 323.491 257.034C324.936 259.239 326.381 261.293 327.826 263.118C346.684 243.803 358.395 226.921 368.28 211.18C370.79 207.15 373.147 203.348 374.896 200.458C375.428 199.546 376.037 198.633 376.569 197.721C377.633 195.972 378.242 194.983 378.242 194.983C378.242 194.983 378.318 194.603 378.47 193.919C378.47 193.919 378.698 186.543 380.447 186.771C382.196 186.923 381.968 188.52 383.108 188.9C384.249 189.28 385.922 188.52 386.53 189.508C387.215 190.497 386.911 190.725 388.812 190.953C390.256 191.105 390.941 191.333 391.169 191.714C391.245 191.866 391.245 192.018 391.321 192.17C391.245 192.702 391.473 193.615 392.386 195.059Z" fill="#FCC9A7"/>
<path d="M394.972 204.108C394.287 204.565 393.375 204.717 392.614 204.489C392.082 204.337 391.626 203.956 391.245 203.5L374.516 179.471C375.657 178.862 376.645 178.178 377.634 177.417C378.014 177.113 378.47 176.733 378.851 176.429L395.58 200.458C396.492 201.599 396.188 203.272 394.972 204.108Z" fill="#49D1FF"/>
<path d="M384.782 167C384.249 168.901 383.337 170.726 382.272 172.475C381.284 173.996 380.143 175.288 378.926 176.429C378.546 176.809 378.166 177.113 377.71 177.417C376.721 178.178 375.657 178.862 374.592 179.471C368.052 182.969 359.84 182.893 353.148 178.482C343.415 172.094 340.677 159.091 347.065 149.358C353.452 139.624 366.455 136.963 376.189 143.274C384.173 148.521 387.443 158.255 384.782 167Z" stroke="#36255A" stroke-miterlimit="10" stroke-linecap="round"/>
<path opacity="0.4" d="M364.63 175.288C372.568 175.288 379.002 168.854 379.002 160.916C379.002 152.979 372.568 146.544 364.63 146.544C356.693 146.544 350.258 152.979 350.258 160.916C350.258 168.854 356.693 175.288 364.63 175.288Z" fill="url(#paint4_linear_289:13193)"/>
<path d="M381.435 187.075C381.74 185.022 382.88 183.425 384.249 183.197C385.542 182.969 386.911 184.109 387.215 184.413C388.355 185.326 388.279 186.01 389.116 186.314C390.18 186.695 390.713 185.934 391.701 186.391C392.538 186.771 392.386 187.455 393.374 187.987C394.211 188.368 394.515 188.063 394.971 188.444C395.808 189.204 394.895 191.485 394.743 192.018C393.222 195.896 389.344 200.154 387.215 202.359C385.618 199.698 384.097 196.96 382.5 194.299C381.816 193.006 381.207 191.79 380.523 190.497C380.827 189.356 381.131 188.216 381.435 187.075Z" fill="#FCC9A7"/>
<path d="M294.899 288.896C308.055 277.033 321.134 265.094 334.29 253.232C331.324 248.745 327.598 243.879 323.035 239.012C309.424 224.716 294.367 217.264 284.025 213.233C287.599 238.48 291.249 263.726 294.899 288.896Z" fill="#744CC6"/>
<path d="M305.926 279.01L303.416 280.988C296.952 271.178 290.413 261.369 283.949 251.635" stroke="#36255A" stroke-miterlimit="10" stroke-linecap="round"/>
<path d="M240.529 269.809C240.529 269.809 245.776 261.673 255.737 262.281C255.737 262.205 252.772 270.874 240.529 269.809Z" fill="#36255A"/>
<path d="M226.841 264.867C226.841 264.867 218.172 260.456 217.792 250.494C217.792 250.571 226.689 252.548 226.841 264.867Z" fill="white"/>
<path d="M307.446 260.913C307.446 260.913 307.598 251.255 316.419 246.464C316.419 246.54 318.472 255.361 307.446 260.913Z" fill="white"/>
<path d="M282.428 288.06C282.428 288.06 273.759 283.649 273.379 273.688C273.379 273.688 282.2 275.741 282.428 288.06Z" stroke="white" stroke-miterlimit="10"/>
<path d="M198.325 229.05C198.325 229.05 202.736 220.458 212.697 220.077C212.697 220.077 210.644 228.898 198.325 229.05Z" stroke="white" stroke-miterlimit="10"/>
<path d="M261.212 248.365C261.212 248.365 270.414 245.324 277.79 252.015C277.79 252.015 270.109 256.882 261.212 248.365Z" fill="white"/>
<path d="M225.016 291.633C225.016 291.633 229.742 282.336 240.494 281.934C240.494 281.934 238.313 291.473 225.016 291.633Z" stroke="white" stroke-miterlimit="10"/>
<path d="M300.83 239.164C300.83 239.164 291.173 238.252 287.143 229.127C287.143 229.127 296.192 227.758 300.83 239.164Z" fill="#36255A"/>
<path d="M262.733 95.0637H391.853" stroke="#36255A" stroke-miterlimit="10" stroke-linecap="round"/>
<path d="M282.58 95.0639L294.594 82.5929H307.75L312.692 87.5357H342.045L345.999 83.5054H377.253" stroke="#36255A" stroke-miterlimit="10" stroke-linecap="round"/>
<path d="M329.346 87.3835L345.619 71.1104H365.619" stroke="#36255A" stroke-miterlimit="10" stroke-linecap="round"/>
<path d="M285.926 95.1396L299.157 108.371H307.142L311.628 103.809H342.349L345.999 107.535H375.124" stroke="#36255A" stroke-miterlimit="10" stroke-linecap="round"/>
<path d="M329.119 103.809L344.783 119.473H366.608" stroke="#36255A" stroke-miterlimit="10" stroke-linecap="round"/>
<path d="M366.684 73.9998C368.279 73.9998 369.573 72.7061 369.573 71.1102C369.573 69.5143 368.279 68.2206 366.684 68.2206C365.088 68.2206 363.794 69.5143 363.794 71.1102C363.794 72.7061 365.088 73.9998 366.684 73.9998Z" fill="#36255A"/>
<path d="M377.405 86.3187C379.001 86.3187 380.295 85.0249 380.295 83.429C380.295 81.8332 379.001 80.5394 377.405 80.5394C375.809 80.5394 374.516 81.8332 374.516 83.429C374.516 85.0249 375.809 86.3187 377.405 86.3187Z" fill="#36255A"/>
<path d="M392.157 97.8772C393.753 97.8772 395.047 96.5835 395.047 94.9876C395.047 93.3917 393.753 92.098 392.157 92.098C390.561 92.098 389.268 93.3917 389.268 94.9876C389.268 96.5835 390.561 97.8772 392.157 97.8772Z" fill="#36255A"/>
<path d="M375.048 110.348C376.644 110.348 377.937 109.054 377.937 107.458C377.937 105.862 376.644 104.569 375.048 104.569C373.452 104.569 372.158 105.862 372.158 107.458C372.158 109.054 373.452 110.348 375.048 110.348Z" fill="#36255A"/>
<path d="M366.835 122.211C368.431 122.211 369.725 120.917 369.725 119.321C369.725 117.725 368.431 116.431 366.835 116.431C365.239 116.431 363.945 117.725 363.945 119.321C363.945 120.917 365.239 122.211 366.835 122.211Z" fill="#36255A"/>
<path d="M262.277 97.8772C263.873 97.8772 265.166 96.5835 265.166 94.9876C265.166 93.3917 263.873 92.098 262.277 92.098C260.681 92.098 259.387 93.3917 259.387 94.9876C259.387 96.5835 260.681 97.8772 262.277 97.8772Z" fill="#36255A"/>
<path d="M291.097 132.781H304.404L311.628 140.081H318.928" stroke="#36255A" stroke-miterlimit="10" stroke-linecap="round"/>
<path d="M340.144 125.1H334.061L311.096 147.989H294.671" stroke="#36255A" stroke-miterlimit="10" stroke-linecap="round"/>
<path d="M335.429 153.312H328.51L298.397 183.425H287.294" stroke="#36255A" stroke-miterlimit="10" stroke-linecap="round"/>
<path d="M286.534 162.666H319.08" stroke="#36255A" stroke-miterlimit="10" stroke-linecap="round"/>
<path d="M293.074 135.67C294.67 135.67 295.963 134.377 295.963 132.781C295.963 131.185 294.67 129.891 293.074 129.891C291.478 129.891 290.184 131.185 290.184 132.781C290.184 134.377 291.478 135.67 293.074 135.67Z" fill="#36255A"/>
<path d="M293.91 150.651C295.506 150.651 296.8 149.357 296.8 147.761C296.8 146.165 295.506 144.871 293.91 144.871C292.314 144.871 291.021 146.165 291.021 147.761C291.021 149.357 292.314 150.651 293.91 150.651Z" fill="#36255A"/>
<path d="M340.144 127.99C341.74 127.99 343.034 126.696 343.034 125.1C343.034 123.505 341.74 122.211 340.144 122.211C338.548 122.211 337.254 123.505 337.254 125.1C337.254 126.696 338.548 127.99 340.144 127.99Z" fill="#36255A"/>
<path d="M336.57 156.202C338.166 156.202 339.46 154.908 339.46 153.312C339.46 151.716 338.166 150.423 336.57 150.423C334.974 150.423 333.681 151.716 333.681 153.312C333.681 154.908 334.974 156.202 336.57 156.202Z" fill="#36255A"/>
<path d="M286.534 165.555C288.13 165.555 289.424 164.261 289.424 162.665C289.424 161.07 288.13 159.776 286.534 159.776C284.938 159.776 283.645 161.07 283.645 162.665C283.645 164.261 284.938 165.555 286.534 165.555Z" fill="#36255A"/>
<path d="M286.534 186.011C288.13 186.011 289.424 184.717 289.424 183.121C289.424 181.525 288.13 180.231 286.534 180.231C284.938 180.231 283.645 181.525 283.645 183.121C283.645 184.717 284.938 186.011 286.534 186.011Z" fill="#36255A"/>
<path d="M489.565 75.2975L489.016 71.7961L485.652 70.7663C485.446 70.6976 480.297 69.1872 466.017 65.4113C465.399 65.274 464.712 65.068 464.026 64.862C447.274 60.5368 439.516 58.9578 439.173 58.8891L438.074 58.6832L436.976 58.8891C436.633 58.9578 428.875 60.4682 412.123 64.7934C396.333 68.7753 390.703 70.423 390.497 70.4917L387.064 71.4528L386.515 74.9542C386.309 75.6407 383.632 92.461 390.909 122.875C395.783 143.196 409.308 157.476 422.833 165.784C427.227 168.53 431.69 170.589 435.809 172.031L437.662 172.649L439.516 172.031C456.199 166.333 478.1 150.13 484.759 123.218C492.243 92.8043 489.702 75.984 489.565 75.2975Z" fill="white" stroke="#36255A" stroke-miterlimit="10" stroke-linecap="round"/>
<path d="M437.663 169.285L436.908 169.01C420.98 163.449 400.247 147.865 394.068 122.12C386.928 92.3236 389.536 76.1213 389.605 75.4347L389.88 73.9243L391.321 73.5124C391.527 73.4437 397.088 71.8647 412.879 67.8141C429.562 63.5576 437.251 62.0472 437.594 61.9785L438.075 61.9099L438.555 62.0472C438.899 62.1158 446.519 63.6949 463.202 68.0887C478.924 72.208 484.485 73.8557 484.691 73.9243L486.133 74.3362L486.339 75.8466C486.476 76.5332 488.879 92.7355 481.533 122.463C475.217 148.139 454.346 163.587 438.35 169.01L437.663 169.285ZM394.205 77.7003C393.793 82.3001 393.106 97.1981 398.736 120.952C404.366 144.363 423.04 158.712 437.663 164.136C452.355 158.849 471.166 144.638 476.933 121.227C482.837 97.404 482.22 82.5747 481.808 77.9749C479.199 77.2197 473.157 75.572 461.967 72.6199C447.755 68.9126 439.929 67.1962 438.006 66.7843C436.084 67.1962 428.326 68.8439 414.046 72.4826C402.855 75.3661 396.745 77.0138 394.205 77.7003Z" fill="#36255A"/>
<path d="M489.565 75.2975L489.016 71.7961L485.652 70.7663C485.446 70.6976 480.297 69.1872 466.017 65.4113C465.399 65.274 464.712 65.068 464.026 64.862C447.274 60.5368 439.516 58.9578 439.173 58.8891L438.074 58.6832L436.976 58.8891C436.633 58.9578 428.875 60.4682 412.123 64.7934C396.333 68.7753 390.703 70.423 390.497 70.4917L387.064 71.4528L386.515 74.9542C386.309 75.6407 383.632 92.461 390.909 122.875C395.783 143.196 409.308 157.476 422.833 165.784C427.227 168.53 431.69 170.589 435.809 172.031L437.662 172.649L439.516 172.031C456.199 166.333 478.1 150.13 484.759 123.218C492.243 92.8043 489.702 75.984 489.565 75.2975Z" stroke="#36255A" stroke-miterlimit="10" stroke-linecap="round"/>
<path d="M455.471 130.061V104.764H420.485V130.061H455.471Z" fill="#49D1FF" stroke="#36255A"/>
<path d="M446.791 97.5478V104.764H429.165V97.5478C429.165 92.6802 433.11 88.7343 437.978 88.7343C442.846 88.7343 446.791 92.6802 446.791 97.5478Z" stroke="#36255A"/>
<circle cx="437.978" cy="115.739" r="2.46271" fill="white"/>
<path d="M437.977 121.549V115.739H436.399L433.936 121.549H437.977Z" fill="white"/>
<path d="M437.977 121.549V115.739H439.556L442.019 121.549H437.977Z" fill="white"/>
<defs>
<linearGradient id="paint0_linear_289:13193" x1="418.445" y1="110.995" x2="435.022" y2="87.4128" gradientUnits="userSpaceOnUse">
<stop stop-color="#49D1FF"/>
<stop offset="0.9098" stop-color="#49D1FF" stop-opacity="0"/>
</linearGradient>
<linearGradient id="paint1_linear_289:13193" x1="431.077" y1="204.442" x2="481.81" y2="132.273" gradientUnits="userSpaceOnUse">
<stop stop-color="#49D1FF"/>
<stop offset="0.9098" stop-color="#49D1FF" stop-opacity="0"/>
</linearGradient>
<linearGradient id="paint2_linear_289:13193" x1="142.674" y1="101.574" x2="156.79" y2="81.4927" gradientUnits="userSpaceOnUse">
<stop stop-color="#49D1FF"/>
<stop offset="0.9098" stop-color="#49D1FF" stop-opacity="0"/>
</linearGradient>
<linearGradient id="paint3_linear_289:13193" x1="272.206" y1="247.654" x2="394.568" y2="59.5625" gradientUnits="userSpaceOnUse">
<stop stop-color="#49D1FF"/>
<stop offset="0.5624" stop-color="#49D1FF" stop-opacity="0"/>
</linearGradient>
<linearGradient id="paint4_linear_289:13193" x1="353.8" y1="151.722" x2="375.646" y2="170.32" gradientUnits="userSpaceOnUse">
<stop stop-color="#49D1FF"/>
<stop offset="0.5624" stop-color="#49D1FF" stop-opacity="0"/>
</linearGradient>
</defs>
</svg>
