<svg width="638" height="341" viewBox="0 0 638 341" fill="none" xmlns="http://www.w3.org/2000/svg">
<path opacity="0.4" d="M478.255 207.831C478.101 207.985 477.869 208.139 477.715 208.294C461.423 222.038 461.191 243.967 458.18 263.966C455.554 281.493 450.844 297.554 431.386 305.353C430.537 305.662 429.687 305.97 428.838 306.279C426.135 307.129 423.51 307.746 420.885 307.978C383.59 311.916 350.542 258.483 301.743 249.063C248.465 238.716 273.25 199.646 272.247 189.84C271.243 180.111 257.653 180.728 257.653 180.728C257.653 180.728 230.628 150.615 253.097 138.337C275.567 126.06 273.25 110.463 274.64 92.0087C275.953 73.5544 311.317 58.1115 332.937 79.1139C354.557 100.116 383.204 80.5037 383.204 80.5037C383.204 80.5037 427.602 62.1266 436.251 85.0594C444.899 107.992 425.209 138.569 448.605 144.669C472.001 150.846 509.604 182.273 478.255 207.831Z" fill="url(#paint0_linear_289:13057)"/>
<path opacity="0.4" d="M291.473 306.588C288.925 306.743 286.3 306.82 283.674 306.743C270.934 306.511 257.73 306.897 244.99 307.052C244.295 307.052 243.6 307.052 242.982 307.052C234.411 307.129 226.149 307.129 218.428 306.743C215.725 306.588 213.023 306.434 210.475 306.202C184.299 303.731 167.235 295.083 173.875 267.749V267.672C174.416 265.433 174.57 263.039 174.416 260.568C173.721 250.299 167.698 238.408 162.833 226.131C161.675 223.196 160.671 220.262 159.745 217.328C158.664 213.854 157.815 210.456 157.351 206.981C155.961 197.252 157.351 187.601 164.609 178.335C189.781 146.291 277.96 120.192 299.812 125.52C342.203 136.021 369.923 171.694 376.177 216.865C382.123 259.951 343.825 303.577 291.473 306.588Z" fill="url(#paint1_linear_289:13057)"/>
<path d="M363.205 183.739L377.026 187.677L373.706 195.707L361.738 192.31L363.205 183.739Z" stroke="#36255A" stroke-miterlimit="10" stroke-linecap="round"/>
<path d="M382.895 173.084L381.042 177.794L364.981 173.238L365.83 168.219L382.895 173.084Z" stroke="#36255A" stroke-miterlimit="10" stroke-linecap="round"/>
<path d="M386.106 170.339L364.564 164.224L363.616 167.567L385.157 173.682L386.106 170.339Z" fill="#36255A"/>
<path d="M385.771 166.656L366.755 161.258L365.806 164.601L384.822 169.999L385.771 166.656Z" fill="#36255A"/>
<path d="M381.042 177.794L377.026 187.677L363.205 183.739L364.981 173.238L381.042 177.794Z" fill="#49D1FF" stroke="#49D1FF" stroke-miterlimit="10"/>
<path d="M477.715 208.293C461.422 222.038 461.191 243.967 458.179 263.965C454.087 265.432 449.917 266.822 445.825 268.289C430.537 251.148 415.171 234.083 399.805 216.941L425.209 170.149L448.914 170.767C462.349 178.952 471.538 193.623 477.715 208.293Z" fill="#36255A"/>
<path d="M465.297 92.0497C477.585 93.4213 488.658 84.5719 490.03 72.284C491.401 59.9961 482.552 48.9229 470.264 47.5513C457.976 46.1797 446.903 55.0292 445.531 67.3171C444.16 79.605 453.009 90.6782 465.297 92.0497Z" stroke="#36255A" stroke-miterlimit="10" stroke-linecap="round"/>
<path d="M468.698 54.5925L466.983 69.9551L506.328 74.3468" stroke="#36255A" stroke-miterlimit="10" stroke-linecap="round"/>
<path d="M200.823 155.556L199.897 184.434L218.119 185.129L218.66 168.605C217.811 168.76 217.038 168.76 216.189 168.76C209.162 168.451 203.371 163.123 200.823 155.556Z" fill="#FCC9A7"/>
<path d="M192.33 153.471C194.646 152.854 196.885 153.548 196.885 153.548L196.19 145.981C196.036 146.136 195.804 146.213 195.573 146.29C194.183 146.831 192.484 146.213 191.326 144.9C191.326 144.9 192.407 150.151 191.326 150.537C190.322 151 190.013 154.089 192.33 153.471Z" fill="#73678C"/>
<path d="M200.901 139.032L200.437 155.556C203.063 163.123 209.008 168.451 216.112 168.759C216.961 168.759 217.811 168.759 218.66 168.605L219.509 139.727L200.901 139.032Z" fill="#F4BE9A"/>
<path d="M212.628 160.867C220.995 160.107 226.883 149.644 225.78 137.498C224.676 125.352 217 116.121 208.633 116.881C200.267 117.641 194.379 128.104 195.482 140.25C196.585 152.396 204.262 161.627 212.628 160.867Z" fill="#FCC9A7"/>
<path d="M189.627 142.662C188.623 139.959 189.55 137.179 191.634 136.407C193.719 135.635 196.267 137.257 197.271 139.959C197.426 140.268 197.503 140.577 197.503 140.886C209.085 136.33 212.174 126.678 212.174 126.678C212.174 126.678 205.224 115.019 193.102 118.262C181.365 121.35 189.086 141.195 189.627 142.662Z" fill="#73678C"/>
<path d="M209.857 129.844C217.115 132.778 224.837 131.851 229.547 127.373C233.485 123.589 236.187 116.331 233.485 112.239C232.249 110.385 230.242 109.768 229.856 109.613C228.929 109.304 228.003 109.304 227.076 109.459C223.37 109.999 220.358 113.165 220.204 113.32C218.119 115.636 218.814 116.717 217.347 117.412C213.95 119.033 209.934 113.32 205.147 114.941C204.761 115.096 203.14 115.636 202.445 116.949C200.9 119.806 203.757 124.979 209.857 129.844Z" fill="#73678C"/>
<path d="M210.166 155.093C210.089 155.402 210.011 155.556 209.934 155.634C208.313 157.255 201.595 163.201 193.565 159.726C185.071 156.02 186.615 151.85 190.553 150.074C188.932 143.357 185.612 128.995 187.002 127.682L204.143 124.439L208.93 136.176C208.93 136.176 210.861 151.773 210.166 155.093Z" fill="#73678C"/>
<path d="M203.603 142.816C203.603 142.893 203.603 142.893 203.603 142.893C203.835 143.742 204.143 144.592 204.607 145.21C205.611 146.677 207.155 147.526 208.622 147.217C208.854 147.14 209.085 147.063 209.317 146.985C210.861 146.291 211.71 144.36 211.556 142.198C211.556 141.889 211.479 141.58 211.402 141.272C210.784 138.415 208.545 136.484 206.383 136.948C204.298 137.334 203.062 140.036 203.603 142.816Z" fill="#FCC9A7"/>
<path d="M247.229 210.147C246.611 210.765 241.129 216.401 240.589 217.019C222.907 235.164 205.224 253.233 187.542 271.301C182.987 270.143 178.431 268.984 173.875 267.749C174.416 265.51 174.57 263.116 174.416 260.645C173.721 250.376 167.698 238.485 162.834 226.208C161.675 223.273 160.672 220.339 159.745 217.405C158.664 213.93 157.815 210.533 157.351 207.058C159.282 203.661 161.598 200.109 164.223 196.634C177.273 179.802 193.024 172.235 200.36 169.3C200.36 169.3 210.629 178.026 218.351 173.007C220.822 174.088 224.296 175.941 227.771 179.107C232.018 182.967 233.717 186.519 239.044 196.017C240.975 199.26 243.754 204.201 247.229 210.147Z" fill="#744CC6"/>
<path d="M448.373 271.301H187.542V278.482H448.373V271.301Z" stroke="#36255A" stroke-miterlimit="10" stroke-linecap="round"/>
<path d="M187.543 271.301L253.484 203.661H387.76L448.374 271.301" stroke="#36255A" stroke-miterlimit="10" stroke-linecap="round"/>
<path d="M440.575 134.785L441.115 151.309C438.644 158.799 433.085 164.127 426.367 164.358C425.595 164.358 424.746 164.358 423.974 164.204L422.97 135.326L440.575 134.785Z" fill="#F4BE9A"/>
<path d="M446.268 138.737C447.233 128.12 441.232 118.897 432.866 118.137C424.499 117.377 416.935 125.368 415.971 135.986C415.006 146.603 421.007 155.826 429.374 156.586C437.74 157.346 445.304 149.355 446.268 138.737Z" fill="#FCC9A7"/>
<path d="M361.121 179.647C361.121 180.033 361.121 179.647 366.371 185.207C366.217 185.13 360.349 181.887 360.889 183.045C361.584 184.435 365.213 187.446 365.522 187.755C365.136 187.6 360.889 185.284 361.352 186.211C361.816 187.137 373.012 195.476 373.012 195.476L376.1 199.028C376.641 199.646 377.181 200.186 377.722 200.727C378.494 201.499 379.266 202.348 380.038 203.121C381.197 204.279 382.355 205.36 383.513 206.441L386.37 209.298C419.495 243.118 436.251 241.728 438.027 240.724C440.034 240.338 443.123 233.08 446.289 222.579L435.865 218.95L435.633 218.872L430.46 217.096C430.382 217.251 430.382 217.405 430.305 217.637C429.842 219.49 429.379 221.189 428.838 222.733C411.542 214.317 399.574 205.823 389.15 197.638C388.378 197.021 387.683 196.48 386.988 195.94C386.061 195.167 385.212 194.473 384.362 193.855C383.59 193.237 382.818 192.619 382.123 192.079C381.505 191.616 380.965 191.152 380.347 190.689C379.266 189.84 378.571 189.299 378.571 189.222L373.089 184.744C373.089 184.744 364.364 178.026 364.055 179.03C363.746 180.033 367.761 183.894 367.916 184.049C367.838 183.817 361.044 178.644 361.121 179.647Z" fill="#FCC9A7"/>
<path d="M456.635 231.845L417.564 209.838L436.945 180.42" fill="#36255A"/>
<path d="M456.635 231.845L417.564 209.838L436.945 180.42" stroke="white" stroke-miterlimit="10" stroke-linecap="round"/>
<path d="M489.991 176.867C486.671 186.056 468.294 194.318 459.646 190.689C448.759 186.133 451.075 193.391 437.099 193.777C430.227 193.932 427.448 190.225 426.444 185.979C425.517 182.195 426.058 178.026 426.212 176.018C425.517 175.941 424.822 175.864 424.205 175.709C410.615 172.852 412.314 165.44 417.719 159.648C420.035 157.1 423.124 154.938 425.903 153.549C429.301 151.85 431.386 149.147 432.467 146.213C434.32 141.117 433.161 135.249 430.305 132.314C425.826 127.759 420.575 133.627 414.321 134.476C407.989 135.326 411.387 128.84 411.387 128.84C411.387 128.84 412.314 126.987 414.476 124.516C417.95 120.501 424.591 115.018 435.478 113.551C445.593 112.161 451.925 118.879 455.863 126.987C456.094 127.373 456.249 127.836 456.403 128.222C457.098 130.461 458.488 134.94 460.264 139.959C462.735 147.14 465.823 155.324 468.217 159.031C470.611 162.737 474.24 162.583 478.1 163.046C481.807 163.509 485.822 164.59 489.296 170.072C490.686 172.234 490.841 174.551 489.991 176.867Z" fill="#49D1FF"/>
<path d="M437.1 142.893C437.023 143.124 436.946 143.356 436.868 143.588C436.868 143.665 436.791 143.742 436.791 143.819C436.791 143.819 436.791 143.896 436.714 143.896C436.637 144.128 436.482 144.36 436.328 144.591C436.251 144.669 436.173 144.823 436.096 144.9C435.092 146.367 433.703 147.217 432.235 147.139C432.004 147.139 431.772 147.062 431.541 147.062C431.386 146.985 431.309 146.985 431.154 146.908H431.077C431 146.908 430.923 146.831 430.846 146.753C430.846 146.753 430.768 146.753 430.768 146.676C429.687 146.058 428.992 144.746 428.838 143.201C428.761 142.352 428.838 141.503 429.07 140.576C429.07 140.576 429.07 140.576 429.07 140.499C429.919 137.642 432.39 135.789 434.552 136.407C436.791 137.102 437.949 139.958 437.1 142.893Z" fill="#FCC9A7"/>
<path d="M439.107 148.761C439.107 151.772 437.486 154.243 435.401 154.629L435.324 154.243C437.254 153.934 438.721 151.541 438.721 148.761C438.721 146.676 437.949 144.9 436.714 143.896C436.714 143.896 436.714 143.819 436.791 143.819C436.791 143.742 436.868 143.665 436.868 143.588C438.181 144.591 439.107 146.522 439.107 148.761Z" fill="#36255A"/>
<path d="M435.246 154.243L435.323 154.629C435.169 154.629 434.937 154.706 434.783 154.706C433.161 154.706 431.694 153.394 430.999 151.541C430.691 150.691 430.536 149.765 430.536 148.838C430.536 148.066 430.613 147.371 430.845 146.753C430.922 146.445 430.999 146.136 431.154 145.827C431.154 145.75 431.231 145.672 431.231 145.672C431.308 145.75 431.463 145.827 431.617 145.827C431.617 145.904 431.54 145.981 431.54 145.981C431.386 146.29 431.308 146.599 431.231 146.908C431.077 147.526 430.999 148.143 430.999 148.838C430.999 149.842 431.154 150.769 431.463 151.541C432.158 153.239 433.393 154.398 434.86 154.398C434.937 154.32 435.092 154.32 435.246 154.243Z" fill="#36255A"/>
<path d="M432.075 145.376C432.195 144.967 432.059 144.567 431.773 144.483C431.486 144.4 431.157 144.664 431.037 145.073C430.918 145.482 431.053 145.882 431.34 145.966C431.626 146.049 431.955 145.785 432.075 145.376Z" fill="#36255A"/>
<path d="M435.71 155.325L435.942 156.406L433.78 155.247L431.618 156.406L432.081 154.012L430.305 152.313L431.386 152.159L431.772 152.082L432.699 152.004L433.78 149.842L434.861 152.004L437.254 152.313L435.479 154.012L435.633 154.939L435.71 155.325Z" fill="white"/>
<path d="M415.403 252.153C410.229 245.435 404.979 238.717 399.805 232C385.366 231.922 371.004 231.922 356.565 231.845C351.778 238.64 347.068 245.358 342.28 252.153H415.403Z" stroke="#36255A" stroke-miterlimit="10"/>
<path d="M409.689 249.758C404.515 243.04 399.265 236.323 394.091 229.605C379.652 229.528 365.29 229.528 350.851 229.451C346.064 236.246 341.354 242.963 336.566 249.758H409.689Z" fill="#9B92AD"/>
<path d="M356.565 231.845L350.234 244.586" stroke="white" stroke-miterlimit="10" stroke-linecap="round"/>
<path d="M360.349 231.768L355.098 244.971" stroke="white" stroke-miterlimit="10" stroke-linecap="round"/>
<path d="M364.518 232.076L359.654 245.357" stroke="white" stroke-miterlimit="10" stroke-linecap="round"/>
<path d="M315.487 244.275H254.179C252.943 244.275 252.017 243.272 252.017 242.113C252.017 240.878 253.021 239.951 254.179 239.951H315.487C316.723 239.951 317.649 240.955 317.649 242.113C317.649 243.272 316.645 244.275 315.487 244.275Z" fill="#36255A"/>
<path d="M338.729 196.325L317.495 243.195C317.109 244.121 315.951 244.507 315.102 244.121C314.175 243.735 313.789 242.577 314.175 241.727L335.409 194.858C335.795 193.932 336.953 193.546 337.803 193.932C338.729 194.318 339.115 195.399 338.729 196.325Z" fill="#36255A"/>
<path d="M220.59 184.435C219.586 184.126 218.737 183.354 218.428 182.273C218.428 182.195 218.273 182.195 218.196 182.273C217.887 183.276 217.115 184.126 216.034 184.435C215.957 184.435 215.957 184.589 216.034 184.666C217.038 184.975 217.887 185.747 218.196 186.828C218.196 186.905 218.351 186.905 218.428 186.828C218.737 185.824 219.509 184.975 220.59 184.666C220.744 184.589 220.744 184.435 220.59 184.435Z" fill="white"/>
<path d="M238.736 211.073C237.732 210.764 236.883 209.992 236.574 208.911C236.574 208.834 236.419 208.834 236.342 208.911C236.033 209.915 235.261 210.764 234.18 211.073C234.103 211.073 234.103 211.228 234.18 211.305C235.184 211.614 236.033 212.386 236.342 213.467C236.342 213.544 236.497 213.544 236.574 213.467C236.883 212.463 237.655 211.614 238.736 211.305C238.813 211.228 238.813 211.073 238.736 211.073Z" stroke="#36255A" stroke-miterlimit="10" stroke-linecap="round"/>
<path d="M169.319 207.985C168.315 207.676 167.466 206.904 167.157 205.823C167.157 205.746 167.003 205.746 166.925 205.823C166.617 206.827 165.844 207.676 164.763 207.985C164.686 207.985 164.686 208.139 164.763 208.217C165.767 208.525 166.617 209.298 166.925 210.379C166.925 210.456 167.08 210.456 167.157 210.379C167.466 209.375 168.238 208.525 169.319 208.217C169.474 208.139 169.474 207.985 169.319 207.985Z" stroke="#36255A" stroke-miterlimit="10" stroke-linecap="round"/>
<path d="M182.446 243.89C181.442 243.581 180.593 242.809 180.284 241.728C180.284 241.65 180.129 241.65 180.052 241.728C179.743 242.731 178.971 243.581 177.89 243.89C177.813 243.89 177.813 244.044 177.89 244.121C178.894 244.43 179.743 245.202 180.052 246.283C180.052 246.36 180.207 246.36 180.284 246.283C180.593 245.279 181.365 244.43 182.446 244.121C182.523 244.044 182.523 243.89 182.446 243.89Z" fill="#36255A"/>
<path d="M223.679 207.059C222.675 206.75 221.826 205.978 221.517 204.897C221.517 204.819 221.363 204.819 221.285 204.897C220.976 205.9 220.204 206.75 219.123 207.059C219.046 207.059 219.046 207.213 219.123 207.29C220.127 207.599 220.976 208.371 221.285 209.452C221.285 209.529 221.44 209.529 221.517 209.452C221.826 208.448 222.598 207.599 223.679 207.29C223.756 207.29 223.756 207.136 223.679 207.059Z" fill="#36255A"/>
<path d="M268.309 243.272H283.983L282.902 252.769H269.312L268.309 243.272Z" fill="white" stroke="white" stroke-miterlimit="10" stroke-linecap="round"/>
<path d="M285.837 226.208L285.219 231.69H266.996L266.378 226.208H285.837Z" fill="white" stroke="white" stroke-miterlimit="10" stroke-linecap="round"/>
<path d="M288.307 222.347H263.83V226.13H288.307V222.347Z" fill="#36255A"/>
<path d="M286.918 218.563H265.298V222.347H286.918V218.563Z" fill="#36255A"/>
<path d="M285.218 231.69L283.983 243.272H268.308L266.996 231.69H285.218Z" fill="#9B92AD" stroke="#9B92AD" stroke-miterlimit="10"/>
<path d="M281.126 217.946C280.972 218.332 281.126 217.946 274.331 221.498C274.486 221.498 281.049 220.34 280.2 221.266C279.119 222.347 274.64 224.046 274.254 224.2C274.64 224.123 279.427 223.428 278.733 224.123C277.96 224.818 264.679 229.065 264.679 229.065L260.587 231.381C259.892 231.767 259.197 232.076 258.502 232.462C257.498 233.003 256.495 233.466 255.491 233.929C254.024 234.624 252.557 235.319 251.167 235.86L247.538 237.636C205.147 258.638 189.704 251.766 188.391 250.299C186.615 249.295 186.075 241.419 186.538 230.377H197.58H197.812H203.294C203.294 230.532 203.217 230.686 203.217 230.918C203.062 232.771 202.908 234.547 202.908 236.246C222.057 234.007 236.11 229.914 248.619 225.667C249.545 225.358 250.395 225.05 251.244 224.741C252.325 224.355 253.406 223.969 254.41 223.66C255.414 223.351 256.263 222.965 257.112 222.733C257.807 222.502 258.579 222.193 259.274 221.961C260.587 221.498 261.436 221.189 261.436 221.189L268.077 218.795C268.077 218.795 278.501 215.321 278.424 216.402C278.346 217.405 273.327 219.799 273.173 219.799C273.405 219.645 281.512 216.942 281.126 217.946Z" fill="#FCC9A7"/>
<path d="M254.487 223.506L258.502 232.308C257.498 232.849 256.495 233.312 255.491 233.775L251.321 224.587C252.402 224.278 253.483 223.892 254.487 223.506Z" fill="#36255A"/>
<path d="M258.348 231.382L254.487 233.158C253.792 233.467 253.02 233.158 252.711 232.463L250.549 227.753C250.24 227.058 250.549 226.286 251.244 225.977L255.105 224.201C255.8 223.892 256.572 224.201 256.881 224.896L259.043 229.606C259.352 230.301 259.043 231.073 258.348 231.382Z" fill="#36255A" stroke="white" stroke-miterlimit="10"/>
<path d="M172.717 233.697L217.27 228.678L210.938 194.086" fill="#744CC6"/>
<path d="M172.717 233.697L217.27 228.678L210.938 194.086" stroke="white" stroke-miterlimit="10" stroke-linecap="round"/>
<path d="M188.855 211.923C187.851 211.614 187.002 210.842 186.693 209.761C186.693 209.684 186.538 209.684 186.461 209.761C186.152 210.765 185.38 211.614 184.299 211.923C184.222 211.923 184.222 212.077 184.299 212.155C185.303 212.464 186.152 213.236 186.461 214.317C186.461 214.394 186.616 214.394 186.693 214.317C187.002 213.313 187.774 212.464 188.855 212.155C189.009 212.077 189.009 211.923 188.855 211.923Z" fill="#36255A"/>
<path d="M190.785 191.847C189.781 191.538 188.932 190.766 188.623 189.685C188.623 189.608 188.469 189.608 188.392 189.685C188.083 190.689 187.311 191.538 186.23 191.847C186.152 191.847 186.152 192.001 186.23 192.079C187.233 192.388 188.083 193.16 188.392 194.241C188.392 194.318 188.546 194.318 188.623 194.241C188.932 193.237 189.704 192.388 190.785 192.079C190.862 192.001 190.862 191.847 190.785 191.847Z" fill="white"/>
<path d="M204.375 205.977C203.372 205.668 202.522 204.896 202.213 203.815C202.213 203.738 202.059 203.738 201.982 203.815C201.673 204.819 200.901 205.668 199.82 205.977C199.742 205.977 199.742 206.132 199.82 206.209C200.823 206.518 201.673 207.29 201.982 208.371C201.982 208.448 202.136 208.448 202.213 208.371C202.522 207.367 203.294 206.518 204.375 206.209C204.453 206.209 204.453 206.054 204.375 205.977Z" stroke="#36255A" stroke-miterlimit="10" stroke-linecap="round"/>
<path d="M204.916 223.351C203.912 223.042 203.062 222.27 202.754 221.189C202.754 221.111 202.599 221.111 202.522 221.189C202.213 222.192 201.441 223.042 200.36 223.351C200.283 223.351 200.283 223.505 200.36 223.582C201.364 223.891 202.213 224.663 202.522 225.744C202.522 225.822 202.676 225.822 202.754 225.744C203.062 224.741 203.835 223.891 204.916 223.582C204.993 223.582 204.993 223.351 204.916 223.351Z" fill="white"/>
<path d="M177.582 222.424C176.578 222.115 175.729 221.343 175.42 220.262C175.42 220.185 175.265 220.185 175.188 220.262C174.879 221.266 174.107 222.115 173.026 222.424C172.949 222.424 172.949 222.579 173.026 222.656C174.03 222.965 174.879 223.737 175.188 224.818C175.188 224.895 175.343 224.895 175.42 224.818C175.729 223.814 176.501 222.965 177.582 222.656C177.736 222.579 177.736 222.424 177.582 222.424Z" fill="white"/>
<path opacity="0.4" d="M293.02 161.258C328.115 161.258 356.565 132.808 356.565 97.7123C356.565 62.617 328.115 34.1666 293.02 34.1666C257.924 34.1666 229.474 62.617 229.474 97.7123C229.474 132.808 257.924 161.258 293.02 161.258Z" fill="url(#paint2_linear_289:13057)"/>
<path opacity="0.4" d="M146.933 109.891C137.118 109.891 129.161 101.934 129.161 92.119C129.161 82.3037 137.118 74.3468 146.933 74.3468C156.749 74.3468 164.706 82.3037 164.706 92.119C164.706 101.934 156.749 109.891 146.933 109.891Z" fill="url(#paint3_linear_289:13057)"/>
<path d="M317.681 35.5162L299.298 67.2747H335.998L317.681 35.5162Z" stroke="#36255A" stroke-miterlimit="10"/>
<path d="M317.682 37.4269C318.955 37.4269 319.988 36.3944 319.988 35.1208C319.988 33.8472 318.955 32.8147 317.682 32.8147C316.408 32.8147 315.375 33.8472 315.375 35.1208C315.375 36.3944 316.408 37.4269 317.682 37.4269Z" fill="#36255A"/>
<path d="M388.841 149.108H246.455C243.49 149.108 241.118 146.736 241.118 143.771V60.6854C241.118 57.7204 243.49 55.3484 246.455 55.3484H388.841C391.806 55.3484 394.178 57.7204 394.178 60.6854V143.771C394.244 146.736 391.806 149.108 388.841 149.108Z" fill="#36255A"/>
<path d="M390.818 59.1046H244.545V145.419H390.818V59.1046Z" fill="white"/>
<path d="M271.428 67.2748V85.4601H252.32V79.6619C252.32 78.8053 252.583 74.4567 257.525 67.2748H271.428Z" fill="#744CC6"/>
<path d="M259.238 72.8753C259.238 72.8753 252.583 77.4876 252.32 79.7937C252.32 79.7937 252.32 79.7278 252.32 79.6619C252.32 78.8053 252.583 74.4567 257.525 67.2748C257.525 67.2748 256.866 69.6468 259.238 72.8753Z" fill="#B398EB"/>
<path d="M308.852 74.6541V130.33" stroke="#36255A" stroke-miterlimit="10" stroke-linecap="round"/>
<path d="M308.852 122.885C308.127 122.885 307.534 122.292 307.534 121.567V83.8786C307.534 83.1538 308.127 82.5608 308.852 82.5608C309.577 82.5608 310.17 83.1538 310.17 83.8786V121.633C310.17 122.292 309.577 122.885 308.852 122.885Z" fill="#744CC6"/>
<path d="M318.406 74.6539V130.33" stroke="#36255A" stroke-miterlimit="10" stroke-linecap="round"/>
<path d="M318.406 122.885C317.681 122.885 317.088 122.292 317.088 121.567V88.491C317.088 87.7662 317.681 87.1732 318.406 87.1732C319.13 87.1732 319.723 87.7662 319.723 88.491V121.633C319.723 122.292 319.13 122.885 318.406 122.885Z" fill="#744CC6"/>
<path d="M328.025 74.6539V130.33" stroke="#36255A" stroke-miterlimit="10" stroke-linecap="round"/>
<path d="M328.025 122.885C327.301 122.885 326.708 122.292 326.708 121.567V91.5873C326.708 90.8625 327.301 90.2695 328.025 90.2695C328.75 90.2695 329.343 90.8625 329.343 91.5873V121.633C329.277 122.292 328.75 122.885 328.025 122.885Z" fill="#744CC6"/>
<path d="M337.58 74.6539V130.33" stroke="#36255A" stroke-miterlimit="10" stroke-linecap="round"/>
<path d="M337.579 122.885C336.855 122.885 336.262 122.292 336.262 121.567V98.8355C336.262 98.1107 336.855 97.5177 337.579 97.5177C338.304 97.5177 338.897 98.1107 338.897 98.8355V121.567C338.897 122.292 338.304 122.885 337.579 122.885Z" fill="#744CC6"/>
<path d="M366.175 95.3431C371.888 95.3431 376.519 90.7116 376.519 84.9985C376.519 79.2853 371.888 74.6539 366.175 74.6539C360.461 74.6539 355.83 79.2853 355.83 84.9985C355.83 90.7116 360.461 95.3431 366.175 95.3431Z" fill="#744CC6"/>
<path d="M366.241 95.2781V84.9994H366.307L375.202 90.1387C373.357 93.2355 370.063 95.2781 366.241 95.2781Z" fill="#49D1FF"/>
<path d="M366.307 84.9987L375.202 79.8594C376.058 81.3748 376.585 83.0879 376.585 84.9987C376.585 86.9095 376.058 88.6226 375.202 90.138L366.307 84.9987Z" fill="#7ADDFF"/>
<path d="M366.241 84.9331V74.6544C370.063 74.6544 373.423 76.7629 375.202 79.8596L366.241 84.9331Z" fill="#BCEEFF"/>
<path d="M366.175 92.9714C370.578 92.9714 374.148 89.4019 374.148 84.9988C374.148 80.5957 370.578 77.0262 366.175 77.0262C361.772 77.0262 358.203 80.5957 358.203 84.9988C358.203 89.4019 361.772 92.9714 366.175 92.9714Z" fill="white"/>
<path d="M366.175 130.33C371.888 130.33 376.519 125.699 376.519 119.986C376.519 114.273 371.888 109.641 366.175 109.641C360.461 109.641 355.83 114.273 355.83 119.986C355.83 125.699 360.461 130.33 366.175 130.33Z" fill="#744CC6"/>
<path d="M358.927 127.3L366.175 120.052H366.241L368.876 130.001C365.45 130.858 361.629 130.001 358.927 127.3Z" fill="#49D1FF"/>
<path d="M366.241 120.052L376.19 122.688C375.729 124.335 374.873 125.982 373.555 127.3C372.237 128.618 370.59 129.54 368.943 130.001L366.241 120.052Z" fill="#7ADDFF"/>
<path d="M366.241 119.986L373.555 112.672C376.256 115.374 377.179 119.261 376.19 122.687L366.241 119.986Z" fill="#BCEEFF"/>
<path d="M366.175 127.959C370.578 127.959 374.147 124.389 374.147 119.986C374.147 115.583 370.578 112.013 366.175 112.013C361.772 112.013 358.202 115.583 358.202 119.986C358.202 124.389 361.772 127.959 366.175 127.959Z" fill="white"/>
<path opacity="0.4" d="M288.756 133.164H253.308C252.781 133.164 252.319 132.703 252.319 132.176C252.319 131.648 252.781 131.187 253.308 131.187H288.756C289.283 131.187 289.744 131.648 289.744 132.176C289.744 132.703 289.283 133.164 288.756 133.164Z" fill="url(#paint4_linear_289:13057)"/>
<path opacity="0.4" d="M288.757 121.831H253.309C252.782 121.831 252.32 121.37 252.32 120.843C252.32 120.316 252.782 119.854 253.309 119.854H288.757C289.284 119.854 289.745 120.316 289.745 120.843C289.745 121.37 289.284 121.831 288.757 121.831Z" fill="url(#paint5_linear_289:13057)"/>
<path opacity="0.4" d="M288.756 127.497H253.308C252.781 127.497 252.319 127.036 252.319 126.509C252.319 125.982 252.781 125.521 253.308 125.521H288.756C289.283 125.521 289.744 125.982 289.744 126.509C289.744 127.036 289.283 127.497 288.756 127.497Z" fill="url(#paint6_linear_289:13057)"/>
<path opacity="0.4" d="M288.756 114.32H253.308C252.781 114.32 252.32 113.859 252.32 113.332C252.32 112.805 252.781 112.344 253.308 112.344H288.756C289.284 112.344 289.745 112.805 289.745 113.332C289.745 113.859 289.284 114.32 288.756 114.32Z" fill="url(#paint7_linear_289:13057)"/>
<path opacity="0.4" d="M288.758 103.053H253.309C252.782 103.053 252.321 102.591 252.321 102.064C252.321 101.537 252.782 101.076 253.309 101.076H288.758C289.285 101.076 289.746 101.537 289.746 102.064C289.746 102.591 289.285 103.053 288.758 103.053Z" fill="url(#paint8_linear_289:13057)"/>
<path opacity="0.4" d="M288.756 108.719H253.308C252.781 108.719 252.32 108.258 252.32 107.731C252.32 107.204 252.781 106.743 253.308 106.743H288.756C289.284 106.743 289.745 107.204 289.745 107.731C289.745 108.258 289.284 108.719 288.756 108.719Z" fill="url(#paint9_linear_289:13057)"/>
<defs>
<linearGradient id="paint0_linear_289:13057" x1="459.049" y1="277.979" x2="293.965" y2="90.0397" gradientUnits="userSpaceOnUse">
<stop stop-color="#49D1FF"/>
<stop offset="0.5624" stop-color="#49D1FF" stop-opacity="0"/>
</linearGradient>
<linearGradient id="paint1_linear_289:13057" x1="234.941" y1="267.346" x2="334.52" y2="114.275" gradientUnits="userSpaceOnUse">
<stop stop-color="#49D1FF"/>
<stop offset="0.5624" stop-color="#49D1FF" stop-opacity="0"/>
</linearGradient>
<linearGradient id="paint2_linear_289:13057" x1="337.775" y1="142.312" x2="248.041" y2="52.5786" gradientUnits="userSpaceOnUse">
<stop stop-color="#49D1FF"/>
<stop offset="0.5624" stop-color="#49D1FF" stop-opacity="0"/>
</linearGradient>
<linearGradient id="paint3_linear_289:13057" x1="134.417" y1="104.592" x2="159.513" y2="79.4962" gradientUnits="userSpaceOnUse">
<stop stop-color="#49D1FF"/>
<stop offset="0.5624" stop-color="#49D1FF" stop-opacity="0"/>
</linearGradient>
<linearGradient id="paint4_linear_289:13057" x1="252.304" y1="132.135" x2="289.755" y2="132.135" gradientUnits="userSpaceOnUse">
<stop stop-color="#49D1FF"/>
<stop offset="0.9031" stop-color="#49D1FF" stop-opacity="0"/>
</linearGradient>
<linearGradient id="paint5_linear_289:13057" x1="252.305" y1="120.836" x2="289.756" y2="120.836" gradientUnits="userSpaceOnUse">
<stop stop-color="#49D1FF"/>
<stop offset="0.9031" stop-color="#49D1FF" stop-opacity="0"/>
</linearGradient>
<linearGradient id="paint6_linear_289:13057" x1="252.304" y1="126.485" x2="289.755" y2="126.485" gradientUnits="userSpaceOnUse">
<stop stop-color="#49D1FF"/>
<stop offset="0.9031" stop-color="#49D1FF" stop-opacity="0"/>
</linearGradient>
<linearGradient id="paint7_linear_289:13057" x1="252.305" y1="113.334" x2="289.756" y2="113.334" gradientUnits="userSpaceOnUse">
<stop stop-color="#49D1FF"/>
<stop offset="0.9031" stop-color="#49D1FF" stop-opacity="0"/>
</linearGradient>
<linearGradient id="paint8_linear_289:13057" x1="252.306" y1="102.035" x2="289.757" y2="102.035" gradientUnits="userSpaceOnUse">
<stop stop-color="#49D1FF"/>
<stop offset="0.9031" stop-color="#49D1FF" stop-opacity="0"/>
</linearGradient>
<linearGradient id="paint9_linear_289:13057" x1="252.305" y1="107.685" x2="289.756" y2="107.685" gradientUnits="userSpaceOnUse">
<stop stop-color="#49D1FF"/>
<stop offset="0.9031" stop-color="#49D1FF" stop-opacity="0"/>
</linearGradient>
</defs>
</svg>
