<svg width="80" height="80" viewBox="0 0 80 80" fill="none" xmlns="http://www.w3.org/2000/svg">
<path d="M38.6666 51.4948L36.9638 49.7921C36.0426 50.2788 35.0764 50.6748 34.0786 50.9745V53.3395C34.0817 53.8259 33.9886 54.3082 33.8046 54.7586C33.6206 55.2089 33.3493 55.6184 33.0064 55.9635C32.6635 56.3086 32.2558 56.5825 31.8066 56.7693C31.3575 56.9562 30.8758 57.0524 30.3893 57.0524H27.5514C27.0557 57.0526 26.5651 56.9535 26.1083 56.761C25.6515 56.5685 25.238 56.2866 24.8919 55.9317C24.5459 55.5768 24.2744 55.1563 24.0934 54.6948C23.9125 54.2334 23.8258 53.7404 23.8384 53.2449V50.88C22.8483 50.58 21.8899 50.184 20.9769 49.6975L19.2505 51.4239M38.6666 51.4948C39.3705 52.1671 40.3064 52.5422 41.2798 52.5422C42.2532 52.5422 43.1891 52.1671 43.8931 51.4948M38.6666 51.4948L38.9494 51.212L38.946 51.2086M38.6666 51.4948L38.9428 51.2055C38.9439 51.2066 38.9449 51.2076 38.946 51.2086M43.8931 51.4948L45.8796 49.5319M43.8931 51.4948L43.6168 51.2055L45.596 49.2499L45.8796 49.5319M43.8931 51.4948L43.6119 51.2103L43.6145 51.2078C42.9852 51.8075 42.1492 52.1422 41.2798 52.1422C40.4108 52.1422 39.5752 51.8079 38.946 51.2086M45.8796 49.5319C46.567 48.8407 46.9529 47.9054 46.9529 46.9305C46.9529 45.9556 46.567 45.0204 45.8796 44.3291M45.8796 49.5319L45.5985 49.2474L45.597 49.2489C46.2092 48.6326 46.5529 47.7992 46.5529 46.9305C46.5529 46.0613 46.2089 45.2275 45.596 44.6111M45.8796 44.3291L44.1059 42.5554C44.5745 41.6259 44.9699 40.6612 45.2884 39.6702H47.6533C48.6318 39.6702 49.5701 39.2815 50.262 38.5896C50.9539 37.8977 51.3426 36.9593 51.3426 35.9809V33.2139C51.3433 32.2533 50.9716 31.3298 50.3057 30.6374C49.6398 29.945 48.7315 29.5377 47.7715 29.501M45.8796 44.3291L45.596 44.6111M45.8796 44.3291L45.5968 44.6119L45.596 44.6111M47.7715 29.501H45.4066C45.0639 28.5084 44.6284 27.5503 44.1059 26.6394L45.8559 24.8893C46.1999 24.5466 46.4728 24.1393 46.659 23.6909C46.8452 23.2425 46.941 22.7617 46.941 22.2761C46.941 21.7905 46.8452 21.3098 46.659 20.8613C46.4728 20.4129 46.1999 20.0056 45.8559 19.6629M47.7715 29.501L47.7563 29.9007C47.7587 29.9008 47.7612 29.9009 47.7637 29.901M47.7715 29.501V29.901H47.7637M45.8559 19.6629L43.9167 17.7473M45.8559 19.6629L45.5736 19.9462L43.6415 18.0376M45.8559 19.6629L45.5748 19.9474L45.574 19.9466C45.8804 20.2521 46.1236 20.615 46.2896 21.0147C46.4556 21.4145 46.541 21.8432 46.541 22.2761C46.541 22.709 46.4556 23.1377 46.2896 23.5375C46.1236 23.9373 45.8802 24.3004 45.5736 24.606L45.5731 24.6065L43.8231 26.3566L43.6067 26.573L43.7589 26.8384C44.2689 27.7275 44.694 28.6627 45.0285 29.6315L45.1216 29.901H45.4066H47.7637M43.9167 17.7473C43.2023 17.0958 42.2703 16.7347 41.3035 16.7347C40.3366 16.7347 39.4046 17.0958 38.6902 17.7473M43.9167 17.7473L43.6356 18.0318L43.6415 18.0376M43.9167 17.7473L43.6472 18.0428C43.6453 18.0411 43.6434 18.0394 43.6415 18.0376M38.6902 17.7473L37.0111 19.4737C36.1007 18.9755 35.1419 18.5713 34.1495 18.2675V15.7607M38.6902 17.7473L38.9597 18.0428C38.9626 18.0402 38.9655 18.0376 38.9683 18.035M38.6902 17.7473L38.9769 18.0261L38.9683 18.035M34.1495 15.7607C34.1309 14.7801 33.725 13.8467 33.0204 13.1643C32.3159 12.4819 31.37 12.106 30.3893 12.1187H27.5514M34.1495 15.7607H33.7495V15.7646M34.1495 15.7607L33.7496 15.7683C33.7496 15.7671 33.7496 15.7659 33.7495 15.7646M27.5514 12.1187C26.5953 12.1429 25.6854 12.5351 25.0113 13.2136C24.3373 13.8921 23.951 14.8045 23.933 15.7607M27.5514 12.1187V12.5187H27.5566M27.5514 12.1187L27.5615 12.5186C27.5599 12.5186 27.5582 12.5187 27.5566 12.5187M23.933 15.7607V18.1256C22.9466 18.4359 21.9891 18.8315 21.0715 19.3081L19.3214 17.6054C18.9815 17.2623 18.576 16.9913 18.129 16.8085C17.6821 16.6256 17.2029 16.5347 16.72 16.5411C15.7315 16.5339 14.78 16.9163 14.0713 17.6054M23.933 15.7607L24.333 15.7682C24.333 15.767 24.333 15.7658 24.333 15.7646M23.933 15.7607H24.333V15.7646M14.0713 17.6054L12.1557 19.5446C11.7789 19.8935 11.4807 20.3185 11.2809 20.7915C11.0811 21.2645 10.9843 21.7746 10.9969 22.2879C10.9975 22.7719 11.0939 23.2509 11.2806 23.6974C11.4674 24.1439 11.7406 24.549 12.0847 24.8893L13.8348 26.6394C13.3448 27.5538 12.9411 28.5118 12.6287 29.501H10.2637C9.27899 29.501 8.33459 29.8922 7.63828 30.5885C6.94197 31.2848 6.55078 32.2292 6.55078 33.2139V35.9809C6.55077 36.4674 6.64698 36.949 6.83386 37.3982C7.02074 37.8474 7.29461 38.2551 7.6397 38.598C7.98479 38.9409 8.39429 39.2122 8.84463 39.3962C9.29497 39.5802 9.77725 39.6733 10.2637 39.6702H12.6287C12.9369 40.6649 13.3326 41.6304 13.8111 42.5554L12.0847 44.2818C11.392 44.9707 11.0007 45.9062 10.9969 46.8832M14.0713 17.6054L14.3501 17.8921C14.351 17.8912 14.352 17.8903 14.3529 17.8894M14.0713 17.6054L14.3558 17.8865L14.3529 17.8894M10.9969 46.8832C11.0032 47.8621 11.384 48.8014 12.0611 49.5083M10.9969 46.8832L11.3968 46.8848C11.3969 46.8841 11.3969 46.8834 11.3969 46.8827M10.9969 46.8832L11.3968 46.8806C11.3968 46.8813 11.3969 46.882 11.3969 46.8827M12.0611 49.5083L14.024 51.4239M12.0611 49.5083L12.35 49.2316C12.3484 49.23 12.3469 49.2285 12.3454 49.2269M12.0611 49.5083L12.3404 49.222L12.3454 49.2269M14.024 51.4239C14.7279 52.0961 15.6638 52.4712 16.6372 52.4712C17.6106 52.4712 18.5465 52.0961 19.2505 51.4239M14.024 51.4239L14.3033 51.1376L14.3018 51.1361C14.9311 51.7363 15.7675 52.0712 16.6372 52.0712C17.5062 52.0712 18.3417 51.7369 18.9709 51.1378M14.024 51.4239L14.3002 51.1346L12.3454 49.2269M19.2505 51.4239L18.9742 51.1346C18.9731 51.1357 18.972 51.1367 18.9709 51.1378M19.2505 51.4239L18.9676 51.141L18.9709 51.1378M18.9709 51.1378L20.694 49.4146L20.9035 49.2052L21.165 49.3445C22.055 49.8187 22.9892 50.2048 23.9544 50.4971L24.2384 50.5832V50.88V53.2449V53.2551H24.2383C24.227 53.6972 24.3044 54.1371 24.4658 54.5488C24.6273 54.9606 24.8695 55.3358 25.1783 55.6524C25.4871 55.9691 25.8561 56.2207 26.2636 56.3924C26.6712 56.5642 27.109 56.6526 27.5512 56.6524H27.5514H30.3893C30.823 56.6524 31.2525 56.5667 31.6529 56.4C32.0534 56.2334 32.417 55.9892 32.7227 55.6816C33.0284 55.3739 33.2702 55.0088 33.4343 54.6073C33.5983 54.2058 33.6814 53.7758 33.6786 53.342L33.6786 53.3395L33.6786 50.9745V50.6771L33.9635 50.5915C34.9364 50.2991 35.8787 49.913 36.7769 49.4384L37.0379 49.3005L37.2466 49.5092L38.946 51.2086M12.3454 49.2269C11.7424 48.5948 11.4031 47.7564 11.3969 46.8827M11.3969 46.8827C11.4009 46.0124 11.7496 45.1791 12.3668 44.5654L12.3676 44.5646L14.094 42.8382L14.3008 42.6314L14.1664 42.3716C13.6987 41.4676 13.312 40.524 13.0107 39.5518L12.9235 39.2702H12.6287L10.2637 39.2702L10.2612 39.2702C9.82743 39.273 9.39744 39.1899 8.99593 39.0259C8.59441 38.8618 8.22931 38.62 7.92164 38.3143C7.61396 38.0085 7.36979 37.645 7.20317 37.2445C7.03655 36.8441 6.95077 36.4146 6.95078 35.9809V33.2139C6.95078 32.3353 7.29982 31.4926 7.92112 30.8713C8.54242 30.25 9.38508 29.901 10.2637 29.901H12.6287H12.9218L13.0101 29.6214C13.315 28.6559 13.7091 27.7208 14.1873 26.8283L14.3276 26.5666L14.1176 26.3566L12.3676 24.6065L12.366 24.605C12.0595 24.3018 11.816 23.9409 11.6497 23.5431C11.4833 23.1453 11.3974 22.7186 11.3969 22.2874H11.397L11.3967 22.2782C11.3856 21.8216 11.4717 21.3679 11.6494 20.9472C11.8271 20.5265 12.0924 20.1484 12.4274 19.8381L12.434 19.832L12.4402 19.8257L14.3529 17.8894M14.3529 17.8894C14.9859 17.2753 15.8351 16.9347 16.7171 16.9411V16.9412L16.7253 16.9411C17.1545 16.9354 17.5803 17.0162 17.9776 17.1787C18.3748 17.3412 18.7352 17.582 19.0373 17.8869L19.0372 17.887L19.0425 17.8921L20.7925 19.5948L20.9995 19.7962L21.2558 19.6631C22.1528 19.1972 23.0888 18.8105 24.053 18.5072L24.333 18.4192V18.1256V15.7646M24.333 15.7646C24.35 14.9127 24.6945 14.1 25.2951 13.4955C25.8954 12.8913 26.7053 12.5415 27.5566 12.5187M27.5566 12.5187H30.3893V12.5188L30.3945 12.5187C31.2695 12.5074 32.1135 12.8428 32.7422 13.4516C33.3699 14.0596 33.7319 14.891 33.7495 15.7646M33.7495 15.7646V18.2675V18.5634L34.0324 18.65C34.9988 18.9459 35.9325 19.3394 36.8191 19.8246L37.0858 19.9705L37.2978 19.7525L38.9683 18.035M38.9683 18.035C39.608 17.4557 40.4402 17.1347 41.3035 17.1347C42.168 17.1347 43.0015 17.4566 43.6415 18.0376M47.7637 29.901C48.6174 29.9355 49.425 30.2987 50.0174 30.9147C50.6116 31.5324 50.9432 32.3565 50.9426 33.2136V33.2139V35.9809C50.9426 36.8533 50.596 37.6899 49.9792 38.3068C49.3623 38.9236 48.5257 39.2702 47.6533 39.2702H45.2884H44.9968L44.9075 39.5478C44.5954 40.519 44.208 41.4644 43.7487 42.3753L43.6185 42.6337L43.8231 42.8382L45.596 44.6111M27.624 27.9719L27.6166 27.9731L27.6093 27.9747C25.9799 28.3246 24.5372 29.2639 23.5579 30.6123C22.5786 31.9608 22.1318 33.6233 22.3031 35.281C22.4745 36.9387 23.252 38.4747 24.4865 39.5942C25.7209 40.7138 27.3253 41.3381 28.9918 41.3473L28.9962 41.3472C30.6627 41.3381 32.2671 40.7138 33.5015 39.5942C34.7359 38.4747 35.5135 36.9387 35.6848 35.281C35.8562 33.6233 35.4094 31.9608 34.4301 30.6123C33.4508 29.2639 32.008 28.3246 30.3787 27.9747L30.3787 27.9745L30.365 27.972C29.913 27.8913 29.4549 27.8496 28.9958 27.8475L28.9911 27.8476C28.5327 27.8508 28.0754 27.8924 27.624 27.9719Z" stroke="#00AC6A" stroke-width="0.8"/>
<circle cx="28.9452" cy="34.5855" r="2" transform="rotate(-65.556 28.9452 34.5855)" fill="#00AC6A"/>
<path d="M66.1333 64.6733L65.1503 63.6903C64.6185 63.9713 64.0607 64.1999 63.4848 64.3729V65.7381C63.4866 66.0189 63.4328 66.2973 63.3266 66.5573C63.2204 66.8173 63.0638 67.0537 62.8658 67.2529C62.6679 67.4521 62.4325 67.6102 62.1732 67.7181C61.9139 67.826 61.6359 67.8815 61.355 67.8815H59.7168C59.4307 67.8816 59.1474 67.8244 58.8837 67.7133C58.6201 67.6022 58.3813 67.4394 58.1816 67.2345C57.9818 67.0297 57.8251 66.7869 57.7206 66.5205C57.6162 66.2541 57.5661 65.9695 57.5734 65.6835V64.3183C57.0018 64.1452 56.4486 63.9165 55.9215 63.6357L54.9249 64.6323M66.1333 64.6733C66.5396 65.0613 67.0799 65.2778 67.6418 65.2778C68.2037 65.2778 68.744 65.0613 69.1504 64.6733M66.1333 64.6733L66.4161 64.3904L66.4127 64.387M66.1333 64.6733L66.4095 64.384C66.4106 64.385 66.4116 64.386 66.4127 64.387M69.1504 64.6733L70.2971 63.5401M69.1504 64.6733L68.8741 64.384C68.8733 64.3847 68.8726 64.3854 68.8718 64.3862M69.1504 64.6733L68.8692 64.3887L68.8718 64.3862M70.2971 63.5401C70.694 63.1411 70.9167 62.6012 70.9167 62.0384C70.9167 61.4756 70.694 60.9357 70.2971 60.5367M70.2971 63.5401L70.016 63.2556L70.0147 63.2569C70.3363 62.9329 70.5167 62.4949 70.5167 62.0384C70.5167 61.5815 70.3359 61.1431 70.0138 60.8191L70.0143 60.8195L70.2971 60.5367M70.2971 63.5401L70.0135 63.2581L68.8718 64.3862M70.2971 60.5367L69.2732 59.5128C69.5438 58.9762 69.772 58.4193 69.9558 57.8472H71.321C71.8859 57.8472 72.4276 57.6228 72.827 57.2234C73.2264 56.824 73.4508 56.2823 73.4508 55.7175V54.1202C73.4512 53.5657 73.2366 53.0325 72.8522 52.6329C72.4678 52.2332 71.9434 51.998 71.3893 51.9768M70.2971 60.5367L70.0135 60.8187L68.9904 59.7956L68.7858 59.591L68.9161 59.3327C69.1772 58.8147 69.3975 58.2771 69.575 57.7248L69.6642 57.4472H69.9558H71.321C71.7798 57.4472 72.2198 57.265 72.5441 56.9406C72.8685 56.6162 73.0508 56.1763 73.0508 55.7175V54.1202V54.1199C73.0511 53.6689 72.8766 53.2352 72.5639 52.9101C72.2529 52.5868 71.8293 52.3958 71.3813 52.3768M71.3893 51.9768H70.0241C69.8262 51.4038 69.5748 50.8508 69.2732 50.3249L70.2835 49.3147C70.482 49.1168 70.6396 48.8817 70.7471 48.6228C70.8546 48.364 70.9099 48.0864 70.9099 47.8061C70.9099 47.5258 70.8546 47.2483 70.7471 46.9894C70.6396 46.7305 70.482 46.4954 70.2835 46.2976M71.3893 51.9768L71.374 52.3765C71.3764 52.3766 71.3788 52.3767 71.3813 52.3768M71.3893 51.9768V52.3768H71.3813M70.2835 46.2976L69.164 45.1918M70.2835 46.2976L70.0011 46.5809L68.8889 45.4822M70.2835 46.2976L70.0024 46.5821L70.0016 46.5814C70.1626 46.742 70.2904 46.9328 70.3776 47.1428C70.4649 47.3531 70.5099 47.5785 70.5099 47.8061C70.5099 48.0338 70.4649 48.2592 70.3776 48.4694C70.2903 48.6797 70.1624 48.8706 70.0011 49.0313L70.0006 49.0318L68.9904 50.0421L68.774 50.2585L68.9263 50.5239C69.2154 51.028 69.4563 51.5581 69.646 52.1074L69.739 52.3768H70.0241H71.3813M69.164 45.1918C68.7516 44.8157 68.2136 44.6072 67.6555 44.6072C67.0973 44.6072 66.5593 44.8157 66.1469 45.1918M69.164 45.1918L68.8829 45.4763L68.8889 45.4822M69.164 45.1918L68.8945 45.4873C68.8926 45.4856 68.8908 45.4839 68.8889 45.4822M66.1469 45.1918L65.1776 46.1884C64.6521 45.9008 64.0986 45.6675 63.5257 45.4921V44.045M66.1469 45.1918L66.4164 45.4873C66.4192 45.4848 66.4221 45.4822 66.4249 45.4797M66.1469 45.1918L66.4337 45.4706L66.4249 45.4797M63.5257 44.045C63.5149 43.4789 63.2806 42.9401 62.8739 42.5461C62.4672 42.1522 61.9212 41.9352 61.355 41.9426H59.7168M63.5257 44.045H63.1257V44.049M63.5257 44.045L63.1258 44.0526C63.1258 44.0514 63.1257 44.0502 63.1257 44.049M59.7168 41.9426C59.1649 41.9565 58.6396 42.1829 58.2505 42.5746C57.8614 42.9663 57.6384 43.493 57.628 44.045M59.7168 41.9426V42.3426H59.7221M59.7168 41.9426L59.7269 42.3424C59.7253 42.3425 59.7237 42.3425 59.7221 42.3426M57.628 44.045V45.4102C57.0586 45.5893 56.5059 45.8177 55.9761 46.0928L54.9659 45.1098C54.7697 44.9118 54.5356 44.7554 54.2775 44.6498C54.0195 44.5443 53.7429 44.4918 53.4641 44.4955C52.8935 44.4913 52.3442 44.712 51.9351 45.1098M57.628 44.045L58.028 44.0525C58.028 44.0513 58.028 44.0501 58.028 44.0489M57.628 44.045H58.028V44.0489M51.9351 45.1098L50.8293 46.2293C50.6118 46.4307 50.4397 46.6761 50.3243 46.9491C50.209 47.2222 50.1531 47.5166 50.1603 47.813C50.1607 48.0923 50.2164 48.3689 50.3242 48.6266C50.4319 48.8844 50.5897 49.1182 50.7883 49.3147L51.7986 50.3249C51.5158 50.8528 51.2827 51.4058 51.1023 51.9768H49.7371C49.1687 51.9768 48.6235 52.2027 48.2215 52.6046C47.8196 53.0066 47.5938 53.5517 47.5938 54.1202V55.7175C47.5937 55.9983 47.6493 56.2764 47.7572 56.5357C47.865 56.795 48.0231 57.0303 48.2224 57.2283C48.4216 57.4262 48.658 57.5828 48.9179 57.689C49.1779 57.7953 49.4563 57.849 49.7371 57.8472H51.1023C51.2803 58.4215 51.5087 58.9788 51.7849 59.5128L50.7883 60.5094C50.3884 60.9071 50.1626 61.4471 50.1603 62.0111M51.9351 45.1098L52.214 45.3966C52.2149 45.3957 52.2158 45.3948 52.2167 45.394M51.9351 45.1098L52.2197 45.3909L52.2167 45.394M50.1603 62.0111C50.164 62.5762 50.3838 63.1184 50.7747 63.5265M50.1603 62.0111L50.5603 62.0127C50.5603 62.012 50.5603 62.0113 50.5603 62.0106M50.1603 62.0111L50.5603 62.0085C50.5603 62.0092 50.5603 62.0099 50.5603 62.0106M50.7747 63.5265L51.9078 64.6323M50.7747 63.5265L51.0636 63.2498C51.0621 63.2483 51.0606 63.2467 51.0591 63.2452M50.7747 63.5265L51.0541 63.2402L51.0591 63.2452M51.9078 64.6323C52.3142 65.0204 52.8545 65.2369 53.4164 65.2369C53.9783 65.2369 54.5185 65.0204 54.9249 64.6323M51.9078 64.6323L52.1872 64.346L52.1855 64.3444C52.5173 64.6605 52.958 64.8369 53.4164 64.8369C53.8739 64.8369 54.3139 64.6611 54.6455 64.346M51.9078 64.6323L52.1841 64.343L51.0591 63.2452M54.9249 64.6323L54.6487 64.343C54.6476 64.344 54.6466 64.345 54.6455 64.346M54.9249 64.6323L54.6421 64.3495L54.6455 64.346M54.6455 64.346L55.6387 63.3529L55.8482 63.1434L56.1096 63.2827C56.6137 63.5513 57.1428 63.7699 57.6894 63.9355L57.9734 64.0215V64.3183V65.6835V65.6937L57.9733 65.6937C57.9674 65.9264 58.0081 66.1578 58.093 66.3745C58.178 66.5912 58.3055 66.7886 58.4679 66.9553C58.6304 67.1219 58.8246 67.2543 59.0391 67.3447C59.2535 67.435 59.4839 67.4816 59.7167 67.4815H59.7168H61.355C61.5831 67.4815 61.809 67.4364 62.0196 67.3488C62.2301 67.2612 62.4213 67.1327 62.5821 66.971C62.7428 66.8092 62.87 66.6172 62.9563 66.406C63.0426 66.1949 63.0862 65.9688 63.0848 65.7407L63.0848 65.7381L63.0848 64.3729V64.0754L63.3697 63.9898C63.9208 63.8242 64.4546 63.6055 64.9635 63.3366L65.2244 63.1987L65.4332 63.4075L66.4127 64.387M51.0591 63.2452C50.7422 62.9119 50.5639 62.4706 50.5603 62.0106M50.5603 62.0106C50.5627 61.5533 50.7461 61.1155 51.0704 60.793L51.0712 60.7922L52.0678 59.7956L52.2746 59.5888L52.1402 59.329C51.8748 58.816 51.6554 58.2805 51.4844 57.7288L51.3972 57.4472H51.1023L49.7371 57.4472L49.7346 57.4472C49.5065 57.4487 49.2804 57.405 49.0692 57.3188C48.8581 57.2325 48.6661 57.1053 48.5043 56.9445L48.2249 57.2257L48.5043 56.9445C48.3425 56.7838 48.2141 56.5926 48.1265 56.382C48.0389 56.1714 47.9937 55.9456 47.9938 55.7175V54.1202C47.9938 53.6578 48.1774 53.2144 48.5044 52.8875C48.8313 52.5605 49.2748 52.3768 49.7371 52.3768H51.1023H51.3955L51.4838 52.0973C51.6566 51.5499 51.8801 51.0198 52.1512 50.5138L52.2914 50.2521L52.0814 50.0421L51.0712 49.0318L51.0712 49.0318L51.0696 49.0303C50.9085 48.871 50.7806 48.6813 50.6932 48.4723C50.6058 48.2633 50.5606 48.039 50.5603 47.8124H50.5604L50.5602 47.8032C50.5544 47.5636 50.5996 47.3255 50.6928 47.1048C50.7861 46.884 50.9252 46.6856 51.1011 46.5228L51.1076 46.5168L51.1139 46.5104L52.2167 45.394M52.2167 45.394C52.5501 45.0711 52.997 44.8921 53.4612 44.8955L53.4612 44.8956L53.4695 44.8955C53.6945 44.8925 53.9178 44.9348 54.1261 45.02C54.3344 45.1052 54.5233 45.2315 54.6817 45.3914L54.6817 45.3914L54.6869 45.3965L55.6972 46.3795L55.9042 46.5809L56.1605 46.4478C56.6696 46.1834 57.2008 45.9639 57.748 45.7918L58.028 45.7037V45.4102V44.0489M58.028 44.0489C58.0373 43.6012 58.2186 43.1742 58.5343 42.8565C58.8496 42.5391 59.2749 42.3551 59.7221 42.3426M59.7221 42.3426H61.355V42.3426L61.3602 42.3425C61.8207 42.3366 62.2648 42.5131 62.5956 42.8335C62.9256 43.153 63.116 43.5899 63.1257 44.049M63.1257 44.049V45.4921V45.788L63.4086 45.8746C63.9555 46.042 64.4839 46.2647 64.9856 46.5393L65.2523 46.6852L65.4644 46.4672L66.4249 45.4797M66.4249 45.4797C66.7625 45.1756 67.2009 45.0072 67.6555 45.0072C68.1114 45.0072 68.5509 45.1766 68.8889 45.4822M68.8718 64.3862C68.5401 64.7018 68.0997 64.8778 67.6418 64.8778C67.1843 64.8778 66.7442 64.7021 66.4127 64.387M59.7294 50.9276L59.722 50.9289L59.7147 50.9304C58.7334 51.1412 57.8644 51.7069 57.2746 52.519C56.6848 53.3312 56.4157 54.3325 56.5189 55.3309C56.6222 56.3293 57.0904 57.2544 57.8339 57.9286C58.5774 58.6029 59.5437 58.9789 60.5474 58.9845L60.5518 58.9844C61.5555 58.9789 62.5217 58.6029 63.2652 57.9286C64.0087 57.2544 64.477 56.3293 64.5802 55.3309C64.6834 54.3325 64.4143 53.3312 63.8245 52.519C63.2347 51.7069 62.3657 51.1412 61.3844 50.9304L61.3845 50.9302L61.3708 50.9278C61.1003 50.8794 60.8261 50.8545 60.5514 50.8533V50.8532L60.5467 50.8533C60.2727 50.8552 59.9993 50.8801 59.7294 50.9276Z" stroke="#00AC6A" stroke-width="0.8"/>
<circle cx="60.5234" cy="54.9119" r="1" transform="rotate(-65.556 60.5234 54.9119)" fill="#00AC6A"/>
</svg>
