<svg width="317" height="340" viewBox="0 0 317 340" fill="none" xmlns="http://www.w3.org/2000/svg">
<rect x="150.262" y="76.5388" width="166.372" height="38.525" rx="19.2625" fill="#36255A"/>
<path d="M209.959 100.784L209.959 90.1344L214.369 90.1344C214.829 90.1344 215.249 90.2294 215.629 90.4194C216.019 90.6094 216.354 90.8694 216.634 91.1994C216.924 91.5194 217.144 91.8794 217.294 92.2794C217.454 92.6694 217.534 93.0694 217.534 93.4794C217.534 94.0594 217.404 94.6094 217.144 95.1294C216.884 95.6394 216.524 96.0544 216.064 96.3744C215.604 96.6944 215.069 96.8544 214.459 96.8544H211.009V100.784H209.959ZM211.009 95.9244H214.414C214.834 95.9244 215.199 95.8094 215.509 95.5794C215.819 95.3494 216.059 95.0494 216.229 94.6794C216.399 94.3094 216.484 93.9094 216.484 93.4794C216.484 93.0394 216.384 92.6394 216.184 92.2794C215.984 91.9094 215.719 91.6144 215.389 91.3944C215.069 91.1744 214.714 91.0644 214.324 91.0644L211.009 91.0644V95.9244ZM219.68 103.184C219.82 103.194 219.955 103.199 220.085 103.199C220.215 103.209 220.31 103.204 220.37 103.184C220.49 103.174 220.6 103.104 220.7 102.974C220.81 102.854 220.94 102.624 221.09 102.284C221.25 101.954 221.465 101.454 221.735 100.784L218.33 92.9694H219.41L222.275 99.7344L224.915 92.9694H225.935L221.885 103.049C221.775 103.339 221.59 103.589 221.33 103.799C221.07 104.009 220.725 104.119 220.295 104.129C220.205 104.139 220.11 104.139 220.01 104.129C219.91 104.129 219.8 104.119 219.68 104.099V103.184ZM231.26 100.409C231.14 100.459 230.92 100.549 230.6 100.679C230.28 100.809 229.91 100.874 229.49 100.874C229.05 100.874 228.665 100.749 228.335 100.499C228.005 100.249 227.84 99.8744 227.84 99.3744L227.84 93.7794H226.76V92.9694H227.84V90.3294H228.86V92.9694H230.66V93.7794H228.86L228.86 99.0894C228.88 99.3794 228.98 99.5944 229.16 99.7344C229.35 99.8644 229.565 99.9294 229.805 99.9294C230.085 99.9294 230.335 99.8844 230.555 99.7944C230.785 99.6944 230.93 99.6244 230.99 99.5844L231.26 100.409ZM239.254 100.784L238.234 100.784L238.234 96.4194C238.234 94.6494 237.634 93.7644 236.434 93.7644C236.044 93.7644 235.664 93.8644 235.294 94.0644C234.924 94.2544 234.594 94.5194 234.304 94.8594C234.024 95.1894 233.824 95.5694 233.704 95.9994L233.704 100.784H232.684L232.684 89.8344H233.704V94.7394C234.014 94.1594 234.444 93.6994 234.994 93.3594C235.554 93.0094 236.149 92.8344 236.779 92.8344C237.379 92.8344 237.859 92.9794 238.219 93.2694C238.579 93.5494 238.839 93.9444 238.999 94.4544C239.169 94.9544 239.254 95.5394 239.254 96.2094L239.254 100.784ZM244.909 100.934C244.159 100.934 243.489 100.749 242.899 100.379C242.319 100.009 241.864 99.5194 241.534 98.9094C241.204 98.2894 241.039 97.6194 241.039 96.8994C241.039 96.1694 241.204 95.4994 241.534 94.8894C241.874 94.2694 242.334 93.7744 242.914 93.4044C243.504 93.0244 244.169 92.8344 244.909 92.8344C245.659 92.8344 246.324 93.0244 246.904 93.4044C247.494 93.7744 247.954 94.2694 248.284 94.8894C248.624 95.4994 248.794 96.1694 248.794 96.8994C248.794 97.6194 248.629 98.2894 248.299 98.9094C247.969 99.5194 247.509 100.009 246.919 100.379C246.339 100.749 245.669 100.934 244.909 100.934ZM242.074 96.9144C242.074 97.4944 242.199 98.0244 242.449 98.5044C242.709 98.9744 243.054 99.3494 243.484 99.6294C243.914 99.8994 244.389 100.034 244.909 100.034C245.429 100.034 245.904 99.8944 246.334 99.6144C246.764 99.3344 247.109 98.9544 247.369 98.4744C247.629 97.9944 247.759 97.4644 247.759 96.8844C247.759 96.3044 247.629 95.7744 247.369 95.2944C247.109 94.8144 246.764 94.4344 246.334 94.1544C245.904 93.8744 245.429 93.7344 244.909 93.7344C244.399 93.7344 243.929 93.8794 243.499 94.1694C243.069 94.4494 242.724 94.8294 242.464 95.3094C242.204 95.7894 242.074 96.3244 242.074 96.9144ZM257.22 100.784H256.2V96.4194C256.2 95.4994 256.06 94.8294 255.78 94.4094C255.51 93.9794 255.09 93.7644 254.52 93.7644C254.12 93.7644 253.725 93.8644 253.335 94.0644C252.945 94.2544 252.6 94.5194 252.3 94.8594C252.01 95.1894 251.8 95.5694 251.67 95.9994L251.67 100.784H250.65L250.65 92.9694H251.58V94.7394C251.89 94.1694 252.345 93.7094 252.945 93.3594C253.545 93.0094 254.195 92.8344 254.895 92.8344C255.475 92.8344 255.935 92.9744 256.275 93.2544C256.615 93.5244 256.855 93.9144 256.995 94.4244C257.145 94.9244 257.22 95.5194 257.22 96.2094V100.784Z" fill="white"/>
<path d="M150.262 95.8013L69.2502 95.8013" stroke="#36255A" stroke-width="0.740989"/>
<path d="M0.998061 95.8012C0.99806 114.649 16.2768 129.927 35.124 129.927C53.9713 129.927 69.25 114.649 69.25 95.8013C69.25 76.954 53.9713 61.6753 35.124 61.6753C16.2768 61.6753 0.998061 76.954 0.998061 95.8012Z" stroke="#36255A" stroke-width="0.693653" stroke-miterlimit="10" stroke-linecap="round"/>
<circle cx="103.395" cy="95.8015" r="7.25001" transform="rotate(-180 103.395 95.8015)" fill="#36255A"/>
<path d="M26.9421 98.4684C26.9421 99.2958 26.7384 100.055 26.3308 100.747C25.9233 101.426 25.3675 101.97 24.6636 102.377C23.972 102.772 23.194 102.97 22.3295 102.97C21.4279 102.97 20.619 102.754 19.9027 102.322C19.1988 101.889 18.6431 101.278 18.2355 100.488C17.8403 99.6849 17.6427 98.7278 17.6427 97.6163C17.6427 95.7761 17.8403 94.2633 18.2355 93.0777C18.6431 91.8798 19.205 90.9906 19.9213 90.4102C20.6375 89.8297 21.4712 89.5395 22.4221 89.5395C23.2989 89.5395 24.0831 89.768 24.7747 90.2249C25.4663 90.6819 25.9788 91.3055 26.3123 92.0959L25.6639 92.5961C25.4169 91.9292 24.997 91.392 24.4042 90.9844C23.8115 90.5769 23.1507 90.3731 22.4221 90.3731C21.2612 90.3731 20.3226 90.9227 19.6063 92.0218C18.9024 93.1209 18.5504 94.6647 18.5504 96.653C18.8221 95.8626 19.3161 95.2204 20.0324 94.7264C20.7487 94.2324 21.5514 93.9854 22.4406 93.9854C23.2804 93.9854 24.0399 94.1892 24.7192 94.5967C25.3984 94.9919 25.9356 95.5292 26.3308 96.2084C26.7384 96.8876 26.9421 97.641 26.9421 98.4684ZM22.348 102.136C23.0272 102.136 23.6447 101.976 24.2005 101.655C24.7686 101.321 25.2193 100.877 25.5528 100.321C25.8862 99.7651 26.0529 99.1476 26.0529 98.4684C26.0529 97.8015 25.88 97.1902 25.5343 96.6345C25.2008 96.0664 24.75 95.6156 24.1819 95.2822C23.6262 94.9487 23.0149 94.782 22.348 94.782C21.6688 94.782 21.0451 94.9487 20.477 95.2822C19.9213 95.6156 19.4767 96.0664 19.1432 96.6345C18.8098 97.1902 18.6431 97.8015 18.6431 98.4684C18.6431 99.1353 18.8098 99.7466 19.1432 100.302C19.4767 100.858 19.9274 101.303 20.4955 101.636C21.0636 101.97 21.6811 102.136 22.348 102.136ZM34.2151 102.97C33.3259 102.945 32.5479 102.729 31.881 102.322C31.2141 101.902 30.6584 101.364 30.2138 100.71C29.7692 100.055 29.4296 99.3452 29.1949 98.5796C28.9726 97.8015 28.8615 97.042 28.8615 96.301C28.8615 95.5106 28.985 94.7202 29.232 93.9299C29.479 93.1395 29.8309 92.4232 30.2879 91.781C30.7572 91.1264 31.3191 90.6078 31.9736 90.2249C32.6405 89.8297 33.3877 89.6321 34.2151 89.6321C35.0919 89.6321 35.8638 89.8421 36.5307 90.262C37.2099 90.6819 37.7719 91.2252 38.2164 91.8921C38.661 92.559 38.9945 93.2815 39.2168 94.0595C39.4514 94.8376 39.5688 95.5847 39.5688 96.301C39.5688 97.1038 39.4453 97.9003 39.1983 98.6907C38.9513 99.4687 38.5931 100.179 38.1238 100.821C37.6669 101.463 37.105 101.982 36.4381 102.377C35.7835 102.76 35.0425 102.958 34.2151 102.97ZM29.8062 96.301C29.8309 96.9803 29.9421 97.6595 30.1397 98.3387C30.3373 99.018 30.6151 99.6416 30.9733 100.21C31.3438 100.778 31.7945 101.235 32.3256 101.581C32.869 101.926 33.4988 102.099 34.2151 102.099C34.9561 102.099 35.5983 101.92 36.1417 101.562C36.6974 101.192 37.1544 100.716 37.5125 100.136C37.883 99.5428 38.1609 98.913 38.3461 98.2461C38.5314 97.5669 38.624 96.9185 38.624 96.301C38.624 95.6218 38.519 94.9425 38.3091 94.2633C38.1115 93.5841 37.8213 92.9604 37.4384 92.3923C37.0679 91.8242 36.611 91.3673 36.0676 91.0215C35.5242 90.6757 34.9067 90.5028 34.2151 90.5028C33.4741 90.5028 32.8258 90.688 32.27 91.0585C31.7266 91.429 31.2697 91.9107 30.8992 92.5034C30.541 93.0839 30.2693 93.7137 30.0841 94.393C29.8988 95.0599 29.8062 95.6959 29.8062 96.301ZM44.158 94.6894C43.664 94.6894 43.2132 94.572 42.8057 94.3374C42.3981 94.1027 42.0708 93.7878 41.8238 93.3926C41.5892 92.9974 41.4719 92.559 41.4719 92.0774C41.4719 91.5834 41.5892 91.1388 41.8238 90.7436C42.0708 90.3484 42.3981 90.0335 42.8057 89.7988C43.2132 89.5642 43.664 89.4469 44.158 89.4469C44.652 89.4469 45.1027 89.5642 45.5103 89.7988C45.9178 90.0335 46.2389 90.3484 46.4735 90.7436C46.7205 91.1388 46.844 91.5834 46.844 92.0774C46.844 92.559 46.7205 92.9974 46.4735 93.3926C46.2389 93.7878 45.9178 94.1027 45.5103 94.3374C45.1027 94.572 44.652 94.6894 44.158 94.6894ZM41.7497 102.396L46.9367 96.0231L52.0124 89.5765L52.5311 90.0026L47.3442 96.3936L42.2684 102.84L41.7497 102.396ZM44.158 94.0966C44.5285 94.0966 44.8619 94.004 45.1583 93.8187C45.4547 93.6211 45.6893 93.3679 45.8622 93.0592C46.0351 92.7504 46.1216 92.4232 46.1216 92.0774C46.1216 91.6945 46.029 91.3549 45.8437 91.0585C45.6585 90.7498 45.4176 90.5028 45.1212 90.3175C44.8248 90.1323 44.5038 90.0397 44.158 90.0397C43.7998 90.0397 43.4725 90.1385 43.1761 90.3361C42.8798 90.5213 42.6451 90.7683 42.4722 91.077C42.2993 91.3858 42.2129 91.7192 42.2129 92.0774C42.2129 92.6331 42.4043 93.1086 42.7871 93.5038C43.17 93.899 43.6269 94.0966 44.158 94.0966ZM50.1229 102.97C49.6289 102.97 49.1782 102.853 48.7706 102.618C48.3631 102.383 48.0358 102.068 47.7888 101.673C47.5542 101.278 47.4368 100.833 47.4368 100.339C47.4368 99.8578 47.5542 99.4193 47.7888 99.0242C48.0358 98.629 48.3631 98.314 48.7706 98.0794C49.1782 97.8447 49.6289 97.7274 50.1229 97.7274C50.6169 97.7274 51.0677 97.8447 51.4752 98.0794C51.8828 98.314 52.2039 98.629 52.4385 99.0242C52.6855 99.4193 52.809 99.8578 52.809 100.339C52.809 100.833 52.6855 101.278 52.4385 101.673C52.2039 102.068 51.8828 102.383 51.4752 102.618C51.0677 102.853 50.6169 102.97 50.1229 102.97ZM50.1229 102.377C50.4934 102.377 50.8269 102.285 51.1233 102.099C51.4196 101.902 51.6543 101.655 51.8272 101.358C52.0001 101.05 52.0865 100.71 52.0865 100.339C52.0865 99.9689 51.9939 99.6355 51.8087 99.3391C51.6234 99.0303 51.3826 98.7833 51.0862 98.5981C50.7898 98.4128 50.4687 98.3202 50.1229 98.3202C49.7648 98.3202 49.4375 98.419 49.1411 98.6166C48.8447 98.8019 48.6101 99.0488 48.4372 99.3576C48.2643 99.6663 48.1778 99.9936 48.1778 100.339C48.1778 100.907 48.3692 101.389 48.7521 101.784C49.1349 102.18 49.5919 102.377 50.1229 102.377Z" fill="#36255A"/>
<rect x="150.262" y="180.715" width="166.372" height="38.525" rx="19.2625" fill="#513887"/>
<path d="M219.765 204.96L219.765 194.31H224.175C224.635 194.31 225.055 194.405 225.435 194.595C225.825 194.785 226.16 195.045 226.44 195.375C226.73 195.695 226.95 196.055 227.1 196.455C227.26 196.845 227.34 197.245 227.34 197.655C227.34 198.235 227.21 198.785 226.95 199.305C226.69 199.815 226.33 200.23 225.87 200.55C225.41 200.87 224.875 201.03 224.265 201.03H220.815V204.96H219.765ZM220.815 200.1H224.22C224.64 200.1 225.005 199.985 225.315 199.755C225.625 199.525 225.865 199.225 226.035 198.855C226.205 198.485 226.29 198.085 226.29 197.655C226.29 197.215 226.19 196.815 225.99 196.455C225.79 196.085 225.525 195.79 225.195 195.57C224.875 195.35 224.52 195.24 224.13 195.24H220.815V200.1ZM237.646 194.31L237.646 204.96H236.611L236.611 199.98L230.296 199.98L230.296 204.96H229.246L229.246 194.31H230.296V199.05L236.611 199.05V194.31H237.646ZM240.47 204.96L240.47 194.31H244.88C245.34 194.31 245.76 194.405 246.14 194.595C246.53 194.785 246.865 195.045 247.145 195.375C247.435 195.695 247.655 196.055 247.805 196.455C247.965 196.845 248.045 197.245 248.045 197.655C248.045 198.235 247.915 198.785 247.655 199.305C247.395 199.815 247.035 200.23 246.575 200.55C246.115 200.87 245.58 201.03 244.97 201.03H241.52L241.52 204.96H240.47ZM241.52 200.1H244.925C245.345 200.1 245.71 199.985 246.02 199.755C246.33 199.525 246.57 199.225 246.74 198.855C246.91 198.485 246.995 198.085 246.995 197.655C246.995 197.215 246.895 196.815 246.695 196.455C246.495 196.085 246.23 195.79 245.9 195.57C245.58 195.35 245.225 195.24 244.835 195.24H241.52V200.1Z" fill="white"/>
<path d="M150.262 199.977L69.2502 199.977" stroke="#36255A" stroke-width="0.740989"/>
<path d="M0.998061 199.977C0.99806 218.824 16.2768 234.103 35.124 234.103C53.9713 234.103 69.25 218.824 69.25 199.977C69.25 181.13 53.9713 165.851 35.124 165.851C16.2768 165.851 0.998061 181.13 0.998061 199.977Z" stroke="#36255A" stroke-width="0.693653" stroke-miterlimit="10" stroke-linecap="round"/>
<circle cx="103.395" cy="199.977" r="7.25001" transform="rotate(-180 103.395 199.977)" fill="#36255A"/>
<path d="M22.1408 207.127C21.338 207.127 20.6156 206.991 19.9734 206.72C19.3312 206.448 18.8125 206.071 18.4173 205.59C18.0221 205.108 17.7874 204.552 17.7133 203.922L18.3432 203.496C18.3679 203.978 18.547 204.429 18.8804 204.849C19.2138 205.269 19.6584 205.608 20.2142 205.867C20.7823 206.127 21.4245 206.257 22.1408 206.257C22.8076 206.257 23.4066 206.139 23.9377 205.905C24.481 205.658 24.9071 205.33 25.2159 204.923C25.5246 204.503 25.679 204.027 25.679 203.496C25.679 202.632 25.2838 201.946 24.4934 201.44C23.7154 200.934 22.6656 200.681 21.3442 200.681H20.6958V199.847H21.3442C22.6039 199.847 23.5795 199.637 24.2711 199.217C24.975 198.785 25.327 198.155 25.327 197.328C25.327 196.76 25.1726 196.266 24.8639 195.846C24.5675 195.413 24.1661 195.08 23.6598 194.845C23.1534 194.611 22.5915 194.493 21.974 194.493C21.1466 194.493 20.4241 194.679 19.8066 195.049C19.2015 195.42 18.7816 195.889 18.547 196.457L17.8615 195.864C18.195 195.185 18.7384 194.648 19.4917 194.252C20.2451 193.845 21.0725 193.641 21.974 193.641C22.8015 193.641 23.5363 193.802 24.1785 194.123C24.833 194.444 25.3455 194.882 25.716 195.438C26.0989 195.981 26.2903 196.599 26.2903 197.291C26.2903 198.822 25.4196 199.804 23.6783 200.236C24.5675 200.409 25.2838 200.804 25.8272 201.422C26.3706 202.039 26.6423 202.762 26.6423 203.589C26.6423 204.293 26.4385 204.91 26.0309 205.441C25.6234 205.972 25.0738 206.386 24.3822 206.683C23.703 206.979 22.9558 207.127 22.1408 207.127ZM34.0704 207.146C33.1812 207.121 32.4032 206.905 31.7363 206.497C31.0694 206.077 30.5136 205.54 30.069 204.886C29.6244 204.231 29.2848 203.521 29.0502 202.755C28.8279 201.977 28.7167 201.218 28.7167 200.477C28.7167 199.686 28.8402 198.896 29.0872 198.106C29.3342 197.315 29.6862 196.599 30.1431 195.957C30.6124 195.302 31.1744 194.784 31.8289 194.401C32.4958 194.005 33.2429 193.808 34.0704 193.808C34.9472 193.808 35.7191 194.018 36.386 194.438C37.0652 194.858 37.6271 195.401 38.0717 196.068C38.5163 196.735 38.8498 197.457 39.0721 198.235C39.3067 199.013 39.424 199.761 39.424 200.477C39.424 201.28 39.3005 202.076 39.0535 202.866C38.8065 203.645 38.4484 204.355 37.9791 204.997C37.5222 205.639 36.9602 206.158 36.2933 206.553C35.6388 206.936 34.8978 207.133 34.0704 207.146ZM29.6615 200.477C29.6862 201.156 29.7973 201.835 29.9949 202.515C30.1925 203.194 30.4704 203.817 30.8286 204.386C31.1991 204.954 31.6498 205.411 32.1809 205.756C32.7243 206.102 33.3541 206.275 34.0704 206.275C34.8114 206.275 35.4536 206.096 35.997 205.738C36.5527 205.367 37.0096 204.892 37.3678 204.311C37.7383 203.719 38.0161 203.089 38.2014 202.422C38.3866 201.743 38.4793 201.094 38.4793 200.477C38.4793 199.798 38.3743 199.118 38.1643 198.439C37.9667 197.76 37.6765 197.136 37.2937 196.568C36.9232 196 36.4662 195.543 35.9229 195.197C35.3795 194.851 34.762 194.679 34.0704 194.679C33.3294 194.679 32.681 194.864 32.1253 195.234C31.5819 195.605 31.125 196.086 30.7545 196.679C30.3963 197.26 30.1246 197.89 29.9394 198.569C29.7541 199.236 29.6615 199.872 29.6615 200.477ZM44.0132 198.865C43.5192 198.865 43.0685 198.748 42.6609 198.513C42.2534 198.279 41.9261 197.964 41.6791 197.568C41.4445 197.173 41.3272 196.735 41.3272 196.253C41.3272 195.759 41.4445 195.315 41.6791 194.919C41.9261 194.524 42.2534 194.209 42.6609 193.975C43.0685 193.74 43.5192 193.623 44.0132 193.623C44.5072 193.623 44.958 193.74 45.3655 193.975C45.7731 194.209 46.0942 194.524 46.3288 194.919C46.5758 195.315 46.6993 195.759 46.6993 196.253C46.6993 196.735 46.5758 197.173 46.3288 197.568C46.0942 197.964 45.7731 198.279 45.3655 198.513C44.958 198.748 44.5072 198.865 44.0132 198.865ZM41.605 206.571L46.7919 200.199L51.8677 193.752L52.3864 194.178L47.1995 200.569L42.1237 207.016L41.605 206.571ZM44.0132 198.272C44.3837 198.272 44.7172 198.18 45.0136 197.994C45.31 197.797 45.5446 197.544 45.7175 197.235C45.8904 196.926 45.9769 196.599 45.9769 196.253C45.9769 195.87 45.8842 195.531 45.699 195.234C45.5137 194.926 45.2729 194.679 44.9765 194.493C44.6801 194.308 44.359 194.215 44.0132 194.215C43.6551 194.215 43.3278 194.314 43.0314 194.512C42.735 194.697 42.5004 194.944 42.3275 195.253C42.1546 195.562 42.0681 195.895 42.0681 196.253C42.0681 196.809 42.2596 197.284 42.6424 197.68C43.0253 198.075 43.4822 198.272 44.0132 198.272ZM49.9782 207.146C49.4842 207.146 49.0334 207.028 48.6259 206.794C48.2183 206.559 47.8911 206.244 47.6441 205.849C47.4094 205.454 47.2921 205.009 47.2921 204.515C47.2921 204.034 47.4094 203.595 47.6441 203.2C47.8911 202.805 48.2183 202.49 48.6259 202.255C49.0334 202.021 49.4842 201.903 49.9782 201.903C50.4722 201.903 50.923 202.021 51.3305 202.255C51.738 202.49 52.0591 202.805 52.2938 203.2C52.5408 203.595 52.6643 204.034 52.6643 204.515C52.6643 205.009 52.5408 205.454 52.2938 205.849C52.0591 206.244 51.738 206.559 51.3305 206.794C50.923 207.028 50.4722 207.146 49.9782 207.146ZM49.9782 206.553C50.3487 206.553 50.6821 206.46 50.9785 206.275C51.2749 206.077 51.5096 205.83 51.6825 205.534C51.8554 205.225 51.9418 204.886 51.9418 204.515C51.9418 204.145 51.8492 203.811 51.6639 203.515C51.4787 203.206 51.2379 202.959 50.9415 202.774C50.6451 202.589 50.324 202.496 49.9782 202.496C49.6201 202.496 49.2928 202.595 48.9964 202.792C48.7 202.978 48.4653 203.225 48.2924 203.533C48.1195 203.842 48.0331 204.169 48.0331 204.515C48.0331 205.083 48.2245 205.565 48.6074 205.96C48.9902 206.355 49.4472 206.553 49.9782 206.553Z" fill="#36255A"/>
<rect x="150.262" y="285.614" width="166.372" height="38.525" rx="19.2625" fill="#7255B1"/>
<path d="M206.363 308.525C206.573 308.675 206.848 308.805 207.188 308.915C207.538 309.025 207.938 309.08 208.388 309.08C209.078 309.08 209.598 308.925 209.948 308.615C210.298 308.295 210.528 307.82 210.638 307.19C210.758 306.56 210.818 305.775 210.818 304.835V299.21H211.868V304.625C211.868 305.425 211.828 306.155 211.748 306.815C211.668 307.475 211.513 308.045 211.283 308.525C211.053 309.005 210.708 309.375 210.248 309.635C209.788 309.895 209.178 310.025 208.418 310.025C207.928 310.025 207.493 309.97 207.113 309.86C206.733 309.75 206.383 309.585 206.063 309.365L206.363 308.525ZM213.602 307.61C213.602 307.13 213.742 306.715 214.022 306.365C214.302 306.005 214.687 305.725 215.177 305.525C215.677 305.325 216.252 305.225 216.902 305.225C217.282 305.225 217.677 305.26 218.087 305.33C218.497 305.39 218.862 305.475 219.182 305.585L219.182 304.925C219.182 304.265 218.987 303.74 218.597 303.35C218.207 302.96 217.667 302.765 216.977 302.765C216.567 302.765 216.157 302.845 215.747 303.005C215.337 303.155 214.912 303.38 214.472 303.68L214.082 302.96C214.592 302.61 215.092 302.35 215.582 302.18C216.072 302 216.572 301.91 217.082 301.91C218.042 301.91 218.802 302.185 219.362 302.735C219.922 303.285 220.202 304.045 220.202 305.015L220.202 308.63C220.202 308.9 220.327 309.04 220.577 309.05V309.86C220.357 309.89 220.202 309.9 220.112 309.89C219.862 309.88 219.672 309.8 219.542 309.65C219.412 309.5 219.342 309.34 219.332 309.17L219.317 308.6C218.967 309.05 218.512 309.4 217.952 309.65C217.392 309.89 216.822 310.01 216.242 310.01C215.732 310.01 215.277 309.905 214.877 309.695C214.477 309.475 214.162 309.185 213.932 308.825C213.712 308.455 213.602 308.05 213.602 307.61ZM218.837 308.21C219.067 307.94 219.182 307.69 219.182 307.46V306.32C218.492 306.05 217.772 305.915 217.022 305.915C216.292 305.915 215.702 306.06 215.252 306.35C214.802 306.64 214.577 307.035 214.577 307.535C214.577 307.965 214.742 308.355 215.072 308.705C215.412 309.055 215.882 309.23 216.482 309.23C216.972 309.23 217.427 309.135 217.847 308.945C218.277 308.755 218.607 308.51 218.837 308.21ZM224.647 309.86L221.482 302.045H222.547L225.217 308.84L227.902 302.045H228.907L225.742 309.86H224.647ZM229.649 307.61C229.649 307.13 229.789 306.715 230.069 306.365C230.349 306.005 230.734 305.725 231.224 305.525C231.724 305.325 232.299 305.225 232.949 305.225C233.329 305.225 233.724 305.26 234.134 305.33C234.544 305.39 234.909 305.475 235.229 305.585L235.229 304.925C235.229 304.265 235.034 303.74 234.644 303.35C234.254 302.96 233.714 302.765 233.024 302.765C232.614 302.765 232.204 302.845 231.794 303.005C231.384 303.155 230.959 303.38 230.519 303.68L230.129 302.96C230.639 302.61 231.139 302.35 231.629 302.18C232.119 302 232.619 301.91 233.129 301.91C234.089 301.91 234.849 302.185 235.409 302.735C235.969 303.285 236.249 304.045 236.249 305.015L236.249 308.63C236.249 308.9 236.374 309.04 236.624 309.05V309.86C236.404 309.89 236.249 309.9 236.159 309.89C235.909 309.88 235.719 309.8 235.589 309.65C235.459 309.5 235.389 309.34 235.379 309.17L235.364 308.6C235.014 309.05 234.559 309.4 233.999 309.65C233.439 309.89 232.869 310.01 232.289 310.01C231.779 310.01 231.324 309.905 230.924 309.695C230.524 309.475 230.209 309.185 229.979 308.825C229.759 308.455 229.649 308.05 229.649 307.61ZM234.884 308.21C235.114 307.94 235.229 307.69 235.229 307.46V306.32C234.539 306.05 233.819 305.915 233.069 305.915C232.339 305.915 231.749 306.06 231.299 306.35C230.849 306.64 230.624 307.035 230.624 307.535C230.624 307.965 230.789 308.355 231.119 308.705C231.459 309.055 231.929 309.23 232.529 309.23C233.019 309.23 233.474 309.135 233.894 308.945C234.324 308.755 234.654 308.51 234.884 308.21ZM238.768 311.075L239.023 309.815H238.678V308.39H239.668V309.815L239.293 311.075H238.768ZM245.07 308.525C245.28 308.675 245.555 308.805 245.895 308.915C246.245 309.025 246.645 309.08 247.095 309.08C247.785 309.08 248.305 308.925 248.655 308.615C249.005 308.295 249.235 307.82 249.345 307.19C249.465 306.56 249.525 305.775 249.525 304.835V299.21H250.575V304.625C250.575 305.425 250.535 306.155 250.455 306.815C250.375 307.475 250.22 308.045 249.99 308.525C249.76 309.005 249.415 309.375 248.955 309.635C248.495 309.895 247.885 310.025 247.125 310.025C246.635 310.025 246.2 309.97 245.82 309.86C245.44 309.75 245.09 309.585 244.77 309.365L245.07 308.525ZM259.492 301.205C259.192 300.875 258.792 300.605 258.292 300.395C257.792 300.175 257.222 300.065 256.582 300.065C255.642 300.065 254.957 300.245 254.527 300.605C254.097 300.955 253.882 301.435 253.882 302.045C253.882 302.465 253.987 302.795 254.197 303.035C254.407 303.275 254.727 303.475 255.157 303.635C255.597 303.785 256.157 303.935 256.837 304.085C257.597 304.245 258.252 304.435 258.802 304.655C259.352 304.875 259.777 305.175 260.077 305.555C260.377 305.925 260.527 306.43 260.527 307.07C260.527 307.72 260.362 308.26 260.032 308.69C259.702 309.12 259.247 309.44 258.667 309.65C258.087 309.85 257.427 309.95 256.687 309.95C255.027 309.95 253.602 309.435 252.412 308.405L252.937 307.55C253.317 307.95 253.837 308.295 254.497 308.585C255.167 308.875 255.907 309.02 256.717 309.02C257.557 309.02 258.217 308.865 258.697 308.555C259.177 308.245 259.417 307.785 259.417 307.175C259.417 306.735 259.297 306.385 259.057 306.125C258.817 305.855 258.457 305.635 257.977 305.465C257.497 305.295 256.907 305.13 256.207 304.97C255.467 304.8 254.842 304.61 254.332 304.4C253.832 304.19 253.452 303.915 253.192 303.575C252.932 303.235 252.802 302.775 252.802 302.195C252.802 301.535 252.962 300.98 253.282 300.53C253.612 300.07 254.062 299.725 254.632 299.495C255.202 299.255 255.857 299.135 256.597 299.135C257.297 299.135 257.927 299.245 258.487 299.465C259.047 299.675 259.552 299.975 260.002 300.365L259.492 301.205Z" fill="white"/>
<path d="M150.262 304.876L69.2502 304.876" stroke="#36255A" stroke-width="0.740989"/>
<path d="M0.998061 304.876C0.99806 323.724 16.2768 339.002 35.124 339.002C53.9713 339.002 69.25 323.724 69.25 304.876C69.25 286.029 53.9713 270.75 35.124 270.75C16.2768 270.75 0.998061 286.029 0.998061 304.876Z" stroke="#36255A" stroke-width="0.693653" stroke-miterlimit="10" stroke-linecap="round"/>
<circle cx="103.395" cy="304.877" r="7.25001" transform="rotate(-180 103.395 304.877)" fill="#36255A"/>
<path d="M25.561 311.008V311.86H19.7998V311.008H22.2822L22.2822 299.634C22.1463 299.831 21.9055 300.053 21.5597 300.3C21.2262 300.547 20.8619 300.764 20.4667 300.949C20.0715 301.134 19.7072 301.227 19.3738 301.227V300.356C19.6949 300.356 20.0221 300.27 20.3556 300.097C20.689 299.911 20.9978 299.701 21.2818 299.467C21.5782 299.232 21.8129 299.022 21.9858 298.837C22.171 298.652 22.2698 298.553 22.2822 298.541H23.2084L23.2084 311.008H25.561ZM32.2432 312.045C31.3541 312.02 30.576 311.804 29.9091 311.397C29.2422 310.977 28.6865 310.44 28.2419 309.785C27.7973 309.131 27.4577 308.42 27.223 307.655C27.0007 306.877 26.8896 306.117 26.8896 305.376C26.8896 304.586 27.0131 303.795 27.2601 303.005C27.5071 302.215 27.8591 301.498 28.316 300.856C28.7853 300.202 29.3472 299.683 30.0017 299.3C30.6686 298.905 31.4158 298.707 32.2432 298.707C33.1201 298.707 33.8919 298.917 34.5588 299.337C35.2381 299.757 35.8 300.3 36.2446 300.967C36.6892 301.634 37.0226 302.357 37.2449 303.135C37.4796 303.913 37.5969 304.66 37.5969 305.376C37.5969 306.179 37.4734 306.976 37.2264 307.766C36.9794 308.544 36.6212 309.254 36.152 309.896C35.695 310.538 35.1331 311.057 34.4662 311.452C33.8117 311.835 33.0707 312.033 32.2432 312.045ZM27.8344 305.376C27.8591 306.055 27.9702 306.735 28.1678 307.414C28.3654 308.093 28.6433 308.717 29.0014 309.285C29.3719 309.853 29.8227 310.31 30.3537 310.656C30.8971 311.002 31.5269 311.174 32.2432 311.174C32.9842 311.174 33.6264 310.995 34.1698 310.637C34.7255 310.267 35.1825 309.791 35.5406 309.211C35.9111 308.618 36.189 307.988 36.3742 307.321C36.5595 306.642 36.6521 305.994 36.6521 305.376C36.6521 304.697 36.5471 304.018 36.3372 303.338C36.1396 302.659 35.8494 302.036 35.4665 301.467C35.096 300.899 34.6391 300.442 34.0957 300.097C33.5523 299.751 32.9348 299.578 32.2432 299.578C31.5022 299.578 30.8539 299.763 30.2981 300.134C29.7548 300.504 29.2978 300.986 28.9273 301.579C28.5692 302.159 28.2975 302.789 28.1122 303.468C27.927 304.135 27.8344 304.771 27.8344 305.376ZM42.1861 303.765C41.6921 303.765 41.2413 303.647 40.8338 303.413C40.4262 303.178 40.099 302.863 39.852 302.468C39.6173 302.073 39.5 301.634 39.5 301.153C39.5 300.659 39.6173 300.214 39.852 299.819C40.099 299.424 40.4262 299.109 40.8338 298.874C41.2413 298.639 41.6921 298.522 42.1861 298.522C42.6801 298.522 43.1309 298.639 43.5384 298.874C43.9459 299.109 44.267 299.424 44.5017 299.819C44.7487 300.214 44.8722 300.659 44.8722 301.153C44.8722 301.634 44.7487 302.073 44.5017 302.468C44.267 302.863 43.9459 303.178 43.5384 303.413C43.1309 303.647 42.6801 303.765 42.1861 303.765ZM39.7779 311.471L44.9648 305.098L50.0406 298.652L50.5593 299.078L45.3723 305.469L40.2966 311.915L39.7779 311.471ZM42.1861 303.172C42.5566 303.172 42.89 303.079 43.1864 302.894C43.4828 302.696 43.7175 302.443 43.8904 302.134C44.0633 301.826 44.1497 301.498 44.1497 301.153C44.1497 300.77 44.0571 300.43 43.8718 300.134C43.6866 299.825 43.4458 299.578 43.1494 299.393C42.853 299.207 42.5319 299.115 42.1861 299.115C41.8279 299.115 41.5007 299.214 41.2043 299.411C40.9079 299.597 40.6732 299.843 40.5003 300.152C40.3274 300.461 40.241 300.794 40.241 301.153C40.241 301.708 40.4324 302.184 40.8153 302.579C41.1981 302.974 41.655 303.172 42.1861 303.172ZM48.1511 312.045C47.6571 312.045 47.2063 311.928 46.7987 311.693C46.3912 311.458 46.0639 311.144 45.8169 310.748C45.5823 310.353 45.465 309.909 45.465 309.415C45.465 308.933 45.5823 308.495 45.8169 308.099C46.0639 307.704 46.3912 307.389 46.7987 307.155C47.2063 306.92 47.6571 306.803 48.1511 306.803C48.645 306.803 49.0958 306.92 49.5034 307.155C49.9109 307.389 50.232 307.704 50.4666 308.099C50.7136 308.495 50.8371 308.933 50.8371 309.415C50.8371 309.909 50.7136 310.353 50.4666 310.748C50.232 311.144 49.9109 311.458 49.5034 311.693C49.0958 311.928 48.645 312.045 48.1511 312.045ZM48.1511 311.452C48.5215 311.452 48.855 311.36 49.1514 311.174C49.4478 310.977 49.6824 310.73 49.8553 310.433C50.0282 310.125 50.1147 309.785 50.1147 309.415C50.1147 309.044 50.022 308.711 49.8368 308.414C49.6516 308.106 49.4107 307.859 49.1143 307.673C48.8179 307.488 48.4968 307.395 48.1511 307.395C47.7929 307.395 47.4656 307.494 47.1692 307.692C46.8728 307.877 46.6382 308.124 46.4653 308.433C46.2924 308.742 46.206 309.069 46.206 309.415C46.206 309.983 46.3974 310.464 46.7802 310.86C47.1631 311.255 47.62 311.452 48.1511 311.452Z" fill="#36255A"/>
<path d="M12.484 16.706C12.484 17.39 12.304 17.978 11.944 18.47C11.584 18.962 11.104 19.34 10.504 19.604C9.916 19.868 9.262 20 8.542 20H2.44V7.22H9.028C9.628 7.22 10.144 7.382 10.576 7.706C11.008 8.018 11.344 8.426 11.584 8.93C11.824 9.434 11.944 9.95 11.944 10.478C11.944 11.102 11.782 11.69 11.458 12.242C11.146 12.782 10.696 13.184 10.108 13.448C10.828 13.664 11.404 14.06 11.836 14.636C12.268 15.2 12.484 15.89 12.484 16.706ZM4.456 8.966V12.728H8.164C8.668 12.728 9.088 12.554 9.424 12.206C9.76 11.846 9.928 11.396 9.928 10.856C9.928 10.304 9.772 9.854 9.46 9.506C9.148 9.146 8.752 8.966 8.272 8.966H4.456ZM10.414 16.328C10.414 15.8 10.246 15.338 9.91 14.942C9.586 14.546 9.172 14.348 8.668 14.348H4.456V18.254H8.542C9.07 18.254 9.514 18.068 9.874 17.696C10.234 17.312 10.414 16.856 10.414 16.328ZM13.6505 17.246C13.6505 16.646 13.8185 16.124 14.1545 15.68C14.4905 15.224 14.9585 14.876 15.5585 14.636C16.1705 14.384 16.8725 14.258 17.6645 14.258C18.0845 14.258 18.5105 14.294 18.9425 14.366C19.3865 14.426 19.7765 14.516 20.1125 14.636V14.042C20.1125 13.382 19.9145 12.866 19.5185 12.494C19.1225 12.122 18.5525 11.936 17.8085 11.936C17.2925 11.936 16.7945 12.026 16.3145 12.206C15.8345 12.386 15.3365 12.65 14.8205 12.998L14.1545 11.666C14.7785 11.258 15.4025 10.952 16.0265 10.748C16.6625 10.532 17.3285 10.424 18.0245 10.424C19.2845 10.424 20.2745 10.76 20.9945 11.432C21.7265 12.092 22.0925 13.034 22.0925 14.258V17.768C22.0925 17.996 22.1285 18.158 22.2005 18.254C22.2845 18.35 22.4225 18.404 22.6145 18.416V20C22.4345 20.036 22.2725 20.06 22.1285 20.072C21.9845 20.084 21.8645 20.09 21.7685 20.09C21.3365 20.09 21.0125 19.988 20.7965 19.784C20.5925 19.568 20.4725 19.328 20.4365 19.064L20.3825 18.524C19.9745 19.052 19.4525 19.46 18.8165 19.748C18.1805 20.036 17.5385 20.18 16.8905 20.18C16.2665 20.18 15.7085 20.054 15.2165 19.802C14.7245 19.538 14.3405 19.184 14.0645 18.74C13.7885 18.296 13.6505 17.798 13.6505 17.246ZM19.6445 17.822C19.9565 17.51 20.1125 17.216 20.1125 16.94V15.86C19.4045 15.596 18.6845 15.464 17.9525 15.464C17.2325 15.464 16.6445 15.614 16.1885 15.914C15.7445 16.202 15.5225 16.592 15.5225 17.084C15.5225 17.492 15.6845 17.87 16.0085 18.218C16.3445 18.554 16.8245 18.722 17.4485 18.722C17.8685 18.722 18.2765 18.638 18.6725 18.47C19.0685 18.302 19.3925 18.086 19.6445 17.822ZM28.7606 20.18C27.7886 20.18 26.9366 19.958 26.2046 19.514C25.4726 19.058 24.9026 18.458 24.4946 17.714C24.0866 16.97 23.8826 16.16 23.8826 15.284C23.8826 14.408 24.0806 13.604 24.4766 12.872C24.8846 12.128 25.4486 11.534 26.1686 11.09C26.9006 10.646 27.7646 10.424 28.7606 10.424C29.7326 10.424 30.5666 10.64 31.2626 11.072C31.9706 11.492 32.4986 12.056 32.8466 12.764L30.9206 13.376C30.7046 12.98 30.3986 12.674 30.0026 12.458C29.6186 12.23 29.1926 12.116 28.7246 12.116C28.1966 12.116 27.7166 12.254 27.2846 12.53C26.8646 12.794 26.5286 13.166 26.2766 13.646C26.0366 14.126 25.9166 14.672 25.9166 15.284C25.9166 15.896 26.0426 16.442 26.2946 16.922C26.5586 17.402 26.9006 17.786 27.3206 18.074C27.7526 18.35 28.2266 18.488 28.7426 18.488C29.2226 18.488 29.6786 18.362 30.1106 18.11C30.5426 17.858 30.8306 17.552 30.9746 17.192L32.9186 17.768C32.6066 18.476 32.0846 19.058 31.3526 19.514C30.6206 19.958 29.7566 20.18 28.7606 20.18ZM41.1013 20L38.0773 15.662L36.5293 17.138V20H34.5493V6.86H36.5293V15.14L40.8853 10.604H43.0093L39.3553 14.546L43.2073 20H41.1013ZM48.1845 20.18C47.2125 20.18 46.3605 19.958 45.6285 19.514C44.8965 19.07 44.3265 18.482 43.9185 17.75C43.5105 17.006 43.3065 16.196 43.3065 15.32C43.3065 14.432 43.5105 13.616 43.9185 12.872C44.3265 12.128 44.8965 11.534 45.6285 11.09C46.3605 10.646 47.2185 10.424 48.2025 10.424C49.1865 10.424 50.0385 10.652 50.7585 11.108C51.4785 11.552 52.0305 12.14 52.4145 12.872C52.8105 13.604 53.0085 14.39 53.0085 15.23C53.0085 15.53 52.9905 15.77 52.9545 15.95H45.4125C45.4485 16.502 45.5985 16.988 45.8625 17.408C46.1385 17.816 46.4805 18.14 46.8885 18.38C47.3085 18.608 47.7645 18.722 48.2565 18.722C48.7845 18.722 49.2825 18.59 49.7505 18.326C50.2185 18.062 50.5425 17.714 50.7225 17.282L52.4145 17.768C52.0905 18.476 51.5505 19.058 50.7945 19.514C50.0505 19.958 49.1805 20.18 48.1845 20.18ZM45.3585 14.636H51.0465C50.9985 14.096 50.8425 13.622 50.5785 13.214C50.3145 12.794 49.9725 12.47 49.5525 12.242C49.1445 12.002 48.6885 11.882 48.1845 11.882C47.6925 11.882 47.2365 12.002 46.8165 12.242C46.4085 12.47 46.0725 12.794 45.8085 13.214C45.5445 13.622 45.3945 14.096 45.3585 14.636ZM63.0655 20H61.0855V14.726C61.0855 13.838 60.9415 13.196 60.6535 12.8C60.3775 12.392 59.9635 12.188 59.4115 12.188C59.0275 12.188 58.6435 12.284 58.2595 12.476C57.8875 12.668 57.5515 12.932 57.2515 13.268C56.9515 13.604 56.7355 13.982 56.6035 14.402V20H54.6235V10.586H56.4235V12.476C56.7835 11.852 57.3055 11.354 57.9895 10.982C58.6735 10.61 59.4295 10.424 60.2575 10.424C61.0015 10.424 61.5775 10.604 61.9855 10.964C62.3935 11.312 62.6755 11.774 62.8315 12.35C62.9875 12.926 63.0655 13.562 63.0655 14.258V20ZM64.7698 15.302C64.7698 14.402 64.9498 13.586 65.3098 12.854C65.6818 12.11 66.1858 11.522 66.8218 11.09C67.4578 10.646 68.1898 10.424 69.0178 10.424C69.7378 10.424 70.3858 10.61 70.9618 10.982C71.5498 11.354 72.0058 11.816 72.3298 12.368V6.86H74.3098V17.768C74.3098 17.996 74.3518 18.158 74.4358 18.254C74.5198 18.35 74.6578 18.404 74.8498 18.416V20C74.4778 20.06 74.1898 20.09 73.9858 20.09C73.6138 20.09 73.2958 19.988 73.0318 19.784C72.7798 19.568 72.6478 19.304 72.6358 18.992L72.6178 18.29C72.2578 18.89 71.7718 19.358 71.1598 19.694C70.5478 20.018 69.9118 20.18 69.2518 20.18C68.3878 20.18 67.6138 19.958 66.9298 19.514C66.2578 19.07 65.7298 18.482 65.3458 17.75C64.9618 17.006 64.7698 16.19 64.7698 15.302ZM72.3298 16.616V14.15C72.1858 13.766 71.9698 13.424 71.6818 13.124C71.3938 12.812 71.0638 12.566 70.6918 12.386C70.3318 12.206 69.9718 12.116 69.6118 12.116C69.0478 12.116 68.5558 12.272 68.1358 12.584C67.7278 12.884 67.4038 13.28 67.1638 13.772C66.9358 14.264 66.8218 14.786 66.8218 15.338C66.8218 15.914 66.9478 16.442 67.1998 16.922C67.4638 17.402 67.8178 17.786 68.2618 18.074C68.7058 18.35 69.2038 18.488 69.7558 18.488C70.0918 18.488 70.4398 18.41 70.7998 18.254C71.1718 18.086 71.4958 17.864 71.7718 17.588C72.0478 17.3 72.2338 16.976 72.3298 16.616Z" fill="#666666"/>
</svg>
