<svg width="81" height="81" viewBox="0 0 81 81" fill="none" xmlns="http://www.w3.org/2000/svg">
<path d="M68.707 65.5351V15.4648L12.2988 15.4648V65.5351H68.707Z" stroke="#00AC6A" stroke-width="0.8"/>
<path d="M68.6248 26.8733H12.375" stroke="#00AC6A" stroke-width="0.8" stroke-linecap="round"/>
<path d="M19.1449 22.2783C19.6019 21.2728 19.1573 20.0871 18.1517 19.63C17.1462 19.1729 15.9605 19.6176 15.5034 20.6231C15.0463 21.6287 15.491 22.8144 16.4965 23.2715C17.5021 23.7285 18.6878 23.2839 19.1449 22.2783Z" fill="#00AC6A"/>
<path d="M32.2152 22.2783C32.6722 21.2728 32.2276 20.0871 31.222 19.63C30.2165 19.1729 29.0308 19.6176 28.5737 20.6231C28.1166 21.6287 28.5613 22.8144 29.5668 23.2715C30.5724 23.7285 31.7581 23.2839 32.2152 22.2783Z" fill="#00AC6A"/>
<path d="M25.68 22.2783C26.1371 21.2728 25.6924 20.0871 24.6869 19.63C23.6813 19.1729 22.4956 19.6176 22.0385 20.6231C21.5815 21.6287 22.0261 22.8144 23.0317 23.2715C24.0372 23.7285 25.2229 23.2839 25.68 22.2783Z" fill="#00AC6A"/>
<path d="M42.4044 55.2339C42.4044 56.284 41.553 57.1353 40.503 57.1353C39.4529 57.1353 38.6016 56.284 38.6016 55.2339" stroke="#00AC6A" stroke-width="0.8"/>
<path d="M26.7969 54.917H54.2087" stroke="#00AC6A" stroke-width="0.8" stroke-linecap="round"/>
<path d="M51.4626 45.9437V54.9169H29.543V45.9437C29.543 39.8908 34.4499 34.9839 40.5028 34.9839C46.5557 34.9839 51.4626 39.8908 51.4626 45.9437Z" stroke="#00AC6A" stroke-width="0.8"/>
</svg>
