<svg width="80" height="80" viewBox="0 0 80 80" fill="none" xmlns="http://www.w3.org/2000/svg">
<path d="M68.207 65.0351V14.9648L11.7988 14.9648V65.0351H68.207Z" stroke="#00AC6A" stroke-width="0.8"/>
<path d="M30.6406 54.6382C35.9003 59.8978 44.4279 59.8978 49.6876 54.6382C53.3327 50.9931 54.4516 45.7783 53.0445 41.1697" stroke="#00AC6A" stroke-width="0.8" stroke-linecap="round"/>
<path d="M30.2891 56.6689V54.2881H32.67" stroke="#00AC6A" stroke-width="0.8" stroke-linecap="round" stroke-linejoin="round"/>
<path d="M49.3628 35.5019C44.1032 30.2422 35.5755 30.2422 30.3159 35.5019C26.6707 39.147 25.5518 44.3616 26.959 48.9704" stroke="#00AC6A" stroke-width="0.8" stroke-linecap="round"/>
<path d="M49.713 33.4712V35.8521H47.332" stroke="#00AC6A" stroke-width="0.8" stroke-linecap="round" stroke-linejoin="round"/>
<path d="M68.1248 26.3733H11.875" stroke="#00AC6A" stroke-width="0.8" stroke-linecap="round"/>
<path d="M18.6449 21.7783C19.1019 20.7728 18.6573 19.5871 17.6517 19.13C16.6462 18.6729 15.4605 19.1176 15.0034 20.1231C14.5463 21.1287 14.991 22.3144 15.9965 22.7715C17.0021 23.2285 18.1878 22.7839 18.6449 21.7783Z" fill="#00AC6A"/>
<path d="M31.7152 21.7783C32.1722 20.7728 31.7276 19.5871 30.722 19.13C29.7165 18.6729 28.5308 19.1176 28.0737 20.1231C27.6166 21.1287 28.0613 22.3144 29.0668 22.7715C30.0724 23.2285 31.2581 22.7839 31.7152 21.7783Z" fill="#00AC6A"/>
<path d="M25.18 21.7783C25.6371 20.7728 25.1924 19.5871 24.1869 19.13C23.1813 18.6729 21.9956 19.1176 21.5385 20.1231C21.0815 21.1287 21.5261 22.3144 22.5317 22.7715C23.5372 23.2285 24.7229 22.7839 25.18 21.7783Z" fill="#00AC6A"/>
</svg>
