<svg width="317" height="341" viewBox="0 0 317 341" fill="none" xmlns="http://www.w3.org/2000/svg">
<rect x="149.941" y="76.5386" width="166.372" height="38.525" rx="19.2625" fill="#744CC6"/>
<path d="M214.262 100.784L214.262 90.1344H218.762C219.222 90.1344 219.642 90.2294 220.022 90.4194C220.412 90.6094 220.747 90.8694 221.027 91.1994C221.307 91.5194 221.522 91.8794 221.672 92.2794C221.832 92.6694 221.912 93.0694 221.912 93.4794C221.912 93.9994 221.812 94.4844 221.612 94.9344C221.422 95.3844 221.147 95.7644 220.787 96.0744C220.427 96.3844 220.012 96.5844 219.542 96.6744L222.152 100.784L220.967 100.784L218.462 96.8544H215.312V100.784H214.262ZM215.312 95.9244H218.792C219.212 95.9244 219.577 95.8094 219.887 95.5794C220.197 95.3394 220.437 95.0344 220.607 94.6644C220.777 94.2944 220.862 93.8994 220.862 93.4794C220.862 93.0494 220.762 92.6544 220.562 92.2944C220.372 91.9244 220.112 91.6294 219.782 91.4094C219.452 91.1794 219.092 91.0644 218.702 91.0644H215.312V95.9244ZM227.142 100.934C226.392 100.934 225.722 100.749 225.132 100.379C224.542 100.009 224.077 99.5144 223.737 98.8944C223.397 98.2744 223.227 97.5944 223.227 96.8544C223.227 96.1244 223.392 95.4544 223.722 94.8444C224.062 94.2344 224.527 93.7494 225.117 93.3894C225.707 93.0194 226.377 92.8344 227.127 92.8344C227.897 92.8344 228.572 93.0194 229.152 93.3894C229.732 93.7594 230.182 94.2494 230.502 94.8594C230.832 95.4594 230.997 96.1194 230.997 96.8394C230.997 96.9994 230.992 97.1344 230.982 97.2444L224.292 97.2444C224.342 97.8044 224.502 98.3044 224.772 98.7444C225.042 99.1744 225.387 99.5194 225.807 99.7794C226.227 100.029 226.687 100.154 227.187 100.154C227.697 100.154 228.177 100.024 228.627 99.7644C229.077 99.5044 229.397 99.1644 229.587 98.7444L230.472 98.9844C230.312 99.3644 230.062 99.7044 229.722 100.004C229.392 100.294 229.007 100.524 228.567 100.694C228.127 100.854 227.652 100.934 227.142 100.934ZM224.262 96.5094H230.037C229.997 95.9494 229.842 95.4544 229.572 95.0244C229.302 94.5844 228.957 94.2444 228.537 94.0044C228.117 93.7544 227.652 93.6294 227.142 93.6294C226.632 93.6294 226.167 93.7544 225.747 94.0044C225.327 94.2444 224.982 94.5844 224.712 95.0244C224.452 95.4544 224.302 95.9494 224.262 96.5094ZM232.091 98.5344C232.091 98.0544 232.231 97.6394 232.511 97.2894C232.791 96.9294 233.176 96.6494 233.666 96.4494C234.166 96.2494 234.741 96.1494 235.391 96.1494C235.771 96.1494 236.166 96.1844 236.576 96.2544C236.986 96.3144 237.351 96.3994 237.671 96.5094V95.8494C237.671 95.1894 237.476 94.6644 237.086 94.2744C236.696 93.8844 236.156 93.6894 235.466 93.6894C235.056 93.6894 234.646 93.7694 234.236 93.9294C233.826 94.0794 233.401 94.3044 232.961 94.6044L232.571 93.8844C233.081 93.5344 233.581 93.2744 234.071 93.1044C234.561 92.9244 235.061 92.8344 235.571 92.8344C236.531 92.8344 237.291 93.1094 237.851 93.6594C238.411 94.2094 238.691 94.9694 238.691 95.9394L238.691 99.5544C238.691 99.8244 238.816 99.9644 239.066 99.9744V100.784C238.846 100.814 238.691 100.824 238.601 100.814C238.351 100.804 238.161 100.724 238.031 100.574C237.901 100.424 237.831 100.264 237.821 100.094L237.806 99.5244C237.456 99.9744 237.001 100.324 236.441 100.574C235.881 100.814 235.311 100.934 234.731 100.934C234.221 100.934 233.766 100.829 233.366 100.619C232.966 100.399 232.651 100.109 232.421 99.7494C232.201 99.3794 232.091 98.9744 232.091 98.5344ZM237.326 99.1344C237.556 98.8644 237.671 98.6144 237.671 98.3844L237.671 97.2444C236.981 96.9744 236.261 96.8394 235.511 96.8394C234.781 96.8394 234.191 96.9844 233.741 97.2744C233.291 97.5644 233.066 97.9594 233.066 98.4594C233.066 98.8894 233.231 99.2794 233.561 99.6294C233.901 99.9794 234.371 100.154 234.971 100.154C235.461 100.154 235.916 100.059 236.336 99.8694C236.766 99.6794 237.096 99.4344 237.326 99.1344ZM244.435 100.934C243.675 100.934 243 100.749 242.41 100.379C241.82 99.9994 241.355 99.5044 241.015 98.8944C240.675 98.2744 240.505 97.5944 240.505 96.8544C240.505 96.1144 240.67 95.4444 241 94.8444C241.33 94.2344 241.79 93.7494 242.38 93.3894C242.97 93.0194 243.65 92.8344 244.42 92.8344C245.15 92.8344 245.79 93.0044 246.34 93.3444C246.9 93.6744 247.32 94.1244 247.6 94.6944L246.61 95.0094C246.39 94.6094 246.08 94.2994 245.68 94.0794C245.29 93.8494 244.855 93.7344 244.375 93.7344C243.845 93.7344 243.365 93.8694 242.935 94.1394C242.515 94.4094 242.175 94.7844 241.915 95.2644C241.665 95.7344 241.54 96.2644 241.54 96.8544C241.54 97.4444 241.67 97.9794 241.93 98.4594C242.19 98.9394 242.535 99.3244 242.965 99.6144C243.395 99.8944 243.87 100.034 244.39 100.034C244.73 100.034 245.06 99.9744 245.38 99.8544C245.7 99.7344 245.975 99.5744 246.205 99.3744C246.435 99.1644 246.59 98.9394 246.67 98.6994L247.675 98.9994C247.535 99.3694 247.305 99.7044 246.985 100.004C246.665 100.294 246.285 100.524 245.845 100.694C245.405 100.854 244.935 100.934 244.435 100.934ZM253.177 100.409C253.057 100.459 252.837 100.549 252.517 100.679C252.197 100.809 251.827 100.874 251.407 100.874C250.967 100.874 250.582 100.749 250.252 100.499C249.922 100.249 249.757 99.8744 249.757 99.3744L249.757 93.7794H248.677V92.9694H249.757V90.3294H250.777V92.9694H252.577V93.7794H250.777L250.777 99.0894C250.797 99.3794 250.897 99.5944 251.077 99.7344C251.267 99.8644 251.482 99.9294 251.722 99.9294C252.002 99.9294 252.252 99.8844 252.472 99.7944C252.702 99.6944 252.847 99.6244 252.907 99.5844L253.177 100.409Z" fill="white"/>
<path d="M149.941 95.801L68.9299 95.801" stroke="#36255A" stroke-width="0.740989"/>
<path d="M0.677748 95.801C0.677747 114.648 15.9565 129.927 34.8037 129.927C53.651 129.927 68.9297 114.648 68.9297 95.801C68.9297 76.9538 53.651 61.675 34.8037 61.675C15.9565 61.675 0.677749 76.9538 0.677748 95.801Z" stroke="#36255A" stroke-width="0.693653" stroke-miterlimit="10" stroke-linecap="round"/>
<circle cx="103.074" cy="95.8013" r="7.25001" transform="rotate(-180 103.074 95.8013)" fill="#36255A"/>
<path d="M26.6218 98.4682C26.6218 99.2956 26.418 100.055 26.0105 100.747C25.603 101.426 25.0472 101.969 24.3433 102.377C23.6517 102.772 22.8736 102.97 22.0092 102.97C21.1076 102.97 20.2987 102.754 19.5824 102.321C18.8785 101.889 18.3227 101.278 17.9152 100.487C17.52 99.6846 17.3224 98.7275 17.3224 97.616C17.3224 95.7759 17.52 94.2631 17.9152 93.0775C18.3227 91.8795 18.8847 90.9904 19.6009 90.4099C20.3172 89.8295 21.1508 89.5393 22.1018 89.5393C22.9786 89.5393 23.7628 89.7677 24.4544 90.2247C25.146 90.6816 25.6585 91.3053 25.992 92.0957L25.3436 92.5958C25.0966 91.9289 24.6767 91.3917 24.0839 90.9842C23.4911 90.5766 22.8304 90.3729 22.1018 90.3729C20.9409 90.3729 20.0023 90.9224 19.286 92.0216C18.5821 93.1207 18.2301 94.6644 18.2301 96.6527C18.5018 95.8624 18.9958 95.2202 19.7121 94.7262C20.4284 94.2322 21.2311 93.9852 22.1203 93.9852C22.9601 93.9852 23.7196 94.189 24.3989 94.5965C25.0781 94.9917 25.6153 95.5289 26.0105 96.2081C26.418 96.8874 26.6218 97.6407 26.6218 98.4682ZM22.0277 102.136C22.7069 102.136 23.3244 101.976 23.8802 101.654C24.4482 101.321 24.899 100.876 25.2325 100.321C25.5659 99.7649 25.7326 99.1474 25.7326 98.4682C25.7326 97.8013 25.5597 97.19 25.2139 96.6342C24.8805 96.0661 24.4297 95.6154 23.8616 95.2819C23.3059 94.9485 22.6946 94.7817 22.0277 94.7817C21.3484 94.7817 20.7248 94.9485 20.1567 95.2819C19.6009 95.6154 19.1564 96.0661 18.8229 96.6342C18.4895 97.19 18.3227 97.8013 18.3227 98.4682C18.3227 99.1351 18.4895 99.7464 18.8229 100.302C19.1564 100.858 19.6071 101.302 20.1752 101.636C20.7433 101.969 21.3608 102.136 22.0277 102.136ZM33.8948 102.97C33.0056 102.945 32.2276 102.729 31.5607 102.321C30.8938 101.901 30.338 101.364 29.8935 100.71C29.4489 100.055 29.1092 99.345 28.8746 98.5793C28.6523 97.8013 28.5412 97.0418 28.5412 96.3008C28.5412 95.5104 28.6646 94.72 28.9116 93.9296C29.1586 93.1392 29.5106 92.4229 29.9676 91.7807C30.4368 91.1262 30.9988 90.6075 31.6533 90.2247C32.3202 89.8295 33.0674 89.6319 33.8948 89.6319C34.7716 89.6319 35.5435 89.8418 36.2104 90.2617C36.8896 90.6816 37.4515 91.225 37.8961 91.8919C38.3407 92.5588 38.6742 93.2812 38.8965 94.0593C39.1311 94.8373 39.2484 95.5845 39.2484 96.3008C39.2484 97.1035 39.1249 97.9001 38.8779 98.6905C38.6309 99.4685 38.2728 100.179 37.8035 100.821C37.3466 101.463 36.7847 101.982 36.1178 102.377C35.4632 102.76 34.7222 102.957 33.8948 102.97ZM29.4859 96.3008C29.5106 96.98 29.6218 97.6593 29.8194 98.3385C30.017 99.0177 30.2948 99.6414 30.653 100.209C31.0235 100.778 31.4742 101.235 32.0053 101.58C32.5487 101.926 33.1785 102.099 33.8948 102.099C34.6358 102.099 35.278 101.92 35.8214 101.562C36.3771 101.191 36.834 100.716 37.1922 100.135C37.5627 99.5426 37.8406 98.9128 38.0258 98.2459C38.2111 97.5666 38.3037 96.9183 38.3037 96.3008C38.3037 95.6215 38.1987 94.9423 37.9888 94.2631C37.7912 93.5838 37.5009 92.9601 37.1181 92.3921C36.7476 91.824 36.2907 91.367 35.7473 91.0212C35.2039 90.6754 34.5864 90.5025 33.8948 90.5025C33.1538 90.5025 32.5054 90.6878 31.9497 91.0583C31.4063 91.4288 30.9494 91.9104 30.5789 92.5032C30.2207 93.0836 29.949 93.7135 29.7638 94.3927C29.5785 95.0596 29.4859 95.6956 29.4859 96.3008ZM43.8376 94.6891C43.3437 94.6891 42.8929 94.5718 42.4853 94.3372C42.0778 94.1025 41.7505 93.7876 41.5035 93.3924C41.2689 92.9972 41.1516 92.5588 41.1516 92.0771C41.1516 91.5831 41.2689 91.1386 41.5035 90.7434C41.7505 90.3482 42.0778 90.0332 42.4853 89.7986C42.8929 89.5639 43.3437 89.4466 43.8376 89.4466C44.3316 89.4466 44.7824 89.5639 45.19 89.7986C45.5975 90.0332 45.9186 90.3482 46.1532 90.7434C46.4002 91.1386 46.5237 91.5831 46.5237 92.0771C46.5237 92.5588 46.4002 92.9972 46.1532 93.3924C45.9186 93.7876 45.5975 94.1025 45.19 94.3372C44.7824 94.5718 44.3316 94.6891 43.8376 94.6891ZM41.4294 102.395L46.6164 96.0229L51.6921 89.5763L52.2108 90.0024L47.0239 96.3934L41.9481 102.84L41.4294 102.395ZM43.8376 94.0963C44.2081 94.0963 44.5416 94.0037 44.838 93.8185C45.1344 93.6209 45.369 93.3677 45.5419 93.0589C45.7148 92.7502 45.8013 92.4229 45.8013 92.0771C45.8013 91.6943 45.7086 91.3547 45.5234 91.0583C45.3381 90.7495 45.0973 90.5025 44.8009 90.3173C44.5045 90.132 44.1834 90.0394 43.8376 90.0394C43.4795 90.0394 43.1522 90.1382 42.8558 90.3358C42.5594 90.5211 42.3248 90.7681 42.1519 91.0768C41.979 91.3855 41.8926 91.719 41.8926 92.0771C41.8926 92.6329 42.084 93.1083 42.4668 93.5035C42.8497 93.8987 43.3066 94.0963 43.8376 94.0963ZM49.8026 102.97C49.3086 102.97 48.8578 102.852 48.4503 102.618C48.0428 102.383 47.7155 102.068 47.4685 101.673C47.2338 101.278 47.1165 100.833 47.1165 100.339C47.1165 99.8575 47.2338 99.4191 47.4685 99.0239C47.7155 98.6287 48.0428 98.3138 48.4503 98.0791C48.8578 97.8445 49.3086 97.7272 49.8026 97.7272C50.2966 97.7272 50.7474 97.8445 51.1549 98.0791C51.5625 98.3138 51.8835 98.6287 52.1182 99.0239C52.3652 99.4191 52.4887 99.8575 52.4887 100.339C52.4887 100.833 52.3652 101.278 52.1182 101.673C51.8835 102.068 51.5625 102.383 51.1549 102.618C50.7474 102.852 50.2966 102.97 49.8026 102.97ZM49.8026 102.377C50.1731 102.377 50.5065 102.284 50.8029 102.099C51.0993 101.901 51.334 101.654 51.5069 101.358C51.6798 101.049 51.7662 100.71 51.7662 100.339C51.7662 99.9687 51.6736 99.6352 51.4884 99.3388C51.3031 99.0301 51.0623 98.7831 50.7659 98.5978C50.4695 98.4126 50.1484 98.32 49.8026 98.32C49.4445 98.32 49.1172 98.4188 48.8208 98.6164C48.5244 98.8016 48.2898 99.0486 48.1169 99.3574C47.944 99.6661 47.8575 99.9934 47.8575 100.339C47.8575 100.907 48.0489 101.389 48.4318 101.784C48.8146 102.179 49.2716 102.377 49.8026 102.377Z" fill="#36255A"/>
<path d="M151.234 200.96L70.2229 200.96" stroke="#36255A" stroke-width="0.740989"/>
<rect x="149.941" y="181.697" width="166.372" height="38.525" rx="19.2625" fill="#8F65E6"/>
<path d="M210.023 195.293H210.908L215.333 205.943H214.223L212.843 202.613H208.058L206.693 205.943H205.568L210.023 195.293ZM212.603 201.788L210.458 196.523L208.283 201.788H212.603ZM223.369 205.943H222.349V201.578C222.349 200.658 222.209 199.988 221.929 199.568C221.659 199.138 221.239 198.923 220.669 198.923C220.269 198.923 219.874 199.023 219.484 199.223C219.094 199.413 218.749 199.678 218.449 200.018C218.159 200.348 217.949 200.728 217.819 201.158L217.819 205.943H216.799L216.799 198.128H217.729V199.898C218.039 199.328 218.494 198.868 219.094 198.518C219.694 198.168 220.344 197.993 221.044 197.993C221.624 197.993 222.084 198.133 222.424 198.413C222.764 198.683 223.004 199.073 223.144 199.583C223.294 200.083 223.369 200.678 223.369 201.368V205.943ZM228.83 206.048C228.29 206.048 227.795 205.938 227.345 205.718C226.905 205.498 226.52 205.203 226.19 204.833C225.87 204.453 225.62 204.023 225.44 203.543C225.26 203.063 225.17 202.568 225.17 202.058C225.17 201.328 225.325 200.658 225.635 200.048C225.945 199.428 226.37 198.933 226.91 198.563C227.46 198.183 228.09 197.993 228.8 197.993C229.47 197.993 230.05 198.163 230.54 198.503C231.04 198.843 231.46 199.263 231.8 199.763V198.128H232.715L232.715 205.973C232.715 206.703 232.54 207.313 232.19 207.803C231.84 208.293 231.375 208.663 230.795 208.913C230.215 209.163 229.58 209.288 228.89 209.288C227.99 209.288 227.265 209.128 226.715 208.808C226.175 208.488 225.73 208.058 225.38 207.518L226.01 207.023C226.32 207.513 226.73 207.878 227.24 208.118C227.76 208.358 228.31 208.478 228.89 208.478C229.4 208.478 229.865 208.383 230.285 208.193C230.715 208.013 231.055 207.738 231.305 207.368C231.565 206.998 231.695 206.533 231.695 205.973V204.428C231.395 204.918 230.985 205.313 230.465 205.613C229.945 205.903 229.4 206.048 228.83 206.048ZM229.115 205.193C229.525 205.193 229.915 205.098 230.285 204.908C230.655 204.718 230.965 204.478 231.215 204.188C231.475 203.888 231.635 203.578 231.695 203.258L231.695 200.843C231.545 200.463 231.33 200.128 231.05 199.838C230.77 199.538 230.45 199.308 230.09 199.148C229.73 198.978 229.365 198.893 228.995 198.893C228.415 198.893 227.915 199.053 227.495 199.373C227.085 199.683 226.765 200.083 226.535 200.573C226.315 201.053 226.205 201.553 226.205 202.073C226.205 202.633 226.335 203.153 226.595 203.633C226.855 204.103 227.205 204.483 227.645 204.773C228.085 205.053 228.575 205.193 229.115 205.193ZM235.042 202.718L235.042 198.128H236.062L236.062 202.538C236.062 204.308 236.667 205.193 237.877 205.193C238.477 205.193 239.037 204.998 239.557 204.608C240.087 204.218 240.467 203.698 240.697 203.048V198.128H241.717L241.717 204.713C241.717 204.983 241.837 205.123 242.077 205.133V205.943C241.957 205.963 241.862 205.973 241.792 205.973C241.732 205.973 241.667 205.973 241.597 205.973C241.387 205.953 241.207 205.873 241.057 205.733C240.917 205.593 240.847 205.423 240.847 205.223L240.817 204.173C240.477 204.783 240.012 205.258 239.422 205.598C238.842 205.928 238.212 206.093 237.532 206.093C235.872 206.093 235.042 204.968 235.042 202.718ZM244.218 194.993H245.238L245.238 204.173C245.238 204.563 245.303 204.818 245.433 204.938C245.573 205.058 245.748 205.118 245.958 205.118C246.138 205.118 246.318 205.098 246.498 205.058C246.688 205.018 246.843 204.978 246.963 204.938L247.143 205.763C246.953 205.843 246.718 205.908 246.438 205.958C246.168 206.008 245.933 206.033 245.733 206.033C245.273 206.033 244.903 205.898 244.623 205.628C244.353 205.358 244.218 204.988 244.218 204.518L244.218 194.993ZM247.78 203.693C247.78 203.213 247.92 202.798 248.2 202.448C248.48 202.088 248.865 201.808 249.355 201.608C249.855 201.408 250.43 201.308 251.08 201.308C251.46 201.308 251.855 201.343 252.265 201.413C252.675 201.473 253.04 201.558 253.36 201.668V201.008C253.36 200.348 253.165 199.823 252.775 199.433C252.385 199.043 251.845 198.848 251.155 198.848C250.745 198.848 250.335 198.928 249.925 199.088C249.515 199.238 249.09 199.463 248.65 199.763L248.26 199.043C248.77 198.693 249.27 198.433 249.76 198.263C250.25 198.083 250.75 197.993 251.26 197.993C252.22 197.993 252.98 198.268 253.54 198.818C254.1 199.368 254.38 200.128 254.38 201.098L254.38 204.713C254.38 204.983 254.505 205.123 254.755 205.133V205.943C254.535 205.973 254.38 205.983 254.29 205.973C254.04 205.963 253.85 205.883 253.72 205.733C253.59 205.583 253.52 205.423 253.51 205.253L253.495 204.683C253.145 205.133 252.69 205.483 252.13 205.733C251.57 205.973 251 206.093 250.42 206.093C249.91 206.093 249.455 205.988 249.055 205.778C248.655 205.558 248.34 205.268 248.11 204.908C247.89 204.538 247.78 204.133 247.78 203.693ZM253.015 204.293C253.245 204.023 253.36 203.773 253.36 203.543L253.36 202.403C252.67 202.133 251.95 201.998 251.2 201.998C250.47 201.998 249.88 202.143 249.43 202.433C248.98 202.723 248.755 203.118 248.755 203.618C248.755 204.048 248.92 204.438 249.25 204.788C249.59 205.138 250.06 205.313 250.66 205.313C251.15 205.313 251.605 205.218 252.025 205.028C252.455 204.838 252.785 204.593 253.015 204.293ZM260.634 199.028C259.954 199.048 259.354 199.238 258.834 199.598C258.324 199.958 257.964 200.453 257.754 201.083V205.943H256.734V198.128H257.694V200.003C257.964 199.453 258.319 199.008 258.759 198.668C259.209 198.328 259.684 198.138 260.184 198.098C260.284 198.088 260.369 198.083 260.439 198.083C260.509 198.083 260.574 198.088 260.634 198.098V199.028Z" fill="white"/>
<path d="M1.97072 200.96C1.97072 219.807 17.2494 235.086 36.0967 235.086C54.9439 235.086 70.2227 219.807 70.2227 200.96C70.2227 182.112 54.9439 166.834 36.0967 166.834C17.2494 166.834 1.97072 182.112 1.97072 200.96Z" stroke="#36255A" stroke-width="0.693653" stroke-miterlimit="10" stroke-linecap="round"/>
<circle cx="104.367" cy="200.96" r="7.25001" transform="rotate(-180 104.367 200.96)" fill="#36255A"/>
<path d="M18.7579 207.943C18.7209 206.881 18.8382 205.979 19.1099 205.239C19.3939 204.498 19.7953 203.88 20.314 203.386C20.845 202.892 21.4502 202.478 22.1294 202.145C22.5987 201.923 23.0804 201.706 23.5744 201.497C24.0807 201.287 24.55 201.052 24.9822 200.793C25.4145 200.533 25.7603 200.212 26.0196 199.829C26.2913 199.434 26.4272 198.946 26.4272 198.366C26.4272 197.872 26.316 197.409 26.0937 196.976C25.8714 196.532 25.5318 196.174 25.0749 195.902C24.6179 195.63 24.0375 195.495 23.3335 195.495C22.6419 195.495 22.0492 195.612 21.5552 195.846C21.0612 196.069 20.6475 196.34 20.314 196.662C19.9806 196.97 19.7212 197.248 19.536 197.495L18.9061 196.921C18.9432 196.859 19.0667 196.711 19.2766 196.476C19.4866 196.229 19.7768 195.964 20.1473 195.68C20.5301 195.396 20.9932 195.149 21.5366 194.939C22.08 194.729 22.7099 194.624 23.4262 194.624C24.3153 194.624 25.0563 194.803 25.6491 195.161C26.2543 195.507 26.705 195.964 27.0014 196.532C27.2978 197.1 27.446 197.711 27.446 198.366C27.446 199.033 27.3102 199.588 27.0385 200.033C26.7668 200.478 26.4148 200.854 25.9826 201.163C25.5503 201.459 25.0934 201.713 24.6117 201.923C24.1424 202.133 23.6979 202.33 23.278 202.515C22.4629 202.861 21.8207 203.232 21.3514 203.627C20.8821 204.01 20.5363 204.399 20.314 204.794C20.0917 205.189 19.9435 205.584 19.8694 205.979C19.7953 206.362 19.7583 206.733 19.7583 207.091L27.4645 207.091V207.943L18.7579 207.943ZM34.9526 208.128C34.0634 208.104 33.2854 207.888 32.6185 207.48C31.9516 207.06 31.3958 206.523 30.9512 205.868C30.5067 205.214 30.167 204.504 29.9324 203.738C29.7101 202.96 29.5989 202.2 29.5989 201.459C29.5989 200.669 29.7224 199.879 29.9694 199.088C30.2164 198.298 30.5684 197.582 31.0253 196.939C31.4946 196.285 32.0566 195.766 32.7111 195.383C33.378 194.988 34.1251 194.791 34.9526 194.791C35.8294 194.791 36.6013 195.001 37.2682 195.42C37.9474 195.84 38.5093 196.384 38.9539 197.051C39.3985 197.717 39.732 198.44 39.9543 199.218C40.1889 199.996 40.3062 200.743 40.3062 201.459C40.3062 202.262 40.1827 203.059 39.9357 203.849C39.6887 204.627 39.3306 205.337 38.8613 205.979C38.4044 206.622 37.8424 207.14 37.1756 207.536C36.521 207.918 35.78 208.116 34.9526 208.128ZM30.5437 201.459C30.5684 202.139 30.6796 202.818 30.8771 203.497C31.0747 204.176 31.3526 204.8 31.7108 205.368C32.0813 205.936 32.532 206.393 33.0631 206.739C33.6065 207.085 34.2363 207.258 34.9526 207.258C35.6936 207.258 36.3358 207.079 36.8792 206.72C37.4349 206.35 37.8918 205.875 38.25 205.294C38.6205 204.701 38.8984 204.071 39.0836 203.405C39.2688 202.725 39.3615 202.077 39.3615 201.459C39.3615 200.78 39.2565 200.101 39.0465 199.422C38.849 198.743 38.5587 198.119 38.1759 197.551C37.8054 196.983 37.3485 196.526 36.8051 196.18C36.2617 195.834 35.6442 195.661 34.9526 195.661C34.2116 195.661 33.5632 195.846 33.0075 196.217C32.4641 196.587 32.0072 197.069 31.6367 197.662C31.2785 198.242 31.0068 198.872 30.8216 199.551C30.6363 200.218 30.5437 200.854 30.5437 201.459ZM44.8954 199.848C44.4014 199.848 43.9507 199.73 43.5431 199.496C43.1356 199.261 42.8083 198.946 42.5613 198.551C42.3267 198.156 42.2094 197.717 42.2094 197.236C42.2094 196.742 42.3267 196.297 42.5613 195.902C42.8083 195.507 43.1356 195.192 43.5431 194.957C43.9507 194.723 44.4014 194.605 44.8954 194.605C45.3894 194.605 45.8402 194.723 46.2477 194.957C46.6553 195.192 46.9764 195.507 47.211 195.902C47.458 196.297 47.5815 196.742 47.5815 197.236C47.5815 197.717 47.458 198.156 47.211 198.551C46.9764 198.946 46.6553 199.261 46.2477 199.496C45.8402 199.73 45.3894 199.848 44.8954 199.848ZM42.4872 207.554L47.6741 201.182L52.7499 194.735L53.2686 195.161L48.0817 201.552L43.0059 207.999L42.4872 207.554ZM44.8954 199.255C45.2659 199.255 45.5994 199.162 45.8958 198.977C46.1922 198.78 46.4268 198.526 46.5997 198.218C46.7726 197.909 46.8591 197.582 46.8591 197.236C46.8591 196.853 46.7664 196.513 46.5812 196.217C46.3959 195.908 46.1551 195.661 45.8587 195.476C45.5623 195.291 45.2412 195.198 44.8954 195.198C44.5373 195.198 44.21 195.297 43.9136 195.495C43.6172 195.68 43.3826 195.927 43.2097 196.235C43.0368 196.544 42.9503 196.878 42.9503 197.236C42.9503 197.792 43.1418 198.267 43.5246 198.662C43.9075 199.057 44.3644 199.255 44.8954 199.255ZM50.8604 208.128C50.3664 208.128 49.9156 208.011 49.5081 207.776C49.1006 207.542 48.7733 207.227 48.5263 206.832C48.2916 206.436 48.1743 205.992 48.1743 205.498C48.1743 205.016 48.2916 204.578 48.5263 204.183C48.7733 203.787 49.1006 203.472 49.5081 203.238C49.9156 203.003 50.3664 202.886 50.8604 202.886C51.3544 202.886 51.8052 203.003 52.2127 203.238C52.6202 203.472 52.9413 203.787 53.176 204.183C53.423 204.578 53.5465 205.016 53.5465 205.498C53.5465 205.992 53.423 206.436 53.176 206.832C52.9413 207.227 52.6202 207.542 52.2127 207.776C51.8052 208.011 51.3544 208.128 50.8604 208.128ZM50.8604 207.536C51.2309 207.536 51.5643 207.443 51.8607 207.258C52.1571 207.06 52.3918 206.813 52.5647 206.517C52.7376 206.208 52.824 205.868 52.824 205.498C52.824 205.127 52.7314 204.794 52.5461 204.498C52.3609 204.189 52.1201 203.942 51.8237 203.757C51.5273 203.571 51.2062 203.479 50.8604 203.479C50.5023 203.479 50.175 203.577 49.8786 203.775C49.5822 203.96 49.3475 204.207 49.1746 204.516C49.0018 204.825 48.9153 205.152 48.9153 205.498C48.9153 206.066 49.1067 206.548 49.4896 206.943C49.8724 207.338 50.3294 207.536 50.8604 207.536Z" fill="#36255A"/>
<rect x="149.941" y="286.654" width="166.372" height="38.525" rx="19.2625" fill="#C8B0FB"/>
<path d="M182.962 309.565C183.172 309.715 183.447 309.845 183.787 309.955C184.137 310.065 184.537 310.12 184.987 310.12C185.677 310.12 186.197 309.965 186.547 309.655C186.897 309.335 187.127 308.86 187.237 308.23C187.357 307.6 187.417 306.815 187.417 305.875L187.417 300.25H188.467L188.467 305.665C188.467 306.465 188.427 307.195 188.347 307.855C188.267 308.515 188.112 309.085 187.882 309.565C187.652 310.045 187.307 310.415 186.847 310.675C186.387 310.935 185.777 311.065 185.017 311.065C184.527 311.065 184.092 311.01 183.712 310.9C183.332 310.79 182.982 310.625 182.662 310.405L182.962 309.565ZM197.234 302.245C196.934 301.915 196.534 301.645 196.034 301.435C195.534 301.215 194.964 301.105 194.324 301.105C193.384 301.105 192.699 301.285 192.269 301.645C191.839 301.995 191.624 302.475 191.624 303.085C191.624 303.505 191.729 303.835 191.939 304.075C192.149 304.315 192.469 304.515 192.899 304.675C193.339 304.825 193.899 304.975 194.579 305.125C195.339 305.285 195.994 305.475 196.544 305.695C197.094 305.915 197.519 306.215 197.819 306.595C198.119 306.965 198.269 307.47 198.269 308.11C198.269 308.76 198.104 309.3 197.774 309.73C197.444 310.16 196.989 310.48 196.409 310.69C195.829 310.89 195.169 310.99 194.429 310.99C192.769 310.99 191.344 310.475 190.154 309.445L190.679 308.59C191.059 308.99 191.579 309.335 192.239 309.625C192.909 309.915 193.649 310.06 194.459 310.06C195.299 310.06 195.959 309.905 196.439 309.595C196.919 309.285 197.159 308.825 197.159 308.215C197.159 307.775 197.039 307.425 196.799 307.165C196.559 306.895 196.199 306.675 195.719 306.505C195.239 306.335 194.649 306.17 193.949 306.01C193.209 305.84 192.584 305.65 192.074 305.44C191.574 305.23 191.194 304.955 190.934 304.615C190.674 304.275 190.544 303.815 190.544 303.235C190.544 302.575 190.704 302.02 191.024 301.57C191.354 301.11 191.804 300.765 192.374 300.535C192.944 300.295 193.599 300.175 194.339 300.175C195.039 300.175 195.669 300.285 196.229 300.505C196.789 300.715 197.294 301.015 197.744 301.405L197.234 302.245ZM200.075 312.115L200.33 310.855H199.985V309.43H200.975V310.855L200.6 312.115H200.075ZM215.713 300.25L215.713 310.9H214.678L214.678 305.92H208.363L208.363 310.9H207.313L207.313 300.25H208.363V304.99H214.678V300.25H215.713ZM225.947 301.18H222.152L222.152 310.9H221.102L221.102 301.18H217.307V300.25H225.947V301.18ZM236.977 310.9L236.977 302.23L233.122 308.965H232.462L228.592 302.23L228.592 310.9H227.542L227.542 300.25H228.622L232.777 307.54L236.962 300.25H238.027L238.027 310.9H236.977ZM240.696 310.9L240.696 300.25L241.746 300.25L241.746 309.97H247.896V310.9L240.696 310.9ZM249.396 312.115L249.651 310.855H249.306V309.43H250.296V310.855L249.921 312.115H249.396ZM255.929 305.5C255.929 304.86 256.039 304.225 256.259 303.595C256.489 302.965 256.819 302.395 257.249 301.885C257.679 301.365 258.209 300.955 258.839 300.655C259.469 300.345 260.184 300.19 260.984 300.19C261.924 300.19 262.734 300.41 263.414 300.85C264.094 301.28 264.594 301.835 264.914 302.515L264.089 303.025C263.859 302.555 263.569 302.185 263.219 301.915C262.869 301.635 262.494 301.435 262.094 301.315C261.704 301.195 261.314 301.135 260.924 301.135C260.284 301.135 259.719 301.265 259.229 301.525C258.739 301.775 258.324 302.115 257.984 302.545C257.654 302.975 257.404 303.45 257.234 303.97C257.064 304.49 256.979 305.02 256.979 305.56C256.979 306.15 257.079 306.715 257.279 307.255C257.479 307.785 257.759 308.26 258.119 308.68C258.479 309.1 258.899 309.435 259.379 309.685C259.869 309.925 260.399 310.045 260.969 310.045C261.369 310.045 261.779 309.975 262.199 309.835C262.619 309.695 263.009 309.48 263.369 309.19C263.729 308.9 264.024 308.525 264.254 308.065L265.124 308.515C264.894 309.045 264.549 309.495 264.089 309.865C263.639 310.235 263.129 310.515 262.559 310.705C261.999 310.895 261.449 310.99 260.909 310.99C260.179 310.99 259.509 310.835 258.899 310.525C258.289 310.205 257.759 309.785 257.309 309.265C256.869 308.735 256.529 308.145 256.289 307.495C256.049 306.835 255.929 306.17 255.929 305.5ZM273.142 302.245C272.842 301.915 272.442 301.645 271.942 301.435C271.442 301.215 270.872 301.105 270.232 301.105C269.292 301.105 268.607 301.285 268.177 301.645C267.747 301.995 267.532 302.475 267.532 303.085C267.532 303.505 267.637 303.835 267.847 304.075C268.057 304.315 268.377 304.515 268.807 304.675C269.247 304.825 269.807 304.975 270.487 305.125C271.247 305.285 271.902 305.475 272.452 305.695C273.002 305.915 273.427 306.215 273.727 306.595C274.027 306.965 274.177 307.47 274.177 308.11C274.177 308.76 274.012 309.3 273.682 309.73C273.352 310.16 272.897 310.48 272.317 310.69C271.737 310.89 271.077 310.99 270.337 310.99C268.677 310.99 267.252 310.475 266.062 309.445L266.587 308.59C266.967 308.99 267.487 309.335 268.147 309.625C268.817 309.915 269.557 310.06 270.367 310.06C271.207 310.06 271.867 309.905 272.347 309.595C272.827 309.285 273.067 308.825 273.067 308.215C273.067 307.775 272.947 307.425 272.707 307.165C272.467 306.895 272.107 306.675 271.627 306.505C271.147 306.335 270.557 306.17 269.857 306.01C269.117 305.84 268.492 305.65 267.982 305.44C267.482 305.23 267.102 304.955 266.842 304.615C266.582 304.275 266.452 303.815 266.452 303.235C266.452 302.575 266.612 302.02 266.932 301.57C267.262 301.11 267.712 300.765 268.282 300.535C268.852 300.295 269.507 300.175 270.247 300.175C270.947 300.175 271.577 300.285 272.137 300.505C272.697 300.715 273.202 301.015 273.652 301.405L273.142 302.245ZM282.253 302.245C281.953 301.915 281.553 301.645 281.053 301.435C280.553 301.215 279.983 301.105 279.343 301.105C278.403 301.105 277.718 301.285 277.288 301.645C276.858 301.995 276.643 302.475 276.643 303.085C276.643 303.505 276.748 303.835 276.958 304.075C277.168 304.315 277.488 304.515 277.918 304.675C278.358 304.825 278.918 304.975 279.598 305.125C280.358 305.285 281.013 305.475 281.563 305.695C282.113 305.915 282.538 306.215 282.838 306.595C283.138 306.965 283.288 307.47 283.288 308.11C283.288 308.76 283.123 309.3 282.793 309.73C282.463 310.16 282.008 310.48 281.428 310.69C280.848 310.89 280.188 310.99 279.448 310.99C277.788 310.99 276.363 310.475 275.173 309.445L275.698 308.59C276.078 308.99 276.598 309.335 277.258 309.625C277.928 309.915 278.668 310.06 279.478 310.06C280.318 310.06 280.978 309.905 281.458 309.595C281.938 309.285 282.178 308.825 282.178 308.215C282.178 307.775 282.058 307.425 281.818 307.165C281.578 306.895 281.218 306.675 280.738 306.505C280.258 306.335 279.668 306.17 278.968 306.01C278.228 305.84 277.603 305.65 277.093 305.44C276.593 305.23 276.213 304.955 275.953 304.615C275.693 304.275 275.563 303.815 275.563 303.235C275.563 302.575 275.723 302.02 276.043 301.57C276.373 301.11 276.823 300.765 277.393 300.535C277.963 300.295 278.618 300.175 279.358 300.175C280.058 300.175 280.688 300.285 281.248 300.505C281.808 300.715 282.313 301.015 282.763 301.405L282.253 302.245Z" fill="white"/>
<path d="M149.941 305.916L68.9299 305.916" stroke="#36255A" stroke-width="0.740989"/>
<path d="M0.677748 305.916C0.677747 324.763 15.9565 340.042 34.8037 340.042C53.651 340.042 68.9297 324.763 68.9297 305.916C68.9297 287.069 53.651 271.79 34.8037 271.79C15.9565 271.79 0.677749 287.069 0.677748 305.916Z" stroke="#36255A" stroke-width="0.693653" stroke-miterlimit="10" stroke-linecap="round"/>
<circle cx="103.074" cy="305.917" r="7.25001" transform="rotate(-180 103.074 305.917)" fill="#36255A"/>
<path d="M17.465 312.9C17.4279 311.838 17.5452 310.936 17.8169 310.195C18.101 309.454 18.5023 308.837 19.021 308.343C19.5521 307.849 20.1572 307.435 20.8365 307.101C21.3058 306.879 21.7874 306.663 22.2814 306.453C22.7877 306.243 23.257 306.008 23.6893 305.749C24.1215 305.49 24.4673 305.169 24.7267 304.786C24.9983 304.391 25.1342 303.903 25.1342 303.322C25.1342 302.828 25.023 302.365 24.8008 301.933C24.5785 301.488 24.2388 301.13 23.7819 300.859C23.3249 300.587 22.7445 300.451 22.0406 300.451C21.349 300.451 20.7562 300.568 20.2622 300.803C19.7682 301.025 19.3545 301.297 19.021 301.618C18.6876 301.927 18.4282 302.205 18.243 302.452L17.6132 301.877C17.6502 301.816 17.7737 301.668 17.9837 301.433C18.1936 301.186 18.4838 300.92 18.8543 300.636C19.2372 300.352 19.7003 300.105 20.2437 299.895C20.7871 299.685 21.4169 299.58 22.1332 299.58C23.0224 299.58 23.7634 299.759 24.3562 300.118C24.9613 300.463 25.4121 300.92 25.7085 301.488C26.0049 302.057 26.1531 302.668 26.1531 303.322C26.1531 303.989 26.0172 304.545 25.7455 304.99C25.4738 305.434 25.1218 305.811 24.6896 306.12C24.2574 306.416 23.8004 306.669 23.3188 306.879C22.8495 307.089 22.4049 307.287 21.985 307.472C21.1699 307.818 20.5277 308.188 20.0584 308.583C19.5891 308.966 19.2433 309.355 19.021 309.75C18.7987 310.146 18.6505 310.541 18.5764 310.936C18.5023 311.319 18.4653 311.689 18.4653 312.048H26.1716V312.9H17.465ZM33.6596 313.085C32.7704 313.06 31.9924 312.844 31.3255 312.437C30.6586 312.017 30.1029 311.479 29.6583 310.825C29.2137 310.17 28.8741 309.46 28.6394 308.695C28.4171 307.917 28.306 307.157 28.306 306.416C28.306 305.626 28.4295 304.835 28.6765 304.045C28.9235 303.254 29.2754 302.538 29.7324 301.896C30.2017 301.241 30.7636 300.723 31.4181 300.34C32.085 299.945 32.8322 299.747 33.6596 299.747C34.5365 299.747 35.3083 299.957 35.9752 300.377C36.6544 300.797 37.2164 301.34 37.661 302.007C38.1056 302.674 38.439 303.396 38.6613 304.175C38.8959 304.953 39.0133 305.7 39.0133 306.416C39.0133 307.219 38.8898 308.015 38.6428 308.806C38.3958 309.584 38.0376 310.294 37.5683 310.936C37.1114 311.578 36.5495 312.097 35.8826 312.492C35.228 312.875 34.4871 313.073 33.6596 313.085ZM29.2507 306.416C29.2754 307.095 29.3866 307.774 29.5842 308.454C29.7818 309.133 30.0596 309.757 30.4178 310.325C30.7883 310.893 31.2391 311.35 31.7701 311.696C32.3135 312.041 32.9433 312.214 33.6596 312.214C34.4006 312.214 35.0428 312.035 35.5862 311.677C36.1419 311.307 36.5989 310.831 36.957 310.251C37.3275 309.658 37.6054 309.028 37.7906 308.361C37.9759 307.682 38.0685 307.033 38.0685 306.416C38.0685 305.737 37.9635 305.058 37.7536 304.378C37.556 303.699 37.2658 303.075 36.8829 302.507C36.5124 301.939 36.0555 301.482 35.5121 301.136C34.9687 300.791 34.3512 300.618 33.6596 300.618C32.9186 300.618 32.2703 300.803 31.7145 301.174C31.1711 301.544 30.7142 302.026 30.3437 302.618C29.9855 303.199 29.7139 303.829 29.5286 304.508C29.3434 305.175 29.2507 305.811 29.2507 306.416ZM43.6025 304.804C43.1085 304.804 42.6577 304.687 42.2502 304.452C41.8426 304.218 41.5154 303.903 41.2684 303.508C41.0337 303.112 40.9164 302.674 40.9164 302.192C40.9164 301.698 41.0337 301.254 41.2684 300.859C41.5154 300.463 41.8426 300.148 42.2502 299.914C42.6577 299.679 43.1085 299.562 43.6025 299.562C44.0965 299.562 44.5472 299.679 44.9548 299.914C45.3623 300.148 45.6834 300.463 45.9181 300.859C46.1651 301.254 46.2886 301.698 46.2886 302.192C46.2886 302.674 46.1651 303.112 45.9181 303.508C45.6834 303.903 45.3623 304.218 44.9548 304.452C44.5472 304.687 44.0965 304.804 43.6025 304.804ZM41.1943 312.511L46.3812 306.138L51.457 299.692L51.9756 300.118L46.7887 306.509L41.7129 312.955L41.1943 312.511ZM43.6025 304.212C43.973 304.212 44.3064 304.119 44.6028 303.934C44.8992 303.736 45.1338 303.483 45.3067 303.174C45.4796 302.865 45.5661 302.538 45.5661 302.192C45.5661 301.81 45.4735 301.47 45.2882 301.174C45.103 300.865 44.8622 300.618 44.5658 300.433C44.2694 300.247 43.9483 300.155 43.6025 300.155C43.2443 300.155 42.9171 300.253 42.6207 300.451C42.3243 300.636 42.0896 300.883 41.9167 301.192C41.7438 301.501 41.6574 301.834 41.6574 302.192C41.6574 302.748 41.8488 303.224 42.2316 303.619C42.6145 304.014 43.0714 304.212 43.6025 304.212ZM49.5674 313.085C49.0734 313.085 48.6227 312.968 48.2151 312.733C47.8076 312.498 47.4803 312.183 47.2333 311.788C46.9987 311.393 46.8813 310.948 46.8813 310.454C46.8813 309.973 46.9987 309.534 47.2333 309.139C47.4803 308.744 47.8076 308.429 48.2151 308.194C48.6227 307.96 49.0734 307.842 49.5674 307.842C50.0614 307.842 50.5122 307.96 50.9197 308.194C51.3273 308.429 51.6484 308.744 51.883 309.139C52.13 309.534 52.2535 309.973 52.2535 310.454C52.2535 310.948 52.13 311.393 51.883 311.788C51.6484 312.183 51.3273 312.498 50.9197 312.733C50.5122 312.968 50.0614 313.085 49.5674 313.085ZM49.5674 312.492C49.9379 312.492 50.2714 312.399 50.5678 312.214C50.8642 312.017 51.0988 311.77 51.2717 311.473C51.4446 311.165 51.5311 310.825 51.5311 310.454C51.5311 310.084 51.4384 309.75 51.2532 309.454C51.0679 309.145 50.8271 308.898 50.5307 308.713C50.2343 308.528 49.9132 308.435 49.5674 308.435C49.2093 308.435 48.882 308.534 48.5856 308.732C48.2892 308.917 48.0546 309.164 47.8817 309.473C47.7088 309.781 47.6223 310.109 47.6223 310.454C47.6223 311.022 47.8138 311.504 48.1966 311.899C48.5794 312.295 49.0364 312.492 49.5674 312.492Z" fill="#36255A"/>
<path d="M2.11969 20V7.22H10.6337V9.002H4.13569V12.818H9.57169V14.492H4.13569V20H2.11969ZM17.0034 12.296C16.2354 12.32 15.5514 12.5 14.9514 12.836C14.3634 13.16 13.9434 13.628 13.6914 14.24V20H11.7114V10.586H13.5474V12.692C13.8714 12.044 14.2974 11.528 14.8254 11.144C15.3534 10.748 15.9114 10.532 16.4994 10.496C16.6074 10.496 16.7034 10.496 16.7874 10.496C16.8714 10.496 16.9434 10.502 17.0034 10.514V12.296ZM22.5157 20.18C21.5317 20.18 20.6737 19.958 19.9417 19.514C19.2217 19.058 18.6637 18.464 18.2677 17.732C17.8717 16.988 17.6737 16.178 17.6737 15.302C17.6737 14.426 17.8717 13.622 18.2677 12.89C18.6757 12.146 19.2397 11.552 19.9597 11.108C20.6917 10.652 21.5437 10.424 22.5157 10.424C23.4877 10.424 24.3337 10.652 25.0537 11.108C25.7857 11.552 26.3497 12.146 26.7457 12.89C27.1537 13.622 27.3577 14.426 27.3577 15.302C27.3577 16.178 27.1597 16.988 26.7637 17.732C26.3677 18.464 25.8037 19.058 25.0717 19.514C24.3517 19.958 23.4997 20.18 22.5157 20.18ZM19.7077 15.32C19.7077 15.92 19.8337 16.46 20.0857 16.94C20.3377 17.42 20.6737 17.798 21.0937 18.074C21.5137 18.35 21.9877 18.488 22.5157 18.488C23.0317 18.488 23.4997 18.35 23.9197 18.074C24.3517 17.786 24.6937 17.402 24.9457 16.922C25.1977 16.442 25.3237 15.902 25.3237 15.302C25.3237 14.702 25.1977 14.162 24.9457 13.682C24.6937 13.202 24.3517 12.824 23.9197 12.548C23.4997 12.26 23.0317 12.116 22.5157 12.116C21.9997 12.116 21.5257 12.26 21.0937 12.548C20.6737 12.824 20.3377 13.208 20.0857 13.7C19.8337 14.18 19.7077 14.72 19.7077 15.32ZM37.5558 20H35.5758V14.726C35.5758 13.838 35.4318 13.196 35.1438 12.8C34.8678 12.392 34.4538 12.188 33.9018 12.188C33.5178 12.188 33.1338 12.284 32.7498 12.476C32.3778 12.668 32.0418 12.932 31.7418 13.268C31.4418 13.604 31.2258 13.982 31.0938 14.402V20H29.1138V10.586H30.9138V12.476C31.2738 11.852 31.7958 11.354 32.4798 10.982C33.1638 10.61 33.9198 10.424 34.7478 10.424C35.4918 10.424 36.0678 10.604 36.4758 10.964C36.8838 11.312 37.1658 11.774 37.3218 12.35C37.4778 12.926 37.5558 13.562 37.5558 14.258V20ZM45.0217 19.514C44.7697 19.634 44.4217 19.772 43.9777 19.928C43.5337 20.072 43.0597 20.144 42.5557 20.144C41.9317 20.144 41.3917 19.976 40.9357 19.64C40.4917 19.304 40.2697 18.758 40.2697 18.002V12.116H39.0277V10.586H40.2697V7.49H42.2497V10.586H44.3017V12.116H42.2497V17.372C42.2737 17.708 42.3757 17.954 42.5557 18.11C42.7477 18.254 42.9817 18.326 43.2577 18.326C43.5337 18.326 43.7977 18.278 44.0497 18.182C44.3017 18.086 44.4877 18.008 44.6077 17.948L45.0217 19.514ZM50.536 20.18C49.564 20.18 48.712 19.958 47.98 19.514C47.248 19.07 46.678 18.482 46.27 17.75C45.862 17.006 45.658 16.196 45.658 15.32C45.658 14.432 45.862 13.616 46.27 12.872C46.678 12.128 47.248 11.534 47.98 11.09C48.712 10.646 49.57 10.424 50.554 10.424C51.538 10.424 52.39 10.652 53.11 11.108C53.83 11.552 54.382 12.14 54.766 12.872C55.162 13.604 55.36 14.39 55.36 15.23C55.36 15.53 55.342 15.77 55.306 15.95H47.764C47.8 16.502 47.95 16.988 48.214 17.408C48.49 17.816 48.832 18.14 49.24 18.38C49.66 18.608 50.116 18.722 50.608 18.722C51.136 18.722 51.634 18.59 52.102 18.326C52.57 18.062 52.894 17.714 53.074 17.282L54.766 17.768C54.442 18.476 53.902 19.058 53.146 19.514C52.402 19.958 51.532 20.18 50.536 20.18ZM47.71 14.636H53.398C53.35 14.096 53.194 13.622 52.93 13.214C52.666 12.794 52.324 12.47 51.904 12.242C51.496 12.002 51.04 11.882 50.536 11.882C50.044 11.882 49.588 12.002 49.168 12.242C48.76 12.47 48.424 12.794 48.16 13.214C47.896 13.622 47.746 14.096 47.71 14.636ZM65.4171 20H63.4371V14.726C63.4371 13.838 63.2931 13.196 63.0051 12.8C62.7291 12.392 62.3151 12.188 61.7631 12.188C61.3791 12.188 60.9951 12.284 60.6111 12.476C60.2391 12.668 59.9031 12.932 59.6031 13.268C59.3031 13.604 59.0871 13.982 58.9551 14.402V20H56.9751V10.586H58.7751V12.476C59.1351 11.852 59.6571 11.354 60.3411 10.982C61.0251 10.61 61.7811 10.424 62.6091 10.424C63.3531 10.424 63.9291 10.604 64.3371 10.964C64.7451 11.312 65.0271 11.774 65.1831 12.35C65.3391 12.926 65.4171 13.562 65.4171 14.258V20ZM67.1213 15.302C67.1213 14.402 67.3013 13.586 67.6613 12.854C68.0333 12.11 68.5373 11.522 69.1733 11.09C69.8093 10.646 70.5413 10.424 71.3693 10.424C72.0893 10.424 72.7373 10.61 73.3133 10.982C73.9013 11.354 74.3573 11.816 74.6813 12.368V6.86H76.6613V17.768C76.6613 17.996 76.7033 18.158 76.7873 18.254C76.8713 18.35 77.0093 18.404 77.2013 18.416V20C76.8293 20.06 76.5413 20.09 76.3373 20.09C75.9653 20.09 75.6473 19.988 75.3833 19.784C75.1313 19.568 74.9993 19.304 74.9873 18.992L74.9693 18.29C74.6093 18.89 74.1233 19.358 73.5113 19.694C72.8993 20.018 72.2633 20.18 71.6033 20.18C70.7393 20.18 69.9653 19.958 69.2813 19.514C68.6093 19.07 68.0813 18.482 67.6973 17.75C67.3133 17.006 67.1213 16.19 67.1213 15.302ZM74.6813 16.616V14.15C74.5373 13.766 74.3213 13.424 74.0333 13.124C73.7453 12.812 73.4153 12.566 73.0433 12.386C72.6833 12.206 72.3233 12.116 71.9633 12.116C71.3993 12.116 70.9073 12.272 70.4873 12.584C70.0793 12.884 69.7553 13.28 69.5153 13.772C69.2873 14.264 69.1733 14.786 69.1733 15.338C69.1733 15.914 69.2993 16.442 69.5513 16.922C69.8153 17.402 70.1693 17.786 70.6133 18.074C71.0573 18.35 71.5553 18.488 72.1073 18.488C72.4433 18.488 72.7913 18.41 73.1513 18.254C73.5233 18.086 73.8473 17.864 74.1233 17.588C74.3993 17.3 74.5853 16.976 74.6813 16.616Z" fill="#666666"/>
</svg>
