<svg width="316" height="341" viewBox="0 0 316 341" fill="none" xmlns="http://www.w3.org/2000/svg">
<rect x="149.625" y="76.5386" width="166.372" height="38.525" rx="19.2625" fill="#49D1FF"/>
<path d="M222.91 92.1294C222.61 91.7994 222.21 91.5294 221.71 91.3194C221.21 91.0994 220.64 90.9894 220 90.9894C219.06 90.9894 218.375 91.1694 217.945 91.5294C217.515 91.8794 217.3 92.3594 217.3 92.9694C217.3 93.3894 217.405 93.7194 217.615 93.9594C217.825 94.1994 218.145 94.3994 218.575 94.5594C219.015 94.7094 219.575 94.8594 220.255 95.0094C221.015 95.1694 221.67 95.3594 222.22 95.5794C222.77 95.7994 223.195 96.0994 223.495 96.4794C223.795 96.8494 223.945 97.3544 223.945 97.9944C223.945 98.6444 223.78 99.1844 223.45 99.6144C223.12 100.044 222.665 100.364 222.085 100.574C221.505 100.774 220.845 100.874 220.105 100.874C218.445 100.874 217.02 100.359 215.83 99.3294L216.355 98.4744C216.735 98.8744 217.255 99.2194 217.915 99.5094C218.585 99.7994 219.325 99.9444 220.135 99.9444C220.975 99.9444 221.635 99.7894 222.115 99.4794C222.595 99.1694 222.835 98.7094 222.835 98.0994C222.835 97.6594 222.715 97.3094 222.475 97.0494C222.235 96.7794 221.875 96.5594 221.395 96.3894C220.915 96.2194 220.325 96.0544 219.625 95.8944C218.885 95.7244 218.26 95.5344 217.75 95.3244C217.25 95.1144 216.87 94.8394 216.61 94.4994C216.35 94.1594 216.22 93.6994 216.22 93.1194C216.22 92.4594 216.38 91.9044 216.7 91.4544C217.03 90.9944 217.48 90.6494 218.05 90.4194C218.62 90.1794 219.275 90.0594 220.015 90.0594C220.715 90.0594 221.345 90.1694 221.905 90.3894C222.465 90.5994 222.97 90.8994 223.42 91.2894L222.91 92.1294ZM235.342 92.9694H236.347L232.987 100.784H232.102L230.467 96.8994L228.847 100.784H227.962L224.602 92.9694H225.592L228.442 99.7344L229.882 96.2094L228.562 92.9844H229.477L230.467 95.5194L231.472 92.9844H232.372L231.067 96.2094L232.507 99.7344L235.342 92.9694ZM237.854 91.3344V89.8344L238.874 89.8344V91.3344L237.854 91.3344ZM237.854 100.784L237.854 92.9694L238.874 92.9694L238.874 100.784H237.854ZM241.645 100.784L241.645 93.7794H240.565V92.9694H241.645V92.7594C241.645 91.7994 241.85 91.0494 242.26 90.5094C242.68 89.9594 243.24 89.6844 243.94 89.6844C244.24 89.6844 244.535 89.7294 244.825 89.8194C245.125 89.9094 245.38 90.0294 245.59 90.1794L245.275 90.9144C244.975 90.6844 244.595 90.5694 244.135 90.5694C243.665 90.5694 243.3 90.7544 243.04 91.1244C242.79 91.4944 242.665 92.0294 242.665 92.7294V92.9694H244.825V93.7794H242.665L242.665 100.784H241.645ZM250.122 100.409C250.002 100.459 249.782 100.549 249.462 100.679C249.142 100.809 248.772 100.874 248.352 100.874C247.912 100.874 247.527 100.749 247.197 100.499C246.867 100.249 246.702 99.8744 246.702 99.3744L246.702 93.7794H245.622V92.9694H246.702V90.3294L247.722 90.3294V92.9694H249.522V93.7794H247.722L247.722 99.0894C247.742 99.3794 247.842 99.5944 248.022 99.7344C248.212 99.8644 248.427 99.9294 248.667 99.9294C248.947 99.9294 249.197 99.8844 249.417 99.7944C249.647 99.6944 249.792 99.6244 249.852 99.5844L250.122 100.409Z" fill="white"/>
<path d="M149.625 95.801L68.6135 95.801" stroke="#36255A" stroke-width="0.740989"/>
<path d="M0.361342 95.801C0.361341 114.648 15.64 129.927 34.4873 129.927C53.3346 129.927 68.6133 114.648 68.6133 95.801C68.6133 76.9538 53.3346 61.675 34.4873 61.675C15.64 61.675 0.361343 76.9538 0.361342 95.801Z" stroke="#36255A" stroke-width="0.693653" stroke-miterlimit="10" stroke-linecap="round"/>
<circle cx="102.758" cy="95.8013" r="7.25001" transform="rotate(-180 102.758 95.8013)" fill="#36255A"/>
<path d="M23.546 102.784L23.546 99.1165L16.8216 99.1165V98.3014L23.8239 89.6319H24.4723L24.4723 98.2644L26.1024 98.2644V99.1165L24.4723 99.1165L24.4723 102.784H23.546ZM17.8775 98.2644H23.6201L23.6201 91.1139L17.8775 98.2644ZM33.2256 102.97C32.3364 102.945 31.5584 102.729 30.8915 102.321C30.2246 101.901 29.6689 101.364 29.2243 100.71C28.7797 100.055 28.4401 99.345 28.2054 98.5793C27.9831 97.8013 27.872 97.0418 27.872 96.3008C27.872 95.5104 27.9955 94.72 28.2425 93.9296C28.4895 93.1392 28.8414 92.4229 29.2984 91.7807C29.7677 91.1262 30.3296 90.6075 30.9841 90.2247C31.651 89.8295 32.3982 89.6319 33.2256 89.6319C34.1025 89.6319 34.8743 89.8418 35.5412 90.2617C36.2205 90.6816 36.7824 91.225 37.227 91.8919C37.6716 92.5588 38.005 93.2812 38.2273 94.0593C38.4619 94.8373 38.5793 95.5845 38.5793 96.3008C38.5793 97.1035 38.4558 97.9001 38.2088 98.6905C37.9618 99.4685 37.6036 100.179 37.1343 100.821C36.6774 101.463 36.1155 101.982 35.4486 102.377C34.794 102.76 34.0531 102.957 33.2256 102.97ZM28.8167 96.3008C28.8414 96.98 28.9526 97.6593 29.1502 98.3385C29.3478 99.0177 29.6257 99.6414 29.9838 100.209C30.3543 100.778 30.8051 101.235 31.3361 101.58C31.8795 101.926 32.5093 102.099 33.2256 102.099C33.9666 102.099 34.6088 101.92 35.1522 101.562C35.7079 101.191 36.1649 100.716 36.523 100.135C36.8935 99.5426 37.1714 98.9128 37.3566 98.2459C37.5419 97.5666 37.6345 96.9183 37.6345 96.3008C37.6345 95.6215 37.5295 94.9423 37.3196 94.2631C37.122 93.5838 36.8318 92.9601 36.4489 92.3921C36.0784 91.824 35.6215 91.367 35.0781 91.0212C34.5347 90.6754 33.9172 90.5025 33.2256 90.5025C32.4846 90.5025 31.8363 90.6878 31.2805 91.0583C30.7371 91.4288 30.2802 91.9104 29.9097 92.5032C29.5516 93.0836 29.2799 93.7135 29.0946 94.3927C28.9094 95.0596 28.8167 95.6956 28.8167 96.3008ZM43.1685 94.6891C42.6745 94.6891 42.2237 94.5718 41.8162 94.3372C41.4086 94.1025 41.0814 93.7876 40.8344 93.3924C40.5997 92.9972 40.4824 92.5588 40.4824 92.0771C40.4824 91.5831 40.5997 91.1386 40.8344 90.7434C41.0814 90.3482 41.4086 90.0332 41.8162 89.7986C42.2237 89.5639 42.6745 89.4466 43.1685 89.4466C43.6625 89.4466 44.1132 89.5639 44.5208 89.7986C44.9283 90.0332 45.2494 90.3482 45.4841 90.7434C45.7311 91.1386 45.8546 91.5831 45.8546 92.0771C45.8546 92.5588 45.7311 92.9972 45.4841 93.3924C45.2494 93.7876 44.9283 94.1025 44.5208 94.3372C44.1132 94.5718 43.6625 94.6891 43.1685 94.6891ZM40.7603 102.395L45.9472 96.0229L51.023 89.5763L51.5416 90.0024L46.3547 96.3934L41.279 102.84L40.7603 102.395ZM43.1685 94.0963C43.539 94.0963 43.8724 94.0037 44.1688 93.8185C44.4652 93.6209 44.6999 93.3677 44.8728 93.0589C45.0456 92.7502 45.1321 92.4229 45.1321 92.0771C45.1321 91.6943 45.0395 91.3547 44.8542 91.0583C44.669 90.7495 44.4282 90.5025 44.1318 90.3173C43.8354 90.132 43.5143 90.0394 43.1685 90.0394C42.8103 90.0394 42.4831 90.1382 42.1867 90.3358C41.8903 90.5211 41.6556 90.7681 41.4827 91.0768C41.3098 91.3855 41.2234 91.719 41.2234 92.0771C41.2234 92.6329 41.4148 93.1083 41.7976 93.5035C42.1805 93.8987 42.6374 94.0963 43.1685 94.0963ZM49.1334 102.97C48.6394 102.97 48.1887 102.852 47.7811 102.618C47.3736 102.383 47.0463 102.068 46.7993 101.673C46.5647 101.278 46.4474 100.833 46.4474 100.339C46.4474 99.8575 46.5647 99.4191 46.7993 99.0239C47.0463 98.6287 47.3736 98.3138 47.7811 98.0791C48.1887 97.8445 48.6394 97.7272 49.1334 97.7272C49.6274 97.7272 50.0782 97.8445 50.4857 98.0791C50.8933 98.3138 51.2144 98.6287 51.449 99.0239C51.696 99.4191 51.8195 99.8575 51.8195 100.339C51.8195 100.833 51.696 101.278 51.449 101.673C51.2144 102.068 50.8933 102.383 50.4857 102.618C50.0782 102.852 49.6274 102.97 49.1334 102.97ZM49.1334 102.377C49.5039 102.377 49.8374 102.284 50.1338 102.099C50.4302 101.901 50.6648 101.654 50.8377 101.358C51.0106 101.049 51.0971 100.71 51.0971 100.339C51.0971 99.9687 51.0044 99.6352 50.8192 99.3388C50.6339 99.0301 50.3931 98.7831 50.0967 98.5978C49.8003 98.4126 49.4792 98.32 49.1334 98.32C48.7753 98.32 48.448 98.4188 48.1516 98.6164C47.8552 98.8016 47.6206 99.0486 47.4477 99.3574C47.2748 99.6661 47.1883 99.9934 47.1883 100.339C47.1883 100.907 47.3798 101.389 47.7626 101.784C48.1455 102.179 48.6024 102.377 49.1334 102.377Z" fill="#36255A"/>
<rect x="149.625" y="181.697" width="166.372" height="38.525" rx="19.2625" fill="#7ADDFF"/>
<path d="M214.227 205.943L214.227 195.308H215.277L215.277 201.488L221.142 195.293H222.297L217.947 199.973L222.522 205.943H221.337L217.272 200.603L215.277 202.673V205.943H214.227ZM226.667 206.093C225.917 206.093 225.247 205.908 224.657 205.538C224.077 205.168 223.622 204.678 223.292 204.068C222.962 203.448 222.797 202.778 222.797 202.058C222.797 201.328 222.962 200.658 223.292 200.048C223.632 199.428 224.092 198.933 224.672 198.563C225.262 198.183 225.927 197.993 226.667 197.993C227.417 197.993 228.082 198.183 228.662 198.563C229.252 198.933 229.712 199.428 230.042 200.048C230.382 200.658 230.552 201.328 230.552 202.058C230.552 202.778 230.387 203.448 230.057 204.068C229.727 204.678 229.267 205.168 228.677 205.538C228.097 205.908 227.427 206.093 226.667 206.093ZM223.832 202.073C223.832 202.653 223.957 203.183 224.207 203.663C224.467 204.133 224.812 204.508 225.242 204.788C225.672 205.058 226.147 205.193 226.667 205.193C227.187 205.193 227.662 205.053 228.092 204.773C228.522 204.493 228.867 204.113 229.127 203.633C229.387 203.153 229.517 202.623 229.517 202.043C229.517 201.463 229.387 200.933 229.127 200.453C228.867 199.973 228.522 199.593 228.092 199.313C227.662 199.033 227.187 198.893 226.667 198.893C226.157 198.893 225.687 199.038 225.257 199.328C224.827 199.608 224.482 199.988 224.222 200.468C223.962 200.948 223.832 201.483 223.832 202.073ZM236.041 205.568C235.921 205.618 235.701 205.708 235.381 205.838C235.061 205.968 234.691 206.033 234.271 206.033C233.831 206.033 233.446 205.908 233.116 205.658C232.786 205.408 232.621 205.033 232.621 204.533L232.621 198.938H231.541V198.128H232.621V195.488H233.641V198.128L235.441 198.128V198.938L233.641 198.938L233.641 204.248C233.661 204.538 233.761 204.753 233.941 204.893C234.131 205.023 234.346 205.088 234.586 205.088C234.866 205.088 235.116 205.043 235.336 204.953C235.566 204.853 235.711 204.783 235.771 204.743L236.041 205.568ZM237.51 194.993H238.53L238.53 204.173C238.53 204.563 238.595 204.818 238.725 204.938C238.865 205.058 239.04 205.118 239.25 205.118C239.43 205.118 239.61 205.098 239.79 205.058C239.98 205.018 240.135 204.978 240.255 204.938L240.435 205.763C240.245 205.843 240.01 205.908 239.73 205.958C239.46 206.008 239.225 206.033 239.025 206.033C238.565 206.033 238.195 205.898 237.915 205.628C237.645 205.358 237.51 204.988 237.51 204.518L237.51 194.993ZM241.702 196.493V194.993H242.722V196.493H241.702ZM241.702 205.943L241.702 198.128H242.722L242.722 205.943H241.702ZM251.689 205.943L250.669 205.943L250.669 201.578C250.669 200.658 250.529 199.988 250.249 199.568C249.979 199.138 249.559 198.923 248.989 198.923C248.589 198.923 248.194 199.023 247.804 199.223C247.414 199.413 247.069 199.678 246.769 200.018C246.479 200.348 246.269 200.728 246.139 201.158L246.139 205.943H245.119L245.119 198.128H246.049V199.898C246.359 199.328 246.814 198.868 247.414 198.518C248.014 198.168 248.664 197.993 249.364 197.993C249.944 197.993 250.404 198.133 250.744 198.413C251.084 198.683 251.324 199.073 251.464 199.583C251.614 200.083 251.689 200.678 251.689 201.368L251.689 205.943Z" fill="white"/>
<path d="M149.625 200.96L68.6135 200.96" stroke="#36255A" stroke-width="0.740989"/>
<path d="M0.361342 200.96C0.361341 219.807 15.64 235.086 34.4873 235.086C53.3346 235.086 68.6133 219.807 68.6133 200.96C68.6133 182.112 53.3346 166.834 34.4873 166.834C15.64 166.834 0.361343 182.112 0.361342 200.96Z" stroke="#36255A" stroke-width="0.693653" stroke-miterlimit="10" stroke-linecap="round"/>
<circle cx="102.758" cy="200.96" r="7.25001" transform="rotate(-180 102.758 200.96)" fill="#36255A"/>
<path d="M23.546 207.943L23.546 204.275L16.8216 204.275V203.46L23.8239 194.791H24.4723L24.4723 203.423H26.1024V204.275H24.4723L24.4723 207.943H23.546ZM17.8775 203.423L23.6201 203.423L23.6201 196.273L17.8775 203.423ZM33.2256 208.128C32.3364 208.104 31.5584 207.888 30.8915 207.48C30.2246 207.06 29.6689 206.523 29.2243 205.868C28.7797 205.214 28.4401 204.504 28.2054 203.738C27.9831 202.96 27.872 202.2 27.872 201.459C27.872 200.669 27.9955 199.879 28.2425 199.088C28.4895 198.298 28.8414 197.582 29.2984 196.939C29.7677 196.285 30.3296 195.766 30.9841 195.383C31.651 194.988 32.3982 194.791 33.2256 194.791C34.1025 194.791 34.8743 195.001 35.5412 195.42C36.2205 195.84 36.7824 196.384 37.227 197.051C37.6716 197.717 38.005 198.44 38.2273 199.218C38.4619 199.996 38.5793 200.743 38.5793 201.459C38.5793 202.262 38.4558 203.059 38.2088 203.849C37.9618 204.627 37.6036 205.337 37.1343 205.979C36.6774 206.622 36.1155 207.14 35.4486 207.536C34.794 207.918 34.0531 208.116 33.2256 208.128ZM28.8167 201.459C28.8414 202.139 28.9526 202.818 29.1502 203.497C29.3478 204.176 29.6257 204.8 29.9838 205.368C30.3543 205.936 30.8051 206.393 31.3361 206.739C31.8795 207.085 32.5093 207.258 33.2256 207.258C33.9666 207.258 34.6088 207.079 35.1522 206.72C35.7079 206.35 36.1649 205.875 36.523 205.294C36.8935 204.701 37.1714 204.071 37.3566 203.405C37.5419 202.725 37.6345 202.077 37.6345 201.459C37.6345 200.78 37.5295 200.101 37.3196 199.422C37.122 198.743 36.8318 198.119 36.4489 197.551C36.0784 196.983 35.6215 196.526 35.0781 196.18C34.5347 195.834 33.9172 195.661 33.2256 195.661C32.4846 195.661 31.8363 195.846 31.2805 196.217C30.7371 196.587 30.2802 197.069 29.9097 197.662C29.5516 198.242 29.2799 198.872 29.0946 199.551C28.9094 200.218 28.8167 200.854 28.8167 201.459ZM43.1685 199.848C42.6745 199.848 42.2237 199.73 41.8162 199.496C41.4086 199.261 41.0814 198.946 40.8344 198.551C40.5997 198.156 40.4824 197.717 40.4824 197.236C40.4824 196.742 40.5997 196.297 40.8344 195.902C41.0814 195.507 41.4086 195.192 41.8162 194.957C42.2237 194.723 42.6745 194.605 43.1685 194.605C43.6625 194.605 44.1132 194.723 44.5208 194.957C44.9283 195.192 45.2494 195.507 45.4841 195.902C45.7311 196.297 45.8546 196.742 45.8546 197.236C45.8546 197.717 45.7311 198.156 45.4841 198.551C45.2494 198.946 44.9283 199.261 44.5208 199.496C44.1132 199.73 43.6625 199.848 43.1685 199.848ZM40.7603 207.554L45.9472 201.182L51.023 194.735L51.5416 195.161L46.3547 201.552L41.279 207.999L40.7603 207.554ZM43.1685 199.255C43.539 199.255 43.8724 199.162 44.1688 198.977C44.4652 198.78 44.6999 198.526 44.8728 198.218C45.0456 197.909 45.1321 197.582 45.1321 197.236C45.1321 196.853 45.0395 196.513 44.8542 196.217C44.669 195.908 44.4282 195.661 44.1318 195.476C43.8354 195.291 43.5143 195.198 43.1685 195.198C42.8103 195.198 42.4831 195.297 42.1867 195.495C41.8903 195.68 41.6556 195.927 41.4827 196.235C41.3098 196.544 41.2234 196.878 41.2234 197.236C41.2234 197.792 41.4148 198.267 41.7976 198.662C42.1805 199.057 42.6374 199.255 43.1685 199.255ZM49.1334 208.128C48.6394 208.128 48.1887 208.011 47.7811 207.776C47.3736 207.542 47.0463 207.227 46.7993 206.832C46.5647 206.436 46.4474 205.992 46.4474 205.498C46.4474 205.016 46.5647 204.578 46.7993 204.183C47.0463 203.787 47.3736 203.472 47.7811 203.238C48.1887 203.003 48.6394 202.886 49.1334 202.886C49.6274 202.886 50.0782 203.003 50.4857 203.238C50.8933 203.472 51.2144 203.787 51.449 204.183C51.696 204.578 51.8195 205.016 51.8195 205.498C51.8195 205.992 51.696 206.436 51.449 206.832C51.2144 207.227 50.8933 207.542 50.4857 207.776C50.0782 208.011 49.6274 208.128 49.1334 208.128ZM49.1334 207.536C49.5039 207.536 49.8374 207.443 50.1338 207.258C50.4302 207.06 50.6648 206.813 50.8377 206.517C51.0106 206.208 51.0971 205.868 51.0971 205.498C51.0971 205.127 51.0044 204.794 50.8192 204.498C50.6339 204.189 50.3931 203.942 50.0967 203.757C49.8003 203.571 49.4792 203.479 49.1334 203.479C48.7753 203.479 48.448 203.577 48.1516 203.775C47.8552 203.96 47.6206 204.207 47.4477 204.516C47.2748 204.825 47.1883 205.152 47.1883 205.498C47.1883 206.066 47.3798 206.548 47.7626 206.943C48.1455 207.338 48.6024 207.536 49.1334 207.536Z" fill="#36255A"/>
<rect x="149.625" y="286.654" width="166.372" height="38.525" rx="19.2625" fill="#9B92AD"/>
<path d="M189.285 310.9L189.285 300.25L193.785 300.25C194.245 300.25 194.665 300.345 195.045 300.535C195.435 300.725 195.77 300.985 196.05 301.315C196.33 301.635 196.545 301.995 196.695 302.395C196.855 302.785 196.935 303.185 196.935 303.595C196.935 304.115 196.835 304.6 196.635 305.05C196.445 305.5 196.17 305.88 195.81 306.19C195.45 306.5 195.035 306.7 194.565 306.79L197.175 310.9H195.99L193.485 306.97L190.335 306.97V310.9H189.285ZM190.335 306.04L193.815 306.04C194.235 306.04 194.6 305.925 194.91 305.695C195.22 305.455 195.46 305.15 195.63 304.78C195.8 304.41 195.885 304.015 195.885 303.595C195.885 303.165 195.785 302.77 195.585 302.41C195.395 302.04 195.135 301.745 194.805 301.525C194.475 301.295 194.115 301.18 193.725 301.18L190.335 301.18L190.335 306.04ZM202.165 311.05C201.415 311.05 200.745 310.865 200.155 310.495C199.565 310.125 199.1 309.63 198.76 309.01C198.42 308.39 198.25 307.71 198.25 306.97C198.25 306.24 198.415 305.57 198.745 304.96C199.085 304.35 199.55 303.865 200.14 303.505C200.73 303.135 201.4 302.95 202.15 302.95C202.92 302.95 203.595 303.135 204.175 303.505C204.755 303.875 205.205 304.365 205.525 304.975C205.855 305.575 206.02 306.235 206.02 306.955C206.02 307.115 206.015 307.25 206.005 307.36H199.315C199.365 307.92 199.525 308.42 199.795 308.86C200.065 309.29 200.41 309.635 200.83 309.895C201.25 310.145 201.71 310.27 202.21 310.27C202.72 310.27 203.2 310.14 203.65 309.88C204.1 309.62 204.42 309.28 204.61 308.86L205.495 309.1C205.335 309.48 205.085 309.82 204.745 310.12C204.415 310.41 204.03 310.64 203.59 310.81C203.15 310.97 202.675 311.05 202.165 311.05ZM199.285 306.625H205.06C205.02 306.065 204.865 305.57 204.595 305.14C204.325 304.7 203.98 304.36 203.56 304.12C203.14 303.87 202.675 303.745 202.165 303.745C201.655 303.745 201.19 303.87 200.77 304.12C200.35 304.36 200.005 304.7 199.735 305.14C199.475 305.57 199.325 306.065 199.285 306.625ZM207.114 308.65C207.114 308.17 207.254 307.755 207.534 307.405C207.814 307.045 208.199 306.765 208.689 306.565C209.189 306.365 209.764 306.265 210.414 306.265C210.794 306.265 211.189 306.3 211.599 306.37C212.009 306.43 212.374 306.515 212.694 306.625L212.694 305.965C212.694 305.305 212.499 304.78 212.109 304.39C211.719 304 211.179 303.805 210.489 303.805C210.079 303.805 209.669 303.885 209.259 304.045C208.849 304.195 208.424 304.42 207.984 304.72L207.594 304C208.104 303.65 208.604 303.39 209.094 303.22C209.584 303.04 210.084 302.95 210.594 302.95C211.554 302.95 212.314 303.225 212.874 303.775C213.434 304.325 213.714 305.085 213.714 306.055L213.714 309.67C213.714 309.94 213.839 310.08 214.089 310.09V310.9C213.869 310.93 213.714 310.94 213.624 310.93C213.374 310.92 213.184 310.84 213.054 310.69C212.924 310.54 212.854 310.38 212.844 310.21L212.829 309.64C212.479 310.09 212.024 310.44 211.464 310.69C210.904 310.93 210.334 311.05 209.754 311.05C209.244 311.05 208.789 310.945 208.389 310.735C207.989 310.515 207.674 310.225 207.444 309.865C207.224 309.495 207.114 309.09 207.114 308.65ZM212.349 309.25C212.579 308.98 212.694 308.73 212.694 308.5V307.36C212.004 307.09 211.284 306.955 210.534 306.955C209.804 306.955 209.214 307.1 208.764 307.39C208.314 307.68 208.089 308.075 208.089 308.575C208.089 309.005 208.254 309.395 208.584 309.745C208.924 310.095 209.394 310.27 209.994 310.27C210.484 310.27 210.939 310.175 211.359 309.985C211.789 309.795 212.119 309.55 212.349 309.25ZM219.458 311.05C218.698 311.05 218.023 310.865 217.433 310.495C216.843 310.115 216.378 309.62 216.038 309.01C215.698 308.39 215.528 307.71 215.528 306.97C215.528 306.23 215.693 305.56 216.023 304.96C216.353 304.35 216.813 303.865 217.403 303.505C217.993 303.135 218.673 302.95 219.443 302.95C220.173 302.95 220.813 303.12 221.363 303.46C221.923 303.79 222.343 304.24 222.623 304.81L221.633 305.125C221.413 304.725 221.103 304.415 220.703 304.195C220.313 303.965 219.878 303.85 219.398 303.85C218.868 303.85 218.388 303.985 217.958 304.255C217.538 304.525 217.198 304.9 216.938 305.38C216.688 305.85 216.563 306.38 216.563 306.97C216.563 307.56 216.693 308.095 216.953 308.575C217.213 309.055 217.558 309.44 217.988 309.73C218.418 310.01 218.893 310.15 219.413 310.15C219.753 310.15 220.083 310.09 220.403 309.97C220.723 309.85 220.998 309.69 221.228 309.49C221.458 309.28 221.613 309.055 221.693 308.815L222.698 309.115C222.558 309.485 222.328 309.82 222.008 310.12C221.688 310.41 221.308 310.64 220.868 310.81C220.428 310.97 219.958 311.05 219.458 311.05ZM228.2 310.525C228.08 310.575 227.86 310.665 227.54 310.795C227.22 310.925 226.85 310.99 226.43 310.99C225.99 310.99 225.605 310.865 225.275 310.615C224.945 310.365 224.78 309.99 224.78 309.49L224.78 303.895H223.7V303.085H224.78V300.445L225.8 300.445V303.085H227.6V303.895H225.8L225.8 309.205C225.82 309.495 225.92 309.71 226.1 309.85C226.29 309.98 226.505 310.045 226.745 310.045C227.025 310.045 227.275 310 227.495 309.91C227.725 309.81 227.87 309.74 227.93 309.7L228.2 310.525ZM234.858 302.185L234.858 310.9H233.808L233.808 300.25H234.678L241.668 309.13L241.668 300.265H242.718L242.718 310.9H241.743L234.858 302.185ZM244.631 308.65C244.631 308.17 244.771 307.755 245.051 307.405C245.331 307.045 245.716 306.765 246.206 306.565C246.706 306.365 247.281 306.265 247.931 306.265C248.311 306.265 248.706 306.3 249.116 306.37C249.526 306.43 249.891 306.515 250.211 306.625V305.965C250.211 305.305 250.016 304.78 249.626 304.39C249.236 304 248.696 303.805 248.006 303.805C247.596 303.805 247.186 303.885 246.776 304.045C246.366 304.195 245.941 304.42 245.501 304.72L245.111 304C245.621 303.65 246.121 303.39 246.611 303.22C247.101 303.04 247.601 302.95 248.111 302.95C249.071 302.95 249.831 303.225 250.391 303.775C250.951 304.325 251.231 305.085 251.231 306.055L251.231 309.67C251.231 309.94 251.356 310.08 251.606 310.09V310.9C251.386 310.93 251.231 310.94 251.141 310.93C250.891 310.92 250.701 310.84 250.571 310.69C250.441 310.54 250.371 310.38 250.361 310.21L250.346 309.64C249.996 310.09 249.541 310.44 248.981 310.69C248.421 310.93 247.851 311.05 247.271 311.05C246.761 311.05 246.306 310.945 245.906 310.735C245.506 310.515 245.191 310.225 244.961 309.865C244.741 309.495 244.631 309.09 244.631 308.65ZM249.866 309.25C250.096 308.98 250.211 308.73 250.211 308.5L250.211 307.36C249.521 307.09 248.801 306.955 248.051 306.955C247.321 306.955 246.731 307.1 246.281 307.39C245.831 307.68 245.606 308.075 245.606 308.575C245.606 309.005 245.771 309.395 246.101 309.745C246.441 310.095 246.911 310.27 247.511 310.27C248.001 310.27 248.456 310.175 248.876 309.985C249.306 309.795 249.636 309.55 249.866 309.25ZM257.277 310.525C257.157 310.575 256.937 310.665 256.617 310.795C256.297 310.925 255.927 310.99 255.507 310.99C255.067 310.99 254.682 310.865 254.352 310.615C254.022 310.365 253.857 309.99 253.857 309.49L253.857 303.895H252.777V303.085H253.857V300.445H254.877V303.085H256.677V303.895H254.877L254.877 309.205C254.897 309.495 254.997 309.71 255.177 309.85C255.367 309.98 255.582 310.045 255.822 310.045C256.102 310.045 256.352 310 256.572 309.91C256.802 309.81 256.947 309.74 257.007 309.7L257.277 310.525ZM258.701 301.45V299.95L259.721 299.95V301.45L258.701 301.45ZM258.701 310.9V303.085L259.721 303.085V310.9L258.701 310.9ZM264.443 310.9L261.278 303.085H262.343L265.013 309.88L267.698 303.085H268.703L265.538 310.9H264.443ZM273.377 311.05C272.627 311.05 271.957 310.865 271.367 310.495C270.777 310.125 270.312 309.63 269.972 309.01C269.632 308.39 269.462 307.71 269.462 306.97C269.462 306.24 269.627 305.57 269.957 304.96C270.297 304.35 270.762 303.865 271.352 303.505C271.942 303.135 272.612 302.95 273.362 302.95C274.132 302.95 274.807 303.135 275.387 303.505C275.967 303.875 276.417 304.365 276.737 304.975C277.067 305.575 277.232 306.235 277.232 306.955C277.232 307.115 277.227 307.25 277.217 307.36H270.527C270.577 307.92 270.737 308.42 271.007 308.86C271.277 309.29 271.622 309.635 272.042 309.895C272.462 310.145 272.922 310.27 273.422 310.27C273.932 310.27 274.412 310.14 274.862 309.88C275.312 309.62 275.632 309.28 275.822 308.86L276.707 309.1C276.547 309.48 276.297 309.82 275.957 310.12C275.627 310.41 275.242 310.64 274.802 310.81C274.362 310.97 273.887 311.05 273.377 311.05ZM270.497 306.625H276.272C276.232 306.065 276.077 305.57 275.807 305.14C275.537 304.7 275.192 304.36 274.772 304.12C274.352 303.87 273.887 303.745 273.377 303.745C272.867 303.745 272.402 303.87 271.982 304.12C271.562 304.36 271.217 304.7 270.947 305.14C270.687 305.57 270.537 306.065 270.497 306.625Z" fill="white"/>
<path d="M149.625 305.916L68.6135 305.916" stroke="#36255A" stroke-width="0.740989"/>
<path d="M0.361342 305.916C0.361341 324.763 15.64 340.042 34.4873 340.042C53.3346 340.042 68.6133 324.763 68.6133 305.916C68.6133 287.069 53.3346 271.79 34.4873 271.79C15.64 271.79 0.361343 287.069 0.361342 305.916Z" stroke="#36255A" stroke-width="0.693653" stroke-miterlimit="10" stroke-linecap="round"/>
<circle cx="102.758" cy="305.917" r="7.25001" transform="rotate(-180 102.758 305.917)" fill="#36255A"/>
<path d="M17.1486 312.9C17.1115 311.838 17.2288 310.936 17.5005 310.195C17.7846 309.454 18.1859 308.837 18.7046 308.343C19.2357 307.849 19.8408 307.435 20.5201 307.101C20.9893 306.879 21.471 306.663 21.965 306.453C22.4713 306.243 22.9406 306.008 23.3729 305.749C23.8051 305.49 24.1509 305.169 24.4102 304.786C24.6819 304.391 24.8178 303.903 24.8178 303.322C24.8178 302.828 24.7066 302.365 24.4843 301.933C24.262 301.488 23.9224 301.13 23.4655 300.859C23.0085 300.587 22.4281 300.451 21.7242 300.451C21.0326 300.451 20.4398 300.568 19.9458 300.803C19.4518 301.025 19.0381 301.297 18.7046 301.618C18.3712 301.927 18.1118 302.205 17.9266 302.452L17.2968 301.877C17.3338 301.816 17.4573 301.668 17.6672 301.433C17.8772 301.186 18.1674 300.92 18.5379 300.636C18.9208 300.352 19.3839 300.105 19.9273 299.895C20.4707 299.685 21.1005 299.58 21.8168 299.58C22.706 299.58 23.447 299.759 24.0398 300.118C24.6449 300.463 25.0957 300.92 25.3921 301.488C25.6885 302.057 25.8366 302.668 25.8366 303.322C25.8366 303.989 25.7008 304.545 25.4291 304.99C25.1574 305.434 24.8054 305.811 24.3732 306.12C23.941 306.416 23.484 306.669 23.0024 306.879C22.5331 307.089 22.0885 307.287 21.6686 307.472C20.8535 307.818 20.2113 308.188 19.742 308.583C19.2727 308.966 18.9269 309.355 18.7046 309.75C18.4823 310.146 18.3341 310.541 18.26 310.936C18.1859 311.319 18.1489 311.689 18.1489 312.048H25.8552V312.9H17.1486ZM33.3432 313.085C32.454 313.06 31.676 312.844 31.0091 312.437C30.3422 312.017 29.7865 311.479 29.3419 310.825C28.8973 310.17 28.5577 309.46 28.323 308.695C28.1007 307.917 27.9896 307.157 27.9896 306.416C27.9896 305.626 28.1131 304.835 28.3601 304.045C28.6071 303.254 28.959 302.538 29.416 301.896C29.8853 301.241 30.4472 300.723 31.1017 300.34C31.7686 299.945 32.5158 299.747 33.3432 299.747C34.22 299.747 34.9919 299.957 35.6588 300.377C36.338 300.797 36.9 301.34 37.3446 302.007C37.7891 302.674 38.1226 303.396 38.3449 304.175C38.5795 304.953 38.6969 305.7 38.6969 306.416C38.6969 307.219 38.5734 308.015 38.3264 308.806C38.0794 309.584 37.7212 310.294 37.2519 310.936C36.795 311.578 36.2331 312.097 35.5662 312.492C34.9116 312.875 34.1706 313.073 33.3432 313.085ZM28.9343 306.416C28.959 307.095 29.0702 307.774 29.2678 308.454C29.4654 309.133 29.7432 309.757 30.1014 310.325C30.4719 310.893 30.9226 311.35 31.4537 311.696C31.9971 312.041 32.6269 312.214 33.3432 312.214C34.0842 312.214 34.7264 312.035 35.2698 311.677C35.8255 311.307 36.2825 310.831 36.6406 310.251C37.0111 309.658 37.289 309.028 37.4742 308.361C37.6595 307.682 37.7521 307.033 37.7521 306.416C37.7521 305.737 37.6471 305.058 37.4372 304.378C37.2396 303.699 36.9494 303.075 36.5665 302.507C36.196 301.939 35.7391 301.482 35.1957 301.136C34.6523 300.791 34.0348 300.618 33.3432 300.618C32.6022 300.618 31.9539 300.803 31.3981 301.174C30.8547 301.544 30.3978 302.026 30.0273 302.618C29.6691 303.199 29.3974 303.829 29.2122 304.508C29.027 305.175 28.9343 305.811 28.9343 306.416ZM43.2861 304.804C42.7921 304.804 42.3413 304.687 41.9338 304.452C41.5262 304.218 41.1989 303.903 40.9519 303.508C40.7173 303.112 40.6 302.674 40.6 302.192C40.6 301.698 40.7173 301.254 40.9519 300.859C41.1989 300.463 41.5262 300.148 41.9338 299.914C42.3413 299.679 42.7921 299.562 43.2861 299.562C43.7801 299.562 44.2308 299.679 44.6384 299.914C45.0459 300.148 45.367 300.463 45.6017 300.859C45.8487 301.254 45.9721 301.698 45.9721 302.192C45.9721 302.674 45.8487 303.112 45.6017 303.508C45.367 303.903 45.0459 304.218 44.6384 304.452C44.2308 304.687 43.7801 304.804 43.2861 304.804ZM40.8779 312.511L46.0648 306.138L51.1405 299.692L51.6592 300.118L46.4723 306.509L41.3965 312.955L40.8779 312.511ZM43.2861 304.212C43.6566 304.212 43.99 304.119 44.2864 303.934C44.5828 303.736 44.8174 303.483 44.9903 303.174C45.1632 302.865 45.2497 302.538 45.2497 302.192C45.2497 301.81 45.1571 301.47 44.9718 301.174C44.7866 300.865 44.5457 300.618 44.2493 300.433C43.953 300.247 43.6319 300.155 43.2861 300.155C42.9279 300.155 42.6006 300.253 42.3043 300.451C42.0079 300.636 41.7732 300.883 41.6003 301.192C41.4274 301.501 41.341 301.834 41.341 302.192C41.341 302.748 41.5324 303.224 41.9152 303.619C42.2981 304.014 42.755 304.212 43.2861 304.212ZM49.251 313.085C48.757 313.085 48.3063 312.968 47.8987 312.733C47.4912 312.498 47.1639 312.183 46.9169 311.788C46.6823 311.393 46.5649 310.948 46.5649 310.454C46.5649 309.973 46.6823 309.534 46.9169 309.139C47.1639 308.744 47.4912 308.429 47.8987 308.194C48.3063 307.96 48.757 307.842 49.251 307.842C49.745 307.842 50.1958 307.96 50.6033 308.194C51.0109 308.429 51.332 308.744 51.5666 309.139C51.8136 309.534 51.9371 309.973 51.9371 310.454C51.9371 310.948 51.8136 311.393 51.5666 311.788C51.332 312.183 51.0109 312.498 50.6033 312.733C50.1958 312.968 49.745 313.085 49.251 313.085ZM49.251 312.492C49.6215 312.492 49.955 312.399 50.2514 312.214C50.5478 312.017 50.7824 311.77 50.9553 311.473C51.1282 311.165 51.2146 310.825 51.2146 310.454C51.2146 310.084 51.122 309.75 50.9368 309.454C50.7515 309.145 50.5107 308.898 50.2143 308.713C49.9179 308.528 49.5968 308.435 49.251 308.435C48.8929 308.435 48.5656 308.534 48.2692 308.732C47.9728 308.917 47.7382 309.164 47.5653 309.473C47.3924 309.781 47.3059 310.109 47.3059 310.454C47.3059 311.022 47.4974 311.504 47.8802 311.899C48.263 312.295 48.72 312.492 49.251 312.492Z" fill="#36255A"/>
<path d="M12.5493 20V10.892L8.78728 17.804H7.59928L3.81928 10.892V20H1.80328V7.22H3.96328L8.19328 15.032L12.4233 7.22H14.5833V20H12.5493ZM21.2852 20.18C20.3012 20.18 19.4432 19.958 18.7112 19.514C17.9912 19.058 17.4332 18.464 17.0372 17.732C16.6412 16.988 16.4432 16.178 16.4432 15.302C16.4432 14.426 16.6412 13.622 17.0372 12.89C17.4452 12.146 18.0092 11.552 18.7292 11.108C19.4612 10.652 20.3132 10.424 21.2852 10.424C22.2572 10.424 23.1032 10.652 23.8232 11.108C24.5552 11.552 25.1192 12.146 25.5152 12.89C25.9232 13.622 26.1272 14.426 26.1272 15.302C26.1272 16.178 25.9292 16.988 25.5332 17.732C25.1372 18.464 24.5732 19.058 23.8412 19.514C23.1212 19.958 22.2692 20.18 21.2852 20.18ZM18.4772 15.32C18.4772 15.92 18.6032 16.46 18.8552 16.94C19.1072 17.42 19.4432 17.798 19.8632 18.074C20.2832 18.35 20.7572 18.488 21.2852 18.488C21.8012 18.488 22.2692 18.35 22.6892 18.074C23.1212 17.786 23.4632 17.402 23.7152 16.922C23.9672 16.442 24.0932 15.902 24.0932 15.302C24.0932 14.702 23.9672 14.162 23.7152 13.682C23.4632 13.202 23.1212 12.824 22.6892 12.548C22.2692 12.26 21.8012 12.116 21.2852 12.116C20.7692 12.116 20.2952 12.26 19.8632 12.548C19.4432 12.824 19.1072 13.208 18.8552 13.7C18.6032 14.18 18.4772 14.72 18.4772 15.32ZM32.9593 20.18C32.2393 20.18 31.5853 20.012 30.9973 19.676C30.4093 19.328 29.9533 18.866 29.6293 18.29V20H27.8833V6.86H29.8633V12.368C30.2353 11.768 30.6973 11.294 31.2493 10.946C31.8133 10.598 32.4733 10.424 33.2293 10.424C34.0693 10.424 34.8013 10.652 35.4253 11.108C36.0493 11.564 36.5353 12.17 36.8833 12.926C37.2313 13.67 37.4053 14.474 37.4053 15.338C37.4053 16.226 37.2073 17.036 36.8113 17.768C36.4273 18.5 35.8993 19.088 35.2273 19.532C34.5553 19.964 33.7993 20.18 32.9593 20.18ZM32.4373 18.488C33.0133 18.488 33.5233 18.344 33.9673 18.056C34.4113 17.756 34.7533 17.366 34.9933 16.886C35.2453 16.406 35.3713 15.89 35.3713 15.338C35.3713 14.774 35.2513 14.246 35.0113 13.754C34.7833 13.262 34.4593 12.866 34.0393 12.566C33.6193 12.266 33.1333 12.116 32.5813 12.116C31.9813 12.116 31.4413 12.314 30.9613 12.71C30.4813 13.106 30.1153 13.586 29.8633 14.15V16.634C29.9593 16.994 30.1453 17.312 30.4213 17.588C30.6973 17.864 31.0153 18.086 31.3753 18.254C31.7473 18.41 32.1013 18.488 32.4373 18.488ZM39.186 9.038V6.86H41.166V9.038H39.186ZM39.186 20V10.586H41.166V20H39.186ZM43.5634 6.86H45.5434V17.282C45.5434 17.762 45.6154 18.068 45.7594 18.2C45.9034 18.332 46.0834 18.398 46.2994 18.398C46.5394 18.398 46.7674 18.374 46.9834 18.326C47.1994 18.278 47.3794 18.218 47.5234 18.146L47.8114 19.712C47.5234 19.832 47.1814 19.934 46.7854 20.018C46.3894 20.102 46.0354 20.144 45.7234 20.144C45.0514 20.144 44.5234 19.958 44.1394 19.586C43.7554 19.202 43.5634 18.674 43.5634 18.002V6.86ZM53.2255 20.18C52.2535 20.18 51.4015 19.958 50.6695 19.514C49.9375 19.07 49.3675 18.482 48.9595 17.75C48.5515 17.006 48.3475 16.196 48.3475 15.32C48.3475 14.432 48.5515 13.616 48.9595 12.872C49.3675 12.128 49.9375 11.534 50.6695 11.09C51.4015 10.646 52.2595 10.424 53.2435 10.424C54.2275 10.424 55.0795 10.652 55.7995 11.108C56.5195 11.552 57.0715 12.14 57.4555 12.872C57.8515 13.604 58.0495 14.39 58.0495 15.23C58.0495 15.53 58.0315 15.77 57.9955 15.95H50.4535C50.4895 16.502 50.6395 16.988 50.9035 17.408C51.1795 17.816 51.5215 18.14 51.9295 18.38C52.3495 18.608 52.8055 18.722 53.2975 18.722C53.8255 18.722 54.3235 18.59 54.7915 18.326C55.2595 18.062 55.5835 17.714 55.7635 17.282L57.4555 17.768C57.1315 18.476 56.5915 19.058 55.8355 19.514C55.0915 19.958 54.2215 20.18 53.2255 20.18ZM50.3995 14.636H56.0875C56.0395 14.096 55.8835 13.622 55.6195 13.214C55.3555 12.794 55.0135 12.47 54.5935 12.242C54.1855 12.002 53.7295 11.882 53.2255 11.882C52.7335 11.882 52.2775 12.002 51.8575 12.242C51.4495 12.47 51.1135 12.794 50.8495 13.214C50.5855 13.622 50.4355 14.096 50.3995 14.636Z" fill="#666666"/>
</svg>
