<svg width="81" height="80" viewBox="0 0 81 80" fill="none" xmlns="http://www.w3.org/2000/svg">
<path d="M40.501 68.2041C56.0777 68.2041 68.7051 55.5767 68.7051 40C68.7051 24.4233 56.0777 11.7959 40.501 11.7959C24.9243 11.7959 12.2969 24.4233 12.2969 40C12.2969 55.5767 24.9243 68.2041 40.501 68.2041Z" stroke="#00AC6A" stroke-width="0.8"/>
<path d="M36.5745 25.1057C37.0316 24.1002 36.587 22.9145 35.5814 22.4574C34.5759 22.0003 33.3902 22.4449 32.9331 23.4505C32.476 24.4561 32.9206 25.6418 33.9262 26.0988C34.9318 26.5559 36.1175 26.1113 36.5745 25.1057Z" fill="#00AC6A"/>
<path d="M48.3284 56.4517C48.7855 55.4461 48.3409 54.2604 47.3353 53.8033C46.3298 53.3463 45.1441 53.7909 44.687 54.7965C44.2299 55.802 44.6745 56.9877 45.6801 57.4448C46.6857 57.9019 47.8714 57.4572 48.3284 56.4517Z" fill="#00AC6A"/>
<path d="M53.9446 26.5552L27.0547 53.4451" stroke="#00AC6A" stroke-width="0.8" stroke-linecap="round"/>
</svg>
