<svg width="81" height="80" viewBox="0 0 81 80" fill="none" xmlns="http://www.w3.org/2000/svg">
<path d="M40.5781 11.479V68.5211" stroke="#00AC6A" stroke-width="0.8" stroke-linecap="round"/>
<path d="M40.5781 11.479V68.5211" stroke="#00AC6A" stroke-width="0.8" stroke-linecap="round"/>
<path d="M36.8549 25.7395H12.1367" stroke="#00AC6A" stroke-width="0.8" stroke-linecap="round"/>
<path d="M51.8281 31.0043V14.7632" stroke="#00AC6A" stroke-width="0.8" stroke-linecap="round"/>
<path d="M18.9066 21.1445C19.3636 20.139 18.919 18.9533 17.9134 18.4962C16.9079 18.0391 15.7222 18.4838 15.2651 19.4893C14.808 20.4949 15.2527 21.6806 16.2582 22.1377C17.2638 22.5947 18.4495 22.1501 18.9066 21.1445Z" fill="#00AC6A"/>
<path d="M31.9769 21.1445C32.434 20.139 31.9893 18.9533 30.9838 18.4962C29.9782 18.0391 28.7925 18.4838 28.3354 19.4893C27.8783 20.4949 28.323 21.6806 29.3285 22.1377C30.3341 22.5947 31.5198 22.1501 31.9769 21.1445Z" fill="#00AC6A"/>
<path d="M25.4417 21.1445C25.8988 20.139 25.4542 18.9533 24.4486 18.4962C23.443 18.0391 22.2573 18.4838 21.8003 19.4893C21.3432 20.4949 21.7878 21.6806 22.7934 22.1377C23.799 22.5947 24.9847 22.1501 25.4417 21.1445Z" fill="#00AC6A"/>
<path d="M51.8301 32.2718C52.5302 32.2718 53.0977 31.7042 53.0977 31.0042C53.0977 30.3041 52.5302 29.7366 51.8301 29.7366C51.13 29.7366 50.5625 30.3041 50.5625 31.0042C50.5625 31.7042 51.13 32.2718 51.8301 32.2718Z" fill="#00AC6A"/>
<path d="M62.0489 26.5318C62.7489 26.5318 63.3165 25.9643 63.3165 25.2642C63.3165 24.5641 62.7489 23.9966 62.0489 23.9966C61.3488 23.9966 60.7812 24.5641 60.7812 25.2642C60.7812 25.9643 61.3488 26.5318 62.0489 26.5318Z" fill="#00AC6A"/>
<path d="M52.7031 47.2058H68.9443" stroke="#00AC6A" stroke-width="0.8" stroke-linecap="round"/>
<path d="M51.4335 47.2058C51.4335 47.9059 52.0011 48.4734 52.7011 48.4734C53.4012 48.4734 53.9688 47.9059 53.9688 47.2058C53.9688 46.5058 53.4012 45.9382 52.7011 45.9382C52.0011 45.9382 51.4335 46.5058 51.4335 47.2058Z" fill="#00AC6A"/>
<path d="M56.9023 41.2676H68.9446" stroke="#00AC6A" stroke-width="0.8" stroke-linecap="round"/>
<path d="M55.6328 41.2676C55.6328 41.9677 56.2003 42.5352 56.9004 42.5352C57.6004 42.5352 58.168 41.9677 58.168 41.2676C58.168 40.5675 57.6004 40 56.9004 40C56.2003 40 55.6328 40.5675 55.6328 41.2676Z" fill="#00AC6A"/>
<path d="M58.3242 14.5688V25.2642H61.6517" stroke="#00AC6A" stroke-width="0.8"/>
<path d="M36.6976 14.3311H12.0586V64.2428H36.6976" stroke="#00AC6A" stroke-width="0.8" stroke-linecap="round"/>
<path d="M44.3047 64.2428H68.9437V14.3311H44.3047" stroke="#00AC6A" stroke-width="0.8" stroke-linecap="round"/>
</svg>
