<svg width="503" height="453" viewBox="0 0 503 453" fill="none" xmlns="http://www.w3.org/2000/svg">
<g clip-path="url(#clip0_422_16790)">
<path opacity="0.4" d="M314.448 18.3481C341.258 18.3481 435.995 65.8425 456.103 103.786C474.922 139.536 420.012 165.09 420.012 190.386C420.012 242.397 347.316 214.908 281.708 202.389C216.101 189.741 180.01 133.857 200.118 90.4931C220.096 46.9996 262.374 18.3481 314.448 18.3481Z" fill="url(#paint0_linear_422_16790)"/>
<path opacity="0.4" d="M223.53 50.4689C274.259 49.4813 455.227 138.365 494.639 211.422C531.533 280.26 428.555 331.984 429.466 381.183C431.337 482.342 292.794 431.554 168.203 409.622C43.6081 387.44 -26.6918 280.08 9.795 194.998C46.0332 109.67 124.998 52.3872 223.53 50.4689Z" fill="url(#paint1_linear_422_16790)"/>
<path d="M191.723 339.781L193.14 351.655L200.745 416.443C219.822 420.702 237.996 424.316 254.366 426.252L255.01 408.442L257.459 335.006L197.652 339.265L193.14 339.523L191.723 339.781Z" fill="#36255A"/>
<path d="M128.822 335.006L131.013 401.085C131.658 401.214 132.302 401.343 132.947 401.472C150.477 404.828 168.393 408.958 185.923 412.959L193.141 351.526L194.559 339.652L193.141 339.523L128.822 335.006Z" fill="#36255A"/>
<path d="M185.876 122.544C183.943 123.318 182.139 124.351 180.592 125.512V122.544H185.876Z" fill="#FCC9A7"/>
<path d="M207.398 122.544V124.351C206.367 123.706 205.078 123.06 203.789 122.544H207.398Z" fill="#FCC9A7"/>
<path d="M196.059 151.067C201.215 151.067 205.984 149.776 209.593 147.711V177.395H180.592V146.42C184.459 149.389 190.001 151.067 196.059 151.067Z" fill="#FCC9A7"/>
<path d="M209.593 124.752V148.112C205.855 150.306 201.215 151.467 196.059 151.467C190.001 151.467 184.459 149.661 180.592 146.821V125.913C182.267 124.623 184.201 123.719 186.392 122.945H205.855C207.144 123.461 208.433 124.106 209.593 124.752Z" fill="#F4BE9A"/>
<path d="M194.894 120.995C198.116 120.995 201.21 121.64 203.916 122.673H186C188.578 121.511 191.671 120.995 194.894 120.995Z" fill="#F4BE9A"/>
<path d="M225.329 102.977C225.854 80.9584 212.665 62.7835 195.87 62.3821C179.075 61.9806 165.034 79.5046 164.509 101.523C163.984 123.541 177.174 141.716 193.969 142.118C210.764 142.519 224.804 124.995 225.329 102.977Z" fill="#FCC9A7"/>
<path d="M235.494 104.088C235.494 104.217 235.494 104.217 235.494 104.217C234.979 105.766 234.334 107.186 233.432 108.347C231.37 110.928 228.534 112.09 225.956 111.316C225.569 111.187 225.183 111.057 224.796 110.799C222.218 109.251 220.8 105.766 221.316 101.894C221.316 101.378 221.445 100.733 221.703 100.216C223.249 95.183 227.503 91.9565 231.37 93.1181C234.979 94.1506 236.912 99.0549 235.494 104.088Z" fill="#FCC9A7"/>
<path d="M169.374 98.5385C169.374 98.6676 169.503 98.6676 169.503 98.6676C170.276 100.087 170.792 101.636 170.92 103.056C171.307 106.282 170.147 109.251 167.698 110.541C167.311 110.799 166.925 110.928 166.538 111.057C163.573 111.832 160.093 110.283 157.773 107.186C157.386 106.798 157.129 106.282 156.871 105.766C154.422 101.12 155.195 95.8282 158.675 93.8923C162.027 91.9564 166.796 94.0214 169.374 98.5385Z" fill="#FCC9A7"/>
<path d="M230.857 98.1516C226.346 99.184 217.839 96.4738 212.038 92.0857C209.976 90.537 208.172 88.6011 205.336 88.6011C201.598 88.6011 200.438 91.8276 196.442 91.9566C192.962 92.0857 190.255 89.8917 188.451 88.472C183.682 84.7292 185.228 82.148 181.748 80.2121C178.01 78.0181 175.303 80.2121 167.828 78.0181C166.796 77.76 165.25 77.2437 163.703 75.9531C161.769 74.4044 160.867 72.5975 160.481 71.8232C159.192 69.1129 158.547 65.112 159.32 61.1111C159.707 58.788 160.738 56.465 162.156 54.2709C163.058 52.9803 166.796 47.6888 172.081 47.8179C176.463 47.947 180.33 51.8188 181.233 52.5931C183.553 54.9162 183.682 56.3359 185.357 56.7231C188.064 57.3684 190.255 53.8837 193.091 52.206C199.278 48.5923 204.82 46.7854 210.621 45.882C219.772 44.5914 234.208 47.8179 240.911 58.9171C242.329 61.2402 243.231 63.8214 243.876 66.4026C246.711 80.4702 238.849 96.4738 230.857 98.1516Z" fill="#36255A"/>
<path opacity="0.4" d="M230.857 98.1514C226.346 99.1839 217.839 96.4736 212.039 92.0855C209.976 90.5368 208.172 88.6009 205.336 88.6009C201.598 88.6009 200.438 91.8274 196.442 91.9565C192.962 92.0855 190.255 89.8915 188.451 88.4718C183.682 84.7291 185.228 82.1479 181.748 80.2119C178.01 78.0179 175.303 80.212 167.828 78.0179C166.796 77.7598 165.25 77.2435 163.703 75.9529C161.769 74.4042 160.867 72.5974 160.481 71.823C159.192 69.1127 158.547 65.1118 159.32 61.111C159.449 61.6272 159.707 62.1435 159.965 62.6597C160.352 63.4341 161.254 65.2409 163.187 66.7896C164.734 68.0802 166.41 68.5965 167.312 68.8546C174.659 71.0486 177.495 68.8546 181.233 71.0486C184.713 73.1136 183.295 75.5658 187.935 79.3085C189.869 80.8573 192.575 82.9222 195.927 82.7932C199.922 82.6641 201.082 79.4376 204.82 79.4376C207.656 79.4376 209.461 81.3735 211.523 82.9222C217.323 87.4393 225.959 90.0206 230.342 88.9881C236.657 87.5684 242.844 77.5017 243.747 66.5315C246.711 80.4701 238.849 96.4736 230.857 98.1514Z" fill="url(#paint2_linear_422_16790)"/>
<path d="M211.138 119.318C217.473 119.318 222.609 114.175 222.609 107.831C222.609 101.488 217.473 96.345 211.138 96.345C204.802 96.345 199.666 101.488 199.666 107.831C199.666 114.175 204.802 119.318 211.138 119.318Z" stroke="#36255A" stroke-miterlimit="10" stroke-linecap="round"/>
<path d="M191.545 108.864C191.545 108.864 195.412 104.605 199.665 108.348" stroke="#36255A" stroke-miterlimit="10" stroke-linecap="round"/>
<path d="M180.073 119.318C186.409 119.318 191.545 114.175 191.545 107.831C191.545 101.488 186.409 96.345 180.073 96.345C173.738 96.345 168.602 101.488 168.602 107.831C168.602 114.175 173.738 119.318 180.073 119.318Z" stroke="#36255A" stroke-miterlimit="10" stroke-linecap="round"/>
<path d="M61.9256 222.852L68.6282 226.595L73.0106 229.047L84.7401 235.5L84.9978 235.629L91.8293 239.372L92.9893 240.017L103.301 245.696L109.23 248.922L103.816 342.879L103.43 349.59H103.816H104.848L185.278 350.235L194.559 350.364L203.839 350.235L285.687 349.59H286.074L280.274 248.793L296.514 239.888L297.675 239.243L304.893 235.629L305.15 235.5L321.262 226.595L327.965 222.852C327.449 222.078 326.934 221.174 326.289 220.271C325.645 219.368 325.129 218.464 324.356 217.561C323.196 215.754 321.778 213.947 320.36 212.011C319.844 211.366 319.329 210.72 318.942 210.075C318.684 209.688 318.298 209.301 318.04 208.914C317.395 208.139 316.88 207.365 316.235 206.59C314.946 205.042 313.657 203.364 312.24 201.815C302.444 190.458 288.91 174.712 266.869 163.871C259.908 160.387 252.948 157.935 246.374 156.128C236.965 154.063 228.329 153.159 221.111 152.643C216.986 152.385 213.377 152.385 210.284 152.385C210.026 152.385 209.639 152.385 209.381 152.385C209.381 152.385 208.995 152.772 208.35 153.417C206.288 155.353 201.39 158.967 195.203 158.838H194.816C188.629 158.967 183.731 155.353 181.669 153.417C181.025 152.772 180.638 152.385 180.638 152.385C180.38 152.385 179.993 152.385 179.736 152.385C176.9 152.385 173.549 152.385 169.94 152.643C162.464 153.03 153.57 154.063 143.645 156.128C137.071 157.935 130.111 160.387 123.151 163.871C101.239 174.712 87.5757 190.458 77.7797 201.815C76.3618 203.493 75.0729 205.042 73.784 206.59C73.1395 207.365 72.495 208.139 71.9794 208.914C71.7216 209.301 71.335 209.688 71.0772 210.075C70.5616 210.72 70.046 211.366 69.5304 212.011C68.1126 213.947 66.6947 215.883 65.5347 217.561C64.8902 218.464 64.2457 219.368 63.7302 220.271C62.9568 221.174 62.4412 222.078 61.9256 222.852Z" fill="#744CC6"/>
<path d="M326.418 220.271C325.773 219.368 325.258 218.464 324.485 217.561C325.258 218.464 325.773 219.368 326.418 220.271Z" fill="#49D1FF"/>
<path d="M268.29 211.753L279.375 242.469" stroke="#36255A" stroke-miterlimit="10" stroke-linecap="round"/>
<path d="M111.809 243.115L121.477 222.465" stroke="#36255A" stroke-miterlimit="10" stroke-linecap="round"/>
<path d="M181.801 331.78C181.801 331.78 175.227 321.455 162.595 322.229C162.595 322.229 166.333 333.07 181.801 331.78Z" fill="#36255A"/>
<path d="M227.169 224.53C227.169 224.53 238.125 218.981 238.641 206.462C238.641 206.462 227.427 208.914 227.169 224.53Z" fill="white"/>
<path d="M125.477 219.497C125.477 219.497 125.219 207.236 114.134 201.299C114.263 201.299 111.685 212.527 125.477 219.497Z" fill="white"/>
<path d="M127.151 253.827C127.151 253.827 138.107 248.277 138.623 235.758C138.623 235.629 127.409 238.211 127.151 253.827Z" stroke="white" stroke-miterlimit="10"/>
<path d="M263.262 179.23C263.262 179.23 257.719 168.389 245.088 167.872C245.088 167.872 247.665 179.101 263.262 179.23Z" stroke="white" stroke-miterlimit="10"/>
<path d="M205.385 178.197C205.385 178.197 202.678 190.2 212.088 198.589C212.088 198.46 217.244 188.264 205.385 178.197Z" fill="#36255A"/>
<path d="M183.861 203.622C183.861 203.622 172.261 199.751 162.98 208.269C162.98 208.269 172.647 214.463 183.861 203.622Z" fill="white"/>
<path d="M229.619 258.344C229.619 258.344 224.077 247.503 211.445 246.987C211.445 246.987 214.023 258.086 229.619 258.344Z" stroke="white" stroke-miterlimit="10"/>
<path d="M133.851 192.007C133.851 192.007 145.967 190.845 151.123 179.359C151.123 179.359 139.78 177.552 133.851 192.007Z" fill="#36255A"/>
<path d="M132.822 328.94C132.822 328.94 120.835 331.005 116.581 342.879C116.581 342.879 128.053 343.782 132.822 328.94Z" fill="#36255A"/>
<path d="M88.4845 220.917C88.4845 220.917 92.3513 209.301 83.8443 200.009C83.7154 200.009 77.6573 209.817 88.4845 220.917Z" stroke="white" stroke-miterlimit="10"/>
<path d="M142.102 312.937C142.102 312.937 141.844 300.676 130.759 294.739C130.888 294.739 128.31 305.967 142.102 312.937Z" fill="white"/>
<path d="M206.781 376.386L387.354 370.878C400.319 370.537 410.528 359.644 410.015 346.724L405.192 187.322C404.851 174.34 393.972 164.119 381.069 164.632L200.668 170.078C187.702 170.419 177.494 181.312 178.006 194.232L182.83 353.634C183.054 366.561 193.816 376.728 206.781 376.386Z" fill="white" stroke="#36255A" stroke-miterlimit="10"/>
<path d="M320.385 269.47L319.686 252.13C321.016 251.66 321.795 250.381 321.737 248.927C321.666 247.162 320.156 245.766 318.394 245.838C317.565 245.871 316.852 246.212 316.251 246.756L293.978 235.07C293.974 234.966 293.966 234.758 293.961 234.655C293.89 232.889 292.38 231.494 290.618 231.565C288.857 231.636 287.464 233.149 287.535 234.914C287.539 235.018 287.548 235.225 287.552 235.329L266.293 248.771C265.65 248.277 264.912 247.995 264.083 248.028C262.325 248.203 260.933 249.716 261.004 251.481C261.063 252.934 262.041 254.039 263.306 254.508L264.014 272.056C262.683 272.526 261.905 273.805 261.963 275.259C262.022 276.713 263.001 277.817 264.265 278.286L264.718 289.501C264.743 290.124 265.174 290.522 265.796 290.497C266.418 290.472 266.816 290.04 266.791 289.417L266.338 278.203C266.749 278.082 267.155 277.858 267.453 277.534L289.726 289.22C289.73 289.324 289.734 289.428 289.739 289.531C289.797 290.985 290.776 292.09 292.041 292.559L292.552 305.227C292.577 305.85 293.008 306.248 293.63 306.223C294.252 306.198 294.65 305.766 294.625 305.143L294.11 292.371C295.44 291.901 296.219 290.622 296.16 289.168C296.156 289.064 296.152 288.961 296.148 288.857L317.709 275.194C318.244 275.589 318.978 275.767 319.6 275.742C321.362 275.671 322.755 274.159 322.683 272.394C322.629 271.044 321.75 269.831 320.385 269.47ZM316.403 273.687L295.243 287.021C294.812 286.623 294.385 286.328 293.862 286.245L293.163 268.904C294.494 268.435 295.272 267.155 295.214 265.701C295.205 265.494 295.197 265.286 295.085 265.083L316.443 251.532C316.767 251.831 317.19 252.022 317.609 252.109L318.308 269.45C316.978 269.92 316.199 271.199 316.257 272.653C316.274 273.068 316.287 273.38 316.403 273.687ZM315.439 249.805L294.081 263.355C292.795 262.367 290.93 262.442 289.831 263.526L287.712 262.468L292.268 259.58C292.57 259.36 292.765 259.04 292.748 258.625L291.91 237.857C292.42 237.629 292.827 237.404 293.121 236.977L315.286 248.563C315.294 248.771 315.199 248.983 315.207 249.19C315.319 249.394 315.327 249.601 315.439 249.805ZM290.861 265.877C290.856 265.773 290.852 265.669 290.852 265.669C290.844 265.462 291.043 265.246 291.242 265.03C291.441 264.814 291.747 264.697 291.955 264.689C292.266 264.676 292.477 264.772 292.796 264.967C293.008 265.062 293.124 265.37 293.132 265.577C293.137 265.681 293.137 265.681 293.141 265.785C293.162 266.304 292.868 266.732 292.358 266.961C292.155 267.073 291.947 267.081 291.632 266.99C291.213 266.903 290.882 266.396 290.861 265.877ZM290.65 258.085L285.589 261.305L267.455 251.845C267.447 251.637 267.438 251.429 267.434 251.325C267.426 251.118 267.417 250.91 267.305 250.707L288.56 237.161C288.888 237.563 289.415 237.75 289.838 237.941L290.65 258.085ZM268.377 274.688L285.686 263.694L288.866 265.333C288.875 265.541 288.779 265.753 288.788 265.961C288.846 267.414 289.825 268.519 291.09 268.988L291.789 286.329C291.28 286.557 290.878 286.885 290.476 287.214L268.414 275.623C268.406 275.415 268.501 275.203 268.493 274.996C268.489 274.892 268.485 274.788 268.377 274.688ZM319.118 271.497C319.321 271.385 319.528 271.377 319.843 271.468C320.365 271.551 320.697 272.058 320.718 272.577C320.752 273.408 319.74 274.072 318.998 273.686C318.787 273.591 318.675 273.387 318.567 273.288L318.563 273.184C318.455 273.084 318.446 272.877 318.442 272.773C318.313 272.154 318.603 271.622 319.118 271.497ZM318.881 250.186C318.678 250.298 318.47 250.307 318.155 250.215C318.052 250.22 317.84 250.124 317.732 250.024C317.521 249.929 317.405 249.622 317.396 249.414C317.392 249.31 317.392 249.31 317.388 249.206C317.384 249.102 317.379 248.999 317.379 248.999C317.47 248.683 317.566 248.471 317.769 248.359C317.968 248.143 318.275 248.026 318.482 248.018C319.104 247.993 319.643 248.491 319.668 249.114C319.685 249.53 319.391 249.958 318.881 250.186ZM291.996 234.838C292.005 235.045 291.914 235.361 291.71 235.473C291.611 235.581 291.516 235.793 291.205 235.806C291.002 235.918 290.794 235.926 290.479 235.835C290.268 235.74 290.056 235.644 289.948 235.544C289.733 235.345 289.724 235.137 289.608 234.83C289.583 234.207 290.08 233.667 290.702 233.642C291.324 233.617 291.863 234.115 291.888 234.738L291.996 234.838ZM266.087 271.973L265.379 254.424C265.79 254.304 266.192 253.976 266.49 253.652L283.463 262.639L267.468 272.749C267.144 272.45 266.614 272.159 266.087 271.973ZM265.461 251.301C265.465 251.405 265.465 251.405 265.469 251.509C265.478 251.716 265.382 251.928 265.183 252.144C265.084 252.252 264.881 252.364 264.678 252.477C264.475 252.589 264.267 252.597 263.952 252.506C263.426 252.319 263.098 251.916 263.077 251.397C263.052 250.774 263.549 250.234 264.171 250.209C264.482 250.196 264.693 250.292 265.013 250.487C265.224 250.582 265.336 250.786 265.349 251.097C265.457 251.197 265.457 251.197 265.461 251.301ZM264.036 275.175C264.015 274.656 264.309 274.228 264.819 274C264.923 273.996 265.022 273.888 265.126 273.883C265.23 273.879 265.333 273.875 265.545 273.971C265.756 274.066 265.968 274.162 266.08 274.365C266.192 274.569 266.304 274.772 266.316 275.084C266.321 275.187 266.325 275.291 266.325 275.291C266.229 275.503 266.138 275.819 265.935 275.931C265.836 276.039 265.736 276.147 265.529 276.155L265.425 276.16C265.43 276.263 265.123 276.38 264.911 276.284C264.385 276.097 264.057 275.695 264.036 275.175ZM291.807 289.344C291.799 289.136 291.89 288.821 291.985 288.609C292.081 288.397 292.284 288.285 292.59 288.168C292.694 288.164 292.793 288.056 292.897 288.052C293.001 288.048 293.104 288.044 293.316 288.139C293.527 288.234 293.739 288.33 293.851 288.533C293.963 288.737 294.075 288.94 294.087 289.252C294.108 289.771 293.814 290.199 293.304 290.428C293.101 290.54 292.894 290.548 292.579 290.457C292.16 290.37 291.828 289.863 291.807 289.344Z" fill="#49D1FF"/>
<path d="M396.125 319.702L375.603 305.145L375.948 313.71L333.403 315.428L339.891 307.731C344.577 302.108 348.266 295.839 350.846 288.986L350.844 288.928C353.884 280.741 355.253 272.163 354.905 263.541C354.553 254.804 352.5 246.365 348.815 238.563C345.252 230.928 340.297 224.208 334.129 218.565C327.959 212.866 320.87 208.462 313.039 205.518L312.98 205.463C304.803 202.419 296.294 201.047 287.682 201.394C278.956 201.747 270.528 203.803 262.736 207.492C255.111 211.06 248.399 216.021 242.764 222.197C237.072 228.375 232.674 235.474 229.734 243.314L229.736 243.371C226.698 251.616 225.328 260.136 225.672 268.702C226.024 277.439 228.078 285.878 231.762 293.679C234.888 300.36 239.069 306.311 244.192 311.538L251.277 318.687L208.22 320.426L208.774 334.188L376.443 327.418L376.781 335.812L396.125 319.702ZM292.399 317.084C264.283 318.219 240.551 296.299 239.419 268.204C238.288 240.109 260.18 216.346 288.239 215.213C316.298 214.08 340.03 236.001 341.161 264.096C341.708 277.686 336.974 290.632 327.725 300.672C318.533 310.709 305.972 316.536 292.399 317.084Z" fill="#BCEEFF"/>
<path d="M221.872 286.609C221.357 286.996 221.872 286.609 209.112 286.35C209.369 286.48 219.939 290.093 217.876 290.739C215.427 291.513 207.565 290.351 206.92 290.222C207.565 290.48 215.17 293.191 213.494 293.578C211.818 293.965 189.004 289.577 189.004 289.577L181.141 289.706C179.852 289.706 178.435 289.577 177.146 289.577C175.212 289.448 173.408 289.448 171.603 289.319C168.896 289.19 166.19 288.932 163.612 288.674L156.909 288.415C78.0254 285.318 60.8824 262.861 60.109 259.635C58.3045 256.667 63.8469 244.793 73.2563 228.918L89.3681 237.824L89.6259 237.953L97.6175 242.341C97.4886 242.599 97.2307 242.857 97.1018 242.986C95.2973 245.567 93.7506 248.148 92.3327 250.472C122.107 262.474 146.082 267.766 167.865 271.508C169.412 271.767 170.959 272.025 172.505 272.283C174.439 272.541 176.243 272.928 178.048 273.186C179.724 273.444 181.27 273.703 182.688 273.961C183.977 274.219 185.137 274.348 186.426 274.606C188.746 274.993 190.164 275.251 190.293 275.251L201.893 277.058C201.893 277.058 219.939 280.285 219.036 281.833C218.134 283.253 208.854 282.608 208.596 282.608C209.24 282.866 223.29 285.447 221.872 286.609Z" fill="#FCC9A7"/>
<path d="M178.311 273.444L177.15 289.577C175.217 289.448 173.413 289.448 171.608 289.319L172.768 272.541C174.83 272.928 176.635 273.186 178.311 273.444Z" fill="#36255A"/>
<path d="M177.795 288.028L170.705 287.512C169.416 287.383 168.514 286.35 168.643 285.059L169.288 276.412C169.416 275.122 170.448 274.218 171.737 274.347L178.826 274.864C180.115 274.993 181.017 276.025 180.888 277.316L180.244 285.963C180.115 287.254 179.084 288.157 177.795 288.028Z" fill="#36255A" stroke="white" stroke-miterlimit="10"/>
</g>
<defs>
<linearGradient id="paint0_linear_422_16790" x1="327.208" y1="220.977" x2="327.208" y2="18.3514" gradientUnits="userSpaceOnUse">
<stop stop-color="#49D1FF"/>
<stop offset="0.5624" stop-color="#49D1FF" stop-opacity="0"/>
</linearGradient>
<linearGradient id="paint1_linear_422_16790" x1="254.965" y1="444.098" x2="247.292" y2="50.0126" gradientUnits="userSpaceOnUse">
<stop stop-color="#49D1FF"/>
<stop offset="0.5624" stop-color="#49D1FF" stop-opacity="0"/>
</linearGradient>
<linearGradient id="paint2_linear_422_16790" x1="158.852" y1="79.7347" x2="244.375" y2="79.7347" gradientUnits="userSpaceOnUse">
<stop stop-color="#A8A7D3"/>
<stop offset="0.8063" stop-color="#A8A7D3" stop-opacity="0"/>
</linearGradient>
<clipPath id="clip0_422_16790">
<rect y="0.5" width="503" height="452" rx="22.6421" fill="white"/>
</clipPath>
</defs>
</svg>
