<svg width="528" height="218" viewBox="0 0 528 218" fill="none" xmlns="http://www.w3.org/2000/svg">
<g clip-path="url(#clip0)">
<path opacity="0.4" d="M450.689 59.6653C457.687 59.6653 463.359 54.0039 463.359 47.0203C463.359 40.0366 457.687 34.3752 450.689 34.3752C443.692 34.3752 438.02 40.0366 438.02 47.0203C438.02 54.0039 443.692 59.6653 450.689 59.6653Z" fill="url(#paint0_linear)"/>
<path opacity="0.4" d="M492.576 121.768C471.964 109.671 445.429 116.541 433.308 137.112C421.187 157.684 428.071 184.167 448.683 196.264C469.295 208.361 495.83 201.491 507.95 180.92C520.071 160.348 513.188 133.865 492.576 121.768Z" fill="url(#paint1_linear)"/>
<path opacity="0.4" d="M325.525 117.582C325.458 117.781 325.392 117.979 325.259 118.112C325.126 118.377 325.06 118.576 324.927 118.774C324.795 118.973 324.728 119.172 324.662 119.37C324.596 119.437 324.596 119.503 324.529 119.569C324.463 119.702 324.396 119.834 324.396 119.9C322.405 124.14 319.95 128.445 317.162 132.751C314.839 137.122 312.118 141.494 308.999 145.8C308.733 146.131 308.534 146.462 308.269 146.793C307.472 147.919 306.543 149.045 305.68 150.171C304.818 151.298 303.822 152.49 302.893 153.616C302.628 153.881 302.428 154.212 302.163 154.477C301.964 154.742 301.698 155.007 301.499 155.272C300.371 156.53 299.243 157.789 298.114 159.047C297.65 159.577 297.119 160.107 296.654 160.637L296.588 160.703C294.73 162.691 292.739 164.612 290.748 166.532C290.615 166.665 290.482 166.797 290.349 166.864C290.084 167.062 289.885 167.327 289.619 167.526C288.093 168.983 286.434 170.441 284.841 171.832L284.642 171.964C284.509 172.096 284.376 172.163 284.243 172.295C283.978 172.494 283.779 172.693 283.513 172.891C281.788 174.415 279.996 175.872 278.138 177.329C273.691 180.84 268.979 184.152 264.067 187.331C259.886 190.047 255.572 192.631 251.059 195.081C238.914 201.705 225.706 207.269 211.835 211.177C211.57 211.244 211.371 211.31 211.105 211.376C209.313 211.906 207.521 212.37 205.729 212.833C205.464 212.9 205.265 212.966 204.999 213.032C204.933 213.032 204.867 213.098 204.734 213.098C194.447 215.615 183.894 217.205 173.076 217.801C170.421 217.934 167.766 218 165.112 218C162.523 218 160.068 217.934 157.678 217.735C155.09 217.536 152.634 217.205 150.312 216.808C130.268 213.165 118.189 201.904 109.163 187.331C104.053 179.184 99.8713 169.977 95.8229 160.571C95.4246 159.577 94.9601 158.584 94.5619 157.59C94.23 156.795 93.8982 156 93.5663 155.206C91.6416 150.701 89.6506 146.197 87.5931 141.759C82.35 130.565 76.4432 119.9 68.2799 111.024C55.1389 91.1526 52.8823 71.8109 60.913 56.576C61.1121 56.311 63.2359 53.9264 64.4969 50.9456C73.1248 39.4863 88.3232 30.9415 109.893 27.0997C127.082 24.0527 184.425 9.9438 236.989 14.9117C243.095 15.5079 249.201 16.3027 255.108 17.495C261.877 20.9395 268.249 26.3048 269.178 34.2535C269.244 34.7171 269.244 35.247 269.31 35.777C269.377 39.6188 271.368 41.6722 274.686 42.6658C281.655 44.7854 294.464 42.0696 307.074 40.7449C318.224 39.6188 329.308 39.5526 335.945 45.1829C351.342 58.1657 330.701 106.255 325.525 117.582Z" fill="url(#paint2_linear)"/>
<path d="M257.839 104.276V98.7675H259.063V104.06C259.063 106.184 259.789 107.246 261.241 107.246C261.961 107.246 262.633 107.012 263.257 106.544C263.893 106.076 264.349 105.452 264.625 104.672V98.7675H265.849V106.67C265.849 106.994 265.993 107.162 266.281 107.174V108.146C266.137 108.17 266.023 108.182 265.939 108.182C265.867 108.182 265.789 108.182 265.705 108.182C265.453 108.158 265.237 108.062 265.057 107.894C264.889 107.726 264.805 107.522 264.805 107.282L264.769 106.022C264.361 106.754 263.803 107.324 263.095 107.732C262.399 108.128 261.643 108.326 260.827 108.326C258.835 108.326 257.839 106.976 257.839 104.276ZM276.681 108.146H275.457V102.908C275.457 101.804 275.289 101 274.953 100.496C274.629 99.9795 274.125 99.7215 273.441 99.7215C272.961 99.7215 272.487 99.8415 272.019 100.082C271.551 100.31 271.137 100.628 270.777 101.036C270.429 101.432 270.177 101.888 270.021 102.404V108.146H268.797V98.7675H269.913V100.892C270.285 100.208 270.831 99.6555 271.551 99.2355C272.271 98.8155 273.051 98.6055 273.891 98.6055C274.587 98.6055 275.139 98.7735 275.547 99.1095C275.955 99.4335 276.243 99.9015 276.411 100.514C276.591 101.114 276.681 101.828 276.681 102.656V108.146ZM279.471 96.8055V95.0055H280.695V96.8055H279.471ZM279.471 108.146V98.7675H280.695V108.146H279.471ZM287.189 108.326C286.337 108.326 285.593 108.098 284.957 107.642C284.321 107.186 283.823 106.592 283.463 105.86C283.115 105.116 282.941 104.318 282.941 103.466C282.941 102.806 283.055 102.188 283.283 101.612C283.511 101.024 283.823 100.508 284.219 100.064C284.627 99.6075 285.101 99.2535 285.641 99.0015C286.181 98.7375 286.769 98.6055 287.405 98.6055C288.137 98.6055 288.809 98.7975 289.421 99.1815C290.045 99.5535 290.531 100.028 290.879 100.604V98.7675H291.977V111.98H290.753V106.202C289.829 107.618 288.641 108.326 287.189 108.326ZM287.567 107.246C288.299 107.246 288.929 107.03 289.457 106.598C289.997 106.154 290.429 105.632 290.753 105.032V102.134C290.693 101.702 290.495 101.3 290.159 100.928C289.835 100.556 289.445 100.256 288.989 100.028C288.533 99.7995 288.083 99.6855 287.639 99.6855C286.967 99.6855 286.367 99.8715 285.839 100.244C285.323 100.604 284.915 101.078 284.615 101.666C284.327 102.242 284.183 102.848 284.183 103.484C284.183 104.168 284.327 104.798 284.615 105.374C284.903 105.938 285.299 106.394 285.803 106.742C286.319 107.078 286.907 107.246 287.567 107.246ZM294.77 104.276V98.7675H295.994V104.06C295.994 106.184 296.72 107.246 298.172 107.246C298.892 107.246 299.564 107.012 300.188 106.544C300.824 106.076 301.28 105.452 301.556 104.672V98.7675H302.78V106.67C302.78 106.994 302.924 107.162 303.212 107.174V108.146C303.068 108.17 302.954 108.182 302.87 108.182C302.798 108.182 302.72 108.182 302.636 108.182C302.384 108.158 302.168 108.062 301.988 107.894C301.82 107.726 301.736 107.522 301.736 107.282L301.7 106.022C301.292 106.754 300.734 107.324 300.026 107.732C299.33 108.128 298.574 108.326 297.758 108.326C295.766 108.326 294.77 106.976 294.77 104.276ZM309.778 108.326C308.878 108.326 308.074 108.104 307.366 107.66C306.658 107.216 306.1 106.622 305.692 105.878C305.284 105.134 305.08 104.318 305.08 103.43C305.08 102.554 305.278 101.75 305.674 101.018C306.082 100.286 306.64 99.7035 307.348 99.2715C308.056 98.8275 308.86 98.6055 309.76 98.6055C310.684 98.6055 311.494 98.8275 312.19 99.2715C312.886 99.7155 313.426 100.304 313.81 101.036C314.206 101.756 314.404 102.548 314.404 103.412C314.404 103.604 314.398 103.766 314.386 103.898H306.358C306.418 104.57 306.61 105.17 306.934 105.698C307.258 106.214 307.672 106.628 308.176 106.94C308.68 107.24 309.232 107.39 309.832 107.39C310.444 107.39 311.02 107.234 311.56 106.922C312.1 106.61 312.484 106.202 312.712 105.698L313.774 105.986C313.582 106.442 313.282 106.85 312.874 107.21C312.478 107.558 312.016 107.834 311.488 108.038C310.96 108.23 310.39 108.326 309.778 108.326ZM306.322 103.016H313.252C313.204 102.344 313.018 101.75 312.694 101.234C312.37 100.706 311.956 100.298 311.452 100.01C310.948 99.7095 310.39 99.5595 309.778 99.5595C309.166 99.5595 308.608 99.7095 308.104 100.01C307.6 100.298 307.186 100.706 306.862 101.234C306.55 101.75 306.37 102.344 306.322 103.016ZM326.028 108.326C325.248 108.326 324.546 108.122 323.922 107.714C323.31 107.306 322.824 106.802 322.464 106.202V111.98H321.24V98.7675H322.338V100.586C322.71 99.9975 323.202 99.5235 323.814 99.1635C324.438 98.7915 325.11 98.6055 325.83 98.6055C326.478 98.6055 327.072 98.7435 327.612 99.0195C328.152 99.2835 328.62 99.6435 329.016 100.1C329.424 100.556 329.736 101.078 329.952 101.666C330.168 102.242 330.276 102.842 330.276 103.466C330.276 104.342 330.096 105.152 329.736 105.896C329.388 106.628 328.89 107.216 328.242 107.66C327.606 108.104 326.868 108.326 326.028 108.326ZM325.686 107.246C326.37 107.246 326.958 107.066 327.45 106.706C327.954 106.334 328.344 105.86 328.62 105.284C328.896 104.708 329.034 104.102 329.034 103.466C329.034 102.794 328.878 102.17 328.566 101.594C328.254 101.018 327.834 100.556 327.306 100.208C326.79 99.8595 326.202 99.6855 325.542 99.6855C325.134 99.6855 324.702 99.7935 324.246 100.01C323.802 100.214 323.406 100.496 323.058 100.856C322.722 101.204 322.524 101.588 322.464 102.008V104.888C322.74 105.548 323.172 106.106 323.76 106.562C324.348 107.018 324.99 107.246 325.686 107.246ZM337.209 99.8475C336.393 99.8715 335.673 100.1 335.049 100.532C334.437 100.964 334.005 101.558 333.753 102.314V108.146H332.529V98.7675H333.681V101.018C334.005 100.358 334.431 99.8235 334.959 99.4155C335.499 99.0075 336.069 98.7795 336.669 98.7315C336.789 98.7195 336.891 98.7135 336.975 98.7135C337.059 98.7135 337.137 98.7195 337.209 98.7315V99.8475ZM342.735 108.326C341.835 108.326 341.031 108.104 340.323 107.66C339.627 107.216 339.081 106.628 338.685 105.896C338.289 105.152 338.091 104.348 338.091 103.484C338.091 102.608 338.289 101.804 338.685 101.072C339.093 100.328 339.645 99.7335 340.341 99.2895C341.049 98.8335 341.847 98.6055 342.735 98.6055C343.635 98.6055 344.433 98.8335 345.129 99.2895C345.837 99.7335 346.389 100.328 346.785 101.072C347.193 101.804 347.397 102.608 347.397 103.484C347.397 104.348 347.199 105.152 346.803 105.896C346.407 106.628 345.855 107.216 345.147 107.66C344.451 108.104 343.647 108.326 342.735 108.326ZM339.333 103.502C339.333 104.198 339.483 104.834 339.783 105.41C340.095 105.974 340.509 106.424 341.025 106.76C341.541 107.084 342.111 107.246 342.735 107.246C343.359 107.246 343.929 107.078 344.445 106.742C344.961 106.406 345.375 105.95 345.687 105.374C345.999 104.798 346.155 104.162 346.155 103.466C346.155 102.77 345.999 102.134 345.687 101.558C345.375 100.982 344.961 100.526 344.445 100.19C343.929 99.8535 343.359 99.6855 342.735 99.6855C342.123 99.6855 341.559 99.8595 341.043 100.208C340.527 100.544 340.113 101 339.801 101.576C339.489 102.152 339.333 102.794 339.333 103.502ZM353.386 108.272C352.738 108.272 352.144 108.14 351.604 107.876C351.076 107.612 350.614 107.258 350.218 106.814C349.834 106.358 349.534 105.842 349.318 105.266C349.102 104.69 348.994 104.096 348.994 103.484C348.994 102.608 349.18 101.804 349.552 101.072C349.924 100.328 350.434 99.7335 351.082 99.2895C351.742 98.8335 352.498 98.6055 353.35 98.6055C354.154 98.6055 354.85 98.8095 355.438 99.2175C356.038 99.6255 356.542 100.13 356.95 100.73V98.7675H358.048V108.182C358.048 109.058 357.838 109.79 357.418 110.378C356.998 110.966 356.44 111.41 355.744 111.71C355.048 112.01 354.286 112.16 353.458 112.16C352.378 112.16 351.508 111.968 350.848 111.584C350.2 111.2 349.666 110.684 349.246 110.036L350.002 109.442C350.374 110.03 350.866 110.468 351.478 110.756C352.102 111.044 352.762 111.188 353.458 111.188C354.07 111.188 354.628 111.074 355.132 110.846C355.648 110.63 356.056 110.3 356.356 109.856C356.668 109.412 356.824 108.854 356.824 108.182V106.328C356.464 106.916 355.972 107.39 355.348 107.75C354.724 108.098 354.07 108.272 353.386 108.272ZM353.728 107.246C354.22 107.246 354.688 107.132 355.132 106.904C355.576 106.676 355.948 106.388 356.248 106.04C356.56 105.68 356.752 105.308 356.824 104.924V102.026C356.644 101.57 356.386 101.168 356.05 100.82C355.714 100.46 355.33 100.184 354.898 99.9915C354.466 99.7875 354.028 99.6855 353.584 99.6855C352.888 99.6855 352.288 99.8775 351.784 100.262C351.292 100.634 350.908 101.114 350.632 101.702C350.368 102.278 350.236 102.878 350.236 103.502C350.236 104.174 350.392 104.798 350.704 105.374C351.016 105.938 351.436 106.394 351.964 106.742C352.492 107.078 353.08 107.246 353.728 107.246ZM365.611 99.8475C364.795 99.8715 364.075 100.1 363.451 100.532C362.839 100.964 362.407 101.558 362.155 102.314V108.146H360.931V98.7675H362.083V101.018C362.407 100.358 362.833 99.8235 363.361 99.4155C363.901 99.0075 364.471 98.7795 365.071 98.7315C365.191 98.7195 365.293 98.7135 365.377 98.7135C365.461 98.7135 365.539 98.7195 365.611 98.7315V99.8475ZM366.63 105.446C366.63 104.87 366.798 104.372 367.134 103.952C367.47 103.52 367.932 103.184 368.52 102.944C369.12 102.704 369.81 102.584 370.59 102.584C371.046 102.584 371.52 102.626 372.012 102.71C372.504 102.782 372.942 102.884 373.326 103.016V102.224C373.326 101.432 373.092 100.802 372.624 100.334C372.156 99.8655 371.508 99.6315 370.68 99.6315C370.188 99.6315 369.696 99.7275 369.204 99.9195C368.712 100.1 368.202 100.37 367.674 100.73L367.206 99.8655C367.818 99.4455 368.418 99.1335 369.006 98.9295C369.594 98.7135 370.194 98.6055 370.806 98.6055C371.958 98.6055 372.87 98.9355 373.542 99.5955C374.214 100.256 374.55 101.168 374.55 102.332V106.67C374.55 106.994 374.7 107.162 375 107.174V108.146C374.736 108.182 374.55 108.194 374.442 108.182C374.142 108.17 373.914 108.074 373.758 107.894C373.602 107.714 373.518 107.522 373.506 107.318L373.488 106.634C373.068 107.174 372.522 107.594 371.85 107.894C371.178 108.182 370.494 108.326 369.798 108.326C369.186 108.326 368.64 108.2 368.16 107.948C367.68 107.684 367.302 107.336 367.026 106.904C366.762 106.46 366.63 105.974 366.63 105.446ZM372.912 106.166C373.188 105.842 373.326 105.542 373.326 105.266V103.898C372.498 103.574 371.634 103.412 370.734 103.412C369.858 103.412 369.15 103.586 368.61 103.934C368.07 104.282 367.8 104.756 367.8 105.356C367.8 105.872 367.998 106.34 368.394 106.76C368.802 107.18 369.366 107.39 370.086 107.39C370.674 107.39 371.22 107.276 371.724 107.048C372.24 106.82 372.636 106.526 372.912 106.166ZM391.325 108.146H390.101V102.908C390.101 101.828 389.927 101.03 389.579 100.514C389.231 99.9855 388.715 99.7215 388.031 99.7215C387.311 99.7215 386.675 99.9735 386.123 100.478C385.571 100.982 385.181 101.63 384.953 102.422V108.146H383.729V102.908C383.729 101.804 383.555 101 383.207 100.496C382.871 99.9795 382.361 99.7215 381.677 99.7215C380.969 99.7215 380.333 99.9675 379.769 100.46C379.217 100.952 378.827 101.6 378.599 102.404V108.146H377.375V98.7675H378.491V100.892C378.875 100.172 379.379 99.6135 380.003 99.2175C380.627 98.8095 381.317 98.6055 382.073 98.6055C382.853 98.6055 383.483 98.8335 383.963 99.2895C384.443 99.7335 384.737 100.31 384.845 101.018C385.709 99.4095 386.915 98.6055 388.463 98.6055C389.519 98.6055 390.257 98.9775 390.677 99.7215C391.109 100.454 391.325 101.432 391.325 102.656V108.146ZM397.174 108.326C396.406 108.326 395.692 108.2 395.032 107.948C394.384 107.684 393.814 107.3 393.322 106.796L393.826 105.932C394.354 106.424 394.882 106.784 395.41 107.012C395.95 107.228 396.52 107.336 397.12 107.336C397.84 107.336 398.428 107.192 398.884 106.904C399.352 106.604 399.586 106.178 399.586 105.626C399.586 105.254 399.472 104.972 399.244 104.78C399.028 104.576 398.71 104.414 398.29 104.294C397.882 104.174 397.39 104.036 396.814 103.88C396.166 103.7 395.62 103.514 395.176 103.322C394.744 103.118 394.414 102.866 394.186 102.566C393.97 102.254 393.862 101.852 393.862 101.36C393.862 100.76 394.012 100.256 394.312 99.8475C394.624 99.4395 395.044 99.1335 395.572 98.9295C396.112 98.7135 396.712 98.6055 397.372 98.6055C398.092 98.6055 398.728 98.7195 399.28 98.9475C399.832 99.1755 400.282 99.4935 400.63 99.9015L400.036 100.73C399.712 100.346 399.31 100.064 398.83 99.8835C398.362 99.6915 397.852 99.5955 397.3 99.5955C396.916 99.5955 396.55 99.6495 396.202 99.7575C395.854 99.8535 395.566 100.022 395.338 100.262C395.122 100.49 395.014 100.808 395.014 101.216C395.014 101.72 395.2 102.068 395.572 102.26C395.944 102.452 396.508 102.656 397.264 102.872C397.972 103.064 398.59 103.256 399.118 103.448C399.646 103.64 400.054 103.898 400.342 104.222C400.63 104.534 400.774 104.972 400.774 105.536C400.774 106.412 400.444 107.096 399.784 107.588C399.124 108.08 398.254 108.326 397.174 108.326ZM408.195 108.146V99.7395H406.899V98.7675H408.195V98.5155C408.195 97.3635 408.441 96.4635 408.933 95.8155C409.437 95.1555 410.109 94.8255 410.949 94.8255C411.309 94.8255 411.663 94.8795 412.011 94.9875C412.371 95.0955 412.677 95.2395 412.929 95.4195L412.551 96.3015C412.191 96.0255 411.735 95.8875 411.183 95.8875C410.619 95.8875 410.181 96.1095 409.869 96.5535C409.569 96.9975 409.419 97.6395 409.419 98.4795V98.7675H412.011V99.7395H409.419V108.146H408.195ZM417.581 108.326C416.681 108.326 415.877 108.104 415.169 107.66C414.473 107.216 413.927 106.628 413.531 105.896C413.135 105.152 412.937 104.348 412.937 103.484C412.937 102.608 413.135 101.804 413.531 101.072C413.939 100.328 414.491 99.7335 415.187 99.2895C415.895 98.8335 416.693 98.6055 417.581 98.6055C418.481 98.6055 419.279 98.8335 419.975 99.2895C420.683 99.7335 421.235 100.328 421.631 101.072C422.039 101.804 422.243 102.608 422.243 103.484C422.243 104.348 422.045 105.152 421.649 105.896C421.253 106.628 420.701 107.216 419.993 107.66C419.297 108.104 418.493 108.326 417.581 108.326ZM414.179 103.502C414.179 104.198 414.329 104.834 414.629 105.41C414.941 105.974 415.355 106.424 415.871 106.76C416.387 107.084 416.957 107.246 417.581 107.246C418.205 107.246 418.775 107.078 419.291 106.742C419.807 106.406 420.221 105.95 420.533 105.374C420.845 104.798 421.001 104.162 421.001 103.466C421.001 102.77 420.845 102.134 420.533 101.558C420.221 100.982 419.807 100.526 419.291 100.19C418.775 99.8535 418.205 99.6855 417.581 99.6855C416.969 99.6855 416.405 99.8595 415.889 100.208C415.373 100.544 414.959 101 414.647 101.576C414.335 102.152 414.179 102.794 414.179 103.502ZM429.15 99.8475C428.334 99.8715 427.614 100.1 426.99 100.532C426.378 100.964 425.946 101.558 425.694 102.314V108.146H424.47V98.7675H425.622V101.018C425.946 100.358 426.372 99.8235 426.9 99.4155C427.44 99.0075 428.01 98.7795 428.61 98.7315C428.73 98.7195 428.832 98.7135 428.916 98.7135C429 98.7135 429.078 98.7195 429.15 98.7315V99.8475ZM272.255 136.696C272.111 136.756 271.847 136.864 271.463 137.02C271.079 137.176 270.635 137.254 270.131 137.254C269.603 137.254 269.141 137.104 268.745 136.804C268.349 136.504 268.151 136.054 268.151 135.454V128.74H266.855V127.768H268.151V124.6H269.375V127.768H271.535V128.74H269.375V135.112C269.399 135.46 269.519 135.718 269.735 135.886C269.963 136.042 270.221 136.12 270.509 136.12C270.845 136.12 271.145 136.066 271.409 135.958C271.685 135.838 271.859 135.754 271.931 135.706L272.255 136.696ZM277.856 137.326C276.956 137.326 276.152 137.104 275.444 136.66C274.736 136.216 274.178 135.622 273.77 134.878C273.362 134.134 273.158 133.318 273.158 132.43C273.158 131.554 273.356 130.75 273.752 130.018C274.16 129.286 274.718 128.704 275.426 128.272C276.134 127.828 276.938 127.606 277.838 127.606C278.762 127.606 279.572 127.828 280.268 128.272C280.964 128.716 281.504 129.304 281.888 130.036C282.284 130.756 282.482 131.548 282.482 132.412C282.482 132.604 282.476 132.766 282.464 132.898H274.436C274.496 133.57 274.688 134.17 275.012 134.698C275.336 135.214 275.75 135.628 276.254 135.94C276.758 136.24 277.31 136.39 277.91 136.39C278.522 136.39 279.098 136.234 279.638 135.922C280.178 135.61 280.562 135.202 280.79 134.698L281.852 134.986C281.66 135.442 281.36 135.85 280.952 136.21C280.556 136.558 280.094 136.834 279.566 137.038C279.038 137.23 278.468 137.326 277.856 137.326ZM274.4 132.016H281.33C281.282 131.344 281.096 130.75 280.772 130.234C280.448 129.706 280.034 129.298 279.53 129.01C279.026 128.71 278.468 128.56 277.856 128.56C277.244 128.56 276.686 128.71 276.182 129.01C275.678 129.298 275.264 129.706 274.94 130.234C274.628 130.75 274.448 131.344 274.4 132.016ZM283.795 134.446C283.795 133.87 283.963 133.372 284.299 132.952C284.635 132.52 285.097 132.184 285.685 131.944C286.285 131.704 286.975 131.584 287.755 131.584C288.211 131.584 288.685 131.626 289.177 131.71C289.669 131.782 290.107 131.884 290.491 132.016V131.224C290.491 130.432 290.257 129.802 289.789 129.334C289.321 128.866 288.673 128.632 287.845 128.632C287.353 128.632 286.861 128.728 286.369 128.92C285.877 129.1 285.367 129.37 284.839 129.73L284.371 128.866C284.983 128.446 285.583 128.134 286.171 127.93C286.759 127.714 287.359 127.606 287.971 127.606C289.123 127.606 290.035 127.936 290.707 128.596C291.379 129.256 291.715 130.168 291.715 131.332V135.67C291.715 135.994 291.865 136.162 292.165 136.174V137.146C291.901 137.182 291.715 137.194 291.607 137.182C291.307 137.17 291.079 137.074 290.923 136.894C290.767 136.714 290.683 136.522 290.671 136.318L290.653 135.634C290.233 136.174 289.687 136.594 289.015 136.894C288.343 137.182 287.659 137.326 286.963 137.326C286.351 137.326 285.805 137.2 285.325 136.948C284.845 136.684 284.467 136.336 284.191 135.904C283.927 135.46 283.795 134.974 283.795 134.446ZM290.077 135.166C290.353 134.842 290.491 134.542 290.491 134.266V132.898C289.663 132.574 288.799 132.412 287.899 132.412C287.023 132.412 286.315 132.586 285.775 132.934C285.235 133.282 284.965 133.756 284.965 134.356C284.965 134.872 285.163 135.34 285.559 135.76C285.967 136.18 286.531 136.39 287.251 136.39C287.839 136.39 288.385 136.276 288.889 136.048C289.405 135.82 289.801 135.526 290.077 135.166ZM308.489 137.146H307.265V131.908C307.265 130.828 307.091 130.03 306.743 129.514C306.395 128.986 305.879 128.722 305.195 128.722C304.475 128.722 303.839 128.974 303.287 129.478C302.735 129.982 302.345 130.63 302.117 131.422V137.146H300.893V131.908C300.893 130.804 300.719 130 300.371 129.496C300.035 128.98 299.525 128.722 298.841 128.722C298.133 128.722 297.497 128.968 296.933 129.46C296.381 129.952 295.991 130.6 295.763 131.404V137.146H294.539V127.768H295.655V129.892C296.039 129.172 296.543 128.614 297.167 128.218C297.791 127.81 298.481 127.606 299.237 127.606C300.017 127.606 300.647 127.834 301.127 128.29C301.607 128.734 301.901 129.31 302.009 130.018C302.873 128.41 304.079 127.606 305.627 127.606C306.683 127.606 307.421 127.978 307.841 128.722C308.273 129.454 308.489 130.432 308.489 131.656V137.146ZM320.078 137.326C319.178 137.326 318.374 137.104 317.666 136.66C316.958 136.216 316.4 135.622 315.992 134.878C315.584 134.134 315.38 133.318 315.38 132.43C315.38 131.554 315.578 130.75 315.974 130.018C316.382 129.286 316.94 128.704 317.648 128.272C318.356 127.828 319.16 127.606 320.06 127.606C320.984 127.606 321.794 127.828 322.49 128.272C323.186 128.716 323.726 129.304 324.11 130.036C324.506 130.756 324.704 131.548 324.704 132.412C324.704 132.604 324.698 132.766 324.686 132.898H316.658C316.718 133.57 316.91 134.17 317.234 134.698C317.558 135.214 317.972 135.628 318.476 135.94C318.98 136.24 319.532 136.39 320.132 136.39C320.744 136.39 321.32 136.234 321.86 135.922C322.4 135.61 322.784 135.202 323.012 134.698L324.074 134.986C323.882 135.442 323.582 135.85 323.174 136.21C322.778 136.558 322.316 136.834 321.788 137.038C321.26 137.23 320.69 137.326 320.078 137.326ZM316.622 132.016H323.552C323.504 131.344 323.318 130.75 322.994 130.234C322.67 129.706 322.256 129.298 321.752 129.01C321.248 128.71 320.69 128.56 320.078 128.56C319.466 128.56 318.908 128.71 318.404 129.01C317.9 129.298 317.486 129.706 317.162 130.234C316.85 130.75 316.67 131.344 316.622 132.016ZM329.316 137.146L325.518 127.768H326.796L330 135.922L333.222 127.768H334.428L330.63 137.146H329.316ZM339.984 137.326C339.084 137.326 338.28 137.104 337.572 136.66C336.876 136.216 336.33 135.628 335.934 134.896C335.538 134.152 335.34 133.348 335.34 132.484C335.34 131.608 335.538 130.804 335.934 130.072C336.342 129.328 336.894 128.734 337.59 128.29C338.298 127.834 339.096 127.606 339.984 127.606C340.884 127.606 341.682 127.834 342.378 128.29C343.086 128.734 343.638 129.328 344.034 130.072C344.442 130.804 344.646 131.608 344.646 132.484C344.646 133.348 344.448 134.152 344.052 134.896C343.656 135.628 343.104 136.216 342.396 136.66C341.7 137.104 340.896 137.326 339.984 137.326ZM336.582 132.502C336.582 133.198 336.732 133.834 337.032 134.41C337.344 134.974 337.758 135.424 338.274 135.76C338.79 136.084 339.36 136.246 339.984 136.246C340.608 136.246 341.178 136.078 341.694 135.742C342.21 135.406 342.624 134.95 342.936 134.374C343.248 133.798 343.404 133.162 343.404 132.466C343.404 131.77 343.248 131.134 342.936 130.558C342.624 129.982 342.21 129.526 341.694 129.19C341.178 128.854 340.608 128.686 339.984 128.686C339.372 128.686 338.808 128.86 338.292 129.208C337.776 129.544 337.362 130 337.05 130.576C336.738 131.152 336.582 131.794 336.582 132.502ZM346.927 124.006H348.151V135.022C348.151 135.49 348.229 135.796 348.385 135.94C348.553 136.084 348.763 136.156 349.015 136.156C349.231 136.156 349.447 136.132 349.663 136.084C349.891 136.036 350.077 135.988 350.221 135.94L350.437 136.93C350.209 137.026 349.927 137.104 349.591 137.164C349.267 137.224 348.985 137.254 348.745 137.254C348.193 137.254 347.749 137.092 347.413 136.768C347.089 136.444 346.927 136 346.927 135.436V124.006ZM354.448 137.146L350.65 127.768H351.928L355.132 135.922L358.354 127.768H359.56L355.762 137.146H354.448ZM365.169 137.326C364.269 137.326 363.465 137.104 362.757 136.66C362.049 136.216 361.491 135.622 361.083 134.878C360.675 134.134 360.471 133.318 360.471 132.43C360.471 131.554 360.669 130.75 361.065 130.018C361.473 129.286 362.031 128.704 362.739 128.272C363.447 127.828 364.251 127.606 365.151 127.606C366.075 127.606 366.885 127.828 367.581 128.272C368.277 128.716 368.817 129.304 369.201 130.036C369.597 130.756 369.795 131.548 369.795 132.412C369.795 132.604 369.789 132.766 369.777 132.898H361.749C361.809 133.57 362.001 134.17 362.325 134.698C362.649 135.214 363.063 135.628 363.567 135.94C364.071 136.24 364.623 136.39 365.223 136.39C365.835 136.39 366.411 136.234 366.951 135.922C367.491 135.61 367.875 135.202 368.103 134.698L369.165 134.986C368.973 135.442 368.673 135.85 368.265 136.21C367.869 136.558 367.407 136.834 366.879 137.038C366.351 137.23 365.781 137.326 365.169 137.326ZM361.713 132.016H368.643C368.595 131.344 368.409 130.75 368.085 130.234C367.761 129.706 367.347 129.298 366.843 129.01C366.339 128.71 365.781 128.56 365.169 128.56C364.557 128.56 363.999 128.71 363.495 129.01C362.991 129.298 362.577 129.706 362.253 130.234C361.941 130.75 361.761 131.344 361.713 132.016ZM385.814 137.146H384.59V131.908C384.59 130.828 384.416 130.03 384.068 129.514C383.72 128.986 383.204 128.722 382.52 128.722C381.8 128.722 381.164 128.974 380.612 129.478C380.06 129.982 379.67 130.63 379.442 131.422V137.146H378.218V131.908C378.218 130.804 378.044 130 377.696 129.496C377.36 128.98 376.85 128.722 376.166 128.722C375.458 128.722 374.822 128.968 374.258 129.46C373.706 129.952 373.316 130.6 373.088 131.404V137.146H371.864V127.768H372.98V129.892C373.364 129.172 373.868 128.614 374.492 128.218C375.116 127.81 375.806 127.606 376.562 127.606C377.342 127.606 377.972 127.834 378.452 128.29C378.932 128.734 379.226 129.31 379.334 130.018C380.198 128.41 381.404 127.606 382.952 127.606C384.008 127.606 384.746 127.978 385.166 128.722C385.598 129.454 385.814 130.432 385.814 131.656V137.146ZM392.635 137.326C391.735 137.326 390.931 137.104 390.223 136.66C389.515 136.216 388.957 135.622 388.549 134.878C388.141 134.134 387.937 133.318 387.937 132.43C387.937 131.554 388.135 130.75 388.531 130.018C388.939 129.286 389.497 128.704 390.205 128.272C390.913 127.828 391.717 127.606 392.617 127.606C393.541 127.606 394.351 127.828 395.047 128.272C395.743 128.716 396.283 129.304 396.667 130.036C397.063 130.756 397.261 131.548 397.261 132.412C397.261 132.604 397.255 132.766 397.243 132.898H389.215C389.275 133.57 389.467 134.17 389.791 134.698C390.115 135.214 390.529 135.628 391.033 135.94C391.537 136.24 392.089 136.39 392.689 136.39C393.301 136.39 393.877 136.234 394.417 135.922C394.957 135.61 395.341 135.202 395.569 134.698L396.631 134.986C396.439 135.442 396.139 135.85 395.731 136.21C395.335 136.558 394.873 136.834 394.345 137.038C393.817 137.23 393.247 137.326 392.635 137.326ZM389.179 132.016H396.109C396.061 131.344 395.875 130.75 395.551 130.234C395.227 129.706 394.813 129.298 394.309 129.01C393.805 128.71 393.247 128.56 392.635 128.56C392.023 128.56 391.465 128.71 390.961 129.01C390.457 129.298 390.043 129.706 389.719 130.234C389.407 130.75 389.227 131.344 389.179 132.016ZM407.213 137.146H405.989V131.908C405.989 130.804 405.821 130 405.485 129.496C405.161 128.98 404.657 128.722 403.973 128.722C403.493 128.722 403.019 128.842 402.551 129.082C402.083 129.31 401.669 129.628 401.309 130.036C400.961 130.432 400.709 130.888 400.553 131.404V137.146H399.329V127.768H400.445V129.892C400.817 129.208 401.363 128.656 402.083 128.236C402.803 127.816 403.583 127.606 404.423 127.606C405.119 127.606 405.671 127.774 406.079 128.11C406.487 128.434 406.775 128.902 406.943 129.514C407.123 130.114 407.213 130.828 407.213 131.656V137.146ZM414.416 136.696C414.272 136.756 414.008 136.864 413.624 137.02C413.24 137.176 412.796 137.254 412.292 137.254C411.764 137.254 411.302 137.104 410.906 136.804C410.51 136.504 410.312 136.054 410.312 135.454V128.74H409.016V127.768H410.312V124.6H411.536V127.768H413.696V128.74H411.536V135.112C411.56 135.46 411.68 135.718 411.896 135.886C412.124 136.042 412.382 136.12 412.67 136.12C413.006 136.12 413.306 136.066 413.57 135.958C413.846 135.838 414.02 135.754 414.092 135.706L414.416 136.696Z" fill="#666666"/>
<path d="M330.112 79.4855C328.389 79.4855 326.825 79.0888 325.42 78.2955C324.037 77.5022 322.983 76.4368 322.258 75.0995L324.502 72.9575C325.137 73.9322 325.953 74.7142 326.95 75.3035C327.947 75.8702 329.013 76.1535 330.146 76.1535C331.529 76.1535 332.673 75.7228 333.58 74.8615C334.509 73.9775 334.974 72.8442 334.974 71.4615C334.974 70.1015 334.532 69.0022 333.648 68.1635C332.787 67.3022 331.71 66.8715 330.418 66.8715C329.557 66.8715 328.741 67.0642 327.97 67.4495C327.222 67.8348 326.621 68.3788 326.168 69.0815H322.836L325.59 55.0055H337.388V58.4395H328.31L327.086 65.0015C327.471 64.5935 327.993 64.2648 328.65 64.0155C329.307 63.7662 330.055 63.6415 330.894 63.6415C332.39 63.6415 333.739 63.9702 334.94 64.6275C336.141 65.2848 337.082 66.1915 337.762 67.3475C338.465 68.5035 338.816 69.8408 338.816 71.3595C338.816 72.9688 338.431 74.3855 337.66 75.6095C336.912 76.8335 335.881 77.7855 334.566 78.4655C333.251 79.1455 331.767 79.4855 330.112 79.4855ZM352.738 65.5795V68.5715H348.964V72.6855H345.598V68.5715H341.824V65.5795H345.598V61.4655H348.964V65.5795H352.738Z" fill="#36255A"/>
<g clip-path="url(#clip1)">
<path opacity="0.4" d="M29.3152 86.6555C45.0147 86.6555 57.7417 73.9285 57.7417 58.229C57.7417 42.5295 45.0147 29.8025 29.3152 29.8025C13.6156 29.8025 0.888672 42.5295 0.888672 58.229C0.888672 73.9285 13.6156 86.6555 29.3152 86.6555Z" fill="url(#paint3_linear)"/>
<path d="M168.979 35.5452L192.639 48.1217V85.3346L169.208 51.7971L168.979 35.5452Z" fill="#7ADDFF"/>
<path d="M168.976 35.5452V160.277H58.4863V95.9012L114.65 35.5452H168.976Z" fill="#49D1FF"/>
<path d="M169.868 9.34033L69.1035 19.7136L82.7405 152.182L183.505 141.808L169.868 9.34033Z" fill="white" stroke="#36255A" stroke-miterlimit="10" stroke-linecap="round"/>
<path d="M178.485 1.35376L77.7207 11.7271L91.3577 144.195L192.122 133.822L178.485 1.35376Z" fill="white" stroke="#36255A" stroke-miterlimit="10" stroke-linecap="round"/>
<path d="M58.4863 95.9011L82.1464 108.478V172.911L58.4863 160.277V95.9011Z" fill="#7ADDFF"/>
<path opacity="0.4" d="M172.964 62.9489L99.974 71.2184C98.8255 71.3333 97.7918 70.5293 97.6769 69.3807C97.5621 68.2322 98.3661 67.1985 99.5146 67.0837L172.505 58.8141C173.653 58.6993 174.687 59.5033 174.802 60.6518C174.917 61.8004 174.113 62.834 172.964 62.9489Z" fill="url(#paint4_linear)"/>
<path opacity="0.4" d="M170.323 39.6908L97.3334 47.9604C96.1848 48.0752 95.1512 47.2712 95.0363 46.1227C94.9214 44.9741 95.7254 43.9405 96.874 43.8256L169.864 35.5561C171.013 35.4412 172.046 36.2452 172.161 37.3938C172.276 38.5423 171.472 39.576 170.323 39.6908Z" fill="url(#paint5_linear)"/>
<path opacity="0.4" d="M171.644 51.3486L98.6537 59.6181C97.5052 59.733 96.4715 58.929 96.3566 57.7805C96.2418 56.6319 97.0457 55.5982 98.1943 55.4834L171.127 47.1564C172.275 47.0416 173.309 47.8455 173.424 48.9941C173.596 50.1426 172.792 51.1763 171.644 51.3486Z" fill="url(#paint6_linear)"/>
<path d="M192.637 48.1216V172.911H82.1465V108.478L138.31 48.1216H192.637Z" fill="#49D1FF"/>
<path d="M171.549 155.531C167.989 154.038 164.371 152.602 160.811 151.109C176.833 111.369 192.798 71.6297 208.82 31.89C210.6 27.7553 215.366 25.8602 219.501 27.6404L220.65 28.1573C224.785 29.9375 226.68 34.704 224.899 38.8387C207.097 77.717 189.352 116.653 171.549 155.531Z" fill="#36255A"/>
<path d="M164.717 155.933L151.681 186.427L145.881 171.898L158.343 154.44L164.717 155.933Z" fill="#9B92AD"/>
<path d="M164.718 155.933L151.682 186.427L166.211 180.627L170.231 159.551L164.718 155.933Z" fill="#C4BAD8"/>
<path d="M160.582 168.509C162.231 168.509 163.568 167.172 163.568 165.523C163.568 163.874 162.231 162.537 160.582 162.537C158.933 162.537 157.596 163.874 157.596 165.523C157.596 167.172 158.933 168.509 160.582 168.509Z" fill="white"/>
<path d="M169.942 160.872L157.825 155.703C155.355 154.67 154.207 151.798 155.298 149.329C156.332 146.859 159.203 145.711 161.672 146.802L173.789 151.97C176.259 153.004 177.407 155.875 176.316 158.345C175.283 160.814 172.411 161.905 169.942 160.872Z" fill="#744CC6"/>
<path d="M105.135 29.1431L104.162 19.7656L108.098 19.3574C108.521 19.3136 108.917 19.3615 109.288 19.5011C109.667 19.6397 109.999 19.8411 110.285 20.1052C110.569 20.3605 110.801 20.6657 110.981 21.0209C111.168 21.3664 111.281 21.7285 111.32 22.1071C111.361 22.5033 111.33 22.8936 111.228 23.2781C111.133 23.6528 110.978 23.9982 110.761 24.3143C110.544 24.6217 110.268 24.8817 109.934 25.0943C109.608 25.2972 109.234 25.4206 108.811 25.4644L106.276 25.7274L106.614 28.9897L105.135 29.1431ZM106.14 24.4198L108.583 24.1664C108.795 24.1445 108.979 24.0808 109.138 23.9754C109.305 23.8691 109.441 23.7303 109.548 23.5591C109.655 23.3878 109.733 23.1928 109.781 22.9742C109.83 22.7556 109.841 22.5186 109.814 22.2632C109.787 21.9991 109.723 21.7654 109.622 21.5623C109.52 21.3592 109.392 21.1901 109.235 21.0551C109.078 20.9112 108.903 20.8092 108.71 20.7491C108.524 20.6794 108.335 20.6545 108.141 20.6746L105.777 20.9198L106.14 24.4198ZM116.476 22.2532C115.914 22.3293 115.426 22.5134 115.011 22.8056C114.604 23.0881 114.332 23.4635 114.193 23.9317L114.632 28.1582L113.179 28.3089L112.462 21.4012L113.81 21.2615L113.97 22.8068C114.158 22.3067 114.427 21.8961 114.777 21.5751C115.134 21.2443 115.531 21.0429 115.969 20.9708C116.057 20.9617 116.127 20.9544 116.18 20.9489C116.242 20.9425 116.295 20.9415 116.34 20.9457L116.476 22.2532ZM120.888 27.6429C120.342 27.6995 119.839 27.6538 119.379 27.5057C118.927 27.3567 118.53 27.1353 118.188 26.8415C117.846 26.5477 117.569 26.1937 117.357 25.7796C117.144 25.3567 117.013 24.9075 116.964 24.432C116.915 23.9565 116.951 23.4944 117.074 23.0456C117.195 22.588 117.393 22.1803 117.668 21.8226C117.951 21.4639 118.298 21.1653 118.71 20.9269C119.13 20.6875 119.608 20.54 120.146 20.4843C120.683 20.4286 121.177 20.4752 121.629 20.6242C122.089 20.7722 122.49 20.9932 122.832 21.287C123.183 21.5799 123.465 21.9378 123.678 22.3607C123.89 22.7748 124.02 23.2196 124.07 23.6951C124.119 24.1706 124.083 24.6371 123.961 25.0947C123.839 25.5435 123.636 25.9473 123.353 26.3059C123.078 26.6637 122.731 26.9623 122.311 27.2016C121.899 27.4401 121.425 27.5872 120.888 27.6429ZM118.458 24.2905C118.492 24.6251 118.577 24.9278 118.712 25.1986C118.847 25.4694 119.018 25.7009 119.225 25.893C119.431 26.0763 119.663 26.2169 119.923 26.3146C120.19 26.4026 120.469 26.4315 120.759 26.4013C121.05 26.3712 121.312 26.2861 121.547 26.1461C121.79 25.9963 121.992 25.8062 122.155 25.5757C122.318 25.3452 122.438 25.0836 122.515 24.7909C122.591 24.4982 122.612 24.1845 122.577 23.8499C122.543 23.5241 122.459 23.2258 122.324 22.955C122.188 22.6754 122.017 22.4395 121.81 22.2473C121.603 22.0552 121.366 21.9151 121.099 21.8271C120.84 21.7294 120.565 21.6957 120.274 21.7258C119.993 21.755 119.73 21.8445 119.488 21.9943C119.254 22.1431 119.056 22.3328 118.893 22.5633C118.73 22.7938 118.606 23.0602 118.522 23.3627C118.445 23.6554 118.424 23.9647 118.458 24.2905ZM128.457 26.7912C127.99 26.8396 127.553 26.7914 127.147 26.6467C126.739 26.4932 126.378 26.2681 126.062 25.9715C125.755 25.6741 125.501 25.3222 125.298 24.916C125.105 24.5089 124.984 24.072 124.936 23.6053C124.884 23.1122 124.916 22.6417 125.03 22.1938C125.142 21.7371 125.323 21.3357 125.572 20.9895C125.82 20.6345 126.128 20.3444 126.496 20.1193C126.873 19.8845 127.298 19.7425 127.774 19.6932C128.329 19.6356 128.827 19.7175 129.268 19.9387C129.718 20.159 130.101 20.4664 130.418 20.8607L130.282 19.5531L131.564 19.4203L132.259 26.1298C132.311 26.6317 132.265 27.086 132.12 27.4926C131.976 27.8992 131.75 28.2519 131.443 28.5507C131.145 28.8575 130.779 29.1046 130.345 29.292C129.91 29.4795 129.433 29.6002 128.914 29.654C128.148 29.7335 127.496 29.6676 126.957 29.4564C126.429 29.2531 125.969 28.9359 125.577 28.5049L126.317 27.6539C126.619 27.9963 126.987 28.2429 127.421 28.3937C127.864 28.5436 128.323 28.5939 128.799 28.5446C129.098 28.5135 129.376 28.4447 129.632 28.3381C129.896 28.2305 130.121 28.0826 130.306 27.8943C130.492 27.706 130.628 27.4782 130.716 27.211C130.813 26.9429 130.843 26.6327 130.807 26.2805L130.697 25.2239C130.494 25.6721 130.189 26.033 129.781 26.3067C129.374 26.5804 128.932 26.7419 128.457 26.7912ZM128.81 25.5664C129.03 25.5436 129.238 25.4864 129.433 25.395C129.627 25.2947 129.802 25.1743 129.956 25.0337C130.119 24.8833 130.253 24.7225 130.36 24.5513C130.466 24.3712 130.536 24.1859 130.57 23.9955L130.382 22.1861C130.271 21.9751 130.136 21.7888 129.977 21.6273C129.817 21.457 129.638 21.3154 129.439 21.2025C129.249 21.0887 129.049 21.0071 128.84 20.9577C128.629 20.8994 128.422 20.8808 128.22 20.9018C127.903 20.9347 127.624 21.0348 127.383 21.2022C127.15 21.3598 126.958 21.5622 126.805 21.8094C126.652 22.0478 126.541 22.3129 126.474 22.6047C126.406 22.8965 126.388 23.1921 126.419 23.4915C126.452 23.8085 126.536 24.1024 126.671 24.3732C126.813 24.6343 126.993 24.8605 127.208 25.0517C127.423 25.2341 127.664 25.3737 127.932 25.4705C128.209 25.5664 128.502 25.5984 128.81 25.5664ZM137.319 20.0916C136.757 20.1677 136.269 20.3518 135.854 20.644C135.448 20.9265 135.175 21.3018 135.037 21.7701L135.475 25.9966L134.022 26.1472L133.306 19.2396L134.653 19.0999L134.813 20.6452C135.002 20.145 135.271 19.7345 135.62 19.4134C135.977 19.0827 136.375 18.8813 136.812 18.8092C136.9 18.8001 136.971 18.7928 137.024 18.7873C137.085 18.7809 137.138 18.7798 137.183 18.784L137.319 20.0916ZM140.721 25.586C140.387 25.6207 140.069 25.6003 139.767 25.5247C139.474 25.4395 139.211 25.311 138.98 25.1392C138.757 24.9665 138.57 24.7544 138.42 24.503C138.278 24.2508 138.191 23.9705 138.159 23.6624C138.125 23.3366 138.165 23.0343 138.279 22.7555C138.392 22.4768 138.566 22.2273 138.802 22.0071C139.046 21.786 139.338 21.6043 139.68 21.4621C140.03 21.319 140.421 21.2251 140.852 21.1803C141.178 21.1466 141.502 21.144 141.826 21.1728C142.148 21.1928 142.442 21.2379 142.708 21.3083L142.658 20.8328C142.605 20.3221 142.419 19.941 142.099 19.6893C141.778 19.4289 141.345 19.327 140.799 19.3836C140.429 19.422 140.071 19.5303 139.725 19.7086C139.386 19.8772 139.041 20.1088 138.689 20.4034L138.144 19.5255C138.971 18.8345 139.865 18.4392 140.824 18.3397C141.775 18.2411 142.54 18.4065 143.119 18.836C143.697 19.2655 144.033 19.9337 144.127 20.8406L144.386 23.3369C144.418 23.6451 144.562 23.7904 144.819 23.7727L144.947 25.0142C144.809 25.0552 144.688 25.0856 144.583 25.1054C144.487 25.1242 144.391 25.1387 144.294 25.1487C144.012 25.178 143.785 25.1303 143.612 25.0059C143.447 24.8805 143.336 24.7096 143.278 24.4931L143.193 24.0614C142.927 24.4984 142.576 24.8507 142.141 25.1183C141.714 25.3762 141.241 25.5321 140.721 25.586ZM141.007 24.4751C141.359 24.4385 141.683 24.3426 141.978 24.1874C142.281 24.0225 142.509 23.8164 142.662 23.5692C142.83 23.3915 142.905 23.2146 142.887 23.0385L142.792 22.1272C142.536 22.0559 142.264 22.0085 141.977 21.9849C141.698 21.9603 141.427 21.9618 141.163 21.9892C140.643 22.043 140.228 22.2018 139.917 22.4654C139.614 22.7193 139.482 23.0312 139.52 23.401C139.556 23.7444 139.714 24.0218 139.994 24.233C140.273 24.4355 140.611 24.5161 141.007 24.4751ZM156.893 23.7753L155.44 23.926L155.039 20.0561C154.972 19.4133 154.818 18.9532 154.575 18.6758C154.333 18.3983 154.009 18.2806 153.604 18.3226C153.19 18.3655 152.828 18.5589 152.516 18.9027C152.213 19.2367 152.011 19.6537 151.912 20.1535L152.337 24.2479L150.884 24.3986L150.482 20.5287C150.415 19.8771 150.26 19.417 150.019 19.1483C149.776 18.8709 149.457 18.7527 149.061 18.7938C148.647 18.8367 148.284 19.0257 147.972 19.3607C147.659 19.6956 147.453 20.113 147.354 20.6128L147.78 24.7205L146.327 24.8711L145.611 17.9635L146.931 17.8265L147.075 19.2133C147.298 18.7007 147.616 18.2939 148.03 17.9929C148.452 17.6822 148.949 17.4972 149.521 17.4378C150.093 17.3784 150.558 17.4815 150.915 17.7471C151.28 18.0118 151.526 18.3646 151.652 18.8054C151.89 18.2646 152.215 17.8393 152.628 17.5294C153.04 17.2108 153.527 17.0223 154.091 16.9639C154.496 16.9219 154.839 16.9664 155.119 17.0975C155.408 17.2189 155.645 17.399 155.829 17.6379C156.014 17.8768 156.156 18.1648 156.253 18.5018C156.349 18.83 156.417 19.1834 156.456 19.5621L156.893 23.7753Z" fill="#B7EDFF"/>
<path d="M161.859 122.771L161.77 108.523C162.875 108.175 163.55 107.147 163.542 105.952C163.533 104.502 162.333 103.315 160.886 103.324C160.204 103.329 159.61 103.588 159.101 104.018L141.152 93.807C141.152 93.7217 141.151 93.5511 141.15 93.4657C141.141 92.0153 139.941 90.8284 138.494 90.8375C137.046 90.8466 135.861 92.0485 135.87 93.4989C135.871 93.5843 135.872 93.7549 135.872 93.8402L118.053 104.276C117.539 103.853 116.942 103.601 116.26 103.605C114.813 103.699 113.628 104.901 113.638 106.352C113.645 107.546 114.417 108.48 115.442 108.9L115.533 123.319C114.428 123.667 113.753 124.695 113.76 125.889C113.768 127.084 114.54 128.017 115.565 128.438L115.623 137.652C115.626 138.164 115.969 138.503 116.48 138.5C116.991 138.497 117.329 138.153 117.326 137.641L117.268 128.427C117.608 128.339 117.948 128.167 118.202 127.909L136.151 138.12C136.151 138.205 136.152 138.291 136.152 138.376C136.16 139.571 136.932 140.504 137.957 140.924L138.022 151.333C138.026 151.845 138.368 152.184 138.879 152.181C139.39 152.178 139.729 151.834 139.726 151.322L139.66 140.828C140.765 140.48 141.439 139.452 141.432 138.258C141.431 138.172 141.431 138.087 141.43 138.002L159.504 127.393C159.932 127.732 160.529 127.899 161.04 127.896C162.488 127.887 163.673 126.685 163.663 125.234C163.656 124.125 162.969 123.106 161.859 122.771ZM158.474 126.12L140.739 136.47C140.397 136.131 140.054 135.877 139.628 135.795L139.538 121.547C140.643 121.198 141.318 120.17 141.311 118.976C141.31 118.805 141.309 118.634 141.222 118.464L159.126 107.943C159.383 108.197 159.725 108.365 160.066 108.449L160.156 122.697C159.051 123.045 158.376 124.073 158.383 125.267C158.386 125.609 158.387 125.865 158.474 126.12ZM158.351 106.497L140.447 117.019C139.419 116.172 137.886 116.182 136.955 117.041L135.246 116.113L139.064 113.871C139.319 113.698 139.487 113.441 139.485 113.1L139.378 96.0365C139.803 95.8632 140.142 95.6904 140.396 95.3476L158.259 105.474C158.26 105.644 158.176 105.816 158.177 105.986C158.263 106.156 158.264 106.327 158.351 106.497ZM137.734 118.998C137.733 118.913 137.733 118.828 137.733 118.828C137.732 118.657 137.901 118.485 138.07 118.314C138.239 118.142 138.494 118.055 138.665 118.054C138.92 118.052 139.091 118.136 139.348 118.306C139.518 118.39 139.605 118.645 139.606 118.816C139.607 118.901 139.607 118.901 139.607 118.986C139.61 119.413 139.357 119.756 138.932 119.929C138.762 120.016 138.592 120.017 138.336 119.933C137.995 119.85 137.737 119.425 137.734 118.998ZM137.779 112.599L133.536 115.1L118.921 106.83C118.92 106.66 118.919 106.489 118.918 106.404C118.917 106.233 118.916 106.062 118.83 105.892L136.648 95.3711C136.906 95.7108 137.333 95.8787 137.675 96.0472L137.779 112.599ZM119.039 125.6L133.549 117.062L136.113 118.496C136.114 118.667 136.03 118.838 136.031 119.009C136.038 120.203 136.81 121.137 137.835 121.557L137.925 135.805C137.5 135.979 137.161 136.237 136.822 136.495L119.044 126.368C119.043 126.197 119.127 126.026 119.126 125.856C119.125 125.77 119.125 125.685 119.039 125.6ZM160.763 124.399C160.932 124.313 161.103 124.312 161.359 124.396C161.785 124.478 162.043 124.903 162.046 125.33C162.05 126.012 161.202 126.53 160.603 126.192C160.433 126.108 160.346 125.938 160.261 125.853L160.26 125.768C160.174 125.683 160.173 125.512 160.173 125.427C160.084 124.916 160.337 124.487 160.763 124.399ZM161.164 106.906C160.994 106.992 160.823 106.993 160.567 106.91C160.482 106.91 160.311 106.826 160.226 106.741C160.055 106.657 159.968 106.402 159.967 106.231C159.966 106.146 159.966 106.146 159.966 106.06C159.965 105.975 159.965 105.89 159.965 105.89C160.048 105.633 160.132 105.462 160.302 105.376C160.472 105.204 160.726 105.117 160.897 105.116C161.408 105.113 161.836 105.537 161.839 106.049C161.842 106.39 161.588 106.733 161.164 106.906ZM139.533 93.5612C139.534 93.7319 139.45 93.9884 139.28 94.0748C139.196 94.1606 139.112 94.3318 138.856 94.3334C138.686 94.4198 138.516 94.4208 138.26 94.3371C138.089 94.2529 137.918 94.1686 137.833 94.0839C137.661 93.9143 137.66 93.7437 137.573 93.4882C137.57 92.9763 137.993 92.5471 138.504 92.5439C139.015 92.5406 139.444 92.9645 139.447 93.4765L139.533 93.5612ZM117.236 123.308L117.145 108.889C117.485 108.802 117.824 108.544 118.078 108.286L131.754 116.135L118.347 123.983C118.09 123.729 117.663 123.476 117.236 123.308ZM117.3 106.329C117.3 106.414 117.3 106.414 117.301 106.499C117.302 106.67 117.218 106.841 117.048 107.013C116.964 107.099 116.794 107.185 116.624 107.271C116.454 107.358 116.284 107.359 116.028 107.275C115.601 107.107 115.344 106.767 115.341 106.341C115.338 105.829 115.761 105.4 116.272 105.396C116.527 105.395 116.698 105.479 116.955 105.648C117.125 105.732 117.212 105.902 117.213 106.158C117.299 106.243 117.299 106.243 117.3 106.329ZM115.464 125.879C115.461 125.452 115.714 125.109 116.139 124.936C116.224 124.935 116.309 124.849 116.394 124.849C116.479 124.848 116.564 124.848 116.735 124.932C116.906 125.016 117.077 125.101 117.163 125.271C117.249 125.441 117.336 125.611 117.337 125.867C117.338 125.952 117.338 126.037 117.338 126.037C117.254 126.209 117.171 126.465 117.001 126.552C116.916 126.637 116.832 126.723 116.661 126.724L116.576 126.725C116.577 126.81 116.322 126.897 116.151 126.813C115.724 126.645 115.466 126.305 115.464 125.879ZM137.855 138.28C137.854 138.109 137.938 137.853 138.022 137.682C138.106 137.511 138.276 137.424 138.53 137.337C138.616 137.337 138.7 137.251 138.785 137.25C138.871 137.25 138.956 137.249 139.127 137.334C139.297 137.418 139.468 137.502 139.555 137.672C139.641 137.842 139.727 138.012 139.729 138.268C139.731 138.695 139.478 139.038 139.053 139.211C138.883 139.297 138.713 139.298 138.457 139.215C138.116 139.132 137.858 138.707 137.855 138.28Z" fill="white"/>
</g>
</g>
<defs>
<linearGradient id="paint0_linear" x1="439.17" y1="41.73" x2="462.167" y2="52.3103" gradientUnits="userSpaceOnUse">
<stop stop-color="#49D1FF"/>
<stop offset="0.5624" stop-color="#49D1FF" stop-opacity="0"/>
</linearGradient>
<linearGradient id="paint1_linear" x1="495.378" y1="194.513" x2="446.025" y2="123.573" gradientUnits="userSpaceOnUse">
<stop stop-color="#49D1FF"/>
<stop offset="0.5624" stop-color="#49D1FF" stop-opacity="0"/>
</linearGradient>
<linearGradient id="paint2_linear" x1="278.265" y1="188.302" x2="114.845" y2="-23.4109" gradientUnits="userSpaceOnUse">
<stop stop-color="#49D1FF"/>
<stop offset="0.5624" stop-color="#49D1FF" stop-opacity="0"/>
</linearGradient>
<linearGradient id="paint3_linear" x1="3.47099" y1="46.3362" x2="55.1031" y2="70.0445" gradientUnits="userSpaceOnUse">
<stop stop-color="#49D1FF"/>
<stop offset="0.5624" stop-color="#49D1FF" stop-opacity="0"/>
</linearGradient>
<linearGradient id="paint4_linear" x1="97.6286" y1="69.3886" x2="174.785" y2="60.6448" gradientUnits="userSpaceOnUse">
<stop stop-color="#49D1FF"/>
<stop offset="0.9031" stop-color="#49D1FF" stop-opacity="0"/>
</linearGradient>
<linearGradient id="paint5_linear" x1="94.9917" y1="46.1109" x2="172.148" y2="37.3672" gradientUnits="userSpaceOnUse">
<stop stop-color="#49D1FF"/>
<stop offset="0.9031" stop-color="#49D1FF" stop-opacity="0"/>
</linearGradient>
<linearGradient id="paint6_linear" x1="96.3101" y1="57.7498" x2="173.467" y2="49.006" gradientUnits="userSpaceOnUse">
<stop stop-color="#49D1FF"/>
<stop offset="0.9031" stop-color="#49D1FF" stop-opacity="0"/>
</linearGradient>
<clipPath id="clip0">
<rect x="0.5" width="527" height="218" rx="46" fill="white"/>
</clipPath>
<clipPath id="clip1">
<rect width="254" height="189" fill="white" transform="translate(0.501953)"/>
</clipPath>
</defs>
</svg>
