<svg width="527" height="252" viewBox="0 0 527 252" fill="none" xmlns="http://www.w3.org/2000/svg">
<path d="M514 11C504 23 479.448 90.2327 419.904 85.0465C339 78 308.841 106.881 286.938 130.391C285.177 132.281 283.408 134.18 281.63 136.078C279.541 138.309 277.465 140.539 275.4 142.758C253.838 165.923 244.5 173.176 217.5 182.554C183.5 191.5 162.644 186.623 136.5 173.176C61 136.078 18.1972 167.472 5 173.176" stroke="url(#paint0_linear_2653_21787)" stroke-width="6" stroke-linecap="round"/>
<path d="M501.199 8.66025L516.592 6L521.984 20.6603" stroke="#744CC6" stroke-width="6" stroke-linecap="round" stroke-linejoin="round"/>
<path d="M6.54 213.253C5.35333 213.253 4.34 213 3.5 212.493C2.66 211.986 2.09333 211.306 1.8 210.453L3 209.013C3.09333 209.373 3.28667 209.72 3.58 210.053C3.88667 210.386 4.28 210.666 4.76 210.893C5.25333 211.106 5.82667 211.213 6.48 211.213C7.34667 211.213 8.06 211.013 8.62 210.613C9.19333 210.213 9.48 209.673 9.48 208.993C9.48 208.246 9.12 207.673 8.4 207.273C7.69333 206.873 6.71333 206.673 5.46 206.673H4.78V204.913H5.46C6.56667 204.913 7.44667 204.733 8.1 204.373C8.76667 204.013 9.1 203.48 9.1 202.773C9.1 202.106 8.84 201.586 8.32 201.213C7.81333 200.826 7.21333 200.633 6.52 200.633C5.74667 200.633 5.08667 200.806 4.54 201.153C3.99333 201.5 3.58667 201.926 3.32 202.433L1.88 200.853C2.16 200.413 2.54667 200.033 3.04 199.713C3.53333 199.393 4.08667 199.146 4.7 198.973C5.31333 198.8 5.94667 198.713 6.6 198.713C7.53333 198.713 8.36 198.88 9.08 199.213C9.81333 199.546 10.3867 200.006 10.8 200.593C11.2267 201.166 11.44 201.82 11.44 202.553C11.44 203.353 11.1933 204.033 10.7 204.593C10.22 205.14 9.56 205.506 8.72 205.693C9.62667 205.866 10.3533 206.293 10.9 206.973C11.46 207.64 11.74 208.42 11.74 209.313C11.74 210.14 11.5 210.853 11.02 211.453C10.5533 212.04 9.92667 212.486 9.14 212.793C8.35333 213.1 7.48667 213.253 6.54 213.253Z" fill="#0D0815"/>
<path d="M23.6051 213.273C22.8251 213.273 22.1231 213.069 21.4991 212.661C20.8871 212.253 20.4011 211.749 20.0411 211.149V216.927H18.8171V203.715H19.9151V205.533C20.2871 204.945 20.7791 204.471 21.3911 204.111C22.0151 203.739 22.6871 203.553 23.4071 203.553C24.0551 203.553 24.6491 203.691 25.1891 203.967C25.7291 204.231 26.1971 204.591 26.5931 205.047C27.0011 205.503 27.3131 206.025 27.5291 206.613C27.7451 207.189 27.8531 207.789 27.8531 208.413C27.8531 209.289 27.6731 210.099 27.3131 210.843C26.9651 211.575 26.4671 212.163 25.8191 212.607C25.1831 213.051 24.4451 213.273 23.6051 213.273ZM23.2631 212.193C23.9471 212.193 24.5351 212.013 25.0271 211.653C25.5311 211.281 25.9211 210.807 26.1971 210.231C26.4731 209.655 26.6111 209.049 26.6111 208.413C26.6111 207.741 26.4551 207.117 26.1431 206.541C25.8311 205.965 25.4111 205.503 24.8831 205.155C24.3671 204.807 23.7791 204.633 23.1191 204.633C22.7111 204.633 22.2791 204.741 21.8231 204.957C21.3791 205.161 20.9831 205.443 20.6351 205.803C20.2991 206.151 20.1011 206.535 20.0411 206.955V209.835C20.3171 210.495 20.7491 211.053 21.3371 211.509C21.9251 211.965 22.5671 212.193 23.2631 212.193ZM34.1565 213.273C33.2565 213.273 32.4525 213.051 31.7445 212.607C31.0365 212.163 30.4785 211.569 30.0705 210.825C29.6625 210.081 29.4585 209.265 29.4585 208.377C29.4585 207.501 29.6565 206.697 30.0525 205.965C30.4605 205.233 31.0185 204.651 31.7265 204.219C32.4345 203.775 33.2385 203.553 34.1385 203.553C35.0625 203.553 35.8725 203.775 36.5685 204.219C37.2645 204.663 37.8045 205.251 38.1885 205.983C38.5845 206.703 38.7825 207.495 38.7825 208.359C38.7825 208.551 38.7765 208.713 38.7645 208.845H30.7365C30.7965 209.517 30.9885 210.117 31.3125 210.645C31.6365 211.161 32.0505 211.575 32.5545 211.887C33.0585 212.187 33.6105 212.337 34.2105 212.337C34.8225 212.337 35.3985 212.181 35.9385 211.869C36.4785 211.557 36.8625 211.149 37.0905 210.645L38.1525 210.933C37.9605 211.389 37.6605 211.797 37.2525 212.157C36.8565 212.505 36.3945 212.781 35.8665 212.985C35.3385 213.177 34.7685 213.273 34.1565 213.273ZM30.7005 207.963H37.6305C37.5825 207.291 37.3965 206.697 37.0725 206.181C36.7485 205.653 36.3345 205.245 35.8305 204.957C35.3265 204.657 34.7685 204.507 34.1565 204.507C33.5445 204.507 32.9865 204.657 32.4825 204.957C31.9785 205.245 31.5645 205.653 31.2405 206.181C30.9285 206.697 30.7485 207.291 30.7005 207.963ZM44.8469 213.273C43.9469 213.273 43.1429 213.051 42.4349 212.607C41.7389 212.163 41.1929 211.575 40.7969 210.843C40.4009 210.099 40.2029 209.295 40.2029 208.431C40.2029 207.555 40.4009 206.751 40.7969 206.019C41.2049 205.275 41.7569 204.681 42.4529 204.237C43.1609 203.781 43.9589 203.553 44.8469 203.553C45.7469 203.553 46.5449 203.781 47.2409 204.237C47.9489 204.681 48.5009 205.275 48.8969 206.019C49.3049 206.751 49.5089 207.555 49.5089 208.431C49.5089 209.295 49.3109 210.099 48.9149 210.843C48.5189 211.575 47.9669 212.163 47.2589 212.607C46.5629 213.051 45.7589 213.273 44.8469 213.273ZM41.4449 208.449C41.4449 209.145 41.5949 209.781 41.8949 210.357C42.2069 210.921 42.6209 211.371 43.1369 211.707C43.6529 212.031 44.2229 212.193 44.8469 212.193C45.4709 212.193 46.0409 212.025 46.5569 211.689C47.0729 211.353 47.4869 210.897 47.7989 210.321C48.1109 209.745 48.2669 209.109 48.2669 208.413C48.2669 207.717 48.1109 207.081 47.7989 206.505C47.4869 205.929 47.0729 205.473 46.5569 205.137C46.0409 204.801 45.4709 204.633 44.8469 204.633C44.2349 204.633 43.6709 204.807 43.1549 205.155C42.6389 205.491 42.2249 205.947 41.9129 206.523C41.6009 207.099 41.4449 207.741 41.4449 208.449ZM56.524 213.273C55.744 213.273 55.042 213.069 54.418 212.661C53.806 212.253 53.32 211.749 52.96 211.149V216.927H51.736V203.715H52.834V205.533C53.206 204.945 53.698 204.471 54.31 204.111C54.934 203.739 55.606 203.553 56.326 203.553C56.974 203.553 57.568 203.691 58.108 203.967C58.648 204.231 59.116 204.591 59.512 205.047C59.92 205.503 60.232 206.025 60.448 206.613C60.664 207.189 60.772 207.789 60.772 208.413C60.772 209.289 60.592 210.099 60.232 210.843C59.884 211.575 59.386 212.163 58.738 212.607C58.102 213.051 57.364 213.273 56.524 213.273ZM56.182 212.193C56.866 212.193 57.454 212.013 57.946 211.653C58.45 211.281 58.84 210.807 59.116 210.231C59.392 209.655 59.53 209.049 59.53 208.413C59.53 207.741 59.374 207.117 59.062 206.541C58.75 205.965 58.33 205.503 57.802 205.155C57.286 204.807 56.698 204.633 56.038 204.633C55.63 204.633 55.198 204.741 54.742 204.957C54.298 205.161 53.902 205.443 53.554 205.803C53.218 206.151 53.02 206.535 52.96 206.955V209.835C53.236 210.495 53.668 211.053 54.256 211.509C54.844 211.965 55.486 212.193 56.182 212.193ZM63.0794 199.953H64.3034V210.969C64.3034 211.437 64.3814 211.743 64.5374 211.887C64.7054 212.031 64.9154 212.103 65.1674 212.103C65.3834 212.103 65.5994 212.079 65.8154 212.031C66.0434 211.983 66.2294 211.935 66.3734 211.887L66.5894 212.877C66.3614 212.973 66.0794 213.051 65.7434 213.111C65.4194 213.171 65.1374 213.201 64.8974 213.201C64.3454 213.201 63.9014 213.039 63.5654 212.715C63.2414 212.391 63.0794 211.947 63.0794 211.383V199.953ZM72.1597 213.273C71.2597 213.273 70.4557 213.051 69.7477 212.607C69.0397 212.163 68.4817 211.569 68.0737 210.825C67.6657 210.081 67.4617 209.265 67.4617 208.377C67.4617 207.501 67.6597 206.697 68.0557 205.965C68.4637 205.233 69.0217 204.651 69.7297 204.219C70.4377 203.775 71.2417 203.553 72.1417 203.553C73.0657 203.553 73.8757 203.775 74.5717 204.219C75.2677 204.663 75.8077 205.251 76.1917 205.983C76.5877 206.703 76.7857 207.495 76.7857 208.359C76.7857 208.551 76.7797 208.713 76.7677 208.845H68.7397C68.7997 209.517 68.9917 210.117 69.3157 210.645C69.6397 211.161 70.0537 211.575 70.5577 211.887C71.0617 212.187 71.6137 212.337 72.2137 212.337C72.8257 212.337 73.4017 212.181 73.9417 211.869C74.4817 211.557 74.8657 211.149 75.0937 210.645L76.1557 210.933C75.9637 211.389 75.6637 211.797 75.2557 212.157C74.8597 212.505 74.3977 212.781 73.8697 212.985C73.3417 213.177 72.7717 213.273 72.1597 213.273ZM68.7037 207.963H75.6337C75.5857 207.291 75.3997 206.697 75.0757 206.181C74.7517 205.653 74.3377 205.245 73.8337 204.957C73.3297 204.657 72.7717 204.507 72.1597 204.507C71.5477 204.507 70.9897 204.657 70.4857 204.957C69.9817 205.245 69.5677 205.653 69.2437 206.181C68.9317 206.697 68.7517 207.291 68.7037 207.963ZM83.622 201.753V199.953H84.846V201.753H83.622ZM83.622 213.093V203.715H84.846V213.093H83.622ZM95.606 213.093H94.382V207.855C94.382 206.751 94.214 205.947 93.878 205.443C93.554 204.927 93.05 204.669 92.366 204.669C91.886 204.669 91.412 204.789 90.944 205.029C90.476 205.257 90.062 205.575 89.702 205.983C89.354 206.379 89.102 206.835 88.946 207.351V213.093H87.722V203.715H88.838V205.839C89.21 205.155 89.756 204.603 90.476 204.183C91.196 203.763 91.976 203.553 92.816 203.553C93.512 203.553 94.064 203.721 94.472 204.057C94.88 204.381 95.168 204.849 95.336 205.461C95.516 206.061 95.606 206.775 95.606 207.603V213.093ZM2.602 242.093V229.313H3.862V242.093H2.602ZM16.3188 230.429H11.7648V242.093H10.5048V230.429H5.95084V229.313H16.3188V230.429ZM22.2991 237.431C22.2991 236.543 22.4791 235.733 22.8391 235.001C23.2111 234.257 23.7211 233.663 24.3691 233.219C25.0171 232.775 25.7551 232.553 26.5831 232.553C27.3631 232.553 28.0591 232.763 28.6711 233.183C29.2951 233.591 29.7811 234.089 30.1291 234.677V228.953H31.3531V240.617C31.3531 240.941 31.4971 241.109 31.7851 241.121V242.093C31.5451 242.129 31.3591 242.141 31.2271 242.129C30.9631 242.117 30.7351 242.021 30.5431 241.841C30.3631 241.649 30.2731 241.433 30.2731 241.193V240.275C29.9011 240.887 29.3971 241.373 28.7611 241.733C28.1251 242.093 27.4651 242.273 26.7811 242.273C26.1331 242.273 25.5331 242.141 24.9811 241.877C24.4291 241.613 23.9491 241.253 23.5411 240.797C23.1451 240.341 22.8391 239.825 22.6231 239.249C22.4071 238.661 22.2991 238.055 22.2991 237.431ZM30.1291 238.871V235.973C29.9731 235.541 29.7211 235.151 29.3731 234.803C29.0251 234.443 28.6291 234.161 28.1851 233.957C27.7531 233.741 27.3211 233.633 26.8891 233.633C26.2171 233.633 25.6291 233.819 25.1251 234.191C24.6331 234.551 24.2491 235.025 23.9731 235.613C23.6971 236.189 23.5591 236.795 23.5591 237.431C23.5591 238.103 23.7091 238.727 24.0091 239.303C24.3211 239.879 24.7411 240.341 25.2691 240.689C25.7971 241.025 26.3911 241.193 27.0511 241.193C27.4591 241.193 27.8851 241.091 28.3291 240.887C28.7851 240.671 29.1811 240.389 29.5171 240.041C29.8651 239.693 30.0691 239.303 30.1291 238.871ZM38.3563 242.273C37.4563 242.273 36.6523 242.051 35.9443 241.607C35.2363 241.163 34.6783 240.569 34.2703 239.825C33.8623 239.081 33.6583 238.265 33.6583 237.377C33.6583 236.501 33.8563 235.697 34.2523 234.965C34.6603 234.233 35.2183 233.651 35.9263 233.219C36.6343 232.775 37.4383 232.553 38.3383 232.553C39.2623 232.553 40.0723 232.775 40.7683 233.219C41.4643 233.663 42.0043 234.251 42.3883 234.983C42.7843 235.703 42.9823 236.495 42.9823 237.359C42.9823 237.551 42.9763 237.713 42.9643 237.845H34.9363C34.9963 238.517 35.1883 239.117 35.5123 239.645C35.8363 240.161 36.2503 240.575 36.7543 240.887C37.2583 241.187 37.8103 241.337 38.4103 241.337C39.0223 241.337 39.5983 241.181 40.1383 240.869C40.6783 240.557 41.0623 240.149 41.2903 239.645L42.3523 239.933C42.1603 240.389 41.8603 240.797 41.4523 241.157C41.0563 241.505 40.5943 241.781 40.0663 241.985C39.5383 242.177 38.9683 242.273 38.3563 242.273ZM34.9003 236.963H41.8303C41.7823 236.291 41.5963 235.697 41.2723 235.181C40.9483 234.653 40.5343 234.245 40.0303 233.957C39.5263 233.657 38.9683 233.507 38.3563 233.507C37.7443 233.507 37.1863 233.657 36.6823 233.957C36.1783 234.245 35.7643 234.653 35.4403 235.181C35.1283 235.697 34.9483 236.291 34.9003 236.963ZM49.8388 242.273C49.0588 242.273 48.3568 242.069 47.7328 241.661C47.1208 241.253 46.6348 240.749 46.2748 240.149V245.927H45.0508V232.715H46.1488V234.533C46.5208 233.945 47.0128 233.471 47.6248 233.111C48.2488 232.739 48.9208 232.553 49.6408 232.553C50.2888 232.553 50.8828 232.691 51.4228 232.967C51.9628 233.231 52.4308 233.591 52.8268 234.047C53.2348 234.503 53.5468 235.025 53.7628 235.613C53.9788 236.189 54.0868 236.789 54.0868 237.413C54.0868 238.289 53.9068 239.099 53.5468 239.843C53.1988 240.575 52.7008 241.163 52.0528 241.607C51.4168 242.051 50.6788 242.273 49.8388 242.273ZM49.4968 241.193C50.1808 241.193 50.7688 241.013 51.2608 240.653C51.7648 240.281 52.1548 239.807 52.4308 239.231C52.7068 238.655 52.8448 238.049 52.8448 237.413C52.8448 236.741 52.6888 236.117 52.3768 235.541C52.0648 234.965 51.6448 234.503 51.1168 234.155C50.6008 233.807 50.0128 233.633 49.3528 233.633C48.9448 233.633 48.5128 233.741 48.0568 233.957C47.6128 234.161 47.2168 234.443 46.8688 234.803C46.5328 235.151 46.3348 235.535 46.2748 235.955V238.835C46.5508 239.495 46.9828 240.053 47.5708 240.509C48.1588 240.965 48.8008 241.193 49.4968 241.193ZM55.5842 239.393C55.5842 238.817 55.7522 238.319 56.0882 237.899C56.4242 237.467 56.8862 237.131 57.4742 236.891C58.0742 236.651 58.7642 236.531 59.5442 236.531C60.0002 236.531 60.4742 236.573 60.9662 236.657C61.4582 236.729 61.8962 236.831 62.2802 236.963V236.171C62.2802 235.379 62.0462 234.749 61.5782 234.281C61.1102 233.813 60.4622 233.579 59.6342 233.579C59.1422 233.579 58.6502 233.675 58.1582 233.867C57.6662 234.047 57.1562 234.317 56.6282 234.677L56.1602 233.813C56.7722 233.393 57.3722 233.081 57.9602 232.877C58.5482 232.661 59.1482 232.553 59.7602 232.553C60.9122 232.553 61.8242 232.883 62.4962 233.543C63.1682 234.203 63.5042 235.115 63.5042 236.279V240.617C63.5042 240.941 63.6542 241.109 63.9542 241.121V242.093C63.6902 242.129 63.5042 242.141 63.3962 242.129C63.0962 242.117 62.8682 242.021 62.7122 241.841C62.5562 241.661 62.4722 241.469 62.4602 241.265L62.4422 240.581C62.0222 241.121 61.4762 241.541 60.8042 241.841C60.1322 242.129 59.4482 242.273 58.7522 242.273C58.1402 242.273 57.5942 242.147 57.1142 241.895C56.6342 241.631 56.2562 241.283 55.9802 240.851C55.7162 240.407 55.5842 239.921 55.5842 239.393ZM61.8662 240.113C62.1422 239.789 62.2802 239.489 62.2802 239.213V237.845C61.4522 237.521 60.5882 237.359 59.6882 237.359C58.8122 237.359 58.1042 237.533 57.5642 237.881C57.0242 238.229 56.7542 238.703 56.7542 239.303C56.7542 239.819 56.9522 240.287 57.3482 240.707C57.7562 241.127 58.3202 241.337 59.0402 241.337C59.6282 241.337 60.1742 241.223 60.6782 240.995C61.1942 240.767 61.5902 240.473 61.8662 240.113ZM71.0087 233.795C70.1927 233.819 69.4727 234.047 68.8487 234.479C68.2367 234.911 67.8047 235.505 67.5527 236.261V242.093H66.3287V232.715H67.4807V234.965C67.8047 234.305 68.2307 233.771 68.7587 233.363C69.2987 232.955 69.8687 232.727 70.4687 232.679C70.5887 232.667 70.6907 232.661 70.7747 232.661C70.8587 232.661 70.9367 232.667 71.0087 232.679V233.795ZM77.3193 241.643C77.1753 241.703 76.9113 241.811 76.5273 241.967C76.1433 242.123 75.6993 242.201 75.1953 242.201C74.6673 242.201 74.2053 242.051 73.8093 241.751C73.4133 241.451 73.2153 241.001 73.2153 240.401V233.687H71.9193V232.715H73.2153V229.547H74.4393V232.715H76.5993V233.687H74.4393V240.059C74.4633 240.407 74.5833 240.665 74.7993 240.833C75.0273 240.989 75.2853 241.067 75.5733 241.067C75.9093 241.067 76.2093 241.013 76.4733 240.905C76.7493 240.785 76.9233 240.701 76.9953 240.653L77.3193 241.643ZM92.9786 242.093H91.7546V236.855C91.7546 235.775 91.5806 234.977 91.2326 234.461C90.8846 233.933 90.3686 233.669 89.6846 233.669C88.9646 233.669 88.3286 233.921 87.7766 234.425C87.2246 234.929 86.8346 235.577 86.6066 236.369V242.093H85.3826V236.855C85.3826 235.751 85.2086 234.947 84.8606 234.443C84.5246 233.927 84.0146 233.669 83.3306 233.669C82.6226 233.669 81.9866 233.915 81.4226 234.407C80.8706 234.899 80.4806 235.547 80.2526 236.351V242.093H79.0286V232.715H80.1446V234.839C80.5286 234.119 81.0326 233.561 81.6566 233.165C82.2806 232.757 82.9706 232.553 83.7266 232.553C84.5066 232.553 85.1366 232.781 85.6166 233.237C86.0966 233.681 86.3906 234.257 86.4986 234.965C87.3626 233.357 88.5686 232.553 90.1166 232.553C91.1726 232.553 91.9106 232.925 92.3306 233.669C92.7626 234.401 92.9786 235.379 92.9786 236.603V242.093ZM99.7996 242.273C98.8996 242.273 98.0956 242.051 97.3876 241.607C96.6796 241.163 96.1216 240.569 95.7136 239.825C95.3056 239.081 95.1016 238.265 95.1016 237.377C95.1016 236.501 95.2996 235.697 95.6956 234.965C96.1036 234.233 96.6616 233.651 97.3696 233.219C98.0776 232.775 98.8816 232.553 99.7816 232.553C100.706 232.553 101.516 232.775 102.212 233.219C102.908 233.663 103.448 234.251 103.832 234.983C104.228 235.703 104.426 236.495 104.426 237.359C104.426 237.551 104.42 237.713 104.408 237.845H96.3796C96.4396 238.517 96.6316 239.117 96.9556 239.645C97.2796 240.161 97.6936 240.575 98.1976 240.887C98.7016 241.187 99.2536 241.337 99.8536 241.337C100.466 241.337 101.042 241.181 101.582 240.869C102.122 240.557 102.506 240.149 102.734 239.645L103.796 239.933C103.604 240.389 103.304 240.797 102.896 241.157C102.5 241.505 102.038 241.781 101.51 241.985C100.982 242.177 100.412 242.273 99.7996 242.273ZM96.3436 236.963H103.274C103.226 236.291 103.04 235.697 102.716 235.181C102.392 234.653 101.978 234.245 101.474 233.957C100.97 233.657 100.412 233.507 99.7996 233.507C99.1876 233.507 98.6296 233.657 98.1256 233.957C97.6216 234.245 97.2076 234.653 96.8836 235.181C96.5716 235.697 96.3916 236.291 96.3436 236.963ZM114.378 242.093H113.154V236.855C113.154 235.751 112.986 234.947 112.65 234.443C112.326 233.927 111.822 233.669 111.138 233.669C110.658 233.669 110.184 233.789 109.716 234.029C109.248 234.257 108.834 234.575 108.474 234.983C108.126 235.379 107.874 235.835 107.718 236.351V242.093H106.494V232.715H107.61V234.839C107.982 234.155 108.528 233.603 109.248 233.183C109.968 232.763 110.748 232.553 111.588 232.553C112.284 232.553 112.836 232.721 113.244 233.057C113.652 233.381 113.94 233.849 114.108 234.461C114.288 235.061 114.378 235.775 114.378 236.603V242.093ZM121.58 241.643C121.436 241.703 121.172 241.811 120.788 241.967C120.404 242.123 119.96 242.201 119.456 242.201C118.928 242.201 118.466 242.051 118.07 241.751C117.674 241.451 117.476 241.001 117.476 240.401V233.687H116.18V232.715H117.476V229.547H118.7V232.715H120.86V233.687H118.7V240.059C118.724 240.407 118.844 240.665 119.06 240.833C119.288 240.989 119.546 241.067 119.834 241.067C120.17 241.067 120.47 241.013 120.734 240.905C121.01 240.785 121.184 240.701 121.256 240.653L121.58 241.643Z" fill="#666666"/>
<path d="M429.86 126.02V128H422.32V126.02H425.06V115.9C424.953 116.06 424.773 116.24 424.52 116.44C424.28 116.627 424.007 116.813 423.7 117C423.393 117.173 423.073 117.32 422.74 117.44C422.42 117.56 422.127 117.62 421.86 117.62V115.58C422.22 115.58 422.587 115.487 422.96 115.3C423.333 115.1 423.673 114.887 423.98 114.66C424.287 114.42 424.54 114.2 424.74 114C424.94 113.8 425.047 113.687 425.06 113.66H427.32V126.02H429.86ZM437.023 128.2C436.023 128.187 435.143 127.953 434.383 127.5C433.623 127.047 432.989 126.473 432.483 125.78C431.976 125.087 431.589 124.32 431.323 123.48C431.069 122.627 430.943 121.8 430.943 121C430.943 120.147 431.083 119.293 431.363 118.44C431.643 117.573 432.043 116.8 432.562 116.12C433.096 115.427 433.736 114.867 434.483 114.44C435.229 114.013 436.076 113.8 437.023 113.8C438.023 113.8 438.896 114.033 439.643 114.5C440.403 114.953 441.036 115.533 441.543 116.24C442.063 116.947 442.449 117.727 442.703 118.58C442.956 119.42 443.083 120.227 443.083 121C443.083 121.867 442.943 122.727 442.663 123.58C442.383 124.433 441.976 125.2 441.443 125.88C440.923 126.56 440.289 127.113 439.543 127.54C438.796 127.967 437.956 128.187 437.023 128.2ZM433.223 121C433.236 121.6 433.323 122.213 433.483 122.84C433.656 123.453 433.896 124.007 434.203 124.5C434.523 124.993 434.916 125.4 435.383 125.72C435.849 126.027 436.396 126.18 437.023 126.18C437.676 126.18 438.236 126.013 438.703 125.68C439.183 125.347 439.576 124.927 439.883 124.42C440.189 123.913 440.416 123.353 440.563 122.74C440.723 122.127 440.803 121.547 440.803 121C440.803 120.4 440.716 119.793 440.543 119.18C440.383 118.553 440.143 117.993 439.823 117.5C439.503 117.007 439.109 116.607 438.643 116.3C438.176 115.98 437.636 115.82 437.023 115.82C436.369 115.82 435.803 115.987 435.323 116.32C434.843 116.653 434.449 117.08 434.143 117.6C433.836 118.107 433.603 118.667 433.443 119.28C433.296 119.88 433.223 120.453 433.223 121ZM450.929 128.2C449.929 128.187 449.049 127.953 448.289 127.5C447.529 127.047 446.895 126.473 446.389 125.78C445.882 125.087 445.495 124.32 445.229 123.48C444.975 122.627 444.849 121.8 444.849 121C444.849 120.147 444.989 119.293 445.269 118.44C445.549 117.573 445.949 116.8 446.469 116.12C447.002 115.427 447.642 114.867 448.389 114.44C449.135 114.013 449.982 113.8 450.929 113.8C451.929 113.8 452.802 114.033 453.549 114.5C454.309 114.953 454.942 115.533 455.449 116.24C455.969 116.947 456.355 117.727 456.609 118.58C456.862 119.42 456.989 120.227 456.989 121C456.989 121.867 456.849 122.727 456.569 123.58C456.289 124.433 455.882 125.2 455.349 125.88C454.829 126.56 454.195 127.113 453.449 127.54C452.702 127.967 451.862 128.187 450.929 128.2ZM447.129 121C447.142 121.6 447.229 122.213 447.389 122.84C447.562 123.453 447.802 124.007 448.109 124.5C448.429 124.993 448.822 125.4 449.289 125.72C449.755 126.027 450.302 126.18 450.929 126.18C451.582 126.18 452.142 126.013 452.609 125.68C453.089 125.347 453.482 124.927 453.789 124.42C454.095 123.913 454.322 123.353 454.469 122.74C454.629 122.127 454.709 121.547 454.709 121C454.709 120.4 454.622 119.793 454.449 119.18C454.289 118.553 454.049 117.993 453.729 117.5C453.409 117.007 453.015 116.607 452.549 116.3C452.082 115.98 451.542 115.82 450.929 115.82C450.275 115.82 449.709 115.987 449.229 116.32C448.749 116.653 448.355 117.08 448.049 117.6C447.742 118.107 447.509 118.667 447.349 119.28C447.202 119.88 447.129 120.453 447.129 121ZM465.275 120.02V121.78H463.055V124.2H461.075V121.78H458.855V120.02H461.075V117.6H463.055V120.02H465.275Z" fill="#0D0815"/>
<path d="M426.4 157.18C425.716 157.18 425.086 157.054 424.51 156.802C423.946 156.538 423.454 156.184 423.034 155.74C422.614 155.284 422.284 154.762 422.044 154.174C421.816 153.586 421.702 152.956 421.702 152.284C421.702 151.624 421.816 151.006 422.044 150.43C422.284 149.842 422.608 149.332 423.016 148.9C423.436 148.456 423.934 148.108 424.51 147.856C425.086 147.592 425.71 147.46 426.382 147.46C427.066 147.46 427.69 147.592 428.254 147.856C428.83 148.108 429.322 148.456 429.73 148.9C430.138 149.344 430.456 149.854 430.684 150.43C430.912 151.006 431.026 151.618 431.026 152.266C431.026 152.362 431.026 152.458 431.026 152.554C431.026 152.65 431.02 152.716 431.008 152.752H422.98C423.016 153.256 423.13 153.724 423.322 154.156C423.526 154.576 423.784 154.942 424.096 155.254C424.408 155.566 424.762 155.812 425.158 155.992C425.566 156.16 425.998 156.244 426.454 156.244C426.754 156.244 427.054 156.202 427.354 156.118C427.654 156.034 427.93 155.92 428.182 155.776C428.434 155.632 428.662 155.458 428.866 155.254C429.07 155.038 429.226 154.804 429.334 154.552L430.396 154.84C430.252 155.188 430.048 155.506 429.784 155.794C429.52 156.07 429.214 156.316 428.866 156.532C428.518 156.736 428.134 156.892 427.714 157C427.294 157.12 426.856 157.18 426.4 157.18ZM429.856 151.816C429.82 151.312 429.7 150.856 429.496 150.448C429.304 150.028 429.052 149.668 428.74 149.368C428.44 149.068 428.086 148.834 427.678 148.666C427.282 148.498 426.856 148.414 426.4 148.414C425.944 148.414 425.512 148.498 425.104 148.666C424.696 148.834 424.336 149.068 424.024 149.368C423.724 149.668 423.478 150.028 423.286 150.448C423.106 150.868 422.998 151.324 422.962 151.816H429.856ZM447.044 157H445.82V151.762C445.82 150.67 445.646 149.866 445.298 149.35C444.95 148.834 444.434 148.576 443.75 148.576C443.39 148.576 443.048 148.642 442.724 148.774C442.412 148.906 442.118 149.092 441.842 149.332C441.578 149.572 441.344 149.86 441.14 150.196C440.936 150.52 440.78 150.88 440.672 151.276V157H439.448V151.762C439.448 150.646 439.28 149.836 438.944 149.332C438.608 148.828 438.092 148.576 437.396 148.576C436.688 148.576 436.058 148.822 435.506 149.314C434.954 149.806 434.558 150.454 434.318 151.258V157H433.094V147.622H434.21V149.746C434.594 149.026 435.098 148.468 435.722 148.072C436.346 147.664 437.036 147.46 437.792 147.46C438.584 147.46 439.214 147.682 439.682 148.126C440.162 148.57 440.456 149.152 440.564 149.872C441.44 148.264 442.646 147.46 444.182 147.46C444.71 147.46 445.154 147.556 445.514 147.748C445.886 147.94 446.18 148.216 446.396 148.576C446.624 148.924 446.786 149.35 446.882 149.854C446.99 150.346 447.044 150.898 447.044 151.51V157ZM454.603 157.18C453.811 157.18 453.109 156.982 452.497 156.586C451.897 156.178 451.411 155.668 451.039 155.056V160.834H449.815V147.622H450.913V149.44C451.297 148.852 451.795 148.378 452.407 148.018C453.019 147.646 453.685 147.46 454.405 147.46C455.053 147.46 455.647 147.598 456.187 147.874C456.727 148.138 457.195 148.498 457.591 148.954C457.987 149.398 458.293 149.914 458.509 150.502C458.737 151.09 458.851 151.696 458.851 152.32C458.851 152.98 458.749 153.604 458.545 154.192C458.341 154.78 458.047 155.296 457.663 155.74C457.291 156.184 456.841 156.538 456.313 156.802C455.797 157.054 455.227 157.18 454.603 157.18ZM454.261 156.1C454.765 156.1 455.221 155.992 455.629 155.776C456.049 155.56 456.403 155.278 456.691 154.93C456.991 154.57 457.219 154.168 457.375 153.724C457.531 153.268 457.609 152.8 457.609 152.32C457.609 151.816 457.519 151.336 457.339 150.88C457.159 150.424 456.913 150.022 456.601 149.674C456.289 149.326 455.917 149.05 455.485 148.846C455.065 148.642 454.609 148.54 454.117 148.54C453.805 148.54 453.475 148.606 453.127 148.738C452.791 148.858 452.473 149.026 452.173 149.242C451.885 149.446 451.633 149.692 451.417 149.98C451.213 150.256 451.087 150.55 451.039 150.862V153.742C451.183 154.078 451.363 154.39 451.579 154.678C451.807 154.966 452.059 155.218 452.335 155.434C452.623 155.638 452.929 155.8 453.253 155.92C453.577 156.04 453.913 156.1 454.261 156.1ZM461.159 143.86H462.383V154.876C462.383 155.224 462.479 155.5 462.671 155.704C462.863 155.896 463.133 155.992 463.481 155.992C463.613 155.992 463.769 155.974 463.949 155.938C464.129 155.902 464.297 155.854 464.453 155.794L464.669 156.784C464.441 156.88 464.159 156.958 463.823 157.018C463.499 157.078 463.217 157.108 462.977 157.108C462.413 157.108 461.969 156.952 461.645 156.64C461.321 156.316 461.159 155.866 461.159 155.29V143.86ZM470.185 157.18C469.501 157.18 468.877 157.054 468.313 156.802C467.749 156.538 467.257 156.184 466.837 155.74C466.429 155.296 466.111 154.78 465.883 154.192C465.655 153.604 465.541 152.986 465.541 152.338C465.541 151.678 465.655 151.054 465.883 150.466C466.123 149.878 466.447 149.362 466.855 148.918C467.275 148.474 467.767 148.12 468.331 147.856C468.895 147.592 469.513 147.46 470.185 147.46C470.857 147.46 471.475 147.592 472.039 147.856C472.615 148.12 473.107 148.474 473.515 148.918C473.935 149.362 474.259 149.878 474.487 150.466C474.727 151.054 474.847 151.678 474.847 152.338C474.847 152.986 474.733 153.604 474.505 154.192C474.277 154.78 473.953 155.296 473.533 155.74C473.125 156.184 472.633 156.538 472.057 156.802C471.493 157.054 470.869 157.18 470.185 157.18ZM466.783 152.356C466.783 152.884 466.873 153.376 467.053 153.832C467.233 154.276 467.473 154.672 467.773 155.02C468.085 155.356 468.445 155.62 468.853 155.812C469.273 156.004 469.717 156.1 470.185 156.1C470.653 156.1 471.091 156.004 471.499 155.812C471.919 155.608 472.285 155.338 472.597 155.002C472.909 154.654 473.155 154.252 473.335 153.796C473.515 153.34 473.605 152.848 473.605 152.32C473.605 151.804 473.515 151.318 473.335 150.862C473.155 150.394 472.909 149.992 472.597 149.656C472.285 149.308 471.919 149.038 471.499 148.846C471.091 148.642 470.653 148.54 470.185 148.54C469.717 148.54 469.279 148.642 468.871 148.846C468.463 149.038 468.103 149.308 467.791 149.656C467.479 150.004 467.233 150.412 467.053 150.88C466.873 151.336 466.783 151.828 466.783 152.356ZM477.298 159.88C477.394 159.892 477.484 159.898 477.568 159.898C477.664 159.91 477.754 159.916 477.838 159.916C478.054 159.916 478.222 159.886 478.342 159.826C478.474 159.766 478.6 159.634 478.72 159.43C478.84 159.226 478.972 158.932 479.116 158.548C479.272 158.164 479.488 157.648 479.764 157L475.678 147.622H476.938L480.412 155.866L483.634 147.622H484.804L479.944 159.718C479.812 160.066 479.59 160.366 479.278 160.618C478.978 160.882 478.564 161.014 478.036 161.014C477.916 161.014 477.802 161.008 477.694 160.996C477.586 160.996 477.454 160.984 477.298 160.96V159.88ZM490.427 157.18C489.743 157.18 489.113 157.054 488.537 156.802C487.973 156.538 487.481 156.184 487.061 155.74C486.641 155.284 486.311 154.762 486.071 154.174C485.843 153.586 485.729 152.956 485.729 152.284C485.729 151.624 485.843 151.006 486.071 150.43C486.311 149.842 486.635 149.332 487.043 148.9C487.463 148.456 487.961 148.108 488.537 147.856C489.113 147.592 489.737 147.46 490.409 147.46C491.093 147.46 491.717 147.592 492.281 147.856C492.857 148.108 493.349 148.456 493.757 148.9C494.165 149.344 494.483 149.854 494.711 150.43C494.939 151.006 495.053 151.618 495.053 152.266C495.053 152.362 495.053 152.458 495.053 152.554C495.053 152.65 495.047 152.716 495.035 152.752H487.007C487.043 153.256 487.157 153.724 487.349 154.156C487.553 154.576 487.811 154.942 488.123 155.254C488.435 155.566 488.789 155.812 489.185 155.992C489.593 156.16 490.025 156.244 490.481 156.244C490.781 156.244 491.081 156.202 491.381 156.118C491.681 156.034 491.957 155.92 492.209 155.776C492.461 155.632 492.689 155.458 492.893 155.254C493.097 155.038 493.253 154.804 493.361 154.552L494.423 154.84C494.279 155.188 494.075 155.506 493.811 155.794C493.547 156.07 493.241 156.316 492.893 156.532C492.545 156.736 492.161 156.892 491.741 157C491.321 157.12 490.883 157.18 490.427 157.18ZM493.883 151.816C493.847 151.312 493.727 150.856 493.523 150.448C493.331 150.028 493.079 149.668 492.767 149.368C492.467 149.068 492.113 148.834 491.705 148.666C491.309 148.498 490.883 148.414 490.427 148.414C489.971 148.414 489.539 148.498 489.131 148.666C488.723 148.834 488.363 149.068 488.051 149.368C487.751 149.668 487.505 150.028 487.313 150.448C487.133 150.868 487.025 151.324 486.989 151.816H493.883ZM501.172 157.18C500.488 157.18 499.858 157.054 499.282 156.802C498.718 156.538 498.226 156.184 497.806 155.74C497.386 155.284 497.056 154.762 496.816 154.174C496.588 153.586 496.474 152.956 496.474 152.284C496.474 151.624 496.588 151.006 496.816 150.43C497.056 149.842 497.38 149.332 497.788 148.9C498.208 148.456 498.706 148.108 499.282 147.856C499.858 147.592 500.482 147.46 501.154 147.46C501.838 147.46 502.462 147.592 503.026 147.856C503.602 148.108 504.094 148.456 504.502 148.9C504.91 149.344 505.228 149.854 505.456 150.43C505.684 151.006 505.798 151.618 505.798 152.266C505.798 152.362 505.798 152.458 505.798 152.554C505.798 152.65 505.792 152.716 505.78 152.752H497.752C497.788 153.256 497.902 153.724 498.094 154.156C498.298 154.576 498.556 154.942 498.868 155.254C499.18 155.566 499.534 155.812 499.93 155.992C500.338 156.16 500.77 156.244 501.226 156.244C501.526 156.244 501.826 156.202 502.126 156.118C502.426 156.034 502.702 155.92 502.954 155.776C503.206 155.632 503.434 155.458 503.638 155.254C503.842 155.038 503.998 154.804 504.106 154.552L505.168 154.84C505.024 155.188 504.82 155.506 504.556 155.794C504.292 156.07 503.986 156.316 503.638 156.532C503.29 156.736 502.906 156.892 502.486 157C502.066 157.12 501.628 157.18 501.172 157.18ZM504.628 151.816C504.592 151.312 504.472 150.856 504.268 150.448C504.076 150.028 503.824 149.668 503.512 149.368C503.212 149.068 502.858 148.834 502.45 148.666C502.054 148.498 501.628 148.414 501.172 148.414C500.716 148.414 500.284 148.498 499.876 148.666C499.468 148.834 499.108 149.068 498.796 149.368C498.496 149.668 498.25 150.028 498.058 150.448C497.878 150.868 497.77 151.324 497.734 151.816H504.628ZM510.98 157.18C510.248 157.18 509.534 157.06 508.838 156.82C508.142 156.58 507.542 156.232 507.038 155.776L507.596 154.948C508.124 155.38 508.658 155.704 509.198 155.92C509.75 156.136 510.338 156.244 510.962 156.244C511.718 156.244 512.318 156.094 512.762 155.794C513.218 155.482 513.446 155.044 513.446 154.48C513.446 154.216 513.386 154 513.266 153.832C513.146 153.652 512.966 153.496 512.726 153.364C512.498 153.232 512.204 153.118 511.844 153.022C511.496 152.914 511.088 152.806 510.62 152.698C510.08 152.566 509.612 152.434 509.216 152.302C508.82 152.17 508.49 152.02 508.226 151.852C507.974 151.684 507.782 151.48 507.65 151.24C507.53 150.988 507.47 150.676 507.47 150.304C507.47 149.836 507.56 149.422 507.74 149.062C507.932 148.702 508.184 148.408 508.496 148.18C508.82 147.94 509.192 147.76 509.612 147.64C510.044 147.52 510.5 147.46 510.98 147.46C511.7 147.46 512.354 147.58 512.942 147.82C513.53 148.048 514.004 148.354 514.364 148.738L513.77 149.458C513.422 149.098 512.996 148.828 512.492 148.648C512 148.468 511.484 148.378 510.944 148.378C510.62 148.378 510.32 148.414 510.044 148.486C509.768 148.546 509.522 148.648 509.306 148.792C509.102 148.936 508.94 149.122 508.82 149.35C508.7 149.566 508.64 149.824 508.64 150.124C508.64 150.376 508.682 150.58 508.766 150.736C508.85 150.892 508.988 151.03 509.18 151.15C509.372 151.258 509.612 151.36 509.9 151.456C510.2 151.54 510.56 151.63 510.98 151.726C511.58 151.87 512.108 152.014 512.564 152.158C513.02 152.302 513.398 152.47 513.698 152.662C514.01 152.854 514.244 153.088 514.4 153.364C514.556 153.64 514.634 153.976 514.634 154.372C514.634 155.236 514.304 155.92 513.644 156.424C512.984 156.928 512.096 157.18 510.98 157.18Z" fill="#666666"/>
<path d="M328.722 56C328.722 54.292 328.834 52.794 329.058 51.506C329.282 50.19 329.632 49.028 330.108 48.02C330.612 46.984 331.256 46.074 332.04 45.29C332.824 44.506 333.79 43.764 334.938 43.064C335.918 42.504 336.926 41.958 337.962 41.426C339.026 40.894 340.006 40.334 340.902 39.746C341.826 39.158 342.568 38.486 343.128 37.73C343.716 36.974 344.01 36.05 344.01 34.958C344.01 34.118 343.828 33.404 343.464 32.816C343.128 32.2 342.624 31.724 341.952 31.388C341.308 31.052 340.524 30.884 339.6 30.884C338.536 30.884 337.542 31.08 336.618 31.472C335.722 31.836 334.91 32.298 334.182 32.858C333.482 33.39 332.88 33.922 332.376 34.454L328.848 30.758C329.24 30.31 329.772 29.806 330.444 29.246C331.144 28.686 331.97 28.14 332.922 27.608C333.902 27.076 335.008 26.642 336.24 26.306C337.472 25.97 338.83 25.802 340.314 25.802C342.498 25.802 344.332 26.194 345.816 26.978C347.3 27.734 348.42 28.784 349.176 30.128C349.96 31.444 350.352 32.97 350.352 34.706C350.352 35.966 350.142 37.086 349.722 38.066C349.33 39.018 348.784 39.858 348.084 40.586C347.384 41.314 346.6 41.972 345.732 42.56C344.864 43.12 343.968 43.666 343.044 44.198C341.588 44.982 340.412 45.668 339.516 46.256C338.62 46.844 337.906 47.39 337.374 47.894C336.87 48.398 336.478 48.902 336.198 49.406C335.946 49.882 335.722 50.386 335.526 50.918H350.394V56H328.722ZM367.253 56.42C365.153 56.392 363.291 55.916 361.667 54.992C360.043 54.068 358.685 52.85 357.593 51.338C356.501 49.826 355.675 48.202 355.115 46.466C354.583 44.702 354.317 42.98 354.317 41.3C354.317 39.508 354.611 37.716 355.199 35.924C355.787 34.132 356.641 32.508 357.761 31.052C358.909 29.568 360.281 28.392 361.877 27.524C363.473 26.628 365.265 26.18 367.253 26.18C369.409 26.18 371.285 26.656 372.881 27.608C374.505 28.56 375.863 29.792 376.955 31.304C378.047 32.816 378.859 34.454 379.391 36.218C379.951 37.982 380.231 39.676 380.231 41.3C380.231 43.12 379.937 44.926 379.349 46.718C378.761 48.482 377.893 50.092 376.745 51.548C375.625 53.004 374.267 54.18 372.671 55.076C371.075 55.944 369.269 56.392 367.253 56.42ZM360.155 41.3C360.183 42.476 360.337 43.652 360.617 44.828C360.925 45.976 361.359 47.04 361.919 48.02C362.507 49 363.249 49.798 364.145 50.414C365.041 51.002 366.077 51.296 367.253 51.296C368.513 51.296 369.591 50.974 370.487 50.33C371.383 49.686 372.111 48.86 372.671 47.852C373.259 46.844 373.693 45.766 373.973 44.618C374.253 43.47 374.393 42.364 374.393 41.3C374.393 40.124 374.239 38.962 373.931 37.814C373.651 36.638 373.203 35.56 372.587 34.58C371.999 33.6 371.257 32.816 370.361 32.228C369.493 31.612 368.457 31.304 367.253 31.304C366.021 31.304 364.957 31.626 364.061 32.27C363.165 32.914 362.423 33.74 361.835 34.748C361.275 35.756 360.855 36.834 360.575 37.982C360.295 39.13 360.155 40.236 360.155 41.3ZM383.724 56C383.724 54.292 383.836 52.794 384.06 51.506C384.284 50.19 384.634 49.028 385.11 48.02C385.614 46.984 386.258 46.074 387.042 45.29C387.826 44.506 388.792 43.764 389.94 43.064C390.92 42.504 391.928 41.958 392.964 41.426C394.028 40.894 395.008 40.334 395.904 39.746C396.828 39.158 397.57 38.486 398.13 37.73C398.718 36.974 399.012 36.05 399.012 34.958C399.012 34.118 398.83 33.404 398.466 32.816C398.13 32.2 397.626 31.724 396.954 31.388C396.31 31.052 395.526 30.884 394.602 30.884C393.538 30.884 392.544 31.08 391.62 31.472C390.724 31.836 389.912 32.298 389.184 32.858C388.484 33.39 387.882 33.922 387.378 34.454L383.85 30.758C384.242 30.31 384.774 29.806 385.446 29.246C386.146 28.686 386.972 28.14 387.924 27.608C388.904 27.076 390.01 26.642 391.242 26.306C392.474 25.97 393.832 25.802 395.316 25.802C397.5 25.802 399.334 26.194 400.818 26.978C402.302 27.734 403.422 28.784 404.178 30.128C404.962 31.444 405.354 32.97 405.354 34.706C405.354 35.966 405.144 37.086 404.724 38.066C404.332 39.018 403.786 39.858 403.086 40.586C402.386 41.314 401.602 41.972 400.734 42.56C399.866 43.12 398.97 43.666 398.046 44.198C396.59 44.982 395.414 45.668 394.518 46.256C393.622 46.844 392.908 47.39 392.376 47.894C391.872 48.398 391.48 48.902 391.2 49.406C390.948 49.882 390.724 50.386 390.528 50.918H405.396V56H383.724ZM409.277 56C409.277 54.292 409.389 52.794 409.613 51.506C409.837 50.19 410.187 49.028 410.663 48.02C411.167 46.984 411.811 46.074 412.595 45.29C413.379 44.506 414.345 43.764 415.493 43.064C416.473 42.504 417.481 41.958 418.517 41.426C419.581 40.894 420.561 40.334 421.457 39.746C422.381 39.158 423.123 38.486 423.683 37.73C424.271 36.974 424.565 36.05 424.565 34.958C424.565 34.118 424.383 33.404 424.019 32.816C423.683 32.2 423.179 31.724 422.507 31.388C421.863 31.052 421.079 30.884 420.155 30.884C419.091 30.884 418.097 31.08 417.173 31.472C416.277 31.836 415.465 32.298 414.737 32.858C414.037 33.39 413.435 33.922 412.931 34.454L409.403 30.758C409.795 30.31 410.327 29.806 410.999 29.246C411.699 28.686 412.525 28.14 413.477 27.608C414.457 27.076 415.563 26.642 416.795 26.306C418.027 25.97 419.385 25.802 420.869 25.802C423.053 25.802 424.887 26.194 426.371 26.978C427.855 27.734 428.975 28.784 429.731 30.128C430.515 31.444 430.907 32.97 430.907 34.706C430.907 35.966 430.697 37.086 430.277 38.066C429.885 39.018 429.339 39.858 428.639 40.586C427.939 41.314 427.155 41.972 426.287 42.56C425.419 43.12 424.523 43.666 423.599 44.198C422.143 44.982 420.967 45.668 420.071 46.256C419.175 46.844 418.461 47.39 417.929 47.894C417.425 48.398 417.033 48.902 416.753 49.406C416.501 49.882 416.277 50.386 416.081 50.918H430.949V56H409.277Z" fill="#0D0815"/>
<circle r="8" transform="matrix(0 -1 -1 0 429 85.0929)" fill="#744CC6"/>
<path d="M2.722 126.093C2.722 123.825 2.918 121.907 3.31 120.339C3.73 118.743 4.388 117.385 5.284 116.265C6.208 115.117 7.426 114.081 8.938 113.157C9.918 112.569 10.926 112.023 11.962 111.519C13.026 110.987 14.006 110.441 14.902 109.881C15.826 109.293 16.568 108.621 17.128 107.865C17.716 107.081 18.01 106.143 18.01 105.051C18.01 103.819 17.618 102.839 16.834 102.111C16.078 101.355 15 100.977 13.6 100.977C12.536 100.977 11.542 101.173 10.618 101.565C9.722 101.929 8.91 102.391 8.182 102.951C7.482 103.483 6.88 104.015 6.376 104.547L2.848 100.851C3.352 100.263 4.122 99.5909 5.158 98.8349C6.222 98.0509 7.524 97.3649 9.064 96.7769C10.604 96.1889 12.354 95.8949 14.314 95.8949C16.498 95.8949 18.332 96.2869 19.816 97.0709C21.3 97.8269 22.42 98.8769 23.176 100.221C23.96 101.537 24.352 103.063 24.352 104.799C24.352 106.479 23.988 107.907 23.26 109.083C22.56 110.231 21.65 111.211 20.53 112.023C19.41 112.835 18.248 113.591 17.044 114.291C15.112 115.327 13.642 116.209 12.634 116.937C11.654 117.665 10.954 118.351 10.534 118.995C10.114 119.611 9.778 120.283 9.526 121.011H24.394V126.093H2.722ZM41.2527 126.513C39.1247 126.485 37.2487 126.009 35.6247 125.085C34.0287 124.161 32.6847 122.957 31.5927 121.473C30.5007 119.961 29.6747 118.323 29.1147 116.559C28.5827 114.795 28.3167 113.073 28.3167 111.393C28.3167 109.601 28.6107 107.809 29.1987 106.017C29.7867 104.225 30.6407 102.601 31.7607 101.145C32.9087 99.6609 34.2807 98.4849 35.8767 97.6169C37.4727 96.7209 39.2647 96.2729 41.2527 96.2729C43.4087 96.2729 45.2847 96.7489 46.8807 97.7009C48.5047 98.6529 49.8627 99.8849 50.9547 101.397C52.0467 102.909 52.8587 104.547 53.3907 106.311C53.9507 108.075 54.2307 109.769 54.2307 111.393C54.2307 113.213 53.9367 115.019 53.3487 116.811C52.7607 118.575 51.8927 120.199 50.7447 121.683C49.6247 123.139 48.2667 124.315 46.6707 125.211C45.0747 126.079 43.2687 126.513 41.2527 126.513ZM34.1547 111.393C34.1827 112.541 34.3367 113.703 34.6167 114.879C34.9247 116.055 35.3587 117.133 35.9187 118.113C36.5067 119.093 37.2347 119.891 38.1027 120.507C38.9987 121.095 40.0487 121.389 41.2527 121.389C42.5127 121.389 43.5907 121.067 44.4867 120.423C45.3827 119.779 46.1107 118.953 46.6707 117.945C47.2587 116.937 47.6927 115.859 47.9727 114.711C48.2527 113.563 48.3927 112.457 48.3927 111.393C48.3927 110.245 48.2387 109.083 47.9307 107.907C47.6227 106.731 47.1747 105.653 46.5867 104.673C45.9987 103.693 45.2567 102.909 44.3607 102.321C43.4647 101.705 42.4287 101.397 41.2527 101.397C40.0207 101.397 38.9567 101.719 38.0607 102.363C37.1647 103.007 36.4227 103.833 35.8347 104.841C35.2467 105.849 34.8127 106.941 34.5327 108.117C34.2807 109.265 34.1547 110.357 34.1547 111.393ZM75.658 121.011V126.093H58.774V121.011H64.57V101.607C64.262 102.027 63.716 102.531 62.932 103.119C62.148 103.679 61.28 104.169 60.328 104.589C59.404 105.009 58.564 105.219 57.808 105.219V100.011C58.536 100.011 59.292 99.8149 60.076 99.4229C60.86 99.0309 61.588 98.5829 62.26 98.0789C62.932 97.5469 63.478 97.0849 63.898 96.6929C64.346 96.2729 64.57 96.0349 64.57 95.9789H70.324V121.011H75.658ZM100.406 116.139C100.406 118.071 99.9158 119.821 98.9358 121.389C97.9838 122.957 96.6818 124.203 95.0298 125.127C93.4058 126.051 91.5578 126.513 89.4858 126.513C87.2458 126.513 85.2998 125.967 83.6478 124.875C81.9958 123.783 80.7218 122.215 79.8258 120.171C78.9578 118.127 78.5238 115.677 78.5238 112.821C78.5238 107.389 79.5598 103.245 81.6318 100.389C83.7318 97.5049 86.5458 96.0629 90.0738 96.0629C91.9498 96.0629 93.6718 96.4689 95.2398 97.2809C96.8358 98.0929 98.1798 99.2549 99.2718 100.767L96.0378 104.295C95.3658 103.259 94.4978 102.447 93.4338 101.859C92.3698 101.243 91.2218 100.935 89.9898 100.935C88.1138 100.935 86.6158 101.691 85.4958 103.203C84.3758 104.687 83.7878 106.773 83.7318 109.461C84.3198 108.453 85.1598 107.655 86.2518 107.067C87.3438 106.479 88.5898 106.185 89.9898 106.185C91.9498 106.185 93.7138 106.633 95.2818 107.529C96.8498 108.397 98.0958 109.587 99.0198 111.099C99.9438 112.583 100.406 114.263 100.406 116.139ZM89.5278 121.767C90.5078 121.767 91.4178 121.515 92.2578 121.011C93.0978 120.479 93.7698 119.793 94.2738 118.953C94.7778 118.085 95.0298 117.147 95.0298 116.139C95.0298 115.131 94.7778 114.221 94.2738 113.409C93.7698 112.569 93.0978 111.911 92.2578 111.435C91.4178 110.931 90.5078 110.679 89.5278 110.679C88.5198 110.679 87.5958 110.931 86.7558 111.435C85.9158 111.911 85.2438 112.569 84.7398 113.409C84.2638 114.221 84.0258 115.131 84.0258 116.139C84.0258 117.147 84.2778 118.085 84.7818 118.953C85.2858 119.793 85.9438 120.479 86.7558 121.011C87.5958 121.515 88.5198 121.767 89.5278 121.767Z" fill="#0D0815"/>
<circle r="8" transform="matrix(0 -1 -1 0 8 170.093)" fill="#EDE4FF"/>
<defs>
<linearGradient id="paint0_linear_2653_21787" x1="23" y1="167" x2="514" y2="10.9999" gradientUnits="userSpaceOnUse">
<stop stop-color="#EDE4FF"/>
<stop offset="1" stop-color="#744CC6"/>
</linearGradient>
</defs>
</svg>
