<svg width="153" height="153" viewBox="0 0 153 153" fill="none" xmlns="http://www.w3.org/2000/svg">
<path d="M4.13514 2.06757C4.13514 3.20945 3.20945 4.13514 2.06757 4.13514C0.925681 4.13514 0 3.20945 0 2.06757C0 0.925681 0.925681 0 2.06757 0C3.20945 0 4.13514 0.925681 4.13514 2.06757Z" fill="#8F65E7"/>
<path d="M20.6757 2.06757C20.6757 3.20945 19.75 4.13514 18.6081 4.13514C17.4662 4.13514 16.5405 3.20945 16.5405 2.06757C16.5405 0.925681 17.4662 0 18.6081 0C19.75 0 20.6757 0.925681 20.6757 2.06757Z" fill="#8F65E7"/>
<path d="M37.2162 2.06757C37.2162 3.20945 36.2905 4.13514 35.1486 4.13514C34.0068 4.13514 33.0811 3.20945 33.0811 2.06757C33.0811 0.925681 34.0068 0 35.1486 0C36.2905 0 37.2162 0.925681 37.2162 2.06757Z" fill="#8F65E7"/>
<path d="M53.7568 2.06757C53.7568 3.20945 52.8311 4.13514 51.6892 4.13514C50.5473 4.13514 49.6216 3.20945 49.6216 2.06757C49.6216 0.925681 50.5473 0 51.6892 0C52.8311 0 53.7568 0.925681 53.7568 2.06757Z" fill="#8F65E7"/>
<path d="M70.2973 2.06757C70.2973 3.20945 69.3716 4.13514 68.2297 4.13514C67.0878 4.13514 66.1622 3.20945 66.1622 2.06757C66.1622 0.925681 67.0878 0 68.2297 0C69.3716 0 70.2973 0.925681 70.2973 2.06757Z" fill="#8F65E7"/>
<path d="M86.8378 2.06757C86.8378 3.20945 85.9122 4.13514 84.7703 4.13514C83.6284 4.13514 82.7027 3.20945 82.7027 2.06757C82.7027 0.925681 83.6284 0 84.7703 0C85.9122 0 86.8378 0.925681 86.8378 2.06757Z" fill="#8F65E7"/>
<path d="M103.378 2.06757C103.378 3.20945 102.453 4.13514 101.311 4.13514C100.169 4.13514 99.2432 3.20945 99.2432 2.06757C99.2432 0.925681 100.169 0 101.311 0C102.453 0 103.378 0.925681 103.378 2.06757Z" fill="#8F65E7"/>
<path d="M119.919 2.06757C119.919 3.20945 118.993 4.13514 117.851 4.13514C116.709 4.13514 115.784 3.20945 115.784 2.06757C115.784 0.925681 116.709 0 117.851 0C118.993 0 119.919 0.925681 119.919 2.06757Z" fill="#8F65E7"/>
<path d="M136.459 2.06757C136.459 3.20945 135.534 4.13514 134.392 4.13514C133.25 4.13514 132.324 3.20945 132.324 2.06757C132.324 0.925681 133.25 0 134.392 0C135.534 0 136.459 0.925681 136.459 2.06757Z" fill="#8F65E7"/>
<path d="M153 2.06757C153 3.20945 152.074 4.13514 150.932 4.13514C149.791 4.13514 148.865 3.20945 148.865 2.06757C148.865 0.925681 149.791 0 150.932 0C152.074 0 153 0.925681 153 2.06757Z" fill="#8F65E7"/>
<path d="M4.13514 18.6081C4.13514 19.75 3.20945 20.6757 2.06757 20.6757C0.925681 20.6757 0 19.75 0 18.6081C0 17.4662 0.925681 16.5405 2.06757 16.5405C3.20945 16.5405 4.13514 17.4662 4.13514 18.6081Z" fill="#8F65E7"/>
<path d="M20.6757 18.6081C20.6757 19.75 19.75 20.6757 18.6081 20.6757C17.4662 20.6757 16.5405 19.75 16.5405 18.6081C16.5405 17.4662 17.4662 16.5405 18.6081 16.5405C19.75 16.5405 20.6757 17.4662 20.6757 18.6081Z" fill="#8F65E7"/>
<path d="M37.2162 18.6081C37.2162 19.75 36.2905 20.6757 35.1486 20.6757C34.0068 20.6757 33.0811 19.75 33.0811 18.6081C33.0811 17.4662 34.0068 16.5405 35.1486 16.5405C36.2905 16.5405 37.2162 17.4662 37.2162 18.6081Z" fill="#8F65E7"/>
<path d="M53.7568 18.6081C53.7568 19.75 52.8311 20.6757 51.6892 20.6757C50.5473 20.6757 49.6216 19.75 49.6216 18.6081C49.6216 17.4662 50.5473 16.5405 51.6892 16.5405C52.8311 16.5405 53.7568 17.4662 53.7568 18.6081Z" fill="#8F65E7"/>
<path d="M70.2973 18.6081C70.2973 19.75 69.3716 20.6757 68.2297 20.6757C67.0878 20.6757 66.1622 19.75 66.1622 18.6081C66.1622 17.4662 67.0878 16.5405 68.2297 16.5405C69.3716 16.5405 70.2973 17.4662 70.2973 18.6081Z" fill="#8F65E7"/>
<path d="M86.8378 18.6081C86.8378 19.75 85.9122 20.6757 84.7703 20.6757C83.6284 20.6757 82.7027 19.75 82.7027 18.6081C82.7027 17.4662 83.6284 16.5405 84.7703 16.5405C85.9122 16.5405 86.8378 17.4662 86.8378 18.6081Z" fill="#8F65E7"/>
<path d="M103.378 18.6081C103.378 19.75 102.453 20.6757 101.311 20.6757C100.169 20.6757 99.2432 19.75 99.2432 18.6081C99.2432 17.4662 100.169 16.5405 101.311 16.5405C102.453 16.5405 103.378 17.4662 103.378 18.6081Z" fill="#8F65E7"/>
<path d="M119.919 18.6081C119.919 19.75 118.993 20.6757 117.851 20.6757C116.709 20.6757 115.784 19.75 115.784 18.6081C115.784 17.4662 116.709 16.5405 117.851 16.5405C118.993 16.5405 119.919 17.4662 119.919 18.6081Z" fill="#8F65E7"/>
<path d="M136.459 18.6081C136.459 19.75 135.534 20.6757 134.392 20.6757C133.25 20.6757 132.324 19.75 132.324 18.6081C132.324 17.4662 133.25 16.5405 134.392 16.5405C135.534 16.5405 136.459 17.4662 136.459 18.6081Z" fill="#8F65E7"/>
<path d="M153 18.6081C153 19.75 152.074 20.6757 150.932 20.6757C149.791 20.6757 148.865 19.75 148.865 18.6081C148.865 17.4662 149.791 16.5405 150.932 16.5405C152.074 16.5405 153 17.4662 153 18.6081Z" fill="#8F65E7"/>
<path d="M4.13514 35.1486C4.13514 36.2905 3.20945 37.2162 2.06757 37.2162C0.925681 37.2162 0 36.2905 0 35.1486C0 34.0068 0.925681 33.0811 2.06757 33.0811C3.20945 33.0811 4.13514 34.0068 4.13514 35.1486Z" fill="#8F65E7"/>
<path d="M20.6757 35.1486C20.6757 36.2905 19.75 37.2162 18.6081 37.2162C17.4662 37.2162 16.5405 36.2905 16.5405 35.1486C16.5405 34.0068 17.4662 33.0811 18.6081 33.0811C19.75 33.0811 20.6757 34.0068 20.6757 35.1486Z" fill="#8F65E7"/>
<path d="M37.2162 35.1486C37.2162 36.2905 36.2905 37.2162 35.1486 37.2162C34.0068 37.2162 33.0811 36.2905 33.0811 35.1486C33.0811 34.0068 34.0068 33.0811 35.1486 33.0811C36.2905 33.0811 37.2162 34.0068 37.2162 35.1486Z" fill="#8F65E7"/>
<path d="M53.7568 35.1486C53.7568 36.2905 52.8311 37.2162 51.6892 37.2162C50.5473 37.2162 49.6216 36.2905 49.6216 35.1486C49.6216 34.0068 50.5473 33.0811 51.6892 33.0811C52.8311 33.0811 53.7568 34.0068 53.7568 35.1486Z" fill="#8F65E7"/>
<path d="M70.2973 35.1486C70.2973 36.2905 69.3716 37.2162 68.2297 37.2162C67.0878 37.2162 66.1622 36.2905 66.1622 35.1486C66.1622 34.0068 67.0878 33.0811 68.2297 33.0811C69.3716 33.0811 70.2973 34.0068 70.2973 35.1486Z" fill="#8F65E7"/>
<path d="M86.8378 35.1486C86.8378 36.2905 85.9122 37.2162 84.7703 37.2162C83.6284 37.2162 82.7027 36.2905 82.7027 35.1486C82.7027 34.0068 83.6284 33.0811 84.7703 33.0811C85.9122 33.0811 86.8378 34.0068 86.8378 35.1486Z" fill="#8F65E7"/>
<path d="M103.378 35.1486C103.378 36.2905 102.453 37.2162 101.311 37.2162C100.169 37.2162 99.2432 36.2905 99.2432 35.1486C99.2432 34.0068 100.169 33.0811 101.311 33.0811C102.453 33.0811 103.378 34.0068 103.378 35.1486Z" fill="#8F65E7"/>
<path d="M119.919 35.1486C119.919 36.2905 118.993 37.2162 117.851 37.2162C116.709 37.2162 115.784 36.2905 115.784 35.1486C115.784 34.0068 116.709 33.0811 117.851 33.0811C118.993 33.0811 119.919 34.0068 119.919 35.1486Z" fill="#8F65E7"/>
<path d="M136.459 35.1486C136.459 36.2905 135.534 37.2162 134.392 37.2162C133.25 37.2162 132.324 36.2905 132.324 35.1486C132.324 34.0068 133.25 33.0811 134.392 33.0811C135.534 33.0811 136.459 34.0068 136.459 35.1486Z" fill="#8F65E7"/>
<path d="M153 35.1486C153 36.2905 152.074 37.2162 150.932 37.2162C149.791 37.2162 148.865 36.2905 148.865 35.1486C148.865 34.0068 149.791 33.0811 150.932 33.0811C152.074 33.0811 153 34.0068 153 35.1486Z" fill="#8F65E7"/>
<path d="M4.13514 51.6892C4.13514 52.8311 3.20945 53.7568 2.06757 53.7568C0.925681 53.7568 0 52.8311 0 51.6892C0 50.5473 0.925681 49.6216 2.06757 49.6216C3.20945 49.6216 4.13514 50.5473 4.13514 51.6892Z" fill="#8F65E7"/>
<path d="M20.6757 51.6892C20.6757 52.8311 19.75 53.7568 18.6081 53.7568C17.4662 53.7568 16.5405 52.8311 16.5405 51.6892C16.5405 50.5473 17.4662 49.6216 18.6081 49.6216C19.75 49.6216 20.6757 50.5473 20.6757 51.6892Z" fill="#8F65E7"/>
<path d="M37.2162 51.6892C37.2162 52.8311 36.2905 53.7568 35.1486 53.7568C34.0068 53.7568 33.0811 52.8311 33.0811 51.6892C33.0811 50.5473 34.0068 49.6216 35.1486 49.6216C36.2905 49.6216 37.2162 50.5473 37.2162 51.6892Z" fill="#8F65E7"/>
<path d="M53.7568 51.6892C53.7568 52.8311 52.8311 53.7568 51.6892 53.7568C50.5473 53.7568 49.6216 52.8311 49.6216 51.6892C49.6216 50.5473 50.5473 49.6216 51.6892 49.6216C52.8311 49.6216 53.7568 50.5473 53.7568 51.6892Z" fill="#8F65E7"/>
<path d="M70.2973 51.6892C70.2973 52.8311 69.3716 53.7568 68.2297 53.7568C67.0878 53.7568 66.1622 52.8311 66.1622 51.6892C66.1622 50.5473 67.0878 49.6216 68.2297 49.6216C69.3716 49.6216 70.2973 50.5473 70.2973 51.6892Z" fill="#8F65E7"/>
<path d="M86.8378 51.6892C86.8378 52.8311 85.9122 53.7568 84.7703 53.7568C83.6284 53.7568 82.7027 52.8311 82.7027 51.6892C82.7027 50.5473 83.6284 49.6216 84.7703 49.6216C85.9122 49.6216 86.8378 50.5473 86.8378 51.6892Z" fill="#8F65E7"/>
<path d="M103.378 51.6892C103.378 52.8311 102.453 53.7568 101.311 53.7568C100.169 53.7568 99.2432 52.8311 99.2432 51.6892C99.2432 50.5473 100.169 49.6216 101.311 49.6216C102.453 49.6216 103.378 50.5473 103.378 51.6892Z" fill="#8F65E7"/>
<path d="M119.919 51.6892C119.919 52.8311 118.993 53.7568 117.851 53.7568C116.709 53.7568 115.784 52.8311 115.784 51.6892C115.784 50.5473 116.709 49.6216 117.851 49.6216C118.993 49.6216 119.919 50.5473 119.919 51.6892Z" fill="#8F65E7"/>
<path d="M136.459 51.6892C136.459 52.8311 135.534 53.7568 134.392 53.7568C133.25 53.7568 132.324 52.8311 132.324 51.6892C132.324 50.5473 133.25 49.6216 134.392 49.6216C135.534 49.6216 136.459 50.5473 136.459 51.6892Z" fill="#8F65E7"/>
<path d="M153 51.6892C153 52.8311 152.074 53.7568 150.932 53.7568C149.791 53.7568 148.865 52.8311 148.865 51.6892C148.865 50.5473 149.791 49.6216 150.932 49.6216C152.074 49.6216 153 50.5473 153 51.6892Z" fill="#8F65E7"/>
<path d="M4.13514 68.2297C4.13514 69.3716 3.20945 70.2973 2.06757 70.2973C0.925681 70.2973 0 69.3716 0 68.2297C0 67.0878 0.925681 66.1622 2.06757 66.1622C3.20945 66.1622 4.13514 67.0878 4.13514 68.2297Z" fill="#8F65E7"/>
<path d="M20.6757 68.2297C20.6757 69.3716 19.75 70.2973 18.6081 70.2973C17.4662 70.2973 16.5405 69.3716 16.5405 68.2297C16.5405 67.0878 17.4662 66.1622 18.6081 66.1622C19.75 66.1622 20.6757 67.0878 20.6757 68.2297Z" fill="#8F65E7"/>
<path d="M37.2162 68.2297C37.2162 69.3716 36.2905 70.2973 35.1486 70.2973C34.0068 70.2973 33.0811 69.3716 33.0811 68.2297C33.0811 67.0878 34.0068 66.1622 35.1486 66.1622C36.2905 66.1622 37.2162 67.0878 37.2162 68.2297Z" fill="#8F65E7"/>
<path d="M53.7568 68.2297C53.7568 69.3716 52.8311 70.2973 51.6892 70.2973C50.5473 70.2973 49.6216 69.3716 49.6216 68.2297C49.6216 67.0878 50.5473 66.1622 51.6892 66.1622C52.8311 66.1622 53.7568 67.0878 53.7568 68.2297Z" fill="#8F65E7"/>
<path d="M70.2973 68.2297C70.2973 69.3716 69.3716 70.2973 68.2297 70.2973C67.0878 70.2973 66.1622 69.3716 66.1622 68.2297C66.1622 67.0878 67.0878 66.1622 68.2297 66.1622C69.3716 66.1622 70.2973 67.0878 70.2973 68.2297Z" fill="#8F65E7"/>
<path d="M86.8378 68.2297C86.8378 69.3716 85.9122 70.2973 84.7703 70.2973C83.6284 70.2973 82.7027 69.3716 82.7027 68.2297C82.7027 67.0878 83.6284 66.1622 84.7703 66.1622C85.9122 66.1622 86.8378 67.0878 86.8378 68.2297Z" fill="#8F65E7"/>
<path d="M103.378 68.2297C103.378 69.3716 102.453 70.2973 101.311 70.2973C100.169 70.2973 99.2432 69.3716 99.2432 68.2297C99.2432 67.0878 100.169 66.1622 101.311 66.1622C102.453 66.1622 103.378 67.0878 103.378 68.2297Z" fill="#8F65E7"/>
<path d="M119.919 68.2297C119.919 69.3716 118.993 70.2973 117.851 70.2973C116.709 70.2973 115.784 69.3716 115.784 68.2297C115.784 67.0878 116.709 66.1622 117.851 66.1622C118.993 66.1622 119.919 67.0878 119.919 68.2297Z" fill="#8F65E7"/>
<path d="M136.459 68.2297C136.459 69.3716 135.534 70.2973 134.392 70.2973C133.25 70.2973 132.324 69.3716 132.324 68.2297C132.324 67.0878 133.25 66.1622 134.392 66.1622C135.534 66.1622 136.459 67.0878 136.459 68.2297Z" fill="#8F65E7"/>
<path d="M153 68.2297C153 69.3716 152.074 70.2973 150.932 70.2973C149.791 70.2973 148.865 69.3716 148.865 68.2297C148.865 67.0878 149.791 66.1622 150.932 66.1622C152.074 66.1622 153 67.0878 153 68.2297Z" fill="#8F65E7"/>
<path d="M4.13514 84.7703C4.13514 85.9122 3.20945 86.8378 2.06757 86.8378C0.925681 86.8378 0 85.9122 0 84.7703C0 83.6284 0.925681 82.7027 2.06757 82.7027C3.20945 82.7027 4.13514 83.6284 4.13514 84.7703Z" fill="#8F65E7"/>
<path d="M20.6757 84.7703C20.6757 85.9122 19.75 86.8378 18.6081 86.8378C17.4662 86.8378 16.5405 85.9122 16.5405 84.7703C16.5405 83.6284 17.4662 82.7027 18.6081 82.7027C19.75 82.7027 20.6757 83.6284 20.6757 84.7703Z" fill="#8F65E7"/>
<path d="M37.2162 84.7703C37.2162 85.9122 36.2905 86.8378 35.1486 86.8378C34.0068 86.8378 33.0811 85.9122 33.0811 84.7703C33.0811 83.6284 34.0068 82.7027 35.1486 82.7027C36.2905 82.7027 37.2162 83.6284 37.2162 84.7703Z" fill="#8F65E7"/>
<path d="M53.7568 84.7703C53.7568 85.9122 52.8311 86.8378 51.6892 86.8378C50.5473 86.8378 49.6216 85.9122 49.6216 84.7703C49.6216 83.6284 50.5473 82.7027 51.6892 82.7027C52.8311 82.7027 53.7568 83.6284 53.7568 84.7703Z" fill="#8F65E7"/>
<path d="M70.2973 84.7703C70.2973 85.9122 69.3716 86.8378 68.2297 86.8378C67.0878 86.8378 66.1622 85.9122 66.1622 84.7703C66.1622 83.6284 67.0878 82.7027 68.2297 82.7027C69.3716 82.7027 70.2973 83.6284 70.2973 84.7703Z" fill="#8F65E7"/>
<path d="M86.8378 84.7703C86.8378 85.9122 85.9122 86.8378 84.7703 86.8378C83.6284 86.8378 82.7027 85.9122 82.7027 84.7703C82.7027 83.6284 83.6284 82.7027 84.7703 82.7027C85.9122 82.7027 86.8378 83.6284 86.8378 84.7703Z" fill="#8F65E7"/>
<path d="M103.378 84.7703C103.378 85.9122 102.453 86.8378 101.311 86.8378C100.169 86.8378 99.2432 85.9122 99.2432 84.7703C99.2432 83.6284 100.169 82.7027 101.311 82.7027C102.453 82.7027 103.378 83.6284 103.378 84.7703Z" fill="#8F65E7"/>
<path d="M119.919 84.7703C119.919 85.9122 118.993 86.8378 117.851 86.8378C116.709 86.8378 115.784 85.9122 115.784 84.7703C115.784 83.6284 116.709 82.7027 117.851 82.7027C118.993 82.7027 119.919 83.6284 119.919 84.7703Z" fill="#8F65E7"/>
<path d="M136.459 84.7703C136.459 85.9122 135.534 86.8378 134.392 86.8378C133.25 86.8378 132.324 85.9122 132.324 84.7703C132.324 83.6284 133.25 82.7027 134.392 82.7027C135.534 82.7027 136.459 83.6284 136.459 84.7703Z" fill="#8F65E7"/>
<path d="M153 84.7703C153 85.9122 152.074 86.8378 150.932 86.8378C149.791 86.8378 148.865 85.9122 148.865 84.7703C148.865 83.6284 149.791 82.7027 150.932 82.7027C152.074 82.7027 153 83.6284 153 84.7703Z" fill="#8F65E7"/>
<path d="M4.13514 101.311C4.13514 102.453 3.20945 103.378 2.06757 103.378C0.925681 103.378 0 102.453 0 101.311C0 100.169 0.925681 99.2432 2.06757 99.2432C3.20945 99.2432 4.13514 100.169 4.13514 101.311Z" fill="#8F65E7"/>
<path d="M20.6757 101.311C20.6757 102.453 19.75 103.378 18.6081 103.378C17.4662 103.378 16.5405 102.453 16.5405 101.311C16.5405 100.169 17.4662 99.2432 18.6081 99.2432C19.75 99.2432 20.6757 100.169 20.6757 101.311Z" fill="#8F65E7"/>
<path d="M37.2162 101.311C37.2162 102.453 36.2905 103.378 35.1486 103.378C34.0068 103.378 33.0811 102.453 33.0811 101.311C33.0811 100.169 34.0068 99.2432 35.1486 99.2432C36.2905 99.2432 37.2162 100.169 37.2162 101.311Z" fill="#8F65E7"/>
<path d="M53.7568 101.311C53.7568 102.453 52.8311 103.378 51.6892 103.378C50.5473 103.378 49.6216 102.453 49.6216 101.311C49.6216 100.169 50.5473 99.2432 51.6892 99.2432C52.8311 99.2432 53.7568 100.169 53.7568 101.311Z" fill="#8F65E7"/>
<path d="M70.2973 101.311C70.2973 102.453 69.3716 103.378 68.2297 103.378C67.0878 103.378 66.1622 102.453 66.1622 101.311C66.1622 100.169 67.0878 99.2432 68.2297 99.2432C69.3716 99.2432 70.2973 100.169 70.2973 101.311Z" fill="#8F65E7"/>
<path d="M86.8378 101.311C86.8378 102.453 85.9122 103.378 84.7703 103.378C83.6284 103.378 82.7027 102.453 82.7027 101.311C82.7027 100.169 83.6284 99.2432 84.7703 99.2432C85.9122 99.2432 86.8378 100.169 86.8378 101.311Z" fill="#8F65E7"/>
<path d="M103.378 101.311C103.378 102.453 102.453 103.378 101.311 103.378C100.169 103.378 99.2432 102.453 99.2432 101.311C99.2432 100.169 100.169 99.2432 101.311 99.2432C102.453 99.2432 103.378 100.169 103.378 101.311Z" fill="#8F65E7"/>
<path d="M119.919 101.311C119.919 102.453 118.993 103.378 117.851 103.378C116.709 103.378 115.784 102.453 115.784 101.311C115.784 100.169 116.709 99.2432 117.851 99.2432C118.993 99.2432 119.919 100.169 119.919 101.311Z" fill="#8F65E7"/>
<path d="M136.459 101.311C136.459 102.453 135.534 103.378 134.392 103.378C133.25 103.378 132.324 102.453 132.324 101.311C132.324 100.169 133.25 99.2432 134.392 99.2432C135.534 99.2432 136.459 100.169 136.459 101.311Z" fill="#8F65E7"/>
<path d="M153 101.311C153 102.453 152.074 103.378 150.932 103.378C149.791 103.378 148.865 102.453 148.865 101.311C148.865 100.169 149.791 99.2432 150.932 99.2432C152.074 99.2432 153 100.169 153 101.311Z" fill="#8F65E7"/>
<path d="M4.13514 117.851C4.13514 118.993 3.20945 119.919 2.06757 119.919C0.925681 119.919 0 118.993 0 117.851C0 116.709 0.925681 115.784 2.06757 115.784C3.20945 115.784 4.13514 116.709 4.13514 117.851Z" fill="#8F65E7"/>
<path d="M20.6757 117.851C20.6757 118.993 19.75 119.919 18.6081 119.919C17.4662 119.919 16.5405 118.993 16.5405 117.851C16.5405 116.709 17.4662 115.784 18.6081 115.784C19.75 115.784 20.6757 116.709 20.6757 117.851Z" fill="#8F65E7"/>
<path d="M37.2162 117.851C37.2162 118.993 36.2905 119.919 35.1486 119.919C34.0068 119.919 33.0811 118.993 33.0811 117.851C33.0811 116.709 34.0068 115.784 35.1486 115.784C36.2905 115.784 37.2162 116.709 37.2162 117.851Z" fill="#8F65E7"/>
<path d="M53.7568 117.851C53.7568 118.993 52.8311 119.919 51.6892 119.919C50.5473 119.919 49.6216 118.993 49.6216 117.851C49.6216 116.709 50.5473 115.784 51.6892 115.784C52.8311 115.784 53.7568 116.709 53.7568 117.851Z" fill="#8F65E7"/>
<path d="M70.2973 117.851C70.2973 118.993 69.3716 119.919 68.2297 119.919C67.0878 119.919 66.1622 118.993 66.1622 117.851C66.1622 116.709 67.0878 115.784 68.2297 115.784C69.3716 115.784 70.2973 116.709 70.2973 117.851Z" fill="#8F65E7"/>
<path d="M86.8378 117.851C86.8378 118.993 85.9122 119.919 84.7703 119.919C83.6284 119.919 82.7027 118.993 82.7027 117.851C82.7027 116.709 83.6284 115.784 84.7703 115.784C85.9122 115.784 86.8378 116.709 86.8378 117.851Z" fill="#8F65E7"/>
<path d="M103.378 117.851C103.378 118.993 102.453 119.919 101.311 119.919C100.169 119.919 99.2432 118.993 99.2432 117.851C99.2432 116.709 100.169 115.784 101.311 115.784C102.453 115.784 103.378 116.709 103.378 117.851Z" fill="#8F65E7"/>
<path d="M119.919 117.851C119.919 118.993 118.993 119.919 117.851 119.919C116.709 119.919 115.784 118.993 115.784 117.851C115.784 116.709 116.709 115.784 117.851 115.784C118.993 115.784 119.919 116.709 119.919 117.851Z" fill="#8F65E7"/>
<path d="M136.459 117.851C136.459 118.993 135.534 119.919 134.392 119.919C133.25 119.919 132.324 118.993 132.324 117.851C132.324 116.709 133.25 115.784 134.392 115.784C135.534 115.784 136.459 116.709 136.459 117.851Z" fill="#8F65E7"/>
<path d="M153 117.851C153 118.993 152.074 119.919 150.932 119.919C149.791 119.919 148.865 118.993 148.865 117.851C148.865 116.709 149.791 115.784 150.932 115.784C152.074 115.784 153 116.709 153 117.851Z" fill="#8F65E7"/>
<path d="M4.13514 134.392C4.13514 135.534 3.20945 136.459 2.06757 136.459C0.925681 136.459 0 135.534 0 134.392C0 133.25 0.925681 132.324 2.06757 132.324C3.20945 132.324 4.13514 133.25 4.13514 134.392Z" fill="#8F65E7"/>
<path d="M20.6757 134.392C20.6757 135.534 19.75 136.459 18.6081 136.459C17.4662 136.459 16.5405 135.534 16.5405 134.392C16.5405 133.25 17.4662 132.324 18.6081 132.324C19.75 132.324 20.6757 133.25 20.6757 134.392Z" fill="#8F65E7"/>
<path d="M37.2162 134.392C37.2162 135.534 36.2905 136.459 35.1486 136.459C34.0068 136.459 33.0811 135.534 33.0811 134.392C33.0811 133.25 34.0068 132.324 35.1486 132.324C36.2905 132.324 37.2162 133.25 37.2162 134.392Z" fill="#8F65E7"/>
<path d="M53.7568 134.392C53.7568 135.534 52.8311 136.459 51.6892 136.459C50.5473 136.459 49.6216 135.534 49.6216 134.392C49.6216 133.25 50.5473 132.324 51.6892 132.324C52.8311 132.324 53.7568 133.25 53.7568 134.392Z" fill="#8F65E7"/>
<path d="M70.2973 134.392C70.2973 135.534 69.3716 136.459 68.2297 136.459C67.0878 136.459 66.1622 135.534 66.1622 134.392C66.1622 133.25 67.0878 132.324 68.2297 132.324C69.3716 132.324 70.2973 133.25 70.2973 134.392Z" fill="#8F65E7"/>
<path d="M86.8378 134.392C86.8378 135.534 85.9122 136.459 84.7703 136.459C83.6284 136.459 82.7027 135.534 82.7027 134.392C82.7027 133.25 83.6284 132.324 84.7703 132.324C85.9122 132.324 86.8378 133.25 86.8378 134.392Z" fill="#8F65E7"/>
<path d="M103.378 134.392C103.378 135.534 102.453 136.459 101.311 136.459C100.169 136.459 99.2432 135.534 99.2432 134.392C99.2432 133.25 100.169 132.324 101.311 132.324C102.453 132.324 103.378 133.25 103.378 134.392Z" fill="#8F65E7"/>
<path d="M119.919 134.392C119.919 135.534 118.993 136.459 117.851 136.459C116.709 136.459 115.784 135.534 115.784 134.392C115.784 133.25 116.709 132.324 117.851 132.324C118.993 132.324 119.919 133.25 119.919 134.392Z" fill="#8F65E7"/>
<path d="M136.459 134.392C136.459 135.534 135.534 136.459 134.392 136.459C133.25 136.459 132.324 135.534 132.324 134.392C132.324 133.25 133.25 132.324 134.392 132.324C135.534 132.324 136.459 133.25 136.459 134.392Z" fill="#8F65E7"/>
<path d="M153 134.392C153 135.534 152.074 136.459 150.932 136.459C149.791 136.459 148.865 135.534 148.865 134.392C148.865 133.25 149.791 132.324 150.932 132.324C152.074 132.324 153 133.25 153 134.392Z" fill="#8F65E7"/>
<path d="M4.13514 150.932C4.13514 152.074 3.20945 153 2.06757 153C0.925681 153 0 152.074 0 150.932C0 149.791 0.925681 148.865 2.06757 148.865C3.20945 148.865 4.13514 149.791 4.13514 150.932Z" fill="#8F65E7"/>
<path d="M20.6757 150.932C20.6757 152.074 19.75 153 18.6081 153C17.4662 153 16.5405 152.074 16.5405 150.932C16.5405 149.791 17.4662 148.865 18.6081 148.865C19.75 148.865 20.6757 149.791 20.6757 150.932Z" fill="#8F65E7"/>
<path d="M37.2162 150.932C37.2162 152.074 36.2905 153 35.1486 153C34.0068 153 33.0811 152.074 33.0811 150.932C33.0811 149.791 34.0068 148.865 35.1486 148.865C36.2905 148.865 37.2162 149.791 37.2162 150.932Z" fill="#8F65E7"/>
<path d="M53.7568 150.932C53.7568 152.074 52.8311 153 51.6892 153C50.5473 153 49.6216 152.074 49.6216 150.932C49.6216 149.791 50.5473 148.865 51.6892 148.865C52.8311 148.865 53.7568 149.791 53.7568 150.932Z" fill="#8F65E7"/>
<path d="M70.2973 150.932C70.2973 152.074 69.3716 153 68.2297 153C67.0878 153 66.1622 152.074 66.1622 150.932C66.1622 149.791 67.0878 148.865 68.2297 148.865C69.3716 148.865 70.2973 149.791 70.2973 150.932Z" fill="#8F65E7"/>
<path d="M86.8378 150.932C86.8378 152.074 85.9122 153 84.7703 153C83.6284 153 82.7027 152.074 82.7027 150.932C82.7027 149.791 83.6284 148.865 84.7703 148.865C85.9122 148.865 86.8378 149.791 86.8378 150.932Z" fill="#8F65E7"/>
<path d="M103.378 150.932C103.378 152.074 102.453 153 101.311 153C100.169 153 99.2432 152.074 99.2432 150.932C99.2432 149.791 100.169 148.865 101.311 148.865C102.453 148.865 103.378 149.791 103.378 150.932Z" fill="#8F65E7"/>
<path d="M119.919 150.932C119.919 152.074 118.993 153 117.851 153C116.709 153 115.784 152.074 115.784 150.932C115.784 149.791 116.709 148.865 117.851 148.865C118.993 148.865 119.919 149.791 119.919 150.932Z" fill="#8F65E7"/>
<path d="M136.459 150.932C136.459 152.074 135.534 153 134.392 153C133.25 153 132.324 152.074 132.324 150.932C132.324 149.791 133.25 148.865 134.392 148.865C135.534 148.865 136.459 149.791 136.459 150.932Z" fill="#8F65E7"/>
<path d="M153 150.932C153 152.074 152.074 153 150.932 153C149.791 153 148.865 152.074 148.865 150.932C148.865 149.791 149.791 148.865 150.932 148.865C152.074 148.865 153 149.791 153 150.932Z" fill="#8F65E7"/>
</svg>
