<svg width="179" height="81" viewBox="0 0 179 81" fill="none" xmlns="http://www.w3.org/2000/svg">
<path d="M177.054 3.85714C175.98 3.85714 175.109 2.99369 175.109 1.92857C175.109 0.863451 175.98 -1.32017e-07 177.054 -8.50472e-08C178.129 -3.80769e-08 179 0.863451 179 1.92857C179 2.99369 178.129 3.85714 177.054 3.85714Z" fill="#21B5E8"/>
<path d="M177.054 23.1429C175.98 23.1429 175.109 22.2794 175.109 21.2143C175.109 20.1492 175.98 19.2857 177.054 19.2857C178.129 19.2857 179 20.1492 179 21.2143C179 22.2794 178.129 23.1429 177.054 23.1429Z" fill="#21B5E8"/>
<path d="M177.054 42.4286C175.98 42.4286 175.109 41.5651 175.109 40.5C175.109 39.4349 175.98 38.5714 177.054 38.5714C178.129 38.5714 179 39.4349 179 40.5C179 41.5651 178.129 42.4286 177.054 42.4286Z" fill="#21B5E8"/>
<path d="M177.054 61.7143C175.98 61.7143 175.109 60.8508 175.109 59.7857C175.109 58.7206 175.98 57.8571 177.054 57.8571C178.129 57.8571 179 58.7206 179 59.7857C179 60.8508 178.129 61.7143 177.054 61.7143Z" fill="#21B5E8"/>
<path d="M177.054 81C175.98 81 175.109 80.1366 175.109 79.0714C175.109 78.0063 175.98 77.1429 177.054 77.1429C178.129 77.1429 179 78.0063 179 79.0714C179 80.1366 178.129 81 177.054 81Z" fill="#21B5E8"/>
<path d="M157.598 3.85714C156.523 3.85714 155.652 2.99369 155.652 1.92857C155.652 0.86345 156.523 -9.82489e-07 157.598 -9.35519e-07C158.672 -8.88548e-07 159.543 0.86345 159.543 1.92857C159.543 2.99369 158.672 3.85714 157.598 3.85714Z" fill="#21B5E8"/>
<path d="M157.598 23.1429C156.523 23.1429 155.652 22.2794 155.652 21.2143C155.652 20.1492 156.523 19.2857 157.598 19.2857C158.672 19.2857 159.543 20.1492 159.543 21.2143C159.543 22.2794 158.672 23.1429 157.598 23.1429Z" fill="#21B5E8"/>
<path d="M157.598 42.4286C156.523 42.4286 155.652 41.5651 155.652 40.5C155.652 39.4349 156.523 38.5714 157.598 38.5714C158.672 38.5714 159.543 39.4349 159.543 40.5C159.543 41.5651 158.672 42.4286 157.598 42.4286Z" fill="#21B5E8"/>
<path d="M157.598 61.7143C156.523 61.7143 155.652 60.8508 155.652 59.7857C155.652 58.7206 156.523 57.8571 157.598 57.8571C158.672 57.8571 159.543 58.7206 159.543 59.7857C159.543 60.8508 158.672 61.7143 157.598 61.7143Z" fill="#21B5E8"/>
<path d="M157.598 81C156.523 81 155.652 80.1366 155.652 79.0714C155.652 78.0063 156.523 77.1429 157.598 77.1429C158.672 77.1429 159.543 78.0063 159.543 79.0714C159.543 80.1366 158.672 81 157.598 81Z" fill="#21B5E8"/>
<path d="M138.141 3.85714C137.067 3.85714 136.196 2.99369 136.196 1.92857C136.196 0.863449 137.067 -1.83296e-06 138.141 -1.78599e-06C139.216 -1.73902e-06 140.087 0.863449 140.087 1.92857C140.087 2.99369 139.216 3.85714 138.141 3.85714Z" fill="#21B5E8"/>
<path d="M138.141 23.1429C137.067 23.1429 136.196 22.2794 136.196 21.2143C136.196 20.1492 137.067 19.2857 138.141 19.2857C139.216 19.2857 140.087 20.1492 140.087 21.2143C140.087 22.2794 139.216 23.1429 138.141 23.1429Z" fill="#21B5E8"/>
<path d="M138.141 42.4286C137.067 42.4286 136.196 41.5651 136.196 40.5C136.196 39.4349 137.067 38.5714 138.141 38.5714C139.216 38.5714 140.087 39.4349 140.087 40.5C140.087 41.5651 139.216 42.4286 138.141 42.4286Z" fill="#21B5E8"/>
<path d="M138.141 61.7143C137.067 61.7143 136.196 60.8508 136.196 59.7857C136.196 58.7206 137.067 57.8571 138.141 57.8571C139.216 57.8571 140.087 58.7206 140.087 59.7857C140.087 60.8508 139.216 61.7143 138.141 61.7143Z" fill="#21B5E8"/>
<path d="M138.141 81C137.067 81 136.196 80.1366 136.196 79.0714C136.196 78.0063 137.067 77.1429 138.141 77.1429C139.216 77.1429 140.087 78.0063 140.087 79.0714C140.087 80.1366 139.216 81 138.141 81Z" fill="#21B5E8"/>
<path d="M118.685 3.85714C117.61 3.85714 116.739 2.99369 116.739 1.92857C116.739 0.863448 117.61 -2.68343e-06 118.685 -2.63646e-06C119.759 -2.58949e-06 120.63 0.863448 120.63 1.92857C120.63 2.99369 119.759 3.85714 118.685 3.85714Z" fill="#21B5E8"/>
<path d="M118.685 23.1429C117.61 23.1429 116.739 22.2794 116.739 21.2143C116.739 20.1492 117.61 19.2857 118.685 19.2857C119.759 19.2857 120.63 20.1492 120.63 21.2143C120.63 22.2794 119.759 23.1429 118.685 23.1429Z" fill="#21B5E8"/>
<path d="M118.685 42.4286C117.61 42.4286 116.739 41.5651 116.739 40.5C116.739 39.4349 117.61 38.5714 118.685 38.5714C119.759 38.5714 120.63 39.4349 120.63 40.5C120.63 41.5651 119.759 42.4286 118.685 42.4286Z" fill="#21B5E8"/>
<path d="M118.685 61.7143C117.61 61.7143 116.739 60.8508 116.739 59.7857C116.739 58.7206 117.61 57.8571 118.685 57.8571C119.759 57.8571 120.63 58.7206 120.63 59.7857C120.63 60.8508 119.759 61.7143 118.685 61.7143Z" fill="#21B5E8"/>
<path d="M118.685 81C117.61 81 116.739 80.1366 116.739 79.0714C116.739 78.0063 117.61 77.1429 118.685 77.1429C119.759 77.1429 120.63 78.0063 120.63 79.0714C120.63 80.1366 119.759 81 118.685 81Z" fill="#21B5E8"/>
<path d="M99.2283 3.85714C98.1537 3.85714 97.2826 2.99369 97.2826 1.92857C97.2826 0.863447 98.1537 -3.5339e-06 99.2283 -3.48693e-06C100.303 -3.43996e-06 101.174 0.863447 101.174 1.92857C101.174 2.99369 100.303 3.85714 99.2283 3.85714Z" fill="#21B5E8"/>
<path d="M99.2283 23.1429C98.1537 23.1429 97.2826 22.2794 97.2826 21.2143C97.2826 20.1492 98.1537 19.2857 99.2283 19.2857C100.303 19.2857 101.174 20.1492 101.174 21.2143C101.174 22.2794 100.303 23.1429 99.2283 23.1429Z" fill="#21B5E8"/>
<path d="M99.2283 42.4286C98.1537 42.4286 97.2826 41.5651 97.2826 40.5C97.2826 39.4349 98.1537 38.5714 99.2283 38.5714C100.303 38.5714 101.174 39.4349 101.174 40.5C101.174 41.5651 100.303 42.4286 99.2283 42.4286Z" fill="#21B5E8"/>
<path d="M99.2283 61.7143C98.1537 61.7143 97.2826 60.8508 97.2826 59.7857C97.2826 58.7206 98.1537 57.8571 99.2283 57.8571C100.303 57.8571 101.174 58.7206 101.174 59.7857C101.174 60.8508 100.303 61.7143 99.2283 61.7143Z" fill="#21B5E8"/>
<path d="M99.2283 81C98.1537 81 97.2826 80.1366 97.2826 79.0714C97.2826 78.0063 98.1537 77.1429 99.2283 77.1429C100.303 77.1429 101.174 78.0063 101.174 79.0714C101.174 80.1366 100.303 81 99.2283 81Z" fill="#21B5E8"/>
<path d="M79.7717 3.85714C78.6972 3.85714 77.8261 2.99369 77.8261 1.92857C77.8261 0.863446 78.6972 -4.38438e-06 79.7717 -4.33741e-06C80.8463 -4.29043e-06 81.7174 0.863447 81.7174 1.92857C81.7174 2.99369 80.8463 3.85714 79.7717 3.85714Z" fill="#21B5E8"/>
<path d="M79.7717 23.1429C78.6972 23.1429 77.8261 22.2794 77.8261 21.2143C77.8261 20.1492 78.6972 19.2857 79.7717 19.2857C80.8463 19.2857 81.7174 20.1492 81.7174 21.2143C81.7174 22.2794 80.8463 23.1429 79.7717 23.1429Z" fill="#21B5E8"/>
<path d="M79.7717 42.4286C78.6972 42.4286 77.8261 41.5651 77.8261 40.5C77.8261 39.4349 78.6972 38.5714 79.7717 38.5714C80.8463 38.5714 81.7174 39.4349 81.7174 40.5C81.7174 41.5651 80.8463 42.4286 79.7717 42.4286Z" fill="#21B5E8"/>
<path d="M79.7717 61.7143C78.6972 61.7143 77.8261 60.8508 77.8261 59.7857C77.8261 58.7206 78.6972 57.8571 79.7717 57.8571C80.8463 57.8571 81.7174 58.7206 81.7174 59.7857C81.7174 60.8508 80.8463 61.7143 79.7717 61.7143Z" fill="#21B5E8"/>
<path d="M79.7717 81C78.6972 81 77.8261 80.1366 77.8261 79.0714C77.8261 78.0063 78.6972 77.1429 79.7717 77.1429C80.8463 77.1429 81.7174 78.0063 81.7174 79.0714C81.7174 80.1366 80.8463 81 79.7717 81Z" fill="#21B5E8"/>
<path d="M60.3152 3.85714C59.2407 3.85714 58.3696 2.99369 58.3696 1.92857C58.3696 0.863446 59.2407 -5.23485e-06 60.3152 -5.18788e-06C61.3898 -5.14091e-06 62.2609 0.863446 62.2609 1.92857C62.2609 2.99369 61.3898 3.85714 60.3152 3.85714Z" fill="#21B5E8"/>
<path d="M60.3152 23.1429C59.2407 23.1429 58.3696 22.2794 58.3696 21.2143C58.3696 20.1492 59.2407 19.2857 60.3152 19.2857C61.3898 19.2857 62.2609 20.1492 62.2609 21.2143C62.2609 22.2794 61.3898 23.1429 60.3152 23.1429Z" fill="#21B5E8"/>
<path d="M60.3152 42.4286C59.2407 42.4286 58.3696 41.5651 58.3696 40.5C58.3696 39.4349 59.2407 38.5714 60.3152 38.5714C61.3898 38.5714 62.2609 39.4349 62.2609 40.5C62.2609 41.5651 61.3898 42.4286 60.3152 42.4286Z" fill="#21B5E8"/>
<path d="M60.3152 61.7143C59.2407 61.7143 58.3696 60.8508 58.3696 59.7857C58.3696 58.7206 59.2407 57.8571 60.3152 57.8571C61.3898 57.8571 62.2609 58.7206 62.2609 59.7857C62.2609 60.8508 61.3898 61.7143 60.3152 61.7143Z" fill="#21B5E8"/>
<path d="M60.3152 81C59.2407 81 58.3696 80.1366 58.3696 79.0714C58.3696 78.0063 59.2407 77.1429 60.3152 77.1429C61.3898 77.1429 62.2609 78.0063 62.2609 79.0714C62.2609 80.1366 61.3898 81 60.3152 81Z" fill="#21B5E8"/>
<path d="M40.8587 3.85714C39.7841 3.85714 38.913 2.99369 38.913 1.92857C38.913 0.863445 39.7841 -6.08532e-06 40.8587 -6.03835e-06C41.9332 -5.99138e-06 42.8044 0.863445 42.8044 1.92857C42.8044 2.99369 41.9332 3.85714 40.8587 3.85714Z" fill="#21B5E8"/>
<path d="M40.8587 23.1429C39.7841 23.1429 38.913 22.2794 38.913 21.2143C38.913 20.1492 39.7841 19.2857 40.8587 19.2857C41.9332 19.2857 42.8044 20.1492 42.8044 21.2143C42.8044 22.2794 41.9332 23.1429 40.8587 23.1429Z" fill="#21B5E8"/>
<path d="M40.8587 42.4286C39.7841 42.4286 38.913 41.5651 38.913 40.5C38.913 39.4349 39.7841 38.5714 40.8587 38.5714C41.9332 38.5714 42.8044 39.4349 42.8044 40.5C42.8043 41.5651 41.9332 42.4286 40.8587 42.4286Z" fill="#21B5E8"/>
<path d="M40.8587 61.7143C39.7841 61.7143 38.913 60.8508 38.913 59.7857C38.913 58.7206 39.7841 57.8571 40.8587 57.8571C41.9332 57.8571 42.8043 58.7206 42.8043 59.7857C42.8043 60.8508 41.9332 61.7143 40.8587 61.7143Z" fill="#21B5E8"/>
<path d="M40.8587 81C39.7841 81 38.913 80.1366 38.913 79.0714C38.913 78.0063 39.7841 77.1429 40.8587 77.1429C41.9332 77.1429 42.8043 78.0063 42.8043 79.0714C42.8043 80.1366 41.9332 81 40.8587 81Z" fill="#21B5E8"/>
<path d="M21.4022 3.85714C20.3276 3.85714 19.4565 2.99369 19.4565 1.92856C19.4565 0.863444 20.3276 -6.93579e-06 21.4022 -6.88882e-06C22.4767 -6.84185e-06 23.3478 0.863444 23.3478 1.92856C23.3478 2.99369 22.4767 3.85714 21.4022 3.85714Z" fill="#21B5E8"/>
<path d="M21.4022 23.1429C20.3276 23.1429 19.4565 22.2794 19.4565 21.2143C19.4565 20.1492 20.3276 19.2857 21.4022 19.2857C22.4767 19.2857 23.3478 20.1492 23.3478 21.2143C23.3478 22.2794 22.4767 23.1429 21.4022 23.1429Z" fill="#21B5E8"/>
<path d="M21.4022 42.4286C20.3276 42.4286 19.4565 41.5651 19.4565 40.5C19.4565 39.4349 20.3276 38.5714 21.4022 38.5714C22.4767 38.5714 23.3478 39.4349 23.3478 40.5C23.3478 41.5651 22.4767 42.4286 21.4022 42.4286Z" fill="#21B5E8"/>
<path d="M21.4022 61.7143C20.3276 61.7143 19.4565 60.8508 19.4565 59.7857C19.4565 58.7206 20.3276 57.8571 21.4022 57.8571C22.4767 57.8571 23.3478 58.7206 23.3478 59.7857C23.3478 60.8508 22.4767 61.7143 21.4022 61.7143Z" fill="#21B5E8"/>
<path d="M21.4022 81C20.3276 81 19.4565 80.1366 19.4565 79.0714C19.4565 78.0063 20.3276 77.1429 21.4022 77.1429C22.4767 77.1429 23.3478 78.0063 23.3478 79.0714C23.3478 80.1366 22.4767 81 21.4022 81Z" fill="#21B5E8"/>
<path d="M1.94565 3.85714C0.871094 3.85714 -1.30858e-07 2.99368 -8.43006e-08 1.92856C-3.77426e-08 0.863443 0.871094 -7.78626e-06 1.94565 -7.73929e-06C3.0202 -7.69232e-06 3.8913 0.863443 3.8913 1.92856C3.8913 2.99368 3.0202 3.85714 1.94565 3.85714Z" fill="#21B5E8"/>
<path d="M1.94565 23.1429C0.871093 23.1429 -9.73864e-07 22.2794 -9.27306e-07 21.2143C-8.80748e-07 20.1492 0.871093 19.2857 1.94565 19.2857C3.0202 19.2857 3.8913 20.1492 3.8913 21.2143C3.8913 22.2794 3.0202 23.1429 1.94565 23.1429Z" fill="#21B5E8"/>
<path d="M1.94565 42.4286C0.871092 42.4286 -1.81687e-06 41.5651 -1.77031e-06 40.5C-1.72375e-06 39.4349 0.871092 38.5714 1.94565 38.5714C3.0202 38.5714 3.89129 39.4349 3.89129 40.5C3.89129 41.5651 3.0202 42.4286 1.94565 42.4286Z" fill="#21B5E8"/>
<path d="M1.94565 61.7143C0.871091 61.7143 -2.65987e-06 60.8508 -2.61332e-06 59.7857C-2.56676e-06 58.7206 0.871091 57.8571 1.94565 57.8571C3.0202 57.8571 3.89129 58.7206 3.89129 59.7857C3.89129 60.8508 3.0202 61.7143 1.94565 61.7143Z" fill="#21B5E8"/>
<path d="M1.94564 81C0.87109 81 -3.50288e-06 80.1366 -3.45632e-06 79.0714C-3.40976e-06 78.0063 0.87109 77.1429 1.94564 77.1429C3.0202 77.1429 3.89129 78.0063 3.89129 79.0714C3.89129 80.1366 3.0202 81 1.94564 81Z" fill="#21B5E8"/>
</svg>
